<?xml version="1.0" encoding="UTF-8"?><svg xmlns="http://www.w3.org/2000/svg" viewBox="0 0 1020 650"><defs><style>.d{fill:#f2eceb;}.e{fill:#010101;}.f{fill:#696867;}.g{fill:#69393b;}.h{fill:#676564;}.i{fill:#6a6766;}.j{fill:#eaeae7;}.k{fill:#e8e2df;}.l{fill:#fff;}.m{fill:#e5eee5;}.n{fill:#e3b663;}.o{fill:#e4e6e4;}.p{fill:#7d7b7a;}.q{fill:#7e5749;}.r{fill:#7d7c7a;}.s{fill:#7d7d7d;}.t{fill:#7d7d7b;}.u{fill:#7f7e7c;}.v{fill:#66393b;}.w{fill:#686665;}.x{fill:#65483f;}.y{fill:#656361;}.a`{fill:#656362;}.aa{fill:#656463;}.ab{fill:#655852;}.ac{fill:#989695;}.ad{fill:#969594;}.ae{fill:#6c6a69;}.af{fill:#848382;}.ag{fill:#b67760;}.ah{fill:#b67c3c;}.ai{fill:#8e3a44;}.aj{fill:#8d592f;}.ak{fill:#b47a3b;}.al{fill:#c1e0ed;}.am{fill:#734c43;}.an{fill:#332f2c;}.ao{fill:#302d2a;}.ap{fill:#302d2b;}.aq{fill:#302d2c;}.ar{fill:#8e5e33;}.as{fill:#8d8a8a;}.at{fill:#8c8a89;}.au{fill:#8c8a88;}.av{fill:#858483;}.aw{fill:#b27439;}.ax{fill:#b2783a;}.ay{fill:#b27638;}.b`{fill:#b27538;}.ba{fill:#b2753a;}.bb{fill:#af4a51;}.bc{fill:#b3793c;}.bd{fill:#b3793b;}.be{fill:#ab6b34;}.bf{fill:#ab6c34;}.bg{fill:#b17537;}.bh{fill:#ae7036;}.bi{fill:#af7337;}.bj{fill:#af7136;}.bk{fill:#bc7a63;}.bl{fill:#ae4951;}.bm{fill:#ae4851;}.bn{fill:#d4a14b;}.bo{fill:#b07438;}.bp{fill:#b07437;}.bq{fill:#ad6f36;}.br{fill:#ad7035;}.bs{fill:#ad7136;}.bt{fill:#c5c2c1;}.bu{fill:#c5c2c0;}.bv{fill:#428fb0;}.bw{fill:#403130;}.bx{fill:#355360;}.by{fill:#959290;}.c`{fill:#868383;}.ca{fill:#895e4e;}.cb{fill:#9b6754;}.cc{fill:#706c6b;}.cd{fill:#6c905f;}.ce{fill:#81b479;}.cf{fill:#646261;}.cg{fill:#62615f;}.ch{fill:#312d2b;}.ci{fill:#3992b1;}.cj{fill:#3d3836;}.ck{fill:#3c5f6e;}.cl{fill:#393636;}.cm{fill:#2f2c2a;}.cn{fill:#4c3935;}.co{fill:#726f6f;}.cp{fill:#62605f;}.cq{fill:#603b39;}.cr{fill:#46a5d0;}.cs{fill:#817f7e;}.ct{fill:#312e2c;}</style></defs><g id="a"/><g id="b"><g id="c"><g><path class="j" d="M.14,649.91C.14,434.8,.16,219.7,0,4.59,0,.85,1.32,0,7.2,0,342.41,.11,677.59,.11,1012.8,0c5.88,0,7.2,.84,7.2,4.59-.17,213.6-.17,427.21,0,640.82,0,3.75-1.32,4.6-7.2,4.59-118.34-40-370.98-65-1012.64-.09h-.02Z"/><g><path class="n" d="M537.22,244.08c-2.11-12.71,1.81-23.81,9.74-33.46,9.36-11.37,22.04-18.59,34.5-25.9,19.44-11.4,40.15-19.71,62.74-21.84,15.78-1.5,31.81-2.41,46.47,5.87,5.01,2.83,9.42,6.47,12.53,11.45-.38,10.42-3.08,19.8-12.01,26.32-1.54,.09-2.96,.35-3.2,2.29-4.94,4.76-11.19,7.37-17.21,10.23-3.53,1.68-6.87,4.27-11.15,4.02-.83-.04-.85-1.47-1.79-1.12-.22,.08,.03,1.01-.21,1.52-4.46,3.37-9.87,3.86-15.06,5.04-4.98-1.3-1.54-4.25-.94-7.03-4.36,1.61-5.13,6.46-8.86,7.95-2.57,.61-5.12,.32-7.67-.11-5.71-.96-10.95-.29-15.87,3.3-7.89,5.76-17.35,7.18-26.68,8.79-4.78-.03-8.46-3.61-13.36-4.33,.28,2,2.76,2.37,2.6,4.27-1,1.73-2.73,1.93-4.44,2-10.04,.43-20.1,.35-30.14,.76h0Z"/><path class="cm" d="M389.01,309.46c11.28,43.56,21.11,87.3,18.28,132.82-1.15,18.56-1.75,37.15-2.61,55.73-.03,.83,.09,1.74-.69,2.37-5.23,1.99-10.45,2.01-15.67-.02-2.93-8.39-3.66-17.23-5.47-25.85-5.41-25.68-9-51.58-7.14-77.9,.41-5.81-.81-10.21-4.58-14.68-5.73-6.79-9.76-14.75-13.36-22.87-.84-.83-1.02-1.84-.79-2.96,2.12-7.41,3.41-14.98,4.66-22.58,.5-3.02-.43-4.42-3.28-5.31-7.89-2.47-15.72-5.09-23.34-8.32-3.82-1.62-7.58-3.35-10.85-5.91-1-.78-3.16-1.51-1.29-3.5,4.17-1.02,8.23,.35,12.32,.65,8.28,.59,16.56,.68,24.83,.07,3.53-.47,6.73,.94,9.98,1.92,2.73,.82,5.37,1.9,8.28,2.03,3.36,.14,6.18-.71,8.17-3.63,.62-.91,1.18-2.01,2.55-2.05v-.02Z"/><path class="bm" d="M535.68,202.99c-.14,5.97,.21,12-.52,17.9-1.5,12.11-8.39,20.84-18.54,27.2-10.09-9.48-20.71-18.46-28.07-30.44-1.73-2.8-3.15-5.78-3.85-9.03-.16-.75-.33-1.5-.53-2.24-.15-.55-.19-1.12-.11-1.68,.37-1.05-.17-1.7-.97-2.26-.28-.28-.46-.62-.55-1-.1-2.18,3.41-4.32,.09-6.55-.42-.73-.49-1.55-.36-2.48-1.63,1.46-3.29,2.33-4.95,3.21-2.11-.03-4.29,.2-5.77-1.81,.06-4.07,3.1-5.62,6.17-6.86,2.96-1.2,4.08-3.15,4.03-6.28-.23-15.89,.34-31.8-.35-47.69,2.61-1.17,5.11-.3,7.35,.84,13.12,6.69,26.82,10.58,41.7,9.71,3.88-.22,5.12,2.2,5.11,5.81-.04,17.18,.02,34.37,.04,51.54,.5,.68-.22,1.41,.09,2.1h0Z"/><path class="bn" d="M581.63,240.78c3.38-1.62,7.12-1.82,10.7-2.49,6.29-1.17,12.1-3.42,17.08-7.24,4.78-3.66,10.03-3.85,15.38-3.04,2.85,.43,5.62,.49,8.45,.57,3.22,3.13,5.84,2.88,8.82-.83,5.16-1.65,10.74-2.04,15.44-5.1,.53-.49,1.08-.58,1.65-.07,10.23-3.4,19.78-8.09,28.43-14.55,.87-.65,1.73-1.32,2.69-1.81,6.26-4.86,9.76-11.3,11.11-19.04,.41-2.37,1.19-4.66,1.81-6.98,4.51,4.7,6.81,10.56,8.29,16.68,1.03,4.27,2.51,8.16,5.46,11.43,2.14,2.21,1.11,4.55,.14,6.77-2.18,4.98-5.83,8.76-10.05,12.07-10.29,8.07-22.18,13.08-34.27,17.46-25.04,9.05-50.76,15.92-76.72,21.75-14.88,3.35-29.99,4.12-45.16,2.08-2.22-.3-4.67-.3-5.85-2.82-5.66-3.93-5.87-4.55-3.06-10.55,.95-2.02,.48-3.53-1.14-4.92-1.87-1.6-3.47-3.41-3.62-6.05,1.9-1.07,3.94-1.27,6.1-1.29,7.85-.07,15.7-.24,23.56-.47,1.52-.04,3.04-.55,4.55-.83,2.83,3.6,7.66,3.27,10.21-.71h0Z"/><path class="n" d="M659.31,390.37c-18.07,3.61-36.16,5.16-54.19-.11-13.29-3.88-24.12-10.92-29.96-24.12,5.31-1.63,10.11,.17,14.84,2.27,1.03,.46,1.62,2.21,3.14,.89,1.63-3.43,4.1-4.2,7.39-2.35,1.57,2.61,3.2,.79,4.82,.04,5.74-.77,11.58,.06,17.31-.97,1.26-.22,2.51,.24,3.66,.84,1.01,.65,1.96,.37,2.9-.22,1.55-1.19,3.36-1.45,5.24-1.71,20.14-2.76,39.5-8.21,57.87-17,.36-.21,.75-.4,1.13-.57,7.92-3.32,15.28-7.66,22.5-12.28,.32-.24,.65-.46,.99-.66,4.82-2.7,8.73-6.57,13.01-9.95,.4-.44,.8-.88,1.17-1.35,3.65-4.57,6.33-9.65,8.63-15.02,1.12-2.62,1.79-6.06,5.65-6.47,4.47,17.8,.94,34-10.31,48.33-12.11,15.44-28.65,24.62-46.52,31.69-7.56,2.99-15.22,5.71-23.3,7.03-1.14-1.46-.23-2.74,.49-3.93,1.35-2.19,2.45-4.52,3.82-6.71,1.52-2.43,3.22-4.48,6.69-3.15-1.32-4.43-2.32-5.55-6.61-7.22,2.67,4.39-.38,7.07-2.15,10.07-1.81,3.08-3.56,6.19-5.17,9.38-.66,1.32-.97,3.12-3.01,3.21v.03Z"/><path class="d" d="M313.6,283.64c-1.3-1.13-.78-2.66-.85-4.03-.15-2.85,.85-6.02-3.27-7.27-1.63-.49-1.37-2.63-.89-3.82,3.85-9.43,2.78-19.66,5.02-29.34,3.32-14.29,9.45-26.65,23.42-33.45,4.52-2.19,9.4-3.26,14.39-3.79-2.49,9,3.69,17.08,13.36,17.52,3.29,.15,4.54-1.89,5.06-4.64,.45-2.39,.14-4.82,.25-7.23,.08-1.66-.32-3.47,1.19-4.78,13.33,2.67,25.73,8.02,38.23,13.12,1.84,.75,3.68,1.53,5.72,1.6,1.03,1.42,.4,2.77-.3,4.01-4.72,8.34-9.2,16.82-14.02,25.1-.71,1.21-1.32,2.6-2.89,3-1.69-.08-3.46,.09-4.62-1.55,1.14-2.13,.65-3.93-.91-5.69-1.38-1.57-3.22-2.79-3.93-4.89-.03-1.8,.39-3.55,.4-4.66-.08,1.55-.74,3.72-.45,5.98-.1,3.03-1.85,5.83-1.25,8.96-.28,2.29-.35,4.67-2.51,6.2-7.34-.35-14.4,1.59-21.54,2.84-7.46,1.31-14.47,.44-20.72-4.13-1.65,.59-.83,2.17-1.29,3.22-.53,1.88-.72,3.81-.69,5.76-.27,2.38-.95,4.69-1.26,7.05-.52,4.15-2.67,6.67-6.87,7.34-4.58,.54-9.06-.65-13.58-.95-2.76-.19-4.02,.45-3.98,3.33,.03,1.8,.29,3.75-1.23,5.23v-.02Z"/><path class="cr" d="M357.61,356.75c.05,.77,.11,1.55,.16,2.32-1.66,.81-1.64,2.56-2.19,3.97-2.51,6.45-5.66,12.54-10.33,17.7-9.13,10.09-17.71,11.32-29.42,4.36-13.03-7.74-23-18.82-32.59-30.23-11.62-13.83-21.91-28.64-31.53-43.92-.91-1.45-2.74-2.76-1.75-4.95,2.81-4.37,6.47-7.92,10.68-10.93,6.34,3.15,11.28,8.16,16.68,12.55,12.74,10.36,25.29,20.94,36.4,33.09,2.4,2.63,4.54,5.5,6.79,8.26,2.4-.15,1.01-1.67,.98-2.69-.56-8.83-1.64-17.65-1.06-26.52,1.09-.45,1.61,.36,1.99,1.08,5.43,10.17,13.97,17.43,22.73,24.53,3.53,2.86,6.93,5.88,10.49,8.72,.89,.71,1.72,1.5,1.98,2.69l-.02-.02Z"/><path class="bn" d="M626.64,368.68c-1.15-1.12-2.41-2.06-4.14-1.63-6.05,1.52-12.2,.53-18.31,.83-1.11,.58-2.21,.53-3.32,0-3.19-1.54-5.81-1.58-6.85,2.6-.95-.59-1.08-1.6-1.22-2.58-.44-2.94,.02-5.04-5.03-3.51-4.31,1.3-10.29,.32-14.55-3.38-.95-4.41-1.99-8.76-5.06-12.32-1.44-1.66-.92-3.73-.87-5.68,.74-2.42,2.04-3.93,4.85-3.01,.5,1.07,.29,2.34,1.86,3.03,2.74,1.22,5.52,2.16,8.46,2.7,11.11,1.2,22.22,2.07,33.39,1.18,.46-.05,.91-.05,1.37-.03,2.46,.03,4.94,.32,7.37-.38,.65-.17,1.32-.28,1.99-.34,10.9-.85,21.52-3.26,31.99-6.21,17.05-4.81,33.22-11.68,48.11-21.4,6.02-3.93,11.69-8.28,16.28-13.88,3.55-3.4,5.54-7.75,7.4-12.19,.58-1.38,.59-3.1,2.24-3.87,7.53,1.12,11.59,5.64,12.77,13-2.68,1.87-4.02,4.72-5.1,7.6-2.06,5.49-4.84,10.48-8.82,14.79-.35-.07-.77-.35-1.06-.06-.32,.33,.15,.64,.23,.97-4.39,3.71-8.25,8.12-13.79,10.26-.17-.35-.22-.75-.36-1.11,.07,.39,.17,.76,.35,1.1-7.04,5.55-14.83,9.79-23.22,12.9-.3-.22-.41-.65-.83-.72,.32,.2,.55,.48,.83,.72-8.55,5.19-17.97,8.26-27.43,11.17-10.97,3.39-22.17,5.82-33.64,6.91-1.42,.14-2.23,1.19-3.36,1.73-1.16-.77-1.88-.09-2.54,.79h0Z"/><path class="ce" d="M552.55,303.43c-2.22-2.24-3.45-4.99-3.28-8.1,.15-2.77-.92-3.47-3.48-3.22-2.26,.22-4.56,0-6.85-.02,.38-2.22,2.24-1.57,3.59-1.76,1.59-.24,3.29,.18,4.82-.58-.27-.96-1.07-1.07-1.55-1.53-.24-.32-.34-.68-.28-1.08,.29-.33,.64-.52,1.09-.37-.19-.45-.55-.12-.72-.06-.95,.29-1.88,.59-2.9,.42-.63-.1-1.18-.35-1.62-.82-7.64-2.73-8.45-9.66-1.84-15.82,.75,.16,1.32,.62,1.63,1.28,3.04,6.45,9.14,6.47,14.34,4.99q5.67-1.61,9.18,2.92c2.36,3.02,5.35,4.12,9.12,3.07,2.12-.58,3.94-1.66,5.6-3.06,1.52-1.29,2.66-3.23,4.64-3.71,2.72-.65,2.61,2.52,4.18,3.59,2.14,1.48,4.25,2.3,6.82,1.44,1.37-.46,2.82-.89,3.8-1.93,4.61-4.9,9.62-7.48,16.21-3.6,1.32,.78,2.78,0,3.92-1.01,1.19-1.06,2.14-2.3,3.09-3.57,2.83-3.76,6.08-4.86,10.84-3.22,9.63,3.32,18.76-.42,23.01-8.8,.85-1.68,1.26-3.5,1.78-5.28,.78-2.66,2.1-3.7,4.58-1.63,.88,.74,1.83,1.38,2.85,1.91,7.51,3.97,14.15,1.21,16.12-7.04,.8-3.35,2.39-3.82,5.21-2.8,1.48,.53,2.98,1.05,4.54,1.29,5.85,.89,8.98-1.16,10.11-7,.47-2.43,1.38-3.55,3.97-3.11,4.61,.78,8.37-.97,11.69-4.09,5.21-4.9,8.88-10.78,11.49-17.4,.67-1.7,.81-3.67,2.37-4.95,4.67,.99,7.7,3.76,8.57,8.45,.78,4.21-.87,7.57-4.36,10.01-2.66,1.87-5.75,1.32-8.95,1.35,.43,2.09,.83,3.98,1.22,5.87-.12,.26-.11,.64-.28,.78-4.2,3.68-3.62,8.46-3.09,13.24-.63,2.73-1.29,5.45-2.86,7.84-7.31,8.38-14.55,10.48-23.1,6.85-2.67-1.14-4.65-3.21-6.87-5.1-5.82,15.86-14.7,20.61-23.1,12.13-1.83,4.66-4.09,8.9-9.03,10.77-4.9,1.86-9.52,1.42-14.06-1.94-1.27,2.32-1.89,4.81-3.68,6.71-5.92,6.28-13.86,6.27-19.33-.45-1.82-2.24-2.62-2.67-4.59-.09-3.9,5.11-7.4,5.92-13.43,3.59-2.37-.91-3.87-.46-4.74,1.9-.85,2.3-1.85,4.47-3.58,6.29-5.03,5.29-12.62,5.62-17.41,.19-2.4-2.72-3.23-1.9-4.79,.52-3.65,5.62-8.52,9.15-15.69,8.49-2.17-.2-3.88-.81-4.91-2.8h-.03Z"/><path class="n" d="M398.01,249.4c5.46-9.68,10.94-19.36,16.36-29.07,.47-.84,.58-1.88,.87-2.83,3.36-2.87,4.56-7.11,6.61-10.78,3.58-6.43,7.75-12.56,10.45-19.46,3.61-10.6,10.61-18.47,19.83-24.55,2.27-1.5,4.58-2.95,6.96-4.27,2.73-1.52,4.06-.87,4.28,2.25,.77,10.7,.24,21.24-4.97,30.96-2.5,4.67-4.88,9.41-7.87,13.8-6.16,10.85-11.82,22-18.36,32.64-4.37,4.09-6.31,9.72-9.12,14.77-7.4,13.3-15.22,26.36-21.91,40.04-1.51,.76-2.79-.1-3.98-.77-5.34-2.93-10.63-5.97-15.96-8.9-.75-.41-1.43-.94-1.64-1.85,.63-2.67,2.49-4.69,3.69-7.06,3.61-6.98,7.7-13.7,11.38-20.65,.84-1.59,1.58-3.41,3.41-4.28h0Z"/><path class="be" d="M720.21,255.92l2.61-7.51c.8-1.23,.8-2.67,.77-4.01-.08-5.25-.14-5.25,5.39-4.76,1.65,3.21,2.38,6.71,3.19,10.18,.22,.98,.17,2.06,1.57,2.14-.65,2.76-3.09,2.73-4.95,2.52-2.55-.29-.95-3.13-1.88-4.64-3.55,3.88-3.81,7.48-.84,12.57,1.28-1.68,.11-4.63,2.8-5.31,1.33-.34,2.72-1.14,3.97,.24,1.18,5.23-1.38,9.19-4.68,12.67-6.3,6.64-14.41,10.82-22.28,15.11-33.84,18.44-70.01,30.31-107.9,36.91-10,1.75-20.17,2.53-30.27,.41-2.46-.52-5.19-.82-6.41-3.64-.66-.81-1.32-1.61-1.98-2.42,4.8-2.43,8.8-5.69,11.64-10.38,1.45-2.41,3.1-2.24,5.07-.04,6.6,7.37,14,6.09,18.09-2.96,2.76-6.11,2.77-6.14,9.21-3.92,3.33,1.14,6.16,.52,8.66-1.97,1.44-1.44,2.55-3.08,3.55-4.82,1.36-2.36,2.63-2.38,3.8,.17,.66,1.43,1.38,2.83,2.52,3.96,6.24,6.18,15.22,3.78,17.9-4.81,.89-2.87,2.57-3.53,5.03-1.97,6.88,4.36,14.52,1.85,17.88-6.18,1.28-3.06,2.15-4.21,5.36-1.87,5.22,3.82,11.24,2.38,14.79-3.07,1.91-2.93,2.7-6.29,3.58-9.62,.66-2.49,1.85-3.58,3.9-.99,.35,.45,.77,.85,1.19,1.24,4.74,4.36,10.19,6.6,16.54,4.47,6.21-2.09,9.74-6.8,11.03-13.18,.31-1.55,.43-3.12,1.18-4.54h-.02Z"/><path class="cm" d="M485.55,207.99c2.26,8.06,6.91,14.68,12.6,20.61,5.14,5.36,10.5,10.52,15.73,15.8,1.08,1.09,2.53,1.95,2.73,3.7-8.64,6.07-17.26,12.18-25.95,18.19-4.95,3.43-8.57,3.47-13.41,.11-9.86-6.83-19.67-13.73-29.46-20.64-3.88-2.73-7.28-5.96-9.69-10.13-.25-1.93,1.44-2.29,2.55-3.01,8.5-5.56,16.67-11.56,24.49-18.05,2.19-1.81,4.58-3.5,7.74-2.42,1.07,1.34,.77,2.98,1.01,4.52,.3,1.85,1.23,3.23,3.08,3.72,1.31,.34,3.02,1.2,3.82-.47,.64-1.34-1.06-1.75-1.93-2.38-2.78-2.01-2.32-4.58-1.33-7.28,2.41-1.71,4.86-3.26,8.02-2.25h0Z"/><path class="cd" d="M730.61,208.81c-1.94,10.43-7.56,18.65-15.57,25.28-2.81,2.33-6.38,3-10.1,2.3-1.33-.26-2.84-.88-2.73,1.67,.28,6.81-5.5,10.2-12.25,8.24-4.6-1.34-6.99-2.64-8.76,3.9-2.12,7.83-12.07,8.91-19.22,3.08-.65-.53-1.25-1.15-2.11-1.95-1.97,3.14-1.82,6.85-3.88,9.81-5.18,7.48-13.68,10.74-22.38,8.06-7.04-2.17-7.28-2.09-11.62,3.78-3.35,4.52-4.95,5.2-10.52,2.52-3.68-1.78-6.17-1.2-8.64,1.69-.82,.96-1.87,1.74-2.87,2.55-6.07,4.89-11.83,3.68-15.33-3.39-3.41,2.72-5.85,6.63-10.61,7.54-5.19,1-9.13-.3-11.25-5.14-1.1-2.51-2.21-2.74-4.39-1.81-1.57,.66-3.22,1.23-4.88,1.51-7.36,1.27-10.75-.7-13.96-7.93,1.17-2.37,3.92-2.97,5.48-4.9,4.09,1.96,8.56,2.21,12.94,2.48,15.8,.95,31.28-1.14,46.63-4.93,22.46-5.56,44.83-11.42,66.61-19.26,12.5-4.51,24.87-9.49,35.44-17.92,3.27-2.61,6.11-5.6,8.33-9.15,1.63-2.61,2.68-5.36,1.98-8.51,4.58-.48,9.16-1.17,13.66,.52v-.02Z"/><path class="cm" d="M353.11,196.91c-3.86-1.02-7.94-1.56-11.53-3.16-6.11-2.74-11.17-7.53-13.78-13.42-4.53-10.23-4.69-15.97,0-26.36,2.84-6.29,7.94-11.84,15.28-13.96,6.26-1.81,12.23-3.2,19.13-.94,11.34,3.72,20.05,13,21.12,24.91,.38,1.08,.74,2.15-.52,2.93-1.84-.22-3.67-.21-5.54,.03-2.71,.33-4.2,1.57-4.1,4.42,.09,2.81-.77,5.01-3.67,6.09-2,.74-1.79,2.54-1.94,4.32-.46,5.7-3.12,10.34-7.68,13.76-1.97,1.48-4.21,2.52-6.79,1.38h.02Z"/><path class="cm" d="M449.34,205.43c4.98-8.95,10.91-17.49,12.59-27.93,1.02-6.33,.51-12.68,.51-19.51-11.33,5.91-20.98,12.7-26.76,23.88-.97,1.88-2.25,3.59-3.39,5.39-.05-12.85-.12-25.69-.14-38.54,0-2.92,1.15-5.35,4.39-5.16,15.74,.94,30.17-3.4,43.99-10.42,.24-.12,.56-.11,.84-.16,1.98,.5,1.56,2.11,1.56,3.47,.02,15.54-.03,31.09,.06,46.63,.02,2.37-.63,3.72-3.01,4.31-3.75,.92-6.73,2.92-8.22,6.68-5.81,4.39-11.42,9.07-18.31,11.74-1.29,.5-3,2.34-4.1-.4v.02Z"/><path class="bt" d="M561.29,318.82c8.63,4.88,18.15,4.27,27.24,3.11,42.99-5.47,83.37-19.13,121.18-40.31,4.61-2.58,9.06-5.48,13.36-8.55,5.44-3.88,9.37-8.82,9.42-15.97,.48-1.46,1.38-1.77,2.7-1,4.01,10.35,.85,21.01-8.22,27.3-15.85,10.99-32.95,19.64-50.8,26.85-19.04,7.68-38.65,13.52-58.59,18.33-6.97,1.68-13.98,3.08-21.15,3.55-1.75,.11-3.33,.81-5.01,1.16-.71,.14-1.42,.13-2.13,.03-4.27-.75-8.57-.14-12.86-.34-4.95-.23-9.7-1.1-13.54-4.57-1.81-1.63-3.64-3.31-3.42-6.11,0-1.48,1.26-2.3,1.83-3.48h0Z"/><path class="aj" d="M720.21,255.92c1.77,10.13-8.26,22.26-20.59,19.09-4.76-1.22-8.51-3.9-11.61-8.19-1.62,5.74-2.24,11.7-7.2,15.53-5.12,3.94-9.49,3.5-16.03-1.75-.96,5.56-4.21,9.44-9.06,11.52-5.27,2.26-9.92,.23-14.22-3.78-.4,3.29-1.09,6.34-3.23,8.64-2.18,2.34-4.9,3.91-8.2,4.14-5.01,.34-9.67-3.38-12.58-10.21-1.57,2.54-2.69,5.12-4.8,7.12-3.23,3.06-6.77,3.89-10.52,1.67-3.86-2.29-5.37-1.08-6.75,2.83-3.28,9.3-11.15,12.16-17.96,6.76-1.51-1.2-2.57-2.98-4.02-4.7-4.18,4.58-6.54,11.42-14.13,11.81-3.51-3.67-5.5-8.14-6.76-12.98,5.9,3.96,13.63,1.68,18.2-4.13,1.66-2.12,3.1-4.4,4.88-6.94,1.75,2.73,3.33,5.27,6.12,6.69,5.81,2.95,13-.3,15.52-7.09,1.51-4.08,4.18-5.23,8-3.45,3.72,1.73,8.33,0,11.41-4.19,.9-1.23,1.08-2.98,2.63-3.76,7.1,12.7,20.64,11.89,24.8-3.25,9.54,7.98,19.88,2.76,23.16-8.58,2.68,3.09,5.86,5,9.92,4.5,4.14-.51,7.14-3,9.2-6.39,2-3.29,2.89-7.05,3.23-11.56,3.03,2.65,5.18,5.53,8.54,6.95,7.06,2.98,13.96,1.77,19.31-3.61,.9-.91,1.83-1.81,2.74-2.7h0Z"/><path class="bk" d="M313.6,283.64c-.04-2.4,.07-4.82-.15-7.21-.27-2.89,1.08-3.24,3.53-2.95,5.18,.63,10.39,1.01,15.58,1.51,.82,.92,.34,1.75-.16,2.56,.07,1.67,1.52,.44,2.12,.99,3.65,.91,6.89,2.73,10.17,4.46,6.69,5.25,12.53,11.58,20.23,15.6,2.77,1.44,4.78,1.69,7.28-.46,2.15-1.85,4.56-4.31,7.83-1.67-.14,2.43,.77,3.49,3.43,3.36,2.3-.11,4.22-1.57,6.52-1.42,2.89,1.91,2.94,3.82,.43,6.27-1.16,1.14-1.45,3.04-1.39,4.79-4.23,7.28-7.4,8.47-15.74,5.91-4.04-1.24-7.98-2.86-12.23-3.32-9.06-.73-17.12-4.67-25.35-8.03-3.41-1.39-6.67-3.19-9.92-4.95-2.57-1.94-5.81-3.03-7.57-5.92,.4,1.32,1.3,2.67-.96,3.2,.45-4.72-3.19-8.27-3.64-12.74h0Z"/><path class="ai" d="M589.56,332.57c.6,0,1.2,0,1.8,0,3.78-.75,6.94,1.08,10.13,2.55,10.13,4.7,20.12,4.96,30.01-.67,1.75-1,3.57-1.98,4.87-3.49,6.85-7.96,15.99-10.71,25.98-11.42,8.7-.62,16.53-3.15,22.84-9.49,7.47-7.52,17.32-9.67,27.13-11.82,2.67-.58,5.26-1.32,7.84-2.19,4.85-1.64,7.99-4.64,9.11-9.85,.49-2.27,.43-5.34,3.84-5.88,.25,2.8,.04,5.56-.52,8.31-1.69,6.17-3.92,12.06-8.79,16.54-3.09,2.33-6.81,2.95-10.43,3.67-9.88,1.97-18.86,5.58-26.19,12.81-5.38,5.31-12.37,6.91-19.57,7.77-3.84,.46-7.67,.89-11.45,1.71-4.87,1.08-9.13,3.24-12.67,6.81-4.72,4.76-10.08,8.37-16.93,9.25l-1.64,.1c-2.54,.97-5.27-.26-7.81,.71-.29,0-.58,0-.88,.02-5.13-.38-9.98-1.65-14.6-4.02-5.89-3.02-11.71-3.53-17.02,1.42-.75,.7-1.74,.96-2.77,.97-3.53,.13-6.51-1.45-9.43-3.17-1.25-.74-2.03-1.63-.17-2.63,4.01-2.97,8.54-5.05,12.8-7.59,1.24-.73,2.91-1.31,4.51-.46v.02Z"/><path class="k" d="M733.12,280.33c-1.91,1.76-2.37,4.21-2.83,6.54-1,5.19-4.18,8.15-8.98,9.96-4.98,1.87-10.14,2.97-15.29,4.09-7.83,1.72-14.96,4.79-20.68,10.59-5.84,5.93-13.15,8.43-21.2,9.03-10.7,.79-19.9,3.91-28.05,11.78-9.21,8.89-20.89,9.77-32.75,4.78-3.95-1.66-7.77-3.62-12.01-4.52,3.16-2.69,7.14-1.54,10.7-2.13,20.47-3.41,40.26-9.27,59.79-16.05,22.61-7.84,44.14-17.99,63.95-31.55,8.07-5.52,11.27-13.34,9.37-22.95-.25-1.25-.2-2.55-.28-3.84,.18-1.74,1.09-2.18,2.63-1.46,1.06,1.74,3.03,2.06,4.61,2.97,5.65,3.23,6.17,7.03,1.69,11.64-3.06,3.15-7.75,4.48-9.73,8.81-.35,.77-.65,1.56-.96,2.33l.02-.02Z"/><path class="bk" d="M353.11,196.91c8.19-1.57,13.74-8.62,13.13-16.68-.15-1.95,.58-3.76,2.49-3.84,3.44-.15,3.77-2.43,3.31-4.65-1.03-5.04,1.86-5.93,5.69-5.85,1.6,.03,3.59-2.09,4.82,.66,.64,.81,.98,1.74,1.24,2.72-.9,2.41-.65,5.01,.31,7.1,1.89,4.09,1.01,8.14,.9,12.25-.22,8.01-2.82,10.91-10.76,10.82-3.09-.03-3.31,1.08-2.95,3.38-.02,3.84,.09,7.67-.09,11.5-.25,5.18-2.84,7.13-7.87,6.14-6.71-1.31-11.89-4.47-14.01-11.45-.88-2.88-.63-5.31,2.12-7.05,1.67-1.31,1.29-3.3,1.68-5.04h0Z"/><path class="cm" d="M659.31,390.37c3.53-5.84,6.26-12.14,10.27-17.71,.86-1.19,.77-1.89-.69-2.55-1.2-.54-1.53-1.72-.69-2.86,.65-.88,1.62-1.08,2.68-.71,3.69,1.31,5.31,4.57,7.13,7.61,.39,.65,0,1.41-.57,1.91-.73,.65-1.76,.77-2.32,.09-1.96-2.39-2.8-.57-3.64,.89-2.18,3.82-4.89,7.36-6.23,11.64-7.1,12.93-11.26,26.83-13.36,41.36-.82,5.63,1.63,7.93,7.42,7.57,6.67-.41,12.32-3.47,17.58-7.29,6.12-4.46,12.15-9.06,18.16-13.68,1.65-1.27,3.06-2.03,4.76-.09,5.13,5.81,8.9,12.27,9.65,20.14,.46,4.93-1.57,8.7-5.06,9.91-3.35,1.16-7-.42-9.58-4.72-2.19-3.66-4.05-7.56-5.81-11.46-1.02-2.28-1.8-2.65-3.9-.97-4.92,3.92-10.02,7.59-15.9,10.05-3.61,1.51-7.31,2.44-11.24,2.4-6.7-.07-10.31-3.6-10.23-10.47,.09-7.22,2.24-14.09,4.16-20.97,1.94-6.89,4.85-13.42,7.36-20.09l.02,.02Z"/><path class="ci" d="M357.61,356.75c-12.01-9.79-24.88-18.63-33.98-31.58-1.24-1.76-1.25-4.16-3.2-5.43,.03-3.14,.05-6.29,.08-9.43,.97-.41,1.44,.1,1.72,.95,10.67,8.07,23.32,11.64,35.78,15.57,3.94,1.24,5.88,2.41,4.79,7.2-1.72,7.58-2.21,15.43-5.19,22.72h0Z"/><path class="cm" d="M573.23,361.01c4.44,.95,8.88,1.88,13.31,2.86,1.08,.24,2,.46,2.09-1.11,.07-1.15,.65-1.87,1.87-1.87,1.38,0,1.9,.98,2.44,2.04,1.24,2.4,.91,5.01,1.09,7.55-.76,1.08-2.35,2.53-2.94,1.17-2.37-5.33-7.47-3.55-11.33-4.88-1.44-.49-3.07-.44-4.61-.64-23.85-4.73-47.36-5.95-69.82,5.99-4.34,2.3-7.5,6.07-11.71,8.53-2.73,1.59-4.23,1.32-5.88-1.36-3.99-6.48-6.25-13.48-6.69-21.02-.34-5.69,4.04-8.63,9.38-6.51,5.07,2.02,8.03,5.79,8.88,11.18,.35,2.25,.64,4.52,1.01,7.24,8.5-5.02,17.36-8.35,26.82-10.07,13.7-2.49,27.34-1.55,40.99,.37,1.69,.24,3.4,.34,5.1,.51l-.02,.02Z"/><path class="bk" d="M449.34,205.43c5.33-.02,9.29-3.26,13.48-5.87,2.97-1.85,4.96-5.25,8.94-5.47,2,.34,3.99,.67,5.99,1.01,1.69-.52,3.37-1.51,5.12-.15,1.06-.1,2.06-1.23,3.18-.15-1.65,1.35-.09,3.76-1.63,5.09-.66,.58-1.38,1-1.43,1.97-1.01,.61-2.21,.65-3.27,1.11-.76,.16-1.53,.38-2.2-.24-.9-1.13-.36-2.94-1.84-3.78-.99-.24-1.78,.03-2.34,.89-1.66,1.57-.65,2.98,.28,4.39,.2,2.81,1.1,5.71-1.04,8.21-2.06,.1-4.03,.69-5.55,1.99-9.1,7.82-19.02,14.5-28.93,21.2-1.98,.83-3.96,1.65-5.93,2.48,.52-5.11,4.21-8.72,6.34-13.07,3.27-6.71,7.19-13.09,10.84-19.61h0Z"/><path class="ap" d="M737.52,254.59c-.88,.49-1.75,.98-2.63,1.46l-2.4,1.06c-2.63,.65-6.02,.58-4.45,5.04,.31,.88-.43,1.59-1.34,1.91-1.01,.35-1.57-.23-2.11-.97-2.32-3.14-1.91-11.51,.75-14.27,.6-.63,1.28-1.27,2.23-.92,.88,.33,1.22,1.08,1.23,2.05,.06,4.33,.08,4.33,4.97,2.01,13.54-8.24,17.05-21.15,16.44-35.83-.38-9.07-3.05-17.72-5.45-26.41-.71-2.59-2.49-2.23-4.27-2.46-4.93-.64-5.17-1.08-4.06-5.99,.5-2.21-1.05-4.08-1.33-6.18-.52-3.81,.59-5.18,4.48-5.13,.54,0,1.09,.34,1.55-.17,1.16-1.32,2.91-3.18,4.23-2.01,1.94,1.73,4.81,.5,6.31,2.73,2,2.96,1.22,11.2-1.93,13.59-1.88,1.43-1.67,2.48-1.14,4.21,2.6,8.49,5.02,17.04,5.62,25.94,1.09,16.16-2.55,30.45-16.69,40.35v.02Z"/><path class="aq" d="M545.77,287.77c1.19,.78,3.6-.95,3.8,1.26,.24,2.73-2.23,2.18-3.98,2.36-2.22,.22-4.52-.28-6.66,.71-12.29,.22-24.59,.5-36.88,.56-1.75,0-2.43,.18-2.89,1.96-.95,3.63-3.37,5.76-7.24,6.33-4.21,.62-7.12-2.64-7.87-5.08-.88-2.86-1.26-5.75-2.81-8.57-.93-1.69,1.64-2.34,3.13-2.54,3.11-.43,5.9-.44,8.34-3.52,2.42-3.04,7.42-.69,8.56,4.01,.69,2.86,1.89,3.49,4.59,3.37,8.71-.38,17.42-.51,26.14-.74,4.59-.27,9.18-1.14,13.78-.12l-.02,.02Z"/><path class="ap" d="M389.97,298.4c-2.94,3.23-6.93,2.73-10.39,2.1-3.3-.6,.59-2.48,.09-3.83-.15-.4-.28-.83-.18-1.25,1.32-5.65,1.01-6.21-4.58-7.86-1.23-.36-2.51-.55-3.66-1.14-3.32-1.69-4.57-5.34-2.82-8.25,1.57-2.6,5.44-3.27,8.33-1.34,1.57,1.04,2.8,2.41,3.3,4.31,7.03,3.92,14.06,7.84,21.09,11.76,1.26,1.27,2.91,.87,4.45,1.07,2.43,.32,3.82,1.89,4.15,4.26,.3,2.24-.77,4-2.73,4.89-2.11,.95-4.52,.84-5.75-1.28-1.5-2.59-4.06-3.42-6.23-4.97-2.51-1.79-4.06-1.32-5.04,1.52h-.02Z"/><path class="e" d="M388.33,500.36c5.22,0,10.45,.02,15.67,.02,.09,2.7,.23,5.41,.26,8.11,.05,4.09,.45,7.95,4.5,10.31,.86,.51,1.46,1.49,.91,2.57-.52,1.01-1.57,1.11-2.6,1.11-4.56,0-9.12-.03-13.68,.03-2.13,.03-3.07-.91-3.24-3.02-.54-6.38-1.2-12.75-1.81-19.13h0Z"/><path class="bu" d="M322.22,311.25c-.58-.32-1.14-.63-1.72-.95-4.28-2.83-3.34-7.22-3.36-11.32,2.76-1.5,5.62-1.7,8.6-.74,7.39,2.99,14.36,6.97,22.02,9.37,4.45,1.39,8.86,2.95,13.29,4.43-8.52,1.5-17.08,.77-25.64,.47-4.41-.15-8.71-1.58-13.18-1.27h0Z"/><path class="k" d="M589.56,332.57c-2.8,.3-5.16,1.54-7.32,3.29-2.94,2.37-6.26,3.99-9.98,4.75-2.24-.41-3.77,.66-4.96,2.4-.15-1.44-.84-2.2-2.33-2.61-8.28-2.26-9.99-5.29-7.66-13.55,.46-1.61,.71-3.38,2.15-4.56,3.89,7.19,10.27,9.47,18.02,9.55,4.02,.03,8.15-.95,12.08,.72h0Z"/><path class="aq" d="M260.64,295.06c-2.67,4.52-6.89,7.51-10.68,10.93-3.04-3.9-6.24-7.27-11.91-6.77-2.38,.21-2.64-1.57-1.01-3.02,3.84-3.41,7.83-6.63,11.74-9.97,1.57-1.34,2.57-.31,3.62,.72,2.74,2.7,5.5,5.4,8.24,8.1Z"/><path class="ar" d="M728.99,239.65c-1.3,1.78-3.13,.62-5.07,.87,1.12,2.86,.84,5.54-1.1,7.9-.02-.57,.14-1.21-.07-1.7-2.29-5.41,.09-9.13,4.34-12.2,.81,1.64,1.75,3.23,1.9,5.13h0Z"/><path class="cj" d="M325.74,298.26c-2.8,.95-5.68,1.16-8.6,.74,.03-.88,.07-1.75,.1-2.62,.3-1.18,.6-2.35,.97-3.79,2.63,1.99,5.07,3.83,7.53,5.67h0Z"/><path class="as" d="M772.06,220.95c.03-3.29-.47-6.61,.66-9.86,1.06,3.58,1.42,7.16,.13,10.77-.53-.07-.58-.57-.8-.91h0Z"/><path class="o" d="M545.77,287.77c-4.59,.04-9.19,.08-13.78,.12,2.86-2.12,6.49,.4,9.38-1.57,.62,0,1.23,.02,1.85,.03,.82,.67,2.09-.17,2.8,.86-.12,.17-.2,.35-.25,.56Z"/><path class="t" d="M423.76,385.98c.89,2.46,.81,4.92-.09,8.33-1.38-3.32-.71-5.89-.74-8.39,.3-.34,.58-.33,.83,.05h0Z"/><path class="ac" d="M288.14,278.85c-1.61-1.87-1.33-3.84-.65-6.26,2.24,2.18,.53,4.34,.65,6.26Z"/><path class="a`" d="M630.15,425.6v10.54c-1.3-3.79-1.14-7.61-.88-11.44,.79-.2,1.19,0,.88,.89h0Z"/><path class="co" d="M297.2,281.07c-.86-2.18-.63-4.31,.8-6.42v6.41c-.27,.39-.53,.41-.8,0h0Z"/><path class="u" d="M299.99,265.6l-1.66,6.76c-1.02-2.53-.29-4.68,.7-6.78,.33-.29,.65-.28,.96,.03h0Z"/><path class="c`" d="M617.85,425.46v5.08c-1.95-1.83-1.63-3.41-.85-5.07,.28-.38,.57-.4,.85,0h0Z"/><path class="p" d="M772.19,207.98c-1.37-2.43-1.91-3.94-1.48-6.36,1.51,1.96,1.73,3.53,1.48,6.36Z"/><path class="h" d="M783.8,209.76c.11,2.67,.49,5.33-.25,8.6-1.08-2.91-.35-5.36-.6-7.71-.34-.89,.07-1.07,.84-.88h0Z"/><path class="r" d="M478.61,334.48c-1.17-1.81-.85-3.88-1.86-6.87,2.57,2.21,1.97,4.3,2.61,5.94-.12,.41-.37,.72-.75,.93Z"/><path class="w" d="M772.06,220.95c.27,.3,.53,.6,.8,.91-.09,1.93,.17,3.94-1.75,6.44,.4-3.06,.67-5.2,.95-7.34h0Z"/><path class="af" d="M368.05,127.49c.16,1.5,.14,2.81-1.32,3.91-.35-1.88,.05-3.1,1.32-3.91Z"/><path class="by" d="M782.29,205.19c-1.1-1.06-1.51-2.3-1.31-4.23,1.56,1.4,1.76,2.72,1.31,4.23Z"/><path class="cf" d="M617.85,425.46h-.85c.09-1.87-.37-3.88,1.52-6.08-.27,2.43-.46,4.26-.67,6.08Z"/><path class="au" d="M422.72,381.75c-.57-1.23-1.39-2.47,.28-3.9,.83,.96,.72,1.97,.56,2.99-.27,.31-.32,.83-.84,.91h0Z"/><path class="c`" d="M435.23,378.86c1.81,1.2,1.24,2.54,1.24,4.27-1.49-1.4-1.67-2.57-1.24-4.27Z"/><path class="ab" d="M383.79,169.26c-.86-.7-1.53-1.49-1.24-2.72,.91-.65,.55-1.7,.8-2.56,1.26,1.67,.85,3.47,.44,5.27h0Z"/><path class="s" d="M420.94,371.37c-.46-1.33-.92-2.67-1.75-5.1,2.39,1.92,2.29,3.6,2.66,5.07-.29,.4-.59,.4-.9,.03Z"/><path class="y" d="M629.91,421.1c.11-1.36-.09-2.82,1.63-4.42-.34,2.47-.58,4.3-.83,6.12-1.63,.07-1.01-.9-.79-1.7h0Z"/><path class="al" d="M321.49,346.26c.98,1.46,.82,3.02,.64,4.72-1.2-.42-1.38-1.23-1.61-2.02,1.1-.62,.65-1.8,.98-2.69h0Z"/><path class="cg" d="M495.99,332.08c0,1.37,.14,2.81-1.51,3.61,.02-1.51,.42-2.7,1.51-3.61Z"/><path class="f" d="M420.94,371.37l.9-.03c0,1.61,1.35,3.05,.63,4.92-1.49-1.43-1.43-3.19-1.53-4.89Z"/><path class="i" d="M433.86,371.91c1.74,1.43,1.51,2.82,1.86,4.45-2.3-1.09-1.38-2.68-1.86-4.45Z"/><path class="ad" d="M629.91,421.1c.27,.57,.52,1.14,.79,1.7,.17,1.01,.15,1.98-.55,2.81-.29-.3-.58-.59-.88-.89-.28-1.29-.18-2.52,.64-3.62Z"/><path class="e" d="M384.4,129.9c-.23,.4-.28,1.26-1.19,1.15-.18-.02-.51-.7-.41-.89,.28-.54,.33-1.44,1.26-1.3,.43,.07,.63,.42,.33,1.03h0Z"/><path class="aa" d="M422.72,381.75l.84-.91,.21,5.13c-.28-.03-.55-.05-.83-.05-.07-1.39-.14-2.78-.22-4.17Z"/><path class="cg" d="M535.68,202.99c-1.17-.65-.27-1.38-.09-2.1,.57-.13,1.3-1.21,1.61-.4,.41,1.08-.83,1.75-1.51,2.49h0Z"/><path class="ad" d="M783.8,209.76c-.28,.29-.57,.58-.84,.88-.65-.82-1.16-1.67-.25-2.61,.17-.18,.51-.19,.77-.28,.11,.67,.22,1.34,.33,2.01h0Z"/><path class="av" d="M770.41,200.64c-1.4-1-1.86-1.87-.99-3.55,1.05,1.07,1.19,2.04,.99,3.55Z"/><path class="ae" d="M478.61,334.48l.75-.93c.02,1.1,.95,2.18,.15,3.38-1.25-.55-.73-1.63-.9-2.45Z"/><path class="cg" d="M297.2,281.07h.8c.18,1.34,.71,2.69-.18,4.06-.89-1.3-.58-2.7-.62-4.05h0Z"/><path class="at" d="M299.99,265.6l-.96-.03c-.08-1.03,.51-2.45,1.15-2.22,1.14,.41,.5,1.51-.19,2.24h0Z"/><path class="an" d="M581.63,240.78c1.47,2.71,.86,4.1-2.38,3.54-1.01-.17-1.69-.22-2.68,.37-3.69,2.2-4.88,1.39-5.14-3.22-.26-1.63-1.86-1.56-2.86-2.21-1.09-.71-1.75-1.55-1.17-2.82,.62-1.36,1.81-1.25,2.93-.76,3.78,1.67,7.55,3.39,11.32,5.09h0Z"/><path class="ch" d="M642.06,227.74c.16,1.79,0,3.71-2.07,4.01-2.18,.32-4.54,.29-6.67-.23-1.32-.33-.42-1.91-.09-2.94,1.95-2.47,3.9-4.94,5.85-7.4,.99-1.26,2.21-2.1,3.6-.83,1.28,1.17,.31,2.42-.53,3.37-1.21,1.38-2.49,2.61-.09,4.02h0Z"/><path class="ah" d="M690.94,194.18c-.11,.74-.58,1.43-1.57,1.42-.98-.02-1.56-.69-1.43-1.64,.13-.94,.89-1.41,1.81-1.36,.79,.05,1.23,.56,1.18,1.58h0Z"/><path class="bd" d="M561.37,222.78c1.01-.03,1.46,.47,1.55,1.2,.11,.87-.09,1.7-1.14,1.83-.81,.1-1.26-.46-1.38-1.2-.14-.89,.19-1.6,.97-1.84h0Z"/><path class="ax" d="M659.15,222.57c-.55,.03-1.1,.04-1.65,.07-.93-.52-1.63-1.14-.95-2.33,.39-.66,.89-1.13,1.68-.7,1.22,.67,1.06,1.83,.92,2.96Z"/><path class="bc" d="M673.54,185.58c-.34,.95-1.08,1.36-1.96,1.18-.76-.15-1.11-.85-1.04-1.62,.08-.81,.6-1.26,1.43-1.17,.95,.09,1.51,.63,1.57,1.61h0Z"/><path class="ak" d="M662.5,199.46c-.12,.89-.68,1.47-1.66,1.38-.75-.07-1.3-.61-1.27-1.41,.03-.99,.65-1.58,1.63-1.48,.73,.08,1.25,.58,1.31,1.51Z"/><path class="ba" d="M671.22,211.04c.03,.82-.39,1.51-1.14,1.57-.94,.07-1.65-.59-1.69-1.57-.03-.83,.62-1.23,1.41-1.26,.86-.04,1.3,.45,1.41,1.26Z"/><path class="bo" d="M690.28,206.21c-.18,1.68-.79,2.7-2.69,1.81-.23-.77-.77-1.57,.15-2.23,.95-.68,1.81-.43,2.55,.41h0Z"/><path class="bv" d="M388.56,379.75c1.71-2.3,3.57-1.32,5.31-.95-1.62,.29-3.24,.58-5.31,.95Z"/><path class="ag" d="M477.87,202.8c.61-.27,1.21-.53,1.82-.8,1.38,.48,2.77,.53,4.15-.03,1.47,.5,1.56,1.44,.84,2.64-1.26,.62-.73,1.15,.09,1.67,.66,.39,.78,1.02,.78,1.71-2.57,.83-5.14,1.66-7.71,2.49-1.76-2.57-1.81-5.13,.04-7.67h0Z"/><path class="bw" d="M482.86,194.95c-1.71-.26-3.37,1.44-5.12,.15,.55-2.55,2.76-2.78,4.62-2.73,1.03,.03,.51,1.65,.5,2.59h0Z"/><path class="v" d="M530.7,213.05c.35-3.35,1.04-6.4,3.71-8.56-1.24,2.86-2.47,5.7-3.71,8.56Z"/><path class="e" d="M526.07,196.8c1.05-1.66,1.81-3.54,4.21-5.15-.92,2.43-1.76,4.02-3.36,5.17-.29,.41-.58,.41-.85-.02h0Z"/><path class="g" d="M526.07,196.8c.28,0,.57,0,.85,.02-.32,1.7-1.08,3.2-2.36,4.79-.53-2.13,.89-3.35,1.51-4.81h0Z"/><path class="cn" d="M484.76,206.28h-3.04c.76-1.38,1.82-1.58,2.95-1.67,.03,.56,.06,1.12,.09,1.67Z"/><path class="x" d="M483.83,201.97c-1.38,1.14-2.75,1.35-4.15,.03,1.09-.22,2.17-.76,3.29-.14,.28,.05,.57,.09,.85,.1h0Z"/><path class="ao" d="M601.67,254.92c-2.32-.31-4.45-1.75-6.73-.16-.97,.68-2.13-.65-1.95-2.01,.23-1.84,.68-3.84,2.23-4.93,1.88-1.33,2.43,.77,3.58,1.7,1.63,1.32,4.12,1.2,5.71,.23,3.32-2.01,7.07-2.02,10.54-3.13,4.16-1.32,8.76-2.55,8.45-8.51-.05-.93,.76-1.59,1.68-1.65,1.38-.09,2.41,.8,3.33,1.69,.81,.78,1.08,1.94,.25,2.68-2.35,2.1-3.59,5.15-6.27,6.97-6.36,4.29-14.41,3.07-20.82,7.11h0Z"/><path class="bl" d="M567.45,259.1c-2.61-.51-5.45-1.27-5.1-4.52,.38-3.56,3.21-4.68,6.56-4.55,2.64,.1,4.35,1.23,4.38,4.07,.03,2.61-2.94,5.11-5.84,5.01Z"/><path class="bl" d="M649.11,232.82c2.23,.03,4.35,1.08,4.11,4.22-.28,3.57-3.05,4.76-6.06,4.76-2.63,0-5-1.68-4.82-4.4,.23-3.37,2.97-4.6,6.77-4.58h0Z"/><path class="bi" d="M703.89,202.6c0,1.13-.42,1.75-1.24,1.72-1.11-.03-1.33-.93-1.23-1.84,.09-.77,.53-1.32,1.43-1.18,.89,.15,1.01,.85,1.04,1.29h0Z"/><path class="bj" d="M675.94,220.54c.83,.1,1.2,.66,1.26,1.42,.08,.85-.39,1.38-1.2,1.38-.9,0-1.76-.34-1.55-1.47,.14-.71,.72-1.19,1.49-1.34h0Z"/><path class="bf" d="M550.8,246.11c-.02,.84-.46,1.3-1.29,1.32-.78,.02-1.49-.38-1.5-1.14,0-.91,.66-1.63,1.59-1.63,.77,0,1.14,.69,1.2,1.45h0Z"/><path class="ay" d="M711.48,343.86c-.3,.82-.71,1.43-1.51,1.36-1.19-.11-1.68-.92-1.54-2.05,.11-.89,.82-1.08,1.56-.94,.93,.17,1.39,.81,1.49,1.63h0Z"/><path class="bp" d="M730.63,324.94c-.94-.11-2.13,.23-2.4-1.17-.12-.61,.19-1.12,.83-1.29,1.36-.37,2.23,.06,2.4,1.56-.28,.3-.55,.6-.83,.91h0Z"/><path class="bo" d="M600.88,367.89c1.11-.83,2.21-.77,3.32,0-.05,1.14-.29,2.31-1.68,2.3-1.38,0-1.65-1.14-1.64-2.31h0Z"/><path class="bc" d="M718.69,349.45c.11-.78,.52-1.28,1.36-1.25,.94,.04,1.57,.53,1.59,1.52,0,.71-.59,.91-1.14,.97-.92,.09-1.65-.2-1.81-1.26h0Z"/><path class="bs" d="M618.77,374.83c-.02,1.08-.5,1.56-1.29,1.52-.81-.03-1.21-.59-1.17-1.4,.04-.8,.52-1.38,1.28-1.34,.77,.03,1.14,.68,1.19,1.22h0Z"/><path class="bq" d="M626.64,368.68c-.04-1.08-.37-2.49,1.04-2.78,1.28-.26,1.35,1.04,1.5,1.99-.63,.96-1.57,.89-2.54,.79h0Z"/><path class="bh" d="M703.39,357.8c0,.84-.51,1.26-1.24,1.38-.77,.12-1.39-.2-1.51-1.04-.11-.83,.35-1.32,1.15-1.39,.77-.06,1.33,.29,1.59,1.05h0Z"/><path class="e" d="M730.88,336.98c.86,0,1.34,.48,1.31,1.29-.03,.82-.58,1.24-1.41,1.19-.8-.05-1.41-.52-1.38-1.28,.03-.77,.68-1.17,1.47-1.2h0Z"/><path class="bt" d="M380.05,281.15c-1.66-.25-2.15-1.69-3-2.82-1.49-1.97-3.59-2.35-5.77-1.51-2.08,.81-3,2.59-2.8,4.82,.22,2.49,1.84,3.79,4.1,4.33,.95,.22,2.02-.02,2.97,.24,7.04,1.92,7.82,3.93,4.12,10.46-3.07-1.18-5.25,.54-7.14,2.48-2.42,2.48-4.62,2.37-7.53,.75-7.77-4.33-14.41-10.02-20.63-16.27-.49-.71-.95-1.5-.89-2.36,.52-7.39-1.73-14.35-3.17-21.44-.17-1.48,.4-2.89,.42-4.34,.64-2.04,.68-4.2,1.29-6.24,2.33,5.86,7.94,6.09,12.79,6.77,7.11,1,13.99-1.61,20.95-2.77,3.19-.53,6.15-.71,9.16,.41,1.21,4.01-.48,7.83-.88,11.71-.33,3.26-.56,6.48-.03,9.72-1.42,1.96-2.06,4.42-3.95,6.08h0Z"/><path class="l" d="M384,275.06c-1.75-.93-1.52-2.59-1.51-4.15,.07-5.87,1.08-11.6,2.41-17.29,.56-2.12,1.12-4.24,1.68-6.36-.53-2.24,1.15-1.82,2.27-1.76,1.81,.1,3.69,.26,4.72,2.17,1.14,1.47,3.43-.03,4.45,1.73-4.67,8.56-9.34,17.11-14.01,25.66h0Z"/><path class="ct" d="M341.1,259.58c2.53,7.82,4.71,15.68,3.28,24.04-3.37-1.43-6.74-2.86-10.11-4.3-.52-1.09-2.85,.56-2.6-1.71,.3-.88,.59-1.75,.89-2.62,4.26-.69,5.41-3.76,5.83-7.47,.24-2.09,.67-4.15,1.02-6.23,.77-.36,.02-2.22,1.68-1.69h0Z"/><path class="cl" d="M393.56,247.67c-2.32-.24-4.52-2.58-6.98-.4-1.4-2.99,.74-5.55,1.05-8.33,.43-.53,.67-1.42,1.66-.89,2.57,1.88,4.53,4.28,6.24,6.96,1.8,2.8-.21,2.6-1.97,2.65h0Z"/><path class="cc" d="M389.28,238.06c-.55,.29-1.11,.59-1.66,.89,.28-2.47,.54-4.94,.9-8.18,1.44,2.92,.25,5.17,.76,7.3h0Z"/><path class="cp" d="M341.1,259.58c-.56,.57-1.12,1.13-1.68,1.69-.45-2.12,.56-4.01,.91-6,.26-.4,.52-.43,.79,0,0,1.44-.02,2.88-.02,4.32h0Z"/><path class="cs" d="M341.11,255.26h-.79c.09-2.13,.46-4.21,1.68-6.04-.11,2.04,.45,4.18-.89,6.04h0Z"/><path class="ck" d="M323.05,359.29c.02,1.5,1.47,2.82,.52,4.56-1.46-1.29-1.38-2.92-1.28-4.57,.26-.39,.52-.37,.77,0h0Z"/><path class="bx" d="M323.05,359.29h-.77v-5.33l.77-.02v5.35Z"/><path class="bm" d="M626.57,347.21c7.03-2.39,12.69-6.73,18.03-11.8,5.94-5.63,13.93-6.3,21.56-6.97,9.04-.77,16.87-3.68,23.35-10.16,4.45-4.45,9.99-7.1,16.01-8.68,6.06-1.59,12.18-2.97,18.27-4.43-7.56,9.96-18.23,15.82-28.89,21.55-20.18,10.85-41.92,17.02-64.49,20.41-1.26,.19-2.56,.06-3.85,.09v-.02Z"/><path class="bb" d="M581.85,346.41c5.86-6.28,12.54-7.61,20.2-3.47,4.47,2.41,9.32,3.79,14.19,5.11-10.87,1.25-21.68-.04-32.5-.86-.65-.05-1.26-.51-1.89-.77h0Z"/><path class="b`" d="M612,359.41c.96-.07,1.49,.36,1.54,1.15,.06,.92-.45,1.67-1.36,1.82-.96,.16-1.63-.44-1.65-1.4-.03-.99,.71-1.43,1.47-1.57Z"/><path class="bg" d="M693.6,348.09c-1.44,0-3.04,.15-3.05-1.94,0-.39,.72-1.11,1.11-1.11,2.09,.02,1.95,1.61,1.94,3.05h0Z"/><path class="aw" d="M716.83,335.19c-.97-.66-2.49-1.05-1.81-2.7,.27-.65,1.16-.91,1.81-.52,1.69,1.02,.34,2.14,0,3.23h0Z"/><path class="br" d="M735.56,306.07c.77,.08,1.39,.5,1.35,1.25-.04,.74-.7,1.14-1.46,1.14-.83,0-1.3-.46-1.26-1.26,.03-.8,.58-1.17,1.38-1.14h0Z"/><path class="bb" d="M617.12,348.03c2.49-1.49,5.2-.53,7.81-.71-2.49,1.4-5.19,.65-7.81,.71Z"/><path class="m" d="M546.02,287.21c-.95-.22-2.06,.07-2.8-.86,2.26,.2,4.42-1.62,7.15-.44-1.35,1.68-2.96,1.16-4.35,1.3Z"/><path class="bl" d="M477.87,202.8c-.02,2.55-.03,5.12-.04,7.67-.18,3.06-.87,6.31,3.66,7.05,1.18,.2,1.78,1.47,1.36,2.73-.44,1.32-1.44,2-2.92,2-4.85,0-7.16-2.24-7.33-7.27-.03-.85,0-1.7-.02-2.55,.03-3.25,.05-6.5,.08-9.76-.95-1.27-.18-2.33,.43-3.41,.36-1.73,2.17-.72,2.99-1.58,3.25,.78,1.07,3.46,1.79,5.13h0Z"/><path class="q" d="M331.66,277.61c.87,.57,1.73,1.14,2.6,1.71-1.09,0-2.19,.02-3.29-.02-.69-.02-1.65-.16-1.45-.97,.23-.94,1.35-.65,2.14-.72Z"/><path class="ca" d="M379.57,173.58c-.44-.27-.97-.41-1.04-.68-.19-.72,.4-.96,.95-.89,.3,.04,.72,.42,.77,.7,.04,.22-.4,.53-.69,.87h0Z"/><path class="am" d="M473.46,199.35c-.27,1.11-.54,2.22-.81,3.32-.67,.51-1.35,1.01-2.94,2.21,1.26-2.48,2.06-4.01,2.84-5.54,.31-.48,.62-.48,.92,0h0Z"/><path class="cb" d="M482.35,198.61c.14,.52-.27,.69-.7,.71-.49,.02-1.13,.28-1.35-.44-.03-.11,.34-.4,.57-.53,.52-.29,1.07-.48,1.48,.27h0Z"/><path class="cq" d="M473.46,199.35c-.3,0-.61,0-.92,0,.37-2.26,2.05-1.76,3.53-1.67-.87,.56-1.75,1.12-2.61,1.68h0Z"/></g></g></g></g></svg>