<?xml version="1.0" encoding="UTF-8"?><svg xmlns="http://www.w3.org/2000/svg" viewBox="0 0 1020 650"><defs><style>.e{fill:#010101;}.f{fill:#688c61;}.g{fill:#688e61;}.h{fill:#698d62;}.i{fill:#eee9e6;}.j{fill:#f0ebe9;}.k{fill:#eae8e6;}.l{fill:#eaeae7;}.m{fill:#e9e6e4;}.n{fill:#e9e6e7;}.o{fill:#e9e6e6;}.p{fill:#e9e8e7;}.q{fill:#f6b868;}.r{fill:#fbd5ae;}.s{fill:#e7e3dd;}.t{fill:#ea9247;}.u{fill:#e8e6e4;}.v{fill:#ede7e5;}.w{fill:#ede8e5;}.x{fill:#ede9e5;}.y{fill:#fffffd;}.a`{fill:#e8e5e4;}.aa{fill:#efebeb;}.ab{fill:#e4e1df;}.ac{fill:#fbc672;}.ad{fill:#817bb8;}.ae{fill:#7ea9c3;}.af{fill:#71c5ee;}.ag{fill:#685a4d;}.ah{fill:#979494;}.ai{fill:#6a9064;}.aj{fill:#9ecfba;}.ak{fill:#c1bdbc;}.al{fill:#8e3a44;}.am{fill:#bab6b6;}.an{fill:#323130;}.ao{fill:#302d2b;}.ap{fill:#302d2c;}.aq{fill:#cdc8c5;}.ar{fill:#a8cfb5;}.as{fill:#aacfb8;}.at{fill:#bd7b63;}.au{fill:#bd7b64;}.av{fill:#be806c;}.aw{fill:#ccd0b2;}.ax{fill:#ccc6c4;}.ay{fill:#c6c3c1;}.b`{fill:#cac6c4;}.ba{fill:#cac5c4;}.bb{fill:#c9c5c4;}.bc{fill:#c9c5c3;}.bd{fill:#c9c5c5;}.be{fill:#ca7134;}.bf{fill:#cbc7c6;}.bg{fill:#cbc6c5;}.bh{fill:#cbc7c5;}.bi{fill:#d2696b;}.bj{fill:#d2676a;}.bk{fill:#d15e62;}.bl{fill:#d16063;}.bm{fill:#dcd5d2;}.bn{fill:#c5c2bf;}.bo{fill:#c5c1bd;}.bp{fill:#c8c4c3;}.bq{fill:#c8c4c2;}.br{fill:#c7c4c2;}.bs{fill:#c7c3c1;}.bt{fill:#c7c3c2;}.bu{fill:#25201f;}.bv{fill:#424540;}.bw{fill:#42413d;}.bx{fill:#423f3e;}.by{fill:#42373b;}.c`{fill:#434541;}.ca{fill:#43463e;}.cb{fill:#41463c;}.cc{fill:#41464a;}.cd{fill:#40463c;}.ce{fill:#40474c;}.cf{fill:#414e46;}.cg{fill:#414344;}.ch{fill:#41453e;}.ci{fill:#41342e;}.cj{fill:#41383c;}.ck{fill:#413d3f;}.cl{fill:#413531;}.cm{fill:#363f38;}.cn{fill:#444140;}.co{fill:#444145;}.cp{fill:#444146;}.cq{fill:#453c39;}.cr{fill:#3e3f41;}.cs{fill:#3e3f3a;}.ct{fill:#3e3e3e;}.cu{fill:#3e3c3b;}.cv{fill:#3e3b3a;}.cw{fill:#3e4043;}.cx{fill:#3e3c3c;}.cy{fill:#3f3936;}.d`{fill:#3f3d3a;}.da{fill:#3f443a;}.db{fill:#9c6956;}.dc{fill:#464645;}.dd{fill:#54514f;}.de{fill:#545353;}.df{fill:#545250;}.dg{fill:#464342;}.dh{fill:#464944;}.di{fill:#534e4d;}.dj{fill:#53504f;}.dk{fill:#535043;}.dl{fill:#555453;}.dm{fill:#55463d;}.dn{fill:#555352;}.do{fill:#555251;}.dp{fill:#555250;}.dq{fill:#5b5445;}.dr{fill:#595d60;}.ds{fill:#292423;}.dt{fill:#2b2524;}.du{fill:#2b2626;}.dv{fill:#56413a;}.dw{fill:#565c61;}.dx{fill:#565353;}.dy{fill:#565351;}.e`{fill:#565350;}.ea{fill:#4a4a46;}.eb{fill:#4a4747;}.ec{fill:#4a6256;}.ed{fill:#4b3c37;}.ee{fill:#4b3d37;}.ef{fill:#2a2625;}.eg{fill:#484544;}.eh{fill:#484646;}.ei{fill:#493a35;}.ej{fill:#474443;}.ek{fill:#483b36;}.el{fill:#5c5a58;}.em{fill:#383933;}.en{fill:#312d2b;}.eo{fill:#3a3533;}.ep{fill:#3d3d3c;}.eq{fill:#2e2927;}.er{fill:#271f20;}.es{fill:#585345;}.et{fill:#57433b;}.eu{fill:#575454;}.ev{fill:#575452;}.ew{fill:#3c423d;}.ex{fill:#3c3638;}.ey{fill:#3c3636;}.f`{fill:#83b67c;}.fa{fill:#83b77c;}.fb{fill:#2f2c2a;}.fc{fill:#2e302e;}.fd{fill:#39423c;}.fe{fill:#4d3c37;}.ff{fill:#4c4947;}.fg{fill:#4c4847;}.fh{fill:#4a4848;}.fi{fill:#605d5b;}.fj{fill:#5d5045;}.fk{fill:#82bfa8;}.fl{fill:#7a3a42;}.fm{fill:#7a3741;}.fn{fill:#7b3841;}.fo{fill:#7b3842;}.fp{fill:#79a871;}.fq{fill:#4b4846;}.fr{fill:#4b4948;}.fs{fill:#4b4746;}.ft{fill:#4f4c4a;}.fu{fill:#4f4c4b;}.fv{fill:#4f4c4c;}.fw{fill:#4f5457;}.fx{fill:#524f4f;}.fy{fill:#793841;}.g`{fill:#50565a;}.ga{fill:#504d4c;}.gb{fill:#504d4d;}.gc{fill:#82b07a;}.gd{fill:#80c0a8;}.ge{fill:#4e4542;}.gf{fill:#4e423d;}.gg{fill:#4d5953;}.gh{fill:#282422;}.gi{fill:#514642;}.gj{fill:#514c4b;}.gk{fill:#4d4a49;}.gl{fill:#4d4b4a;}.gm{fill:#4f3d37;}.gn{fill:#7c3842;}.go{fill:#4e4b4a;}.gp{fill:#4e4d4c;}.gq{fill:#4e4d48;}.gr{fill:#454c42;}.gs{fill:#514f4e;}.gt{fill:#514e4c;}</style></defs><g id="a"/><g id="b"><g id="c"><g id="d"><g><path class="l" d="M1019.86,313.05c0,102.72-.03,205.44,.14,308.16v28.8c-335.73-.1-679.92-72.02-1015.65-71.93-5.36,0,0,3.29,0,0C4.51,372.31,.16,209.69,0,3.93,0,.65,1.04,0,6.42,0,342.13,.1,677.87,.1,1013.58,0c5.36,0,6.42,.64,6.42,3.93-.19,103.04-.14,206.08-.14,309.11h0Z"/><path class="s" d="M590.14,381.13l.06,.1c-.81-1.29-1.61-2.58-2.59-3.78-3.37-4.33-5.12-9.46-8.48-13.8l.06,.08c-.24-2.22-.83-4.36-1.84-6.4-.3-1.74-1.63-3.11-2.02-4.82,.06-2.49-1.57-4.77-1.13-7.3-.29,.04-.44-.07-.48-.33-.78-3.45-1.33-6.92-1.51-10.43v-16.08c-.09-2.04,.76-4.03,.52-6.08,.7-7.11,3.69-13.64,6.34-20.25,.36-1.28,.82-2.54,1.34-3.77,1.62-3.01,3.31-5.99,4.93-9,.97-1.62,2.12-3.13,3.19-4.69,1.99-2.41,3.67-5.04,5.81-7.36,1.31-1.62,2.63-3.24,4.26-4.62,3.36-2.94,6.65-5.94,9.93-8.93,1.53-1.48,3.32-2.67,5.26-3.68,1.5-1.51,3.74-2.08,5.37-3.4,.02-.27,.18-.43,.49-.46,1.78-.92,3.43-2.03,5.08-3.12,.97-.56,2.21-.59,3.15-1.21,2.91-1.69,6.08-2.89,9.22-4.16,1.77-1.08,3.91-1.32,5.83-2.11,1.57-.57,3.12-1.16,4.72-1.69,3.96-.76,7.77-2.08,11.78-2.7,3.16-.22,6.26-.81,9.39-1.2,2.35-.11,4.71,.22,7.04-.28,1.69-.52,3.59,.38,5.21-.65,6.88,1.65,14.04,1.2,21.01,2.59,30.52,6.05,54.01,20.89,70.6,44.66,12.2,17.48,17.42,36.75,15.92,57.1-1.43,19.34-8.81,37.13-22.14,52.65-18.31,21.3-42.56,33.53-71.95,37.64-4.55,.64-9.2,.76-13.67,1.88-3-1.82-6.56-.07-9.67-1.2-2.41-1.04-5.1-.07-7.55-.81-1.16-.52-2.41-.61-3.67-.62-1.97-.27-3.84-.98-5.86-1.01-2.52-.84-5.09-1.54-7.71-2.07-3.99-1.43-8.07-2.67-11.91-4.43-1.27-.48-2.48-1.08-3.69-1.68-1.97-.93-4.1-1.58-5.83-2.9-2.11-1.03-4.05-2.31-6.08-3.47-1-.76-2.22-1.23-3.22-1.98-1.75-1.47-3.78-2.6-5.58-4l.1,.08c-4.49-3.43-8.61-7.18-12.39-11.24-1.3-1.64-3-3-4.22-4.7-.98-1.56-2.36-2.86-3.43-4.35h0Z"/><path class="aa" d="M232.86,374.46c-.36-2.2-2.27-1.78-3.86-1.79-3.48-.03-6.99-.23-10.45,.04-4.22,.34-4.62-.95-3.38-4.28,8.5-22.85,16.97-45.71,25.16-68.64,4.39-12.32,8.71-24.67,13.59-36.85,1.83-1.36,4.05-1.23,6.2-1.23,51.07-.03,102.13-.04,153.19,0,1.33,0,2.66,.04,3.96,.27,1.28,.49,3.52,.81,1.72,2.59-3.11,3.1-3.32,7.14-4.65,10.76-11.01,29.96-22.08,59.89-32.83,89.92-2.77,7.75-2.79,7.9-12.55,7.9-21.62,0-43.24-.02-64.86-.02s-43.88,.16-65.82-.22c-2.2-.03-3.52,1.34-5.42,1.55h0Z"/><path class="fk" d="M470.31,514.68c-19.46-7.78-33.08-20.91-41.46-38.19-11.09-22.89-9.68-45.61,3.17-67.75,.6-1.04,1.5-1.94,2.27-2.91,2.02-1.46,3.43-3.29,4.08-5.55,1.6-3.2,4.75-5.27,7.04-7.98,2.13,1.27,2.12,3.54,3.17,5.16,1.4-2.2-.72-4.57-.18-6.95,9.86-10.18,22.53-15.91,36.96-18.84,2.64,1.43,4.47,.35,6.01-1.59,18.72-2.81,36.75-.75,53.66,7.02,29.23,13.43,45.08,34.97,47.3,64.51,.09,1.17,.47,2.32,.71,3.49-.25,.64-.51,1.29-.72,1.94-.58,1.98,.76,4.34-1.43,6.03-5.43,1.34-11.25,.42-16.56,2.37-9.12,3-18.45,3.59-27.99,1.93-6.42-1.11-12.91-.92-19.38-.71-.83-.03-1.66-.17-2.25-.76-2.06-2.05-1.69,.31-2.25,1-.96,.93-2.09,.94-3.31,.51-1.61-.92-2.59-2.31-3.26-3.84-1.26-2.93,.13-5.29,3.55-5.39,2.77-.08,5.1-.76,7.48-1.93,4.57-2.22,7.3,.81,10.36,3.42-1.7-3.78-.36-6.44,2.95-8.64,1.59-1.05,1.74-2.81,1.75-4.48,.04-2.53,.1-5.07,0-7.6-.14-3.41,1.28-6.18,3.15-9.16,2.88-4.62,5.06-9.72,1.45-15.03-.78-1.2-2.12-1.25-3.44-1.48-7.77-1.37-11.07-6.02-9.33-13.11,.18-.71,.58-1.4,.14-2.14-10.23-.19-13.37-1.87-16.61-8.88-7.88,4.39-10.67,4.3-18.49-3.11-1.26,2.81-2,5.82-5.2,7.35-3.59,1.73-5.83-1.17-9.51-2.27,.71,8.87-1.23,16.21-13.61,17.01,4.87,5.41,7,10.59,1.76,16.22,10.25-.73,14.91,4.42,12.33,13.21-.63,2.12-2.25,4.08-1.37,6.48-1.6,8.22-4.69,16.12-6.55,24.28-1.19,5.26-2.37,10.54-3.34,15.82-1.7,9.21,2.71,16.42,11.89,20.96,.6,.3,1.04,.73,1.38,1.25-.77,2.42,.02,3.43,2.71,4.95,4.42,2.48,7.95,6.23,13.31,7.52,.97,.23,1.52,1.54,2.05,2.47,1.32,2.35,3.31,3.06,6.17,2.56,4.8-.86,9.52,.66,14.32,.71,3.26,.03,3.76,1.88,1.98,5-3.08,1.2-6.2,2.25-9.65,2.08-1.76,.14-3.53,.36-5.24,.76-2.02,.22-4.06,.06-6.08,.2-2.66-.49-5.51,.46-8.05-.88,3.63-1.3,2.9-3.41,1.25-5.6-1.84-2.44-4.74-3.69-7.47-5.1-5.74-2.96-11.49-5.75-16.1-10.34-4.78-4.77-7.25-10.29-8.83-16.25-1.65-6.26-4.06-12.22-7.45-17.88-.73-1.21-1.04-2.49-1.2-3.84-.25-2.12-1.23-4.13-3.94-3.55-2.74,.58-3.8,2.73-3.25,5.28,.3,1.34,1.2,2.49,2.09,3.55,6.83,8.13,8.86,18.23,13.84,27.13,1.92,3.45,3.86,6.92,5.73,10.4,2.33,4.33,1.87,5.89-2.49,9.15h0Z"/><path class="at" d="M526.21,216.55c-.21,.56-.55,1.1-.63,1.68-.89,7.47-.81,7.37,7.35,8.35,12.63,1.51,25.23,3.2,37.33,7.02-1.3,5.46-6.39,8.26-10.38,11.8-1.26,1.12-2.87,1.95-4.11,3.14-4.84,3.53-9.84,6.85-15.34,9.54-7.64,3.75-15.64,6.63-24.33,7.74-1.04,.23-2.11,.32-3.19,.35-2.99,.03-5.97,.02-8.96,.02-16.23-.55-30-6.61-42.56-15.36-3.15-2.47-6.51-4.76-9.31-7.58-.79-.73-1.6-1.47-2.41-2.18-1.85-2.62-6.26-3.58-6.04-7.54,12.85-3.66,26.04-5.99,39.42-6.95,4.83-.35,5.94-1.89,5.4-5.64-.25-1.74,.45-3.6-.9-5.19-1-3.68-.44-7.42-.48-11.13-.02-2.44-.88-4.2-3.14-5.67-8.26-5.36-12.84-12.71-13.77-21.83-.23-2.29-1.26-3.88-3.31-5.17-2.55-1.6-4.24-3.74-4.3-6.68,.7-3.86,.92-7.95,5.75-9.86,2.2-1.33,4.54-2.48,4.95-5.24,.28-1.88,1.76-2.76,3.79-3,12.5-1.45,22.05-7.81,31.02-15.13,.74-.6,1.41-1.27,2.23-1.79,2.23-1.43,3.85-1.31,3.69,1.55-.15,2.74-.73,5.63,2.98,6.8,3.74,1.18,6.78-.37,9.47-2.62,1.33-1.11,2.13-2.7,3.88-3.43,.79-.18,1.53-.1,2.21,.32,1.4,1.77,1.59,3.89,2.08,5.92,.75,3.13,3.04,5.2,5.12,7.68,3.65,4.34,8.05,8.06,11.55,12.41,2.91,3.62,1.16,9.5-3.39,12.84-2.69,1.97-3.91,4.23-4.3,7.21-1.08,8.29-5.23,15.06-12.95,19.79-2.93,1.79-4.18,3.93-4.1,7.09,.09,3.56,.45,7.17-.35,10.71h0Z"/><path class="ad" d="M424.41,239.9c5.44-2.41,11.16-4.13,16.94-5.71,4.06,1,5.22,4.87,8.33,6.81,.81,.71,1.62,1.44,2.41,2.17,2.9,2.71,6.3,4.92,9.43,7.41,10.52,7.19,21.83,12.77,35.11,14.63,7.41,1.04,14.76,.94,22.12-.26,7.62-1.15,14.61-3.79,21.22-7.29,6.02-2.04,10.71-5.91,15.74-9.31,6.12-4.4,10.96-10,16.77-14.7,5.5,2.5,11.74,3.35,17.06,6.23,.88,1.19,1.14,2.52,.86,3.87-2.11,9.91-1.49,19.97-1.98,29.96-.08,2.05-1.53,3.55-2.6,5.19-1.53,2.87-3.13,5.71-4.76,8.54-.87,1-.72,2.37-1.51,3.4-.41,.32-.72,.26-.94-.19-2.3-.86-3.71,.88-5.34,1.64-20.9,9.79-43.25,14.64-66.67,14.54-26.6-.11-51.53-6.38-74.32-19-1.12-.61-2.15-1.44-3.6-1.39-2.12-1.57-1.7-3.79-1.72-5.82-.08-8.97-.04-17.94-.04-26.92,0-2.57-.15-5.09-1.91-7.27-.59-.91-.96-1.92-1.34-2.91-.36-1.3-.3-2.55,.71-3.64l.03,.02Z"/><path class="ap" d="M425.55,245.27c2.71,1.54,3.09,3.88,3.08,6.55-.06,11.55,.04,23.1,.08,34.65-.05,37.5-.18,75,0,112.51,.02,4.41-1.25,5.26-5.96,5.25-50.35-.17-100.69-.11-151.04-.11-4.68,0-7.02-2.1-7.02-6.3v-2.69c1.72-.88,3.58-.44,5.37-.44,42.4-.02,84.79-.02,127.18-.03,1.82,0,3.66,.2,5.46-.22,.96-.21,1.91-.65,2.9-.57,7.1,.49,7.68,0,8.23-7.59,1.58-22.03,3.82-44,5.39-66.03,.68-9.51,1.42-19.05,2.57-28.54,.16-1.32,.43-2.67-.43-4.77-1.94,9.3-2.86,18-4.21,26.63-3.9,24.98-7.6,49.99-11.4,74.98-.29,1.91-.59,3.87-2.23,5.36-1.48,.93-3.18,.72-4.82,.72-49.29,0-98.58,0-147.88,0-1.3,0-2.67,.31-3.87-.45l.07-7.91c1.2-1.26,2.84-1.37,4.51-1.36,5.74,.02,11.5-.22,17.23,.15,3.48,.94,7.02,.96,10.58,.46,.54-.07,1.07-.07,1.61-.02,3.39,.46,6.78,.62,10.13-.27,2.19-.37,4.38-.37,6.57,0,3.28,.88,6.55,.75,9.8-.12,5.96-.35,11.93-.41,17.88,.02,4.92,1.02,9.84,.99,14.76,0,6.99-.39,13.97-.4,20.96-.02,4.24,1,8.49,1,12.74,.08,4.88-.56,9.8-.17,14.69-.31,1.75-.05,3.65,.35,5.01-1.12,2.85-7.23,3.79-14.84,5.32-22.3,6.17-29.98,12.72-59.9,18.7-89.92,.55-2.8,1.55-5.5,2.35-8.24-4.83-3.61-2.16-8.51-2.71-12.85-.15-1.16,.18-2.37,.81-3.43,.9-1.53,2.24-2.52,4.19-2.77,1.31-.12,2.44,.25,3.42,1.04l-.03-.02Z"/><path class="s" d="M419.99,262.86c1.21,1.25,.37,2.59,.11,3.84-8.25,39.46-16.55,78.91-24.84,118.37-1.44,1.11-3.18,.56-4.75,.56-13.54,0-27.06,.61-40.58,.03-5.43-1.36-11.19,.33-16.65-1.34-.7-.22-1.23,1.63-2.55,1.69-3.02,.45-5.96-.66-8.96-.35-8.38-2.12-16.78-.24-25.19,0-14.9,1.04-29.79-.21-44.69-.02-1.63,.02-3.32,.35-4.89-.37-4.27,0-8.54-.11-12.8,0-2.2,.06-2.81-.51-2.45-2.52,.49-2.74,1.55-5.44,1.12-8.28,1.21-2.32,3.45-2.71,5.99-2.69,19.04,.09,38.09,.15,57.12,.22,23.71,.07,47.42,.16,71.14,.22,2.95,0,5.9-.27,8.85-.21,2.56,.05,2.28-1.78,2.75-3.05,4.96-13.5,9.86-27.02,14.78-40.53,7.5-20.59,15.09-41.16,22.36-61.82,.71-2.02,2.71-1.95,3.52-3.33l.14-.42h.45Z"/><path class="af" d="M419.99,262.86c-.17,.18-.37,.32-.62,.41-2.15-.08-4.31-.23-6.46-.23-53-.04-105.99-.07-158.98-.1-.04-3.55-.1-7.08-.11-10.63,0-6.57,2.32-8.68,9.61-8.79,.99-.02,1.97-.06,2.95-.08,.68,1.05,1.18,.94,2.4-.54,1.27-.56,2.61-.56,3.98-.36,1.1,.12,2.03,.68,3.08,.9,1.79-.02,3.59-.03,5.38-.05,1.62,.72,.08,1.94,.61,2.92,.07-1.38,.13-2.71,1.55-3.52,1.25-.47,2.59-.56,3.91-.73,1.01-.1,1.89,.56,2.92,.4,1.48,1.59,3.52,.91,5.35,1.07,.79,.37,1.01,1.05,1.16,1.77,.09-.61,0-1.25,.22-1.84,.21-.57,.61-1,1.21-1.29,1.37-.19,2.68,.11,4,.32,.92,.64,1.94,.47,2.95,.27,1.68,1.1,3.61,.7,5.48,.71,1.8,1.23,.74,2.96,1.14,4.14,.76-1.57-1.41-4.33,1.88-5.55,1.84,.02,3.64,.13,5.18,1.17,2.21,.07,4.42,.15,6.63,.22,.19,.07,.38,.15,.57,.22,.17,.32,.11,.69,.2,1.03,.06-.23,.16-.47,.31-.76,.3-.54,.77-.88,1.33-1.14,1.3-.46,2.62-.46,3.97-.24,1.07,.12,1.97,.74,3.03,.91,1.81-.02,3.63-.03,5.44-.05,.55,.95,1.34,.77,2.37-.54,1.27-.56,2.61-.57,3.97-.37,1.1,.12,2.02,.68,3.07,.92l5.15,.07c.81,.8,.78,1.85,1.05,2.81,.03,.6,.37,.17,.35,.12-.8-1.46-.7-2.77,1.02-3.69,1.25-.44,2.59-.54,3.9-.71,1-.07,1.88,.53,2.9,.42,1.49,1.55,3.5,.91,5.33,1.05,2.06,3.12,1.72-1.31,2.96-.77,1.11-.4,2.25-.45,3.42-.28,1.02,.4,2.11,.37,3.2,.3,1.67,1.1,3.59,.68,5.44,.74,1.38,.71,.99,1.98,1.29,3.45-.1-1.41-.2-2.44,.07-3.45,.29-.56,.63-1.09,1.31-1.34,1.32-.12,2.59,.2,3.87,.36,1.04,.06,1.79,.85,2.83,.92,1.84,0,3.67,.02,5.51,.02,.96,.39,.73,1.12,.62,1.81,.34-.55,.02-1.23,.43-1.76,.29-.36,.66-.61,1.08-.82,1.35-.44,2.72-.39,4.11-.17,1.12,.12,2.05,.74,3.14,.95,1.99,.07,3.99,.13,5.98,.19,2.49,.92,5.92-2.36,7.79,1.38-3.05,.7-4.22,2.58-4.19,5.28,.03,3.27,.06,6.55-.04,9.81-.05,1.34,.16,2.34,1.76,2.71v.02Z"/><path class="ap" d="M530.37,133.03c-1.64,2.86-4,5.17-7.24,6.52-2.78,1.15-5.81,1.54-8.47-.33-2.55-1.79-2.73-4.28-1.95-6.9,.25-.83,.79-1.61,.17-2.84-6.09,4.95-11.79,10.13-18.92,13.69-4.97,2.48-10.16,4.43-15.83,4.86-2.43,.18-3.63,.79-3.76,3.06-.2,3.4-2.59,4.52-6.06,4.33-4.27-17.79,9.8-33.31,30.06-37.58,25.06-5.28,43.69,6.42,47.61,29.88,.63,3.73,2.34,6.38,5.13,8.81,4.34,3.77,9.21,6.81,14.74,9.02,1.06,.42,2.11,.9,3.09,1.44,4.67,2.57,11.06,4,10.56,10.48-.42,5.51-8.73,13.06-15.17,14-2.68,.39-3.4,1.37-3.9,3.57-1.8,7.98-8.57,12.6-17.58,11.92-2.28-.17-3.33,.71-4.6,1.9-3.46,3.28-7.4,5.95-12.08,7.71-1.44-4.84-.27-9.78-.64-14.66-.14-1.86,1.64-2.47,3-3.25,8.43-4.83,12.94-11.77,13.91-20.66,.32-3.01,1.38-5.21,4.59-7.18,6.81-4.2,5.28-14.02-1.87-15.49-.76-.16-1.82-.59-2.05-1.13-3.04-7.31-12.24-12.03-11.02-21.12-.58-.82-1.17-.72-1.78-.02h.03Z"/><path class="ap" d="M462.56,165.27c1.87,2.77,3.38,5.8,7.17,7.01,1.83,.58,1.47,2.16,1.57,3.44,.79,9.95,5.34,17.95,14.98,23.3,.98,.54,2.15,.99,2.07,2.26-.32,4.82,.99,9.72-.78,14.48-3.16-1.81-6.82-2.12-10.35-2.88-5.63-1.21-10.28-3.68-11.26-9.35-.36-2.07-1.55-2.18-3.33-2.34-4.3-.38-8.5-1.17-12.34-3.12-9.12-4.65-10.3-12.64-2.67-19.06,5.21-4.38,10.57-8.61,14.94-13.72h0Z"/><path class="ao" d="M574.45,454.39c5.24-2.08,10.81-2.09,16.39-2.02,2.08-1.83,0-4.3,1.22-6.26,.32-.33,.66-.66,.98-1,1.32,13.2-2.81,25.33-9.43,36.84-4.81,8.36-11,15.87-19.36,21.75-.67-.12-1.11-.5-1.47-.99-6.13-2.18-12.46-2.05-18.87-1.5-2.11,.18-4.27,.1-6.42,.12-2.46,.02-4.91-.04-7.36,.1-2.89-.15-5.89,.48-8.58-1-.21-2.86,2.31-2.08,3.98-2.43,2.32-.06,4.68-.22,6.94,.09,8.25,1.16,13.97-2.62,19.04-7.62,9.39-9.26,16.52-19.73,20.57-31.8,.52-1.53,.65-3.28,2.37-4.29h0Z"/><path class="fk" d="M470.31,514.68c3.88-3.94,2.18-7.52-.17-11.64-4.25-7.46-8.4-14.96-11.04-23.15-1.5-4.67-5.29-8.78-8.25-13.03-2.52-3.64-1.46-7.6,2.78-9.37,2.16-.9,6.09,1.68,6.08,4.22,0,1.19-.51,2.42,.3,3.45,6.44,8.1,6.94,18.2,11.26,27.02,2.95,6.02,7.64,10.52,13.66,13.99,3.62,2.08,7.52,3.75,11.15,5.82,5.14,2.91,5.36,3.41,6.46,9.49-1.49,.09-2.95,.17-4.4,.27-9.88-.44-19.15-2.81-27.83-7.06h-.02Z"/><path class="au" d="M587.39,274.73c-.71-11.68-.09-23.3,2.17-34.83,8.07,2.28,15,6.59,22.41,10.06,.16,2.28-2.6,2.42-3.55,3.91-3.19,2.91-6.41,5.81-9.65,8.68-1.58,1.42-2.81,3.11-4.21,4.65-2.17,2.07-3.47,4.71-5.52,6.86-.44,.43-.82,1-1.65,.66h0Z"/><path class="e`" d="M246.92,394.17c49.9,0,99.8,.02,149.7,0,2.28,0,4.69,.51,6.75-.91,.66,.5,.77,1.09,.3,1.74-46.34,.04-92.68,.07-139.02,.12-5.88-.81-11.94,.98-17.75-.95h0Z"/><path class="ah" d="M320.62,385.09h11.09c5.29-.61,10.59-.61,15.88,.02,15.89-.02,31.78-.02,47.67-.04-2.17,2.07-4.93,.85-7.4,.97-4.76,.25-9.56,.17-14.33,.22-3.95,.47-7.91,.46-11.86,0h-22.07c-4.63,.48-9.24,.47-13.87,0h-19.08c-2.95,.46-5.92,.46-8.87,0h-7.1c-3.29,.46-6.58,.46-9.87,0h-1.11c-3.29,.47-6.58,.46-9.87,0-7.61,0-15.23,0-22.83,0v-1c17.26-.05,34.52-.1,51.78-.16,7.28-.61,14.57-.7,21.85-.02h-.02Z"/><path class="c`" d="M517.5,520.81c3.48,.49,6.3-2.14,9.77-1.7,2.64-1.69,5.51-2.69,8.82-2.44,.78,.3,1.33,.8,1.54,1.55-9.32,3.89-19.24,4.99-29.35,5.27-.84,.02-1.65-.07-2.08-.88,1.73-1.83,4.21-.48,6.2-1.2,1.65-.55,3.5,.25,5.11-.61h0Z"/><path class="e" d="M578.62,290.66l.42,.08c.7,.1,.78,.66,1,1.1-2.25,6.63-4.5,13.26-6.75,19.88-.58-.12-.64-.65-.93-.99-.07-7.24,3.92-13.46,6.27-20.08Z"/><path class="eo" d="M572.5,233.67c-4.37,5.95-10.17,10.65-16.22,15.14-1.06,.3-1.32-.11-1.06-.97,5.13-4.65,11.01-8.67,15.05-14.26,.74,.03,1.49,.06,2.23,.09h0Z"/><path class="dl" d="M515.68,85.04v16.58c-2.3-4.12-2.71-12.56,0-16.58Z"/><path class="fq" d="M573.11,317.88l-.06,17.12c-.9,1.19,.39,2.84-1.04,3.91-1.29-2.46-.75-5.04-.66-7.59,.64-2.96,.58-5.93,.03-8.89-.19-2.54-.57-5.1,.65-7.55,1.26,.74,.19,2.14,1.08,2.99h0Z"/><path class="di" d="M579.14,363.66c1.53-.64,1.86,.32,2.39,1.31,2.18,4.08,4.46,8.11,6.69,12.15-.11,.56-.48,.91-1.1,1.05-3.43-4.49-6.34-9.22-7.99-14.51Z"/><path class="fk" d="M448.4,390.52c2.57,2.69,2.67,5.48,.3,8.58-2.17-1.93-2.56-4.43-3.27-6.8,.59-1.14,1.58-1.74,2.98-1.79h0Z"/><path class="cn" d="M598.06,389.75c4.07,3.87,8.97,7.03,12.12,11.68-5.75-2.28-9.33-6.64-12.95-10.97-.3-.78,0-.99,.82-.71h0Z"/><path class="cg" d="M313.51,242.8c-2.13,1.83,.13,4.26-1.02,6.33-2.5-1.46-1.74-3.69-1.91-5.65,1.15-1.85,2.41-3.71,5.13-3.58,1.61,.07,3.42,.42,2.97,2.61-1.66,.99-3.5-.59-5.17,.29h0Z"/><path class="ct" d="M298.53,242.57c-1.77,1.74-.07,3.91-.99,6.11-2.89-1.15-1.31-3.54-1.98-5.15,3.91-4.51,5.92-4.67,9.55-.77-.33,1.33-1.04,1.54-2.13,.57-1.33-.98-2.89-.86-4.45-.76h0Z"/><path class="bv" d="M558.26,508.23c-3.32,2.56-6.96,4.67-11.01,6.19-.7-.25-1.27-.59-1.24-1.38,3.21-2.9,6.75-5.31,11.32-6.21,.73,.24,1.31,.56,.93,1.4h0Z"/><path class="fu" d="M634.18,414.63c4.14,1.22,8.25,2.49,11.87,4.76l.06,.57c-4.51-.2-8.31-2.09-12.05-4.12-.38-.44-.34-.84,.12-1.2h0Z"/><path class="gk" d="M671.59,423.72c2.47,0,4.94,0,7.41-.02,1.42-.02,2.22,.42,1.84,1.83-4.63,.14-9.21-.31-13.78-.92,1.02-2.31,2.95-.87,4.51-.89h0Z"/><path class="de" d="M446.76,127.98c3.86,.07,6.61,2.17,9.38,4.28-3.69-.32-6.73-1.89-9.38-4.28Z"/><path class="cj" d="M449.52,241.59c-3.47-1.79-5.19-5.16-8.17-7.4,.43-1.11,1.27-1.14,2.29-.68,1.68,2.88,5.23,4.39,6.69,7.41,.1,.6,.04,1.01-.81,.66h0Z"/><path class="ga" d="M659.38,231.88c-4.07,.95-8.15,1.91-12.22,2.86-.44-.39-.47-.81-.09-1.25,3.16-1.43,6.51-2.25,10.03-2.54,.64,.56,1.83,.02,2.29,.93Z"/><path class="ej" d="M401.46,243.41c-2.52,1.58,.7,3.62-.43,5.71-2.43-1.71-1.33-3.87-1.73-5.66,1.66-2.32,3.12-5.06,7.01-2.7-.07,.66-.47,1.13-1.11,1.44-1.25,.4-2.69,.32-3.74,1.2h0Z"/><path class="dd" d="M637.15,238.14l-9.1,4.18c-.51-.18-1.13-.24-1.21-.89,3.06-2.12,6.51-3.53,10.15-4.62,.49,.4,.54,.84,.17,1.32h0Z"/><path class="eb" d="M659.38,231.88c-.77-.31-1.52-.61-2.29-.93,3.91-1.06,7.91-1.59,11.98-1.76,.3,.18,.47,.44,.52,.77-.06,.32-.24,.57-.55,.75-3.21,.39-6.44,.78-9.65,1.17Z"/><path class="bw" d="M545.99,513.45c.42,.32,.84,.64,1.26,.96-2.97,1.75-6.13,3.13-9.63,3.81-.44-.32-.89-.65-1.33-.97,2.52-2.74,5.68-4.17,9.7-3.8h0Z"/><path class="av" d="M424.41,239.9c.03,1.14,.05,2.27,.07,3.41-2.67,1.02-5.34,.77-8-.02,2.36-1.66,5.06-2.7,7.93-3.4h0Z"/><path class="fx" d="M466.29,109.91c-2.15-2.67-4.3-5.33-6.45-8l1.27-.8c2.79,1.77,3.99,4.64,5.42,7.35,.35,.54,.27,1.02-.24,1.44Z"/><path class="dc" d="M393.78,243.45c-.74,1.34-1.44,.27-2.15-.02-1.29-.93-2.73-1.05-4.27-.63l-.86,.62c-.95,.1-1.57-.05-1.03-1.09,3.49-3.64,5.96-3.3,8.32,1.12h0Z"/><path class="ap" d="M574.21,345.23c1.39,2.31,1.64,4.9,2.2,7.41,.16,1.59-.68,1.74-2.04,1.15,.98-2.86-2.76-5.66-.16-8.55h0Z"/><path class="fk" d="M491.37,370.09c-2.58,5.01-2.75,5.06-6.01,1.59,2-.53,4.01-1.06,6.01-1.59Z"/><path class="fi" d="M646.11,419.96c-.1-.18-.12-.37-.06-.57,2.9-.22,5.58,.42,8.12,1.66,.02,.73-.44,1.2-1.02,1.63-2.27-1.05-5.11-.93-7.03-2.71h0Z"/><path class="fv" d="M372.29,243.38c-1.65,1.58,.39,3.69-.93,5.4-2.95-1.1-1.29-3.53-1.96-5.24,.26-1.05,1.16-1.59,2.09-2.12,.66,.18,1.16,.55,1.44,1.13,.06,.45-.15,.72-.64,.84h0Z"/><path class="ce" d="M357.48,243.39c-1.83,1.79,.06,3.8-.31,6.13-2.59-1.75-2.31-3.91-2.32-5.98,.75-.52,.58-1.74,1.8-1.92,.88-.35,1.19,.16,1.43,.76,0,.43-.19,.76-.6,1h0Z"/><path class="e" d="M327.89,243.4l-.99,1.08c-.7-.05-.76-.63-1.05-1.02h-.43c1.7-2.44,3.33-5.01,7.26-2.78,.41,.69-.06,1.09-.61,1.45-1.32,.61-3.07,.09-4.18,1.27h0Z"/><path class="dh" d="M558.26,508.23c-.37-.32-.75-.65-1.12-.97,1.18-2.62,2.72-4.81,6.45-4.43,.21,.29,.43,.58,.65,.87-1.45,2.09-3.71,3.31-5.98,4.52Z"/><path class="bx" d="M572.01,338.91c.45-1.28-.27-2.81,1.04-3.91,.12,3.3,1.85,6.53,.68,9.9-2.49-1.55-1.33-3.95-1.73-5.99h0Z"/><path class="cx" d="M283.65,243.4c-2,1.75,.04,3.8-.43,6-2.53-1.74-2.28-3.87-1.99-6,.51-.6,1.02-1.19,1.52-1.79,.89-.38,1.2,.14,1.46,.75,0,.43-.18,.78-.56,1.04Z"/><path class="ev" d="M485.69,97.35c2.99,3.29,3.04,3.4,2.85,6.71-1.58-1.44-2.53-3.68-2.85-6.71Z"/><path class="cc" d="M385.47,242.32c.34,.37,.69,.72,1.03,1.09v5.95c-2.62-1.49-1.87-3.84-2.1-5.85,.35-.4,.7-.79,1.06-1.19h0Z"/><path class="ae" d="M416.48,243.3c2.67,0,5.34,0,8,.02,.88,.42,1.04,1.15,1.05,1.96-1.02-.07-2.06-.15-3.09-.22-2.31-1.8-5.45,.21-7.79-1.39l1.83-.37h0Z"/><path class="df" d="M619.19,246.59c-.96,2.15-3.1,3.02-5.21,3.94-.9,.19-1.19-.08-.85-.86,1.7-1.54,3.08-3.57,6.06-3.08h0Z"/><path class="go" d="M357.57,242.39l-.92-.77c3.02-3.49,5.19-1.1,7.42,.86-.56,1.36-1.43,.76-2.27,.28-1.36-.61-2.87,.28-4.22-.37h0Z"/><path class="cw" d="M268.82,243.45c-1.87,1.53,.08,3.35-.6,5.64-2.35-1.74-1.65-3.84-1.83-5.65,.49-.6,.98-1.2,1.47-1.8,.88-.41,1.18,.11,1.43,.71,0,.42-.15,.79-.47,1.1Z"/><path class="dn" d="M537.18,104.32c-.15-2.34-.4-4.76,2.59-6.82-.03,2.89-.4,5.07-2.59,6.82Z"/><path class="fh" d="M283.72,242.44l-.97-.83c3.02-3.45,5.21-1.06,7.46,.86-.57,1.39-1.43,.71-2.25,.25-1.38-.53-2.86,.28-4.24-.27Z"/><path class="gt" d="M619.16,406.69c2.03,1.2,4.06,2.4,6.1,3.59-.12,.57-.73,.67-1.14,.96-2.29-.84-4.28-2.08-6.12-3.54,.14-.56,.53-.9,1.16-1.02h0Z"/><path class="cr" d="M342.66,243.48c-1.95,1.51,.29,3.5-.64,5.6-2.39-1.74-1.58-3.82-1.76-5.63,.49-.6,.97-1.2,1.46-1.79,.89-.39,1.18,.13,1.42,.74,0,.42-.16,.79-.49,1.09h0Z"/><path class="ep" d="M372.33,242.48l-.85-1.07c2.77-.78,5.68-2.16,7.49,1.36-.34,1.33-1.04,1.53-2.13,.56-1.34-1-2.95-.82-4.51-.85h0Z"/><path class="eu" d="M671.59,423.72c-1.51,.27-3.25-.39-4.51,.89-1.46-.06-3.17,.53-3.94-1.25l-.05,.11c2.89-1.34,5.7-.57,8.5,.25h0Z"/><path class="dg" d="M578.14,357.4c.59,2.08,3.11,3.89,1.07,6.33-1.34-1.47-1.95-3.2-2.17-5.06-.41-.97,.02-1.35,1.11-1.28h0Z"/><path class="ey" d="M624.13,411.25c.38-.32,.76-.64,1.14-.96,1.94,.95,3.88,1.92,5.81,2.87,.09,.84-.11,1.35-1.21,.9-2.18-.5-4.09-1.44-5.74-2.81h0Z"/><path class="fb" d="M669.06,229.85c.02-.22,.02-.44,0-.66,4-.18,7.99-1.05,12.01-.17-1.19,2-3.21,.77-4.86,1.01-2.4,.4-4.8,.76-7.16-.19h0Z"/><path class="ft" d="M610.09,401.35c2.89,.02,4.32,2.13,6.24,3.55-.16,.56-.56,.86-1.18,.94-1.92-1.28-4.51-1.95-5.06-4.48Z"/><path class="fk" d="M438.38,400.27c.68,3.06-.91,4.77-4.08,5.55,.9-2.12,2.21-4.01,4.08-5.55Z"/><path class="gp" d="M637.15,238.14l-.17-1.32c1.36-.99,2.97-1.41,4.64-1.7,1.12-.34,1.59,.03,1.46,1.07-1.98,.65-3.95,1.3-5.93,1.95h0Z"/><path class="fs" d="M598.06,389.75l-.82,.71c-1.75-1.15-3.14-2.56-4.07-4.33-.35-.95,.1-1.17,1.06-.94,1.54,1.34,3.04,2.71,3.84,4.55h0Z"/><path class="e" d="M625.36,243.54c-1.62,1.35-3.16,2.84-5.68,2.59,.96-1.73,1.99-3.37,4.44-3.64,.66,.11,1.09,.45,1.24,1.05h0Z"/><path class="gi" d="M613.13,249.67c.29,.29,.56,.58,.85,.86-1.29,1.55-2.99,2.68-4.8,3.69-.55-.12-.86-.42-.95-.92,1.25-1.11,2.49-2.23,3.74-3.35,.39-.1,.78-.19,1.16-.29h0Z"/><path class="ao" d="M653.15,422.68c.02-.71,.3-1.28,1.02-1.63,1.95,.37,3.89,.73,5.84,1.1,0,1.69-1.14,1.16-2.13,.87l-4.72-.33h0Z"/><path class="ff" d="M578.14,357.4c-.37,.42-.74,.86-1.11,1.28-.89-1.64-1.78-3.27-2.67-4.9,.98,.05,1.61-.41,2.04-1.15,.57,1.59,1.15,3.18,1.73,4.77h0Z"/><path class="an" d="M571.39,322.43c1.17,2.96,1.26,5.93-.03,8.89-.51-2.96-.56-5.93,.03-8.89Z"/><path class="dy" d="M594.22,385.2l-1.06,.94c-1.44-1.46-3.39-2.67-3.03-5.01,2.34,.56,3.14,2.37,4.08,4.07h0Z"/><path class="el" d="M643.07,236.19c-.49-.36-.97-.71-1.46-1.07,1.64-1.01,3.43-1.63,5.45-1.62l.09,1.25c-1.36,.48-2.72,.96-4.08,1.44h0Z"/><path class="gl" d="M342.71,242.64c-.32-.33-.66-.66-.98-1,1.62-1.39,3.21-3.4,5.09-.22-.11,.17-.22,.34-.32,.51-1.17,.62-2.45,.76-3.78,.7h0Z"/><path class="g`" d="M405.52,241.65c.26-.29,.53-.59,.78-.88,1.88,.12,2.11,1.42,2.37,2.7-.76,.96-1.51,.66-2.25-.02-.42-.56-1.51-.84-.9-1.81h0Z"/><path class="fr" d="M268.84,242.64l-1-1c1.63-1.41,3.24-3.31,5.13-.25-.18,.38-.45,.68-.87,.87-1.08,.21-2.14,.51-3.28,.38h0Z"/><path class="fg" d="M615.15,405.83c.4-.32,.78-.62,1.18-.94,.94,.6,1.88,1.2,2.83,1.79l-1.16,1.02c-.95-.63-1.9-1.25-2.85-1.88h0Z"/><path class="a`" d="M313.51,242.8c1.57-2.3,3.43-.42,5.17-.29,.03,.25,.06,.5,.1,.75-1.8,.23-3.63,.78-5.27-.46h0Z"/><path class="gj" d="M657.86,423.02c.71-.29,1.42-.58,2.13-.87,1.32-.12,2.55-.04,3.08,1.33l.05-.11c-1.81,.61-3.59,.77-5.26-.35Z"/><path class="ft" d="M587.13,378.18c.37-.35,.73-.7,1.1-1.05,1.02,1.23,2.52,2.27,1.98,4.11-1.92-.29-2.53-1.66-3.07-3.06h0Z"/><path class="dr" d="M349.7,243.46c-.79,.72-1.58,1.07-2.34-.04-.42-.56-1.5-.9-.71-1.84l.16-.15c2.49-1.07,2.42,.79,2.88,2.03h0Z"/><path class="fw" d="M331.5,241.69c.4-.34,.78-.67,1.18-1.01,1.51,.44,1.99,1.53,2.15,2.81-.78,1.05-1.52,.62-2.26-.03-.44-.54-1.4-.84-1.06-1.76h0Z"/><path class="dw" d="M275.85,243.45c-.79,.81-1.57,.96-2.34-.02-.42-.56-1.5-.9-.72-1.83l.19-.19c2.55-1.11,2.35,.87,2.86,2.05h0Z"/><path class="cu" d="M573.11,317.88c-1.14-.77-.74-1.98-1.08-2.99,.11-1.39,.21-2.76,.32-4.15,.31,.33,.62,.66,.93,.99l-.18,6.14h0Z"/><path class="eg" d="M466.29,109.91c.08-.48,.17-.96,.24-1.44,.43,.22,1.03,.33,1.26,.66,.65,.91,2.59,2.08,1.22,2.9-2.05,1.21-1.72-1.44-2.72-2.11Z"/><path class="fs" d="M629.87,414.05c.41-.3,.8-.6,1.21-.9,1.03,.49,2.08,.99,3.11,1.48-.04,.4-.08,.81-.12,1.2-1.63-.17-3.07-.69-4.2-1.79h0Z"/><path class="fc" d="M625.36,243.54c-.42-.35-.83-.7-1.24-1.05,.41-1.39,1.88-.55,2.71-1.05,.41,.3,.8,.6,1.21,.89-.9,.41-1.79,.81-2.69,1.21h0Z"/><path class="bm" d="M719.98,281.1c3.24,1.5,5.67,3.83,7.99,6.28,3.71,2.8-.99,4-1.4,6.02-.3,.32-.7,.51-1.15,.58-2.83,.02-1.93,1.97-1.96,3.26-.09,4.18-1.5,7.9-4.41,11.16-.97,.98-2.11,1.79-3.27,2.47-.3,.46-.68-.12-.1,.18,.06,.02,.37-.27,.68-.45,4.51-3.74,10.33-4.69,15.88-6.21,1.6-.07,3.18-.08,4.06,1.45,.3,2.23-.28,4.47,.08,6.69,.18,1.64,.78,3.19,1.57,4.67,2.53,2.22,6.53,1.95,8.97,4.3-2.11,1.29-1.96,3.16-1.94,5.17,.23,19.35-8.46,34.9-25.34,46.69-12.53,8.75-26.92,12.67-42.77,11.83-22.06-1.16-38.97-10.46-51.15-26.86-1.44-1.93-3.41-3.74-3.61-6.29,1.23-1,2.48-.37,3.73-.07,7.71,1.92,14.68,.49,20.08-4.72,5.58-5.38,12.06-8.45,20.11-9.71,7.67-1.2,13.95-7.78,14.15-13.64-.12-1.07,.09-2.08,.64-3.04,.18-.36,.37-.71,.55-1.06,.75-1.64,.59-3.3,.06-4.96-.29-.73-.66-1.43-1.02-2.13-.2-.37-.37-.74-.52-1.13-.67-1.81-1.21-3.63-.97-5.56,.29-2.15,1.53-3.88,3.11-5.41,2.32-2.26,3.11-4.79,1.97-7.74-.27-1.25-.34-2.54-.95-3.72-6.93-4.62-12.21-11.59-21.84-12.35-1.16-.09-2.3-.23-3.16-1.07h-8.25c18.73-8.58,36.6-9.51,54.92-2.73,1.04,5.15,.54,10.3-.04,15.44-.14,.39-.37,.73-.67,1.03-.79,.58-2.02,.57-2.56,1.5-.23,1.2,.46,2.09,1.15,2.99,1.05,1.24,2.62,1.88,3.91,2.84,1.48,1.18,3.32,2,4.35,3.62,.65,.95,1.14,1.98,1.73,2.97l.32-.27c-.6-.26,.67-.53,.02-.45,1.43-3.44,1.39-7.08,2.05-10.62,.53-1.61,2.19-2.5,3.07-3.89,.95-1.5,1.54-2.92-.38-4.19-.23-.39-.34-.81-.33-1.25,.42-1.13,.95-2.09,2.59-1.64h0Z"/><path class="y" d="M658.09,275.74c6.46-.57,12.01,.66,16.06,5.77,1.55,1.96,4.42,2.51,6.79,3.55,1.93,.86,3.39,1.84,3.06,4.02,1,1.23,.42,2.43-.05,3.64-.79,1.48-1.96,2.76-2.9,4.16-.84,1.15-1.69,2.28-1.91,3.69-1,2.13-.46,4.28-.12,6.42-.05,2.08,.65,3.94,2.05,5.59l-.06-.11c0,1.83,.96,3.58,.71,5.45-.54,2.26-1.42,4.42-2.7,6.43-1.46,2.6-4.37,4.01-6.28,6.24-.42,.46-.93,.85-1.53,1.12-1.38,.4-2.92,.36-4.13,1.23-.33,.23-.69,.41-1.08,.56-1.43,.15-2.88,.24-4.18,.9-1.67,.67-3.46,.72-5.24,.87-4.18,1.1-6.4,4.13-8.63,7.14-.37,.54-.85,.98-1.45,1.31-1.45,.64-2.81,1.42-4.14,2.26-2.24,1.44-4.64,2.56-7.4,2.96-6.49,1.49-12.32,.78-16.86-4.13l.09,.08c-1.59-1.59-2.69-3.45-3.56-5.42-1.02-1.72-1.73-3.5-1.47-5.5-.4-2.87,.36-5.53,1.91-8.02-1.46-1.99-2.97-3.96-3.92-6.21-4.25-5.01-3.93-9.03,.9-13.85,2.98-2.97,7.02-5.16,8.74-9.06,.79-1.79,1.27-3.64,1.38-5.63,.69-12.57,10.89-16.2,22.33-15.14,4.59,.43,9.09,1.3,13.57-.3v-.02Z"/><path class="fa" d="M725.82,293.48c-1.39-2.63,4.21-3.28,2.14-6.1,.62-2,1.13-4.04,1.88-6,.51-1.31,1.8-2.84,3.27-1.76,2.07,1.53,3,1.53,4.48-.51,1.11-1.53,2.64-3.59,5.08-2.84,2.45,.75,1.61,3.2,1.9,5.45,3.73-3.38,7.27-.27,10.52,.3,3.37,.6,1.24,3.53-.2,5.38-.7,1.59-2.31,2.19-3.91,2.38-6.2,.74-10.74,4.15-15.23,7.14,1.65-.2,3.15-.25,2.32,2.16-.4,.58-.78,1.15-1.18,1.74-.97,2.01-3.35,2.34-5.06,3.48-4.56,1.46-8.81,3.84-13.88,3.78,3.16-4.03,5.06-8.36,4.17-13.41-.18-1-.48-2.26,.96-2.7,1.42-.44,1.86,.99,2.74,1.56,.61,.55,.48,1.39,1.26,2.45-.72-1.1-.66-1.92-1.26-2.47h0Z"/><path class="fa" d="M717.93,282.94c-.02,.28,.03,.56,.13,.83,1.26,1.74-.3,3.04-.84,4.51-.42,1.18-2.17,2-1.22,3.56,.09,3.94,.15,7.88-2.6,11.29-1.97-.12-1.85-1.89-2.8-2.82-1-1.52-2.77-2.28-4.17-3.4-1.15-.85-2.5-1.43-3.69-2.23-1.04-1.48-1.86-3.06-2.55-4.7,.94-1.35,2.41-.82,3.73-.85,.89,1.05,3.19-.28,3.52,1.69-.22-2.18-2.63-.65-3.53-1.69,.08-5.39-.71-10.81,.85-16.14-.17-3.08,1.3-6.04,.49-9.24-.43-1.7-.38-4.32,1.97-5.03,3.11-.95,3.4,2.05,4.66,3.59,.42,.46,.2-.27,.36,.27,1.64,5.74,6.37,10.98,3.92,17.34-.82,2.13,2.07,1.63,1.76,3.01h0Z"/><path class="ay" d="M671.08,330.87l.04-.34,.38-.04c2.65-1.57,5.15-3.3,6.95-5.7,.82-.56,.98-2.05,2.59-1.48,1.19,1.54,1,3.02-.05,4.57-3.79,5.65-8.5,10.15-16.28,11.14-5.84,.75-11.13,2.5-15.17,6.72-7.48,7.82-16.55,10.38-27.44,6.31-1.26-1.87-3.85-2.99-3.89-5.55,4.52,.48,8.19,4.01,13.2,2.88,1.26-.28,2.64-.13,3.83-.74,2.82-.27,5.09-1.59,7.28-3.04,1.29-.64,2.45-1.44,3.4-2.47,.39-.35,.78-.69,1.17-1.04,3.03-2.63,5.98-5.32,8.94-8.02,2.09,.09,4.16,.13,6.05-.88,1.36,.16,2.75,.54,3.98-.38-.21-.21-.2-.42,.03-.61,1.75-.17,3.62,.06,4.97-1.32h.02Z"/><path class="br" d="M738.06,299.07c-.06-2.12-2.55-1.29-3.55-2.24,5.39-5.72,12.87-7.59,20.37-9.44,1.28,1.59,5.72,.26,4.69,3.88-.79,2.77-3.37,3.25-6.23,3.35-5.54,.17-10.59,1.86-15.28,4.46Z"/><path class="bt" d="M717.93,282.94c-1.94-.89-4.25-1.2-2.41-4.28,1.07-1.78,1.87-4.59-1.85-5.99-1.49-.56-.76-2.47-.72-3.74,.07-2.27-.48-4.43-1.07-6.61,1.46-.77,1.73-3.35,4.15-2.55,2.34,.77,2.84,2.81,2.88,4.8,.05,2.37-.16,4.76-.3,7.14-.05,.72-.51,2.01-.32,2.08,4.52,1.73,1.54,4.82,1.72,7.31-.99,.34-1.64,.98-2.06,1.84h0Z"/><path class="f`" d="M735.11,313c.06-2.34-.61-4.73,.65-6.98,.57-.68,1.2-1.2,2.24-.79,1.32,.76,1.34,2.49,3.98,2.51,3.27,.02,7,6.76,5.97,9.37-5.12,.75-9.92,.7-12.84-4.09h0Z"/><path class="dg" d="M636.09,349.29c-6.62,2.49-12.4,.63-17.88-2.79-.04-.56-.08-1.14-.12-1.7,3.7,1.05,6.61,3.88,10.85,3.76,2.11-.06,4.19-.11,6.18-.82,.72,.32,1.54,.59,.97,1.56h0Z"/><path class="am" d="M746.91,321.51c-3.55-.7-7.1-1.42-9.96-3.64,3.83-2.32,7.34-.94,10.82,.76,.14,1.06,.35,2.15-.86,2.89Z"/><path class="cb" d="M747.76,318.61c-3.58-.51-7.1-1.85-10.82-.76-1.16-1.45-1.5-3.15-1.84-4.86,3.72,2.78,8.51,2.86,12.84,4.09l-.19,1.52h0Z"/><path class="ge" d="M608.23,253.3c.31,.31,.63,.61,.95,.92-3.32,2.99-6.66,5.99-9.98,8.97-.42-.18-.7-.47-.84-.88,2.56-3.65,6.02-6.5,9.87-9.02h0Z"/><path class="bo" d="M738,305.22c-.75,.27-1.5,.53-2.24,.79-1.14-1.08-2.66-.49-3.99-.75-.54-.78-.42-1.52,.2-2.22,1.28-1.38,3.36-1.35,4.92-2.24,1.71,1.2,2.7,2.54,1.12,4.41h0Z"/><path class="aq" d="M611.14,319.71c2.59,1.42,4.11,3.38,3.93,6.22-3.42-1-5.53-2.66-3.93-6.22Z"/><path class="gf" d="M588.33,273.96c1.62-2.64,3.37-5.19,5.79-7.31,.61,.12,.97,.46,1.09,1.01-1.96,2.47-3.91,4.94-5.86,7.41-.68-.11-.76-.67-1.01-1.1h0Z"/><path class="cp" d="M580.32,287.41c1.42-2.81,2.24-5.91,4.95-8.09,.35-.3,.69-.29,1.02,.02-1.18,3.28-3.03,6.27-4.91,9.24-.71-.13-.78-.72-1.06-1.17h0Z"/><path class="ds" d="M613.16,333.95c1.56,1.56,1.02,3.74,1.99,5.48,.63,.88,.73,1.57-.75,1.7-.61-2.37-3.93-4.35-1.25-7.18Z"/><path class="cq" d="M595.2,267.65l-1.09-1.01c1.31-1.52,2.16-3.4,4.24-4.32,.28,.29,.56,.58,.84,.88l-3.99,4.45h0Z"/><path class="do" d="M614.41,341.13c.25-.56,.5-1.14,.75-1.7,1.15,1.74,2.98,3.2,3.04,5.44-2.52-.22-3-2.1-3.79-3.74Z"/><path class="ck" d="M586.29,279.34c-.34,0-.68-.02-1.02-.02-.07-1.82,1.73-2.94,2.12-4.59l.94-.77c.33,.37,.67,.74,1.01,1.1-.72,1.59-1.41,3.2-3.04,4.28h0Z"/><path class="co" d="M580.32,287.41c.35,.39,.71,.78,1.06,1.17-.45,1.09-.9,2.18-1.35,3.26-.33-.37-.66-.74-1-1.1,.42-1.11,.85-2.23,1.28-3.33h0Z"/><path class="df" d="M669.06,229.85c2.38,.07,4.77,.12,7.16,.19-2.35,.61-4.75,.79-7.19,.67,0-.29,.02-.57,.04-.86Z"/><path class="b`" d="M269.11,345.76c1.36,.21,3.7-.69,3.4,1.84-.31,2.53-1.84,4.03-4.98,3.5-1.43-.24-3.79,.62-3.45-1.88,.33-2.48,1.72-4.18,5.03-3.45h0Z"/><path class="ax" d="M361.3,350.95c-.67-.32-2.97,1.15-2.84-1.17,.15-2.64,1.54-4.58,5.01-4.04,1.33,.21,3.79-1.02,3.56,1.59-.24,2.76-1.93,4.34-5.72,3.62h0Z"/><path class="b`" d="M323.86,289.03c-.49-.21-2.75,1.15-2.33-1.46,.46-2.85,2.14-4.21,5.37-3.72,1.23,.18,3.41-.73,3.22,1.49-.26,3.02-2.2,4.49-6.27,3.69h0Z"/><path class="bh" d="M368.82,330.54c.78,.38,3.1-1.1,2.95,1.25-.18,2.67-1.6,4.51-5.08,4.03-1.48-.21-3.65,.45-3.36-2.03,.32-2.83,2.26-3.74,5.5-3.25h0Z"/><path class="bf" d="M350.96,330.9c-.11-.04,2.43-1.44,2.09,1.27-.29,2.26-1.42,3.99-4.51,3.66-1.7-.17-4.08,.46-3.8-2.2,.27-2.52,1.95-3.71,6.22-2.74h0Z"/><path class="bb" d="M285.33,350.85c-.19-.05-2.62,.95-2.31-1.61,.28-2.23,1.37-4.06,4.51-3.52,1.45,.25,3.94-.79,3.89,1.5-.06,2.42-1.58,4.28-6.08,3.63Z"/><path class="ba" d="M325.75,345.79c1.17,.34,3.7-1.05,3.35,1.66-.29,2.26-1.42,3.99-4.51,3.65-1.68-.18-4.09,.52-3.79-2.18,.28-2.52,1.92-3.74,4.94-3.14h0Z"/><path class="b`" d="M380.52,289.08c-.58-.17-2.78,.86-2.4-1.57,.4-2.56,1.82-4.05,5-3.7,1.64,.18,3.61-.13,3.35,2.18-.33,2.91-2.47,3.59-5.96,3.1Z"/><path class="b`" d="M345.38,345.85c.63,.17,2.87-.86,2.71,1.32-.18,2.39-1.36,4.35-4.73,3.94-1.53-.18-3.7,.45-3.62-1.92,.1-2.86,2.05-3.86,5.64-3.35h0Z"/><path class="bg" d="M354.67,315.28c.79,.43,3.38-1.3,3.07,1.49-.28,2.51-1.6,4.2-4.82,3.78-1.47-.19-3.72,.54-3.58-1.84,.16-2.69,1.89-3.99,5.34-3.43h0Z"/><path class="b`" d="M291.58,335.44c-1.79,.12-4.08,1.04-3.73-1.84,.3-2.52,2.11-3.55,4.81-3.13,1.32,.21,3.83-.99,3.51,1.58-.28,2.21-1.05,4.62-4.59,3.39h0Z"/><path class="bd" d="M371.26,320.55c-1.3-.12-3.15,.2-2.99-1.83,.21-2.7,1.97-4.02,4.97-3.5,1.25,.22,3.6-1.25,3.49,1.52-.13,3.13-2.54,3.72-5.47,3.81h0Z"/><path class="b`" d="M311.84,330.44c1.09,.43,3.63-1,3.29,1.72-.29,2.25-1.41,4.18-4.47,3.58-1.44-.28-4.07,.71-3.89-2.13,.15-2.2,1.66-3.17,5.07-3.17Z"/><path class="bj" d="M245.26,350.79c-.22-4.47,2.34-5.54,6.53-5.09,1.8,.19,2.21,.75,1.78,2.27-1.32,4.76-5.2,2.63-8.31,2.81h0Z"/><path class="bc" d="M306.96,345.72c1.11,.38,3.56-.91,3.18,1.82-.37,2.62-1.97,3.97-5.04,3.58-1.36-.17-3.17,.42-3.19-1.75-.03-2.37,1.67-3.66,5.06-3.64h0Z"/><path class="b`" d="M362.07,289.07c-.64-.33-3,1.17-2.62-1.38,.35-2.4,1.41-4.27,4.7-3.87,1.48,.18,3.88-.49,3.67,1.67-.23,2.59-1.98,4.35-5.75,3.57h0Z"/><path class="b`" d="M343.51,289.2c-.92-.46-3.27,1.03-3.03-1.39,.23-2.36,1.24-4.28,4.61-4.03,1.92,.14,3.7,.07,3.53,2.52-.21,3.01-2.57,2.96-5.11,2.89h0Z"/><path class="b`" d="M305.12,288.9c-.39-.25-2.99,1.45-2.45-1.1,.52-2.47,2.06-4.46,5.48-3.94,1.22,.18,3.42-.74,3.03,1.66-.44,2.75-1.98,4.43-6.05,3.39h0Z"/><path class="b`" d="M287.37,289.07c-1.24-.13-3.69,.82-3.37-1.67,.33-2.54,2.16-3.95,5.2-3.55,1.23,.17,3.42-.7,2.99,1.68-.41,2.27-.82,4.78-4.82,3.55h0Z"/><path class="e" d="M297,320.27c-2.63,.34-4.42,.47-4.17-1.81,.23-2.16,1.5-3.64,4.18-3.25,1.48,.22,4.19-1.17,4.13,1.43-.06,2.43-.96,5.11-4.14,3.63Z"/><path class="bp" d="M317.21,315.18c1.07,.32,3.33-.75,2.91,1.69-.39,2.18-1.3,4.34-4.44,3.49-1.33-.37-4.14,1.17-3.93-1.91,.16-2.39,1.72-3.37,5.47-3.25h0Z"/><path class="b`" d="M329.49,335.7c-1.13-.83-4.13,1.01-3.74-2.05,.32-2.53,2.07-3.61,4.8-3.18,1.32,.21,3.79-1.05,3.55,1.59-.21,2.3-1.69,3.8-4.62,3.64h0Z"/><path class="ba" d="M272.2,335.69c-.86-.64-3.35,.58-3.2-1.47,.17-2.33,1.32-4.41,4.75-3.78,1.42,.27,3.85-.8,3.77,1.64-.1,2.71-2.29,3.68-5.3,3.61h0Z"/><path class="e" d="M335.79,315.25c1.14,.25,3.43-.8,3.31,1.25-.16,2.67-2.23,4.06-5.28,4.03-1.49,0-3.25,.16-3.09-1.86,.21-2.71,1.84-4.03,5.06-3.42h0Z"/><path class="bg" d="M279.7,315.45c.39,.15,2.77-1.3,2.55,1.52-.27,3.46-3,3.14-5.64,3.3-1.45,.09-2.94,.42-2.64-1.43,.38-2.37,1.46-4.38,5.72-3.39h0Z"/><path class="bi" d="M253.17,335.17c-.78-.34-3.24,1.44-3.03-1,.23-2.59,1.72-4.51,5.18-3.84,1.22,.24,3.54-.83,3.29,1.4-.28,2.52-1.31,4.91-5.44,3.42h0Z"/><path class="br" d="M301.64,304.65c-1.14-.44-4.02,1.22-3.76-1.73,.24-2.71,2.42-3.34,5.02-2.98,1.23,.17,3.52-.8,3.25,1.45-.24,2.02-.63,4.6-4.51,3.25h0Z"/><path class="bq" d="M341.52,300.01c.62,.24,2.56-.95,2.33,1.35-.35,3.58-3.18,3.63-6.07,3.49-1.09-.05-2.89,.62-2.47-1.64,.59-3.2,2.92-3.62,6.21-3.2h0Z"/><path class="br" d="M359.5,299.91c1,.5,3.31-1.05,3.25,1.28-.07,2.96-2.18,4.18-5.32,3.64-1.14-.19-3.29,1.1-3.22-1.44,.06-2.37,1.66-3.46,5.29-3.49Z"/><path class="bq" d="M282.85,304.66c-1.75,.24-3.8,.49-3.85-1.59-.06-2.68,2.12-3.5,4.8-3.12,1.25,.17,3.54-.88,3.41,1.33-.12,2.17-1.1,4.23-4.36,3.39h0Z"/><path class="bp" d="M378.79,299.99c.79,.39,2.99-1.1,2.95,1.29-.05,2.67-2.26,3.6-4.64,3.46-1.18-.07-3.79,.76-3.73-1.56,.06-2.88,2.31-3.6,5.43-3.19h0Z"/><path class="bq" d="M324.89,300.03c.16,3.74-1.88,5.1-5.51,4.82-1.62-.12-3.1-.7-2.43-2.52,1.5-4.03,5.07-1.98,7.94-2.31Z"/><path class="bl" d="M260.33,315.3c.65,.35,3.24-1.44,3.1,1.24-.12,2.31-1.54,3.99-4.54,3.37-1.29-.27-3.81,1.24-3.63-1.45,.15-2.27,1.36-4.03,5.07-3.15Z"/><path class="bl" d="M265.74,300.05c.42,.17,2.92-1.31,2.59,1.44-.3,2.5-1.92,3.7-4.75,3.15-1.28-.25-3.75,1.04-3.41-1.68,.3-2.44,1.84-3.74,5.56-2.91h0Z"/><path class="bk" d="M271.43,284.71c-.11-.03,2.07-1.07,1.87,1.15-.22,2.52-1.69,4.14-4.86,3.52-1.27-.25-3.67,1-3.35-1.69,.32-2.68,2.02-3.87,6.33-2.96h0Z"/><path class="r" d="M574.45,454.39c-4.3,17.42-14.38,31.6-29.63,42.91-1.87,1.39-3.87,1.89-6.32,1.79-3.97-.18-7.97,0-11.96,.04-1.94-.61-3.9-.53-5.82,.02-1.78,.51-3.7,.74-5.38,.27-8.72-2.44-17.7-1.27-26.55-1.76-.94-.13-1.78-.44-2.43-1.1-11.24-3.67-16.5-13.33-14.03-24.23,2.93-12.97,6.02-25.89,10.18-38.58,.3-1.65,1.67-2.36,3.19-2.95,3.29-1.22,6.74-.99,10.17-.9,4.23,.45,7.7,2.27,10.78,4.8,1.63,1.39,2.72,3.15,3.97,4.82,1.02,1.1,1.77,2.3,1.94,3.74,.41,6.13,.34,12.19-3.05,17.78-.59,.96-1.11,1.97-1.59,2.98-.14,.24-.3,.48-.46,.72s-.34,.47-.54,.69c.3-.09,.37-.39,.59-.58,.66-.81,.88-1.78,1.41-2.62,.54-.9,1.04-1.83,2.01-2.45,2.67-1.21,5.11-3.06,8.41-2.62,1.12-.1,2.29-.03,3.13-.9,.84-.89,1.79-.81,2.8-.25,7.77-1.64,15.59-.89,23.23,.32,8.27,1.31,16.16,.89,23.95-1.8,.59-.2,1.31-.09,1.97-.12l.02-.02Z"/><path class="aj" d="M509.34,439.96c-1.04-1.44-2.09-2.87-3.13-4.31-.39-.73,.1-1.2,.63-1.64,2.83-2.69,3.19-6.04,3.2-9.5,0-1.92-.19-3.85,.52-5.72,.74-1.49,2.25-2.18,3.75-2.87,1.76-.96,3.95-1.47,4.63-3.58,.18-.37,.45-.67,.78-.92,1.75-1.33,4.67-1.67,4.61-4.48-.32-1.34-1.92-1.93-2.36-3.2,.07-2.18,3.89-4.1,.54-6.51-2.83-2.08-5.77-4.06-8.57-6.16-3.03-2.27-5.61-1.88-8.34,.44-5.98,5.09-9.4,11.57-12.17,18.32-2.29,5.59-5.33,10.98-6.23,17-.18,1.19-.87,2.26-1.9,3.08-2.73,.71,1.89,1.27,.06,1.97-.95,.61-1.9,1.24-2.84,1.85-2.11-1.31-.42-2.6,.02-3.91,.86-2.54,2.24-5.02,1.69-7.78-1.18-5.89-5.23-7.56-15.03-5.66,6.82-6.53,6.78-12.52-.43-17.79,.37-.56,.5-1,.71-1.03,12.29-2.33,13.98-4.22,13.25-15.19-.07-1.09-.49-2.19,.79-2.71,.58-.23,1.63,.07,2.27,.43,2.5,1.39,4.43,4.61,8.12,2.16,2.75-1.83,3.17-4.7,3.64-7.49,.05-.27,.32-.49,.56-.82,2.58,.23,2.95,2.6,4.34,3.89,4.75,4.4,8.27,4.62,13.28,.37,.7-.59,1.31-1.59,2.4-1.29,1.06,.3,1.05,1.35,1.21,2.26,.97,5.49,6.49,8.65,12.66,7.27,1.32-.3,2.73-.68,3.72,.3,1.14,1.13-.14,2.22-.57,3.28-2.61,6.42,1.1,11.66,8.76,12.28,1.47,.12,3.14-.2,3.34,1.79-.72,2.04-2.85,2.84-4.51,4.01-2.23,1.57-4.36,3.21-6.09,5.26-2.67,3.14-3.38,6.24-.95,9.92,1.71,2.59,.57,3.87-2.75,3.79-.83-.02-1.64-.21-2.47-.33-9.94-1.49-13.97,.38-18.18,8.49-1.37,1.39,.41,4.36-2.94,4.76v-.03Z"/><path class="gd" d="M486.37,496.54l2,.15c4.84,1.56,9.88,.27,14.79,.83,2.72,.55,5.51,.56,8.27,.82,3.28,.71,6.78,.33,9.93,1.65,2.84,.08,5.68,.16,8.52,.24,2.9,.48,5.8,.59,8.7-.02,8.08-.17,16.14-.97,24.21,.78,2.43,.53,.67,1.21,.8,1.83-2.6,.94-4.39,2.86-6.45,4.43-3.72,2.07-7.43,4.13-11.15,6.19-3.23,1.27-6.46,2.53-9.7,3.8-3.09,.3-5.8,2.1-9.02,1.86,1.07-2.49,0-4.1-2.84-3.65-5.24,.82-10.33-1.99-15.57-.16-1.14,.4-3.22,.37-3.63-.78-1.57-4.46-5.12-6.1-9.86-7.04-1.61-.32-4.83-.94-3.81-4.18,.2-.64-1.71-1.13-2.87-1.36-5.87-1.2-6.07-1.67-2.31-5.39h0Z"/><path class="gd" d="M511.28,434.63c3.87-8.43,8.78-10.6,20.13-9.05,1.31,.17,2.96,1.67,4.03-.02,.85-1.34-1.2-1.88-1.75-2.89-1.49-2.75-1.42-5.38,.36-8.02,3.2-4.75,7.95-7.9,13.18-10.59,1.87,2.87,3.25,4.96,1.67,9.22-2.92,7.88-8.37,15.68-5.69,24.74,.23,.77,.06,2.13-.5,2.52-3.65,2.52-6.92,4.96-3.56,9.62,.45,.63-.44,1.77-1.52,2-1.16,.25-1.66-.58-2.22-1.39-3.65-5.31-4.82-5.56-10.29-2.1-1.15,.73-2.16,1.35-3.6,.8-1.61-.62-3.32-.97-4.53,.46-1.34,1.58-.47,3.04,.73,4.45,.69,.81,1.11,1.83,1.65,2.75-2.73,1.12-5.47,2.24-8.2,3.36-1.57-3.22,1.34-5.99,1.14-9.06,.02-2.37,.03-4.74,0-7.12-.03-.71-.23-1.39-.43-2.08-.13-2.55-1.55-5.01-.59-7.62h0Z"/><path class="fk" d="M470.66,459.39c-3.88-4.29-4.1-9.61-6.92-14-3.43-5.31-5.84-11.18-8.43-16.9-1.32-2.91-.16-5.85,1.47-8.36,.9-1.39,3.32-1.3,4.41-.18,1.39,1.43,4.58,3.24,3.19,4.9-3.91,4.68-.08,6.79,2.99,9.1,5.4,4.04,8.13,10.96,5.73,16.95-1.07,2.68,.39,5.79-2.45,8.5h0Z"/><path class="fk" d="M449.44,446.04c0,6.61-1.32,7.86-5.98,6.56-1.63-.46-1.93-1.41-2.39-2.49-3.11-7.28-6.44-14.46-4.73-22.65,.48-2.31,1.32-2.22,3.13-1.74,4.57,1.2,6.84,5.19,7.46,8.2,.84,4.13,3.64,8.09,2.51,12.12h0Z"/><path class="fk" d="M457.23,500.65c-9.81-1.2-13.56-7.68-16.36-13.98-2.14-4.84-4.81-9.34-7.43-13.91-1.95-3.4,.73-6.92-.6-10.49,3.63,1.3,5.97,3.54,6.58,7.05,.2,1.17-.05,2.43,1.03,3.35,3.15,2.68,4.1,6.19,5.72,9.67,2.41,5.19,3.07,11.65,8.97,15.36,.86,.54,1.23,1.69,2.1,2.96h0Z"/><path class="gd" d="M552.58,419.36c1.25,3.56,2.04,6.04,3.32,8.35,.95,1.73-1.75,2.85-3.54,3.65-1.63,.74-2.41-.18-3.13-1.31-1.02-1.59-.91-2.75,1.22-3.52,3.42-1.23,1.02-3.88,2.12-7.18h0Z"/><path class="gd" d="M554.22,436.15c1.3,.24,4.26-2.01,4.34,.63,.08,2.61-3.72,2.29-5.95,2.82-1.57,.37-2.33-.92-2.24-2.23,.16-2.54,1.99-1.65,3.86-1.22h0Z"/><path class="ew" d="M465.99,428.2c2.14-3.24,4.98-3.73,8.51-4.54-2.26,2.89-4.78,3.89-8.51,4.54Z"/><path class="cf" d="M460.65,408.56c2.35-.66,4.56-2.05,8.43-1.34-3.41,1.98-5.7,2.83-8.43,1.34Z"/><path class="gd" d="M525.3,455.99c-.93,.08-1.87,.17-2.8,.25-1.71-.95-.86-2.51,.03-2.76,2.11-.61,2.42,1.13,2.77,2.51h0Z"/><path class="gg" d="M592.05,446.12c-.06,2.14,1.34,4.51-1.22,6.26,.41-2.08,.81-4.18,1.22-6.26Z"/><path class="fk" d="M472.66,387.83c-.43,.2-.81,.51-1.2,.52-.86,.03-1-.59-.81-1.14,.09-.28,.61-.46,.93-.67,.25,.3,.51,.61,1.08,1.29h0Z"/><path class="fk" d="M517.5,520.81c-1.59,.95-3.36,.66-5.11,.61,1.56-1.16,3.39-.51,5.11-.61Z"/><path class="ex" d="M519.29,265.73c-22.48,3.91-41.66-2.54-58.86-15.18-.18-.8,.05-1.2,1.03-.9,12.55,8.3,26.02,14.56,41.94,15.45,3.31,.44,6.61,.6,9.9-.1,.93-.05,1.87-.09,2.8-.14,1.22-.17,2.72-1.22,3.19,.86h0Z"/><path class="e" d="M519.29,265.73c-.83-.99-2.08-.72-3.19-.86,8.46-1.67,16.55-4.24,24.18-7.97,.57,.32,.6,.67,.09,1.06-6.29,4.22-13.51,6.38-21.09,7.76Z"/><path class="ei" d="M523.96,200.48c-4.1,4.3-13.26,6.1-19.2,3.91,6.53-.77,13.13-1.22,19.2-3.91Z"/><path class="cy" d="M540.38,257.97l-.09-1.06c4.98-3.02,9.95-6.04,14.93-9.07,.35,.32,.7,.65,1.06,.97-4.89,3.63-9.33,7.88-15.9,9.16Z"/><path class="ed" d="M506.99,171c-.22,3.76,1.17,5.55,4.15,5.38-.99,2.19-2.73,2.41-4.71,1.95-1.47-.34-2.91-.96-3.16-2.5-.42-2.53,1.71-3.5,3.72-4.83h0Z"/><path class="fe" d="M494.89,177.4c3.38,1.54,5.85,4.34,9.66,5.23-4.82,.77-7.82-1.35-9.66-5.23Z"/><path class="by" d="M461.47,249.66c-.34,.3-.69,.6-1.03,.9-3.31-2.05-6.49-4.23-8.92-7.18,.16-.33,.42-.56,.81-.66,3.49,1.84,6.15,4.57,9.14,6.94h0Z"/><path class="et" d="M545.27,160.64c.88,.22,1.91,.75,1.42,1.05-2.23,1.33-.34,4.41-2.7,5.25-1.55,.56-1.68-1.09-1.54-2.08,.25-1.79,.89-3.45,2.82-4.21h0Z"/><path class="cl" d="M470.69,167.25c-2.37-1.47-.42-4.23-2.83-5.2-.09-.04-.02-.86,.22-1.05,.55-.45,1.29-.31,1.75,.17,1.6,1.69,2.26,3.55,.85,6.09h0Z"/><path class="dv" d="M488.5,153.85c1.21-3.16,3.64-3.64,6.25-3.64,.15,.37,.3,.74,.45,1.11l-6.7,2.52h0Z"/><path class="gm" d="M529.84,154.89l-6.32-2.56,.53-1.14c2.34,.48,4.87,.51,5.8,3.69h0Z"/><path class="ee" d="M523.46,163.11c1.01,.43,1.41,1.2,1.26,2.15-.12,.75-.51,1.59-1.46,1.5-1.34-.12-1.17-1.22-1.14-2.08,.04-.76,.24-1.47,1.33-1.58Z"/><path class="ek" d="M491.27,166.77c-1.23-.02-1.67-.61-1.8-1.39-.16-.95,.06-1.93,1.21-2.15,.94-.18,1.41,.57,1.58,1.34,.22,1-.27,1.7-1,2.19h0Z"/><path class="e" d="M513.3,265.01c-3.29,1.39-6.58,1.25-9.9,.1,3.3-.03,6.6-.07,9.9-.1Z"/><path class="ap" d="M452.33,242.71c-.27,.22-.54,.43-.81,.66-.97-.32-1.64-.9-1.99-1.79,.27-.22,.54-.44,.81-.66,1.12,.18,1.71,.85,1.99,1.79h0Z"/><path class="db" d="M530.37,133.03c.06-.86,.15-2.08,1.19-2.01,1.27,.08,.57,1.29,.58,2.03-.59,0-1.18-.02-1.78-.02h0Z"/><path class="bt" d="M403.68,395.01l-.3-1.74c5.36-35.04,10.72-70.08,16.07-105.13,.09-.59,.13-1.19,.18-1.79,.11-1.31,.55-2.37,2.32-2.34,2.16,.03,1.68,1.47,1.61,2.59-.31,4.47-.66,8.94-1.03,13.41-2.53,29.93-5.19,59.86-7.5,89.81-.32,4.23-1.62,5.96-6.37,5.24-1.62-.25-3.31-.04-4.98-.04h0Z"/><path class="er" d="M325.73,386.26h13.87c-4.62,1.2-9.24,1.19-13.87,0Z"/><path class="er" d="M361.66,386.26h11.86c-3.95,1.21-7.91,1.2-11.86,0Z"/><path class="er" d="M269.83,386.26h9.87c-3.29,1.22-6.58,1.21-9.87,0Z"/><path class="er" d="M280.8,386.26h9.87c-3.3,1.2-6.58,1.21-9.87,0Z"/><path class="er" d="M297.78,386.26h8.87c-2.95,1.17-5.92,1.17-8.87,0Z"/><path class="v" d="M320.62,385.09c-7.28,0-14.57,.02-21.85,.02,2.87-2.43,6.55-.81,9.75-1.21,3.85-.48,8.39-1.54,12.1,1.2Z"/><path class="w" d="M347.59,385.1c-5.29,0-10.59-.02-15.88-.02,.23-.39,.53-1.15,.69-1.12,5.04,.68,10.31-1.13,15.19,1.14Z"/><path class="o" d="M298.53,242.57c1.87-1.57,3.4-1.53,4.45,.76-1.58,.17-3.21,.64-4.45-.76Z"/><path class="m" d="M331.5,241.69c.35,.59,.71,1.18,1.06,1.76-1.56-.02-3.11-.03-4.67-.05,.61-1.59,1.97-1.88,3.61-1.71Z"/><path class="ab" d="M272.79,241.59c.24,.61,.48,1.22,.72,1.83-1.57,0-3.13,.02-4.7,.03-.03-.27-.02-.54,.03-.81,1.15-.83,2.48-1.14,3.94-1.05h0Z"/><path class="ab" d="M346.66,241.58c.24,.61,.47,1.23,.71,1.84-1.57,.02-3.13,.04-4.7,.06-.03-.28-.02-.56,.05-.83,1.15-.83,2.49-1.12,3.95-1.06h0Z"/><path class="n" d="M372.33,242.48c1.88-1.35,3.49-1.51,4.51,.85-1.51,.02-3.03,.02-4.55,.04,.06-.3,.07-.59,.05-.89h0Z"/><path class="m" d="M405.52,241.65c.3,.61,.6,1.2,.9,1.81-1.65-.02-3.31-.03-4.97-.04,.9-1.42,2.26-2.01,4.06-1.76h0Z"/><path class="u" d="M387.36,242.78c1.82-1.96,3.14-1.19,4.27,.63-1.48,.11-3.01,.46-4.27-.63Z"/><path class="k" d="M283.72,242.44c1.46-.53,2.96-1.64,4.23,.27-1.25,1.18-2.8,.79-4.3,.67,.03-.32,.05-.63,.07-.95h0Z"/><path class="p" d="M357.57,242.39c1.47-.44,3.01-1.6,4.22,.37-1.27,1.14-2.82,.74-4.31,.62,.03-.33,.06-.66,.09-.99h0Z"/><path class="du" d="M325.85,243.46c.35,.34,.7,.68,1.04,1.02,.15,1.09,.3,2.18,.44,3.26-2.16-1.11-1.83-2.7-1.49-4.28h0Z"/><path class="cd" d="M503.36,498.36c-3.72-.06-7.44-.07-11.15-.22-1.41-.06-3.43,.86-3.84-1.46,8.7-.34,17.31-.91,25.97,1.33,3.77,.98,8.17,.17,12.21,1.1-1.68,.51-3.67-.46-5.18,.88-3.43,.87-6.58-1.21-9.97-.81-2.57-1.17-5.46,.25-8.03-.83h0Z"/><path class="em" d="M538.58,500.22c-2.89,.98-5.79,1.08-8.7,.02l8.7-.02Z"/><path class="al" d="M664.97,360.77c.55-5.87,4.59-9.62,9.99-12.01,11.31-5,21.61-10.98,29.69-19.92,3.54-3.91,9.09-3.87,14.33-3.65,3.1-.02,5.11,1.61,6.87,3.64,3.7,6.11,1.64,11.61-2.24,16.91-5.49,4.69-10.04,10.2-16.19,14.36-5.87,3.97-12.52,6.6-18.77,9.91-7.21,2.65-14.21,2.71-20.88-1.37-1.87-2.35-4.78-4.41-2.81-7.87h0Z"/><path class="bs" d="M722.81,345.6c1-2.01,2.01-4,3-6.02,1.8-3.66,.79-7.21-.54-10.74,1.28-1.86,3.07-2.96,5.58-3.01,1.29,2.45,3.97,5.06-1.19,6.63-1.18,.36-1.63,1.3-1.17,2.57,2.59,7.07-1.51,12.55-5.96,17.48-8.02,8.92-17.95,15.92-29.94,20.03-6.29,2.15-13.02,3.79-19.46-.16-1.02-.62-1.87-.32-2.58,.5-.94,1.09-1.41,3.07-3.68,1.75-1.8-1.04-4.65-1.41-3.82-4.35,1.49-1.1,3.63-.91,5.06-2.11,6.84,2.95,13.82,3.14,20.91,.78,12.46-4.64,23.53-10.97,31.31-21.2,.66-.87,1.79-1.33,2.51-2.16h0Z"/><path class="fl" d="M730.83,325.84c-1.51,1.52-3.31,2.62-5.58,3.01-2.09-1.22-4.18-2.44-6.27-3.66,.02-1.86-1.2-4.67,1.25-5.16,2.35-.47,5.84-1.37,7.62,1.88,.77,1.41,1.98,2.63,2.97,3.94h0Z"/><path class="fy" d="M668.08,368.17c-.69,2.64-2.19,3.69-5.06,2.11-4.54-1.39-4.29-5.14-3.9-8.06,.39-2.86,3.79-1.12,5.85-1.44-.47,2.98,2.58,4.77,3.1,7.41h0Z"/><path class="gc" d="M698.5,307.08c-1.92-1.71,1.68-1.59,1.21-3.1-.66-2.13,1.18-4.14,2.89-4.33,2.14-.23,2.85,2.22,3.2,3.94,.3,1.44,1.5,1.85,2.46,2.58,1.57,1.22,2.23,2.54,.92,4.23-1.92-.73-3.76-1.72-5.97-1.52-1.82-.08-3.23-1.04-4.72-1.82h0Z"/><path class="ak" d="M685.01,292.77c1.9,3.04,1.02,5.72-1.5,8.03-1.76,1.63-3.19,3.35-3.62,5.63-.55,.15-.97,0-1.26-.45-.65-1.51-.77-3.03-.14-4.57,.4-1.44,.99-2.81,1.97-4.03,.94-1.37,2.07-2.63,2.93-4.05,.4-.51,.84-.95,1.63-.56h0Z"/><path class="ch" d="M731.96,303.06c-.06,.74-.14,1.48-.2,2.22-4.97,2.56-11.14,2.76-15.49,6.5-1.28,.41-1.56-.16-1.38-1.15,1.02-.85,2.04-1.69,3.06-2.54,4.67-1.67,9.34-3.34,14.02-5.01h0Z"/><path class="bn" d="M716,291.83c-1.53-.51-2-1.09-.91-2.57,1.24-1.69,2-3.65,2.97-5.5,2.35-.02,3.39,.67,2.3,2.94-1,2.06-2.31,3.83-4.35,5.13h0Z"/><path class="ca" d="M703.94,308.14c2.25-.17,4.13,.35,5.25,2.27-3.05,.55-5.72-.88-8.59-1.32,.81-1.15,2.39-.17,3.33-.95Z"/><path class="ea" d="M711.12,299.72c.76,1.14,1.52,2.27,2.28,3.41,.03,.95,1.98,1.87,.7,2.63-1.63,.97-2.06-.71-2.58-1.69-.55-1.05-.99-2.16-1.48-3.24,.29-.42,.4-.99,1.07-1.11Z"/><path class="eh" d="M681.03,323.31c-.63,.61-1.26,1.21-1.89,1.82-1.01,.21-1.52-.02-1.16-1.05,1.5-1.95,2.11-4.22,2.9-6.43,1.26,.7,1.08,1.79,.99,2.87-.28,.93-.56,1.85-.84,2.78h0Z"/><path class="dj" d="M679.17,306.08c.25,.1,.49,.22,.73,.36,.39,2.04,.78,4.09,1.15,6.14-3.14-.88-2.41-3.45-2.94-5.47,.34-.35,.42-.91,1.05-1.02Z"/><path class="cv" d="M681.87,320.53c-1.09-.75-.7-1.9-.99-2.87-.57-1.74-1.29-3.49,.1-5.2,.41,.62,.8,1.24,1.21,1.86,.5,2.1,.5,4.21,0,6.31l-.31-.11h0Z"/><path class="d`" d="M711.12,299.72c-.36,.37-.71,.74-1.07,1.11-1.4-1.17-2.82-2.34-4.22-3.5,.1-.56,.66-.62,1.1-.84,1.81,.65,3.2,1.74,4.19,3.24h0Z"/><path class="gr" d="M700.19,289.98c1.99,.98,2.27,2.85,2.88,4.54-.35,.41-.72,.44-1.11,.05-1.63-1.2-2.74-2.57-1.77-4.59Z"/><path class="bu" d="M701.96,294.57l1.11-.05c1.63,.12,2.67,1.15,3.86,1.96-.36,.28-.73,.56-1.09,.84-1.43-.76-3.14-1.2-3.88-2.75Z"/><path class="cs" d="M703.94,308.14c-.87,1.01-2.2,.71-3.33,.95-1.59,.07-1.59-1.19-2.1-2.01,1.81,.35,3.62,.71,5.44,1.05h0Z"/><path class="ay" d="M682.18,320.63v-6.31c1.36,2.11,1.38,4.21,0,6.31Z"/><path class="en" d="M685.01,292.77c-.33,.3-.66,.6-1,.9-.91,.19-1.42,.02-1.02-.94,.33-1.22,.66-2.44,.99-3.65,2.65,.71,.71,2.47,1.04,3.7h0Z"/><path class="gq" d="M714.89,310.6c.46,.38,.91,.77,1.38,1.15-1.06,1.25-2.76,1.71-3.55,.37-.79-1.37,1.33-1.08,2.17-1.52h0Z"/><path class="t" d="M646.22,318.01c-3.32,1.03-6.56,.33-9.58-.77-5.9-2.16-8-7.82-5.09-12.94,4.82-8.47,20.97-13.43,28.4-2.59,.14,2.86-1.04,5.36-3.61,6.85-4.24,2.47-7.21,5.9-10.13,9.44h0Z"/><path class="be" d="M646.22,318.01c.87-3.03,2.22-5.89,5.35-7.49,4.02-2.06,6.78-4.95,8.39-8.8,2.76,6.34-.11,11.75-8.01,14.94-1.8,.73-3.65,1.49-5.72,1.34Z"/><path class="gs" d="M656.06,334.07c-1.56,3.95-4.55,6.61-8.94,8.02,1.93-3.62,5.12-6.09,8.94-8.02Z"/><path class="e" d="M677.97,324.09c.39,.35,.78,.7,1.16,1.05-2.02,2.4-3.79,5.09-7.65,5.36,1.46-2.71,4.78-3.89,6.49-6.4h0Z"/><path class="eb" d="M636.09,349.29c-.32-.52-.65-1.04-.97-1.56,2.64-.27,4.65-1.83,6.99-2.72,.51,.19,1.13,.24,1.27,.86-2.05,1.79-4.55,2.82-7.29,3.42h0Z"/><path class="dt" d="M679.17,306.08l-1.05,1.02c-1.13-2.37-1.08-4.75,0-7.12,.97-.14,1.5,.07,1.08,1.07,0,1.68-.02,3.35-.04,5.03h0Z"/><path class="j" d="M656.86,285.3c-.1,.71-.66,1.05-1.34,1-.96-.07-1.43-.64-1.16-1.52,.2-.67,.78-.88,1.5-.76,.78,.13,1,.64,1,1.28h0Z"/><path class="gb" d="M679.2,301.05c-.36-.36-.72-.71-1.08-1.07-.06-1.51,.93-2.56,1.92-3.62,.94-.11,1.46,.12,1.1,1.08-.65,1.2-1.28,2.4-1.93,3.6h0Z"/><path class="dx" d="M681.13,297.44c-.37-.36-.73-.72-1.1-1.08,.99-1.21,1.97-2.42,2.95-3.64,.34,.32,.68,.63,1.02,.94-.47,1.56-1.65,2.68-2.88,3.78Z"/><path class="e" d="M643.39,345.86l-1.27-.86c1.14-.84,1.94-2.26,3.82-1.88,.21,1.71-1.18,2.22-2.56,2.74h0Z"/><path class="ev" d="M671.08,330.87c-1.15,1.97-2.62,2.98-4.97,1.32,1.52-.85,2.88-2.19,4.97-1.32Z"/><path class="e" d="M666.88,313.8c-.06,.62-.29,1.17-1.08,1.23-.67,.05-1.45-.09-1.3-.86,.09-.47,.62-1.05,1.12-1.24,.66-.26,1.21,.13,1.26,.86h0Z"/><path class="x" d="M623.68,315.05c-.69-.06-1.29-.27-1.35-.98-.05-.6,.11-1.3,.96-1.16,.52,.08,1.15,.56,1.36,1.01,.28,.6-.15,1.09-.97,1.13h0Z"/><path class="i" d="M651.55,327.23c.28,.27,.86,.6,1.04,1.06,.24,.61-.17,1.12-.97,1.11-.69,0-1.27-.26-1.34-.95-.05-.6,.08-1.16,1.26-1.22Z"/><path class="dp" d="M666.08,332.8c-1.14,1.79-2.45,2.01-3.98,.38,1.23-1,2.58-.9,3.98-.38Z"/><path class="ai" d="M725.82,293.48c1.54,1.42,2.75,2.9,.48,6.01-.21-2.71-.35-4.34-.48-5.99v-.03h0Z"/><path class="h" d="M730.85,291.31c3.11-1.76,3.82,0,5.82,2.05-2.48-.88-3.8-1.34-5.82-2.05Z"/><path class="f" d="M738.8,284.64c2.28,1.47,2.64,2.64,2.88,4.59-2.11-1.17-2.15-2.54-2.88-4.59Z"/><path class="g" d="M703.91,289.14c3.03-1.04,4.31,.81,6.31,3.79-2.79-1.69-4.54-2.74-6.3-3.8v.02h0Z"/><path class="h" d="M712.12,274.3c-.81,1.43-1.06,3.24-3.99,4.35,1.36-2.16,1.94-3.75,3.99-4.35Z"/><path class="fp" d="M711.48,284.98c-.54,.65-1.33,.66-2.1,.53-.55-.09-.7-.51-.23-.8,.5-.3,1.11-.52,1.7-.57,.49-.04,.84,.31,.62,.85h0Z"/><path class="da" d="M512.33,442.42l.75,1.21c-.4,2.66-.48,5.31,.05,7.96-.65,2.97-1.3,5.94-1.95,8.92-.59,.66-1.19,1.33-1.78,1.99-.62-.07-.69-.57-.92-.95,2.57-6.09,3.34-12.4,2.92-18.85,.19-.41,.52-.48,.93-.27h0Z"/><path class="as" d="M485.36,431.86c.23-.78-2.24-.61-.79-1.82,4.39-2.67,8.97-2.96,13.73-.87,.7,1.75-1.37,1.09-1.9,1.76-3.7,.12-7.45-.27-11.03,.93Z"/><path class="ar" d="M496.39,430.93c.49-.72,1.3-.84,2.13-.91,4.4-.67,6.8,.58,8.73,4.58-.34,.35-.69,.7-1.03,1.05-2.94-2.14-6.03-4.02-9.82-4.71h0Z"/><path class="aw" d="M512.33,442.42c-.3,.14-.61,.23-.93,.27,.14-1.41-1.42-1.79-2.04-2.75,2.12-1.34-.12-3.97,1.94-5.32,.35,2.6,1.47,5.11,1.04,7.8h0Z"/><path class="ag" d="M531,479.54c-2.33,.9-3.45,2.08-5.19,1.25-.18-.08-.3-.66-.19-.76,1.21-1.08,2.57-1.67,5.38-.48Z"/><path class="fj" d="M508.18,465.05c-.65,1.49-1.38,2.91-3.43,3.75-.6-2.33,1.28-3.42,2.44-4.78,.67,.07,.77,.61,1,1.03Z"/><path class="ef" d="M508.18,465.05c-.33-.34-.66-.68-1-1.03,.42-.82,.85-1.64,1.27-2.47,.3,.32,.62,.63,.92,.95-.41,.86-.8,1.7-1.21,2.56h0Z"/><path class="dm" d="M523.07,476.7c-.16,.82-.7,2.14-1.41,1.69-1.79-1.16,.04-2.37,.54-3.55,.87,.41,.41,1.31,.88,1.87Z"/><path class="ci" d="M527.94,470.53c1.01,1.11,1.13,2.24,.66,3.44-.04,.1-.73,.17-.85,.04-1.03-1.1-1.02-2.23,.18-3.48Z"/><path class="gh" d="M523.07,476.7c-.3-.62-.58-1.25-.88-1.87,.07-.78-.57-2.08,.56-2.17,1.26-.09,.7,1.25,.73,1.95,.03,.69-.27,1.39-.42,2.09h0Z"/><path class="r" d="M507.25,434.6c-2.52-2.13-4.93-4.42-8.73-4.58-4.66-1.96-9.31-.57-13.96,.03,2.88-9.14,6.2-18.14,10.59-26.81,2.64-5.21,5.99-9.95,10.94-13.64,2.39-1.79,4.74-2.46,7.48-.2,3.16,2.59,7.05,4.42,9.79,7.48,2.64,2.71-1.24,4.63-1.06,7.05,1.53,.3,2.73,.9,2.89,2.49-.38,3.25-3.94,3.84-5.93,5.75l.06-.07c-1.36,1.54-2.53,3.25-4.75,3.96-1.24,.67-2.95,.81-3.37,2.41-.02,5.24,.52,10.53-1.95,15.54-.56,1.15-1,1.37-2.02,.58h0Z"/><path class="dk" d="M522.31,403.93c-1.75,.15-2.86-.28-1.02-1.65,2.02-1.5,2.12-3.38,2.1-5.4,4.87,2.99,.22,4.82-1.06,7.05h0Z"/><path class="es" d="M519.27,412.18c.61-3.06,4.73-3.19,5.93-5.75,1.5,4.81-3.14,4.51-5.93,5.75Z"/><path class="dq" d="M514.19,415.65c1.81-1.07,2.71-3.2,5.15-3.55,.81,3.08-1.94,3.5-4.04,4.41-.43-.22-1.02-.28-1.1-.86h0Z"/><path class="eq" d="M514.19,415.65c.37,.28,.73,.57,1.1,.86-1.36,.66-2.71,1.31-4.06,1.97-1.16-2.77,1.87-1.97,2.96-2.82Z"/><path class="fk" d="M503.36,498.36c2.71,0,5.46-.28,8.03,.83-2.67-.33-5.54,.87-8.03-.83Z"/><path class="cm" d="M525.89,436.25c-2.23-.63-2.86-2.23-4.24-3.87,2.07,.56,3.49,1.85,4.24,3.87Z"/><path class="fd" d="M513.12,451.6c-1.25-2.65-1.18-5.31-.05-7.96,.52,2.65,.48,5.31,.05,7.96Z"/><path class="ec" d="M542.96,420.02c-1.74,.58-2.6-.02-3.18-1-.09-.16,.47-.89,.76-.9,1.28-.05,2.16,.5,2.42,1.91Z"/><path class="e" d="M722.81,345.6c-7.35,11.18-18.45,18.26-31.44,23.26-.68,.27-1.58,.07-2.38,.1,2.54-3,6.8-3.3,10.11-5.16,7.75-4.37,14.72-9.38,20.22-15.97,.9-1.07,1.79-2.16,3.49-2.21h0Z"/><path class="gn" d="M682.41,362.34c-1.94-2.87-3.36-4.96-4.78-7.07,3.13,1.16,5.43,2.78,4.78,7.07Z"/><path class="fo" d="M704.69,337.45c3.39-.99,4.77,.71,5.91,3.6-2.84-.52-3.78-2.87-5.91-3.6Z"/><path class="fm" d="M699.03,342.68c2.93,.35,3.46,2.12,4.51,3.58-1.36-.19-2.87-1.39-4.51-3.58Z"/><path class="fn" d="M687.87,351.58c2.17,.45,3.08,1.78,3.66,3.82-2.68-.5-2.72-2.5-3.66-3.82Z"/><path class="ac" d="M648.06,298.68c1.05-.2,2.13,.11,2.47,.98,.51,1.33-.69,1.83-1.87,2.08-4.18,.85-7.73,2.59-10.37,5.72-.57,.68-1.42,1.47-2.48,.61-1.06-.85-.76-1.85-.1-2.83,2.81-4.18,7.13-6.03,12.35-6.56h0Z"/><path class="q" d="M638.51,312.27c-.38,1-.76,2.04-2.25,1.84-1.28-.17-2.03-.95-1.99-2.1,.05-1.13,.74-2.06,2.11-1.83,1.12,.18,1.95,.96,2.12,2.09h0Z"/></g></g></g></g></svg>