<?xml version="1.0" encoding="UTF-8"?>
<svg width="700pt" height="700pt" version="1.1" viewBox="0 0 700 700" xmlns="http://www.w3.org/2000/svg">
 <path d="m519.25 231.46h-120.71v-120.71c-1.3164-16.363-10.812-30.953-25.242-38.781-14.434-7.8242-31.844-7.8242-46.273 0-14.43 7.8281-23.93 22.418-25.242 38.781v120.71h-121.02c-16.363 1.3164-30.953 10.812-38.781 25.242-7.8242 14.434-7.8242 31.844 0 46.273 7.8281 14.43 22.418 23.93 38.781 25.242h120.71v121.02c-1.082 13.5 3.5273 26.844 12.715 36.797 9.1875 9.957 22.117 15.617 35.664 15.617s26.477-5.6602 35.664-15.617c9.1875-9.9531 13.797-23.297 12.715-36.797v-120.71h121.02c17.336 0 33.359-9.2539 42.031-24.27 8.668-15.016 8.668-33.516 0-48.531-8.6719-15.016-24.695-24.27-42.031-24.27z"/>
</svg>
