<svg xmlns="http://www.w3.org/2000/svg" width="101.962" height="41.623" viewBox="0 0 101.962 41.623">
  <defs>
    <style>
      .cls-1 {
        fill: #fff;
      }
    </style>
  </defs>
  <g id="Group_99" data-name="Group 99" transform="translate(-258.109 -259.733)">
    <g id="Group_88" data-name="Group 88" transform="translate(-502.636 477.314) rotate(-17)">
      <path id="Path_59" data-name="Path 59" class="cls-1" d="M425.758,288.96a8.019,8.019,0,0,0-1.542.15l1.744,4.872a2.795,2.795,0,1,1-1.718.44l-1.709-4.766a7.808,7.808,0,1,0,3.224-.7Z" transform="translate(446.658 -232.927)"/>
      <path id="Path_60" data-name="Path 60" class="cls-1" d="M127.272,296.761a2.793,2.793,0,1,1-2.793-2.793,2.744,2.744,0,0,1,.9.15l3.093-4.062a7.715,7.715,0,0,0-3.991-1.1,7.832,7.832,0,1,0,5.392,2.176l-3.084,4.053a2.739,2.739,0,0,1,.485,1.577Z" transform="translate(719.496 -232.922)"/>
      <path id="Path_61" data-name="Path 61" class="cls-1" d="M233.839,116.635c0-.009-.009-.009-.009-.018v-.009l-2.617-6.793v-2.123a2.038,2.038,0,0,0-2.044-2.035H226.5a.881.881,0,1,0,0,1.762h2.67a.277.277,0,0,1,.282.273v4.582a.277.277,0,0,1-.282.273H226.5a.881.881,0,1,0,0,1.762h2.67a2.018,2.018,0,0,0,1.586-.767l1.048,2.722-13.726,2.652L216.4,114.08h2.951a.881.881,0,0,0,0-1.762h-5.648a1.664,1.664,0,0,1-1.665-1.665v-.379a.881.881,0,0,0-1.762,0v.379a3.426,3.426,0,0,0,3.427,3.427h.828l1.973,5.683-3.269,4.291a7.213,7.213,0,0,1,1.4,1.075l2.582-3.4,2.185,5.85a3.241,3.241,0,0,0,1.745,5.974,1.759,1.759,0,0,0,.22-.009l.67,1.419-1.286.537a.881.881,0,0,0,.344,1.691.8.8,0,0,0,.344-.07l4.273-1.8a.88.88,0,0,0-.687-1.621l-1.357.573-.634-1.339a3.216,3.216,0,0,0,1.357-2.625,3.053,3.053,0,0,0-.2-1.1l9.26-8.4,1.013,2.837a8.17,8.17,0,0,1,1.683-.546Zm-10.678,11.137a3.218,3.218,0,0,0-2.009-.7H221.1l-2.414-6.476,13.744-2.652.379,1.075Z" transform="translate(634.726 -66.927)"/>
    </g>
    <g id="Group_89" data-name="Group 89" transform="matrix(0.899, 0.438, -0.438, 0.899, -505.187, 48.971)">
      <path id="Path_35" data-name="Path 35" class="cls-1" d="M275.756,71.053a5.347,5.347,0,1,0-5.347,5.347A5.351,5.351,0,0,0,275.756,71.053Zm-5.935,0V68.615a.587.587,0,1,1,1.175,0v2.2l1.011,1.011a.585.585,0,0,1,0,.828.577.577,0,0,1-.417.17.6.6,0,0,1-.417-.17l-1.181-1.181A.605.605,0,0,1,269.822,71.053Z" transform="translate(532.399 -213.706)"/>
      <path id="Path_36" data-name="Path 36" class="cls-1" d="M551.183,298.2h-1.075v10.312h1.075a1.6,1.6,0,0,0,1.6-1.6v-7.1A1.606,1.606,0,0,0,551.183,298.2Z" transform="translate(264.496 -433.399)"/>
      <path id="Path_37" data-name="Path 37" class="cls-1" d="M171.852,266h-1.9a1.445,1.445,0,0,0-1.388,1.492V278.88a1.445,1.445,0,0,0,1.388,1.492h1.9a1.445,1.445,0,0,0,1.388-1.492v-3.549h11.887v3.549a1.445,1.445,0,0,0,1.388,1.492h1.9a1.445,1.445,0,0,0,1.388-1.492V267.492A1.445,1.445,0,0,0,188.416,266h-1.9a1.445,1.445,0,0,0-1.388,1.492v3.543H173.239v-3.543A1.445,1.445,0,0,0,171.852,266Z" transform="translate(623.626 -403.226)"/>
      <path id="Path_38" data-name="Path 38" class="cls-1" d="M110.008,308.512V298.2h-1.075a1.61,1.61,0,0,0-1.6,1.6v7.1a1.606,1.606,0,0,0,1.6,1.6Z" transform="translate(681.006 -433.399)"/>
    </g>
  </g>
</svg>
