<svg xmlns="http://www.w3.org/2000/svg" width="100.49" height="47.405" viewBox="0 0 100.49 47.405">
  <defs>
    <style>
      .cls-1 {
        fill: #ebede9;
      }
    </style>
  </defs>
  <g id="Group_97" data-name="Group 97" transform="translate(-259.254 -93.349)">
    <g id="food_bowl" transform="translate(236.034 -18.659) rotate(16)">
      <path id="Path_1" data-name="Path 1" class="cls-1" d="M420.322,125.9a.772.772,0,0,1,1.091,1.091l-.935,1.013h4.131a9.251,9.251,0,0,0,.935-5.456c0-.39-.312-.623-.7-.7-.156,0-4.365-.468-6.7,1.871a7.239,7.239,0,0,0-1.871,4.287h1.949Z" transform="translate(-274.578 -35.508)"/>
      <path id="Path_2" data-name="Path 2" class="cls-1" d="M308.64,161.623a12.107,12.107,0,0,1,.312-1.637,5.567,5.567,0,0,0-3.508-1.325,5.487,5.487,0,0,0-4.911,3.118h8.106Z" transform="translate(-168.508 -69.281)"/>
      <path id="Path_3" data-name="Path 3" class="cls-1" d="M121.113,90.862l1.715,1.715h6.625l-4.989-5.067a3.944,3.944,0,0,0-1.091-3.274,3.913,3.913,0,0,0-5.534,5.534,3.942,3.942,0,0,0,3.274,1.091Z"/>
      <path id="Path_4" data-name="Path 4" class="cls-1" d="M191.22,214.664v5.846a12.1,12.1,0,0,0,10.991,12v1.637a1.564,1.564,0,0,0,1.559,1.559h7.795a1.564,1.564,0,0,0,1.559-1.559v-1.637a12.175,12.175,0,0,0,10.834-12.16v-5.846a.781.781,0,0,0-.779-.779L192,213.884a.734.734,0,0,0-.78.779Zm3.9,5.067a.781.781,0,0,1,.779.779,7.337,7.337,0,0,0,7.171,7.327.781.781,0,0,1,.779.779.838.838,0,0,1-.779.779,8.9,8.9,0,0,1-8.73-8.886.736.736,0,0,1,.779-.779Z" transform="translate(-68.315 -119.749)"/>
    </g>
    <g id="Group_21" data-name="Group 21" transform="translate(-561.503 579.757) rotate(-21)">
      <path id="Path_5" data-name="Path 5" class="cls-1" d="M298.67,63.374l4.554-4.554a8.637,8.637,0,0,0-4.554-1.89Z" transform="translate(646.344 -206.985)"/>
      <path id="Path_6" data-name="Path 6" class="cls-1" d="M197.9,90.535a8.637,8.637,0,0,0-1.89,4.554h6.444Z" transform="translate(739.558 -237.497)"/>
      <path id="Path_7" data-name="Path 7" class="cls-1" d="M196,158.67a8.633,8.633,0,0,0,1.89,4.554l4.554-4.554Z" transform="translate(739.562 -299.359)"/>
      <path id="Path_8" data-name="Path 8" class="cls-1" d="M235.089,56.934a8.633,8.633,0,0,0-4.554,1.89l4.554,4.554Z" transform="translate(708.207 -206.989)"/>
      <path id="Path_9" data-name="Path 9" class="cls-1" d="M300.44,59.558l.172-3.437a.78.78,0,0,0-.258-.6.928.928,0,0,0-.6-.258h-5.5l3.437-6.874h2.062a.859.859,0,0,0,0-1.718h-2.578a.825.825,0,0,0-.773.516l-4.038,8.076H280.849a.78.78,0,0,0-.6.258.928.928,0,0,0-.258.6l.172,3.437Z" transform="translate(663.305 -197.67)"/>
      <path id="Path_10" data-name="Path 10" class="cls-1" d="M333.235,90.535,330.4,93.37h4.382A8.254,8.254,0,0,0,333.235,90.535Z" transform="translate(617.536 -237.497)"/>
      <path id="Path_11" data-name="Path 11" class="cls-1" d="M233.8,193.264l-.258-4.726-3.007,3.007a9.171,9.171,0,0,0,3.265,1.718Z" transform="translate(708.21 -326.478)"/>
      <path id="Path_12" data-name="Path 12" class="cls-1" d="M286.752,233.682h12.2a2.616,2.616,0,0,0,2.578-2.406l1.374-25.949H282.8l1.375,25.949a2.552,2.552,0,0,0,2.578,2.406Z" transform="translate(660.753 -341.721)"/>
    </g>
  </g>
</svg>
