<?xml version="1.0" encoding="utf-8"?>
<!-- Generator: Adobe Illustrator 26.2.1, SVG Export Plug-In . SVG Version: 6.00 Build 0)  -->
<svg version="1.1" id="Layer_1" xmlns="http://www.w3.org/2000/svg" xmlns:xlink="http://www.w3.org/1999/xlink" x="0px" y="0px"
	 viewBox="0 0 700 700" style="enable-background:new 0 0 700 700;" xml:space="preserve">
<g>
	<path d="M559.7,132.2h-145v-31.9c0-9-7.3-16.2-16.2-16.2h-96.3c-9,0-16.2,7.3-16.2,16.2v32.5h-145c-9,0-16.2,7.3-16.2,16.2v32.5
		c0,9,7.3,16.2,16.2,16.2h418.9c9,0,16.2-7.3,16.2-16.2l0-33C575.9,139.4,568.6,132.2,559.7,132.2L559.7,132.2z"/>
	<path d="M534,229H165.5c-5,0-9,4.5-7.8,9l42,335.4c2.8,24.1,23.5,42.6,48.2,42.6h205c24.6,0,44.8-17.9,48.2-42.6L543,238
		C542.4,233.5,539,229,534,229L534,229z M273.6,544.9h-1.1c-7.3,0-14-5.6-14.6-13.4L240,315.8c-0.6-7.8,5-15.1,13.4-15.7
		c7.8-0.6,15.1,5,15.7,13.4l17.9,215.6C287.6,537,282,544.3,273.6,544.9L273.6,544.9z M364.3,530.3c0,7.8-6.7,14.6-14.6,14.6
		s-14.6-6.7-14.6-14.6V314.7c0-7.8,6.7-14.6,14.6-14.6s14.6,6.7,14.6,14.6V530.3z M441.1,531.4c-0.6,7.8-6.7,13.4-14.6,13.4h-1.1
		c-7.8-0.6-14-7.8-13.4-15.7l17.9-215.6c0.6-7.8,7.8-14,15.7-13.4c7.8,0.6,14,7.8,13.4,15.7L441.1,531.4z"/>
</g>
</svg>
