<?xml version="1.0" encoding="UTF-8"?><svg xmlns="http://www.w3.org/2000/svg" viewBox="0 0 768 800"><defs><style>.e{fill:#f7b868;}.f{fill:#688d62;}.g{fill:#688d61;}.h{fill:#67594c;}.i{fill:#698f64;}.j{fill:#eee9e7;}.k{fill:#f0ecec;}.l{fill:#f0ebe9;}.m{fill:#eaebe6;}.n{fill:#eae8e6;}.o{fill:#e9e6e5;}.p{fill:#e9e6e7;}.q{fill:#e9e8e7;}.r{fill:#e7e3de;}.s{fill:#ea9147;}.t{fill:#e8e6e6;}.u{fill:#e8e6e5;}.v{fill:#ede7e5;}.w{fill:#ede8e6;}.x{fill:#ede9e6;}.y{fill:#e8e5e4;}.a`{fill:#efc8a3;}.aa{fill:#ece8e5;}.ab{fill:#fcd6ae;}.ac{fill:#fbc571;}.ad{fill:#edc85d;}.ae{fill:#e4e1df;}.af{fill:#fdfdfc;}.ag{fill:#7ea9c3;}.ah{fill:#678d61;}.ai{fill:#678c61;}.aj{fill:#989494;}.ak{fill:#c1bdbc;}.al{fill:#bab6b5;}.am{fill:#8d3943;}.an{fill:#d05f62;}.ao{fill:#d05d61;}.ap{fill:#cdc8c5;}.aq{fill:#bd7a63;}.ar{fill:#bd7a64;}.as{fill:#bf806c;}.at{fill:#ccd0b1;}.au{fill:#c6c3c1;}.av{fill:#cac6c5;}.aw{fill:#cac6c4;}.ax{fill:#cac5c4;}.ay{fill:#cac7c5;}.b`{fill:#c9c6c5;}.ba{fill:#c9c5c4;}.bb{fill:#c9c5c3;}.bc{fill:#cbc7c6;}.bd{fill:#cbc6c4;}.be{fill:#cbc7c5;}.bf{fill:#d2696a;}.bg{fill:#d26769;}.bh{fill:#dcd4d1;}.bi{fill:#c5c2bf;}.bj{fill:#c5c1bd;}.bk{fill:#c8c4c3;}.bl{fill:#c8c4c2;}.bm{fill:#c7c4c2;}.bn{fill:#c7c3c1;}.bo{fill:#c7c3c2;}.bp{fill:#c97033;}.bq{fill:#25201f;}.br{fill:#42453d;}.bs{fill:#43403f;}.bt{fill:#434044;}.bu{fill:#434045;}.bv{fill:#404243;}.bw{fill:#404d45;}.bx{fill:#403a37;}.by{fill:#40453c;}.c`{fill:#404549;}.ca{fill:#403531;}.cb{fill:#40373b;}.cc{fill:#40332e;}.cd{fill:#413e3d;}.ce{fill:#41443d;}.cf{fill:#413c3e;}.cg{fill:#41373b;}.ch{fill:#373832;}.ci{fill:#444b41;}.cj{fill:#443b38;}.ck{fill:#454544;}.cl{fill:#454241;}.cm{fill:#3e3b3a;}.cn{fill:#3e3c39;}.co{fill:#3f433a;}.cp{fill:#3f464b;}.cq{fill:#3f3835;}.cr{fill:#9c6855;}.cs{fill:#70c4ee;}.ct{fill:#494747;}.cu{fill:#494746;}.cv{fill:#554039;}.cw{fill:#545150;}.cx{fill:#54514f;}.cy{fill:#545251;}.d`{fill:#545252;}.da{fill:#464342;}.db{fill:#54453c;}.dc{fill:#53504e;}.dd{fill:#53514f;}.de{fill:#56423a;}.df{fill:#555352;}.dg{fill:#555250;}.dh{fill:#55524f;}.di{fill:#555252;}.dj{fill:#5c5957;}.dk{fill:#2a2524;}.dl{fill:#292323;}.dm{fill:#2b2626;}.dn{fill:#565353;}.do{fill:#565351;}.dp{fill:#555b60;}.dq{fill:#4a3b36;}.dr{fill:#4a3c36;}.ds{fill:#4a4745;}.dt{fill:#2a2625;}.du{fill:#484644;}.dv{fill:#474443;}.dw{fill:#474545;}.dx{fill:#483934;}.dy{fill:#353e37;}.e`{fill:#5c4f44;}.ea{fill:#302c2b;}.eb{fill:#312d2b;}.ec{fill:#313130;}.ed{fill:#3a3432;}.ee{fill:#3b413c;}.ef{fill:#3d3f42;}.eg{fill:#3d3f41;}.eh{fill:#3d3e39;}.ei{fill:#3d3d3d;}.ej{fill:#3d3b3b;}.ek{fill:#3d3a39;}.el{fill:#2e2927;}.em{fill:#2e2b2a;}.en{fill:#271f20;}.eo{fill:#5a5344;}.ep{fill:#585c5f;}.eq{fill:#575244;}.er{fill:#3c3d3c;}.es{fill:#3c3635;}.et{fill:#3c3537;}.eu{fill:#3c3332;}.ev{fill:#83b67b;}.ew{fill:#81bfa7;}.ex{fill:#83b57b;}.ey{fill:#2f2c2b;}.f`{fill:#2e302e;}.fa{fill:#39423b;}.fb{fill:#4c4a49;}.fc{fill:#4c4948;}.fd{fill:#4c3b36;}.fe{fill:#5f5c5a;}.ff{fill:#496155;}.fg{fill:#4a4846;}.fh{fill:#4a4847;}.fi{fill:#494945;}.fj{fill:#494645;}.fk{fill:#494646;}.fl{fill:#473a36;}.fm{fill:#4d413d;}.fn{fill:#4d4442;}.fo{fill:#82bea8;}.fp{fill:#783740;}.fq{fill:#7a3740;}.fr{fill:#7a3741;}.fs{fill:#7b3741;}.ft{fill:#79a871;}.fu{fill:#4b4947;}.fv{fill:#4b4746;}.fw{fill:#4c5852;}.fx{fill:#4f4c4b;}.fy{fill:#4f4c4c;}.g`{fill:#524f42;}.ga{fill:#524f4e;}.gb{fill:#524d4c;}.gc{fill:#793941;}.gd{fill:#793640;}.ge{fill:#504541;}.gf{fill:#504d4b;}.gg{fill:#504b4a;}.gh{fill:#4f5559;}.gi{fill:#817ab7;}.gj{fill:#82b17a;}.gk{fill:#80c0a8;}.gl{fill:#4e3c36;}.gm{fill:#282422;}.gn{fill:#4d4c4b;}.go{fill:#4d4c47;}.gp{fill:#4d4a49;}.gq{fill:#4d5356;}.gr{fill:#4e4b4b;}.gs{fill:#4e4b49;}.gt{fill:#4e4b4a;}.gu{fill:#4e4c4b;}.gv{fill:#514e4e;}.gw{fill:#514e4d;}</style></defs><g id="a"/><g id="b"><g id="c"><g><path class="ad" d="M628.87,526c48.56-2.62,92.88-18.18,139.13-29.41V140.01c-12.46,3.1-17.37,10.59-22.26,14.99-122.43,96-341.33,104-532.41,86C126.34,233.46,58.86,206.29,0,172.98v391.32c50.17-15.05,110.59-20.63,166.96-27.3,157.68-17,307.94-2,461.91-11Z"/><path class="fo" d="M628.87,526c-153.97,9-304.23-6-461.91,11-56.36,6.67-116.79,12.25-166.96,27.3v235.7H768V496.59c-46.25,11.23-90.57,26.79-139.13,29.41Z"/><path class="m" d="M0,0V172.98c58.86,33.3,126.34,60.48,213.33,68.02,191.07,18,409.97,10,532.41-86,22.26-15,0,0,22.26-14.99V0H0Z"/></g><g id="d"><g><path class="r" d="M329.68,144.94l.02,.04c-.29-.54-.58-1.09-.93-1.6-1.22-1.83-1.84-4-3.06-5.84l.02,.03c-.09-.94-.3-1.84-.66-2.71-.11-.73-.59-1.32-.73-2.04,.02-1.05-.57-2.02-.41-3.09-.1,.02-.16-.03-.17-.14-.28-1.46-.48-2.92-.54-4.41,0-2.27,0-4.54,0-6.8-.03-.86,.27-1.7,.19-2.57,.25-3.01,1.33-5.77,2.29-8.57,.13-.54,.3-1.07,.48-1.6,.58-1.27,1.19-2.53,1.78-3.81,.35-.68,.77-1.32,1.15-1.99,.72-1.02,1.32-2.13,2.09-3.11,.47-.69,.95-1.37,1.53-1.96,1.21-1.24,2.4-2.51,3.58-3.78,.55-.62,1.2-1.13,1.9-1.56,.54-.64,1.35-.88,1.94-1.44,0-.12,.07-.18,.18-.2,.64-.39,1.24-.86,1.83-1.32,.35-.24,.79-.25,1.13-.51,1.05-.72,2.19-1.22,3.33-1.76,.64-.46,1.41-.56,2.1-.89,.56-.24,1.13-.49,1.7-.71,1.43-.32,2.8-.88,4.25-1.14,1.14-.09,2.26-.34,3.39-.5,.84-.04,1.7,.09,2.53-.12,.61-.22,1.3,.16,1.88-.27,2.48,.7,5.06,.51,7.57,1.09,11,2.56,19.47,8.84,25.45,18.89,4.4,7.4,6.28,15.55,5.74,24.15-.52,8.18-3.17,15.71-7.98,22.27-6.6,9.01-15.34,14.18-25.93,15.92-1.64,.27-3.31,.32-4.93,.79-1.08-.77-2.36-.03-3.48-.51-.87-.44-1.84-.03-2.72-.34-.42-.22-.87-.26-1.32-.26-.71-.11-1.38-.41-2.11-.43-.91-.35-1.83-.65-2.78-.87-1.44-.6-2.91-1.13-4.29-1.87-.46-.2-.89-.46-1.33-.71-.71-.39-1.48-.67-2.1-1.22-.76-.44-1.46-.98-2.19-1.47-.36-.32-.8-.52-1.16-.84-.63-.62-1.36-1.1-2.01-1.69l.04,.04c-1.62-1.45-3.1-3.04-4.47-4.76-.47-.69-1.08-1.27-1.52-1.99-.35-.66-.85-1.21-1.24-1.84Z"/><path class="k" d="M200.9,142.11c-.13-.93-.82-.75-1.39-.76-1.26-.01-2.52-.1-3.77,.02-1.52,.14-1.66-.4-1.22-1.81,3.07-9.66,6.12-19.34,9.07-29.04,1.59-5.21,3.14-10.43,4.9-15.59,.66-.58,1.46-.52,2.23-.52,18.41-.01,36.81-.02,55.22,0,.48,0,.96,.02,1.43,.11,.46,.21,1.27,.34,.62,1.1-1.12,1.31-1.2,3.02-1.68,4.55-3.97,12.67-7.96,25.34-11.83,38.04-1,3.28-1,3.34-4.52,3.34-7.79,0-15.59-.01-23.38-.01-7.91,0-15.82,.07-23.73-.09-.79-.02-1.27,.57-1.95,.66Z"/><path class="aq" d="M306.64,75.31c-.08,.24-.2,.47-.23,.71-.32,3.16-.29,3.12,2.65,3.53,4.55,.64,9.09,1.35,13.46,2.97-.47,2.31-2.3,3.49-3.74,4.99-.46,.48-1.04,.82-1.48,1.33-1.74,1.49-3.55,2.9-5.53,4.03-2.76,1.59-5.64,2.8-8.77,3.27-.38,.1-.76,.14-1.15,.15-1.08,.01-2.15,0-3.23,0-5.85-.23-10.81-2.79-15.34-6.5-1.13-1.05-2.35-2.01-3.36-3.21-.29-.31-.57-.62-.87-.92-.66-1.11-2.26-1.51-2.18-3.19,4.63-1.55,9.38-2.53,14.21-2.94,1.74-.15,2.14-.8,1.95-2.38-.09-.74,.16-1.52-.33-2.19-.36-1.56-.16-3.14-.17-4.71,0-1.03-.32-1.78-1.13-2.4-2.98-2.27-4.63-5.38-4.96-9.23-.08-.97-.46-1.64-1.2-2.19-.92-.68-1.53-1.58-1.55-2.82,.25-1.63,.33-3.36,2.07-4.17,.79-.56,1.64-1.05,1.78-2.22,.1-.79,.64-1.17,1.37-1.27,4.51-.62,7.95-3.31,11.18-6.4,.27-.25,.51-.54,.8-.76,.81-.6,1.39-.56,1.33,.66-.05,1.16-.26,2.38,1.08,2.88,1.35,.5,2.44-.15,3.41-1.11,.48-.47,.77-1.14,1.4-1.45,.28-.08,.55-.04,.8,.14,.51,.75,.57,1.65,.75,2.51,.27,1.32,1.09,2.2,1.85,3.25,1.32,1.84,2.9,3.41,4.16,5.25,1.05,1.53,.42,4.02-1.22,5.43-.97,.83-1.41,1.79-1.55,3.05-.39,3.5-1.88,6.37-4.67,8.37-1.05,.76-1.51,1.66-1.48,3,.03,1.51,.16,3.03-.13,4.53Z"/><path class="gi" d="M269.94,85.19c1.96-1.02,4.02-1.74,6.11-2.42,1.46,.42,1.88,2.06,3,2.88,.29,.3,.58,.61,.87,.92,1.05,1.15,2.27,2.08,3.4,3.14,3.79,3.04,7.87,5.4,12.66,6.19,2.67,.44,5.32,.4,7.97-.11,2.75-.49,5.26-1.6,7.65-3.08,2.17-.86,3.86-2.5,5.68-3.94,2.21-1.86,3.95-4.23,6.04-6.22,1.98,1.06,4.23,1.42,6.15,2.64,.32,.5,.41,1.07,.31,1.64-.76,4.19-.54,8.45-.71,12.67-.03,.87-.55,1.5-.94,2.19-.55,1.21-1.13,2.42-1.72,3.61-.31,.42-.26,1-.54,1.44-.15,.14-.26,.11-.34-.08-.83-.36-1.34,.37-1.92,.69-7.53,4.14-15.59,6.19-24.03,6.15-9.59-.05-18.57-2.7-26.79-8.04-.4-.26-.78-.61-1.3-.59-.77-.66-.61-1.6-.62-2.46-.03-3.79-.01-7.59-.01-11.38,0-1.09-.05-2.15-.69-3.08-.21-.39-.34-.81-.48-1.23-.13-.55-.11-1.08,.26-1.54Z"/><path class="ey" d="M270.35,87.46c.97,.65,1.11,1.64,1.11,2.77-.02,4.89,.01,9.77,.03,14.66-.02,15.86-.07,31.73,0,47.59,0,1.86-.45,2.23-2.15,2.22-18.15-.07-36.29-.04-54.44-.04q-2.53,0-2.53-2.67c0-.38,0-.76,0-1.14,.62-.37,1.29-.19,1.94-.19,15.28-.01,30.56,0,45.84-.01,.66,0,1.32,.08,1.97-.09,.35-.09,.69-.27,1.05-.24,2.56,.21,2.77,0,2.97-3.21,.57-9.32,1.38-18.61,1.94-27.93,.24-4.02,.51-8.06,.92-12.07,.06-.56,.16-1.13-.15-2.02-.7,3.93-1.03,7.61-1.52,11.27-1.4,10.57-2.74,21.15-4.11,31.72-.1,.81-.21,1.64-.8,2.27-.53,.4-1.14,.31-1.74,.31-17.77,0-35.53,0-53.3,0-.47,0-.96,.13-1.39-.19l.03-3.35c.43-.53,1.03-.58,1.62-.58,2.07,0,4.14-.09,6.21,.06,1.25,.4,2.53,.41,3.81,.2,.19-.03,.39-.03,.58-.01,1.22,.19,2.44,.26,3.65-.11,.79-.16,1.58-.16,2.37,0,1.18,.37,2.36,.32,3.53-.05,2.15-.15,4.3-.17,6.45,0,1.77,.43,3.55,.42,5.32,0,2.52-.16,5.04-.17,7.55,0,1.53,.42,3.06,.43,4.59,.03,1.76-.24,3.53-.07,5.29-.13,.63-.02,1.32,.15,1.81-.47,1.03-3.06,1.36-6.28,1.92-9.43,2.22-12.68,4.59-25.34,6.74-38.04,.2-1.18,.56-2.32,.85-3.48-1.74-1.53-.78-3.6-.98-5.44-.05-.49,.07-1,.29-1.45,.32-.64,.81-1.07,1.51-1.17,.47-.05,.88,.11,1.23,.44Z"/><path class="r" d="M268.35,94.91c.44,.53,.13,1.1,.04,1.62-2.97,16.69-5.97,33.38-8.95,50.07-.52,.47-1.14,.24-1.71,.24-4.88,0-9.75,.26-14.63,.01-1.96-.58-4.03,.14-6-.57-.25-.09-.44,.69-.92,.72-1.09,.19-2.15-.28-3.23-.15-3.02-.9-6.05-.1-9.08,0-5.37,.44-10.74-.09-16.11,0-.59,0-1.2,.15-1.76-.16-1.54,0-3.08-.04-4.61,0-.79,.02-1.01-.22-.88-1.07,.18-1.16,.56-2.3,.4-3.5,.44-.98,1.24-1.14,2.16-1.14,6.86,.04,13.73,.06,20.59,.09,8.55,.03,17.09,.07,25.64,.09,1.06,0,2.13-.11,3.19-.09,.92,.02,.82-.75,.99-1.29,1.79-5.71,3.55-11.43,5.33-17.14,2.7-8.71,5.44-17.41,8.06-26.15,.26-.85,.98-.82,1.27-1.41l.05-.18h.17Z"/><path class="cs" d="M268.35,94.91c-.06,.08-.13,.13-.22,.17-.78-.03-1.55-.1-2.33-.1-19.1-.02-38.2-.03-57.31-.04-.01-1.5-.04-3-.04-4.5,0-2.78,.84-3.67,3.46-3.72,.35,0,.71-.02,1.06-.03,.25,.44,.43,.4,.86-.23,.46-.24,.94-.24,1.43-.15,.39,.05,.73,.29,1.11,.38l1.94-.02c.58,.31,.03,.82,.22,1.24,.03-.58,.05-1.14,.56-1.49,.45-.2,.93-.23,1.41-.31,.36-.04,.68,.24,1.05,.17,.53,.67,1.27,.39,1.93,.45,.29,.16,.36,.45,.42,.75,.03-.26,0-.53,.08-.78,.08-.24,.22-.43,.43-.55,.49-.08,.97,.05,1.44,.14,.33,.27,.7,.2,1.07,.11,.61,.47,1.3,.3,1.97,.3,.65,.52,.27,1.25,.41,1.75,.27-.66-.51-1.83,.68-2.35,.66,0,1.31,.06,1.87,.5l2.39,.09c.07,.03,.14,.06,.21,.09,.06,.14,.04,.29,.07,.44,.02-.1,.06-.2,.11-.32,.11-.23,.28-.37,.48-.48,.47-.2,.95-.2,1.43-.1,.39,.05,.71,.31,1.09,.39l1.96-.02q.3,.61,.86-.23c.46-.24,.94-.24,1.43-.15,.39,.05,.73,.29,1.11,.39l1.86,.03c.29,.34,.28,.78,.38,1.19,0,.25,.13,.07,.13,.05-.29-.62-.25-1.17,.37-1.56,.45-.19,.93-.23,1.4-.3,.36-.03,.68,.22,1.04,.17,.53,.66,1.26,.39,1.92,.44,.74,1.32,.62-.56,1.07-.33,.4-.17,.81-.19,1.23-.12,.37,.17,.76,.16,1.15,.12,.6,.47,1.29,.29,1.96,.31,.5,.3,.36,.84,.47,1.46-.04-.6-.07-1.03,.03-1.46,.1-.24,.22-.46,.47-.56,.47-.05,.93,.08,1.4,.15,.38,.03,.65,.36,1.02,.39h1.99c.35,.18,.26,.48,.22,.78,.12-.23,0-.52,.16-.74,.1-.15,.24-.26,.39-.35,.49-.19,.98-.17,1.48-.07,.4,.05,.74,.31,1.13,.4l2.16,.08c.9,.39,2.13-1,2.81,.58-1.1,.3-1.52,1.09-1.51,2.23,.01,1.38,.02,2.77-.01,4.15-.02,.56,.06,.99,.64,1.15Z"/><path class="ey" d="M308.13,39.98c-.59,1.21-1.44,2.19-2.61,2.76-1,.49-2.09,.65-3.05-.14-.92-.76-.98-1.81-.7-2.92,.09-.35,.29-.68,.06-1.2-2.2,2.09-4.25,4.29-6.82,5.79-1.79,1.05-3.66,1.87-5.71,2.05-.88,.08-1.31,.33-1.36,1.29-.07,1.44-.93,1.91-2.18,1.83-1.54-7.53,3.53-14.09,10.84-15.9,9.03-2.23,15.75,2.72,17.16,12.64,.22,1.58,.84,2.7,1.85,3.73,1.56,1.6,3.32,2.88,5.31,3.81,.38,.18,.76,.38,1.11,.61,1.68,1.09,3.99,1.69,3.81,4.43-.15,2.33-3.15,5.53-5.47,5.92-.96,.16-1.22,.58-1.4,1.51-.65,3.37-3.09,5.33-6.34,5.04-.82-.07-1.2,.3-1.66,.8-1.25,1.39-2.67,2.52-4.35,3.26-.52-2.05-.1-4.14-.23-6.2-.05-.79,.59-1.04,1.08-1.37,3.04-2.04,4.67-4.98,5.01-8.74,.12-1.27,.5-2.2,1.65-3.04,2.46-1.78,1.9-5.93-.67-6.55-.27-.07-.66-.25-.74-.48-1.09-3.09-4.41-5.09-3.97-8.93-.21-.35-.42-.3-.64-.01Z"/><path class="ey" d="M283.7,53.62c.67,1.17,1.22,2.45,2.59,2.96,.66,.25,.53,.91,.57,1.45,.29,4.21,1.92,7.59,5.4,9.85,.35,.23,.78,.42,.75,.95-.12,2.04,.36,4.11-.28,6.12-1.14-.77-2.46-.9-3.73-1.22-2.03-.51-3.7-1.56-4.06-3.95-.13-.88-.56-.92-1.2-.99-1.55-.16-3.07-.5-4.45-1.32-3.29-1.97-3.72-5.35-.96-8.06,1.88-1.85,3.81-3.64,5.39-5.8Z"/><path class="ea" d="M324.03,175.93c1.89-.88,3.9-.88,5.91-.85,.75-.77,0-1.82,.44-2.65,.12-.14,.24-.28,.35-.42,.47,5.58-1.01,10.71-3.4,15.58-1.73,3.54-3.97,6.72-6.98,9.2-.24-.05-.4-.21-.53-.42-2.21-.92-4.49-.87-6.8-.64-.76,.08-1.54,.04-2.31,.05-.89,0-1.77-.02-2.65,.04-1.04-.06-2.12,.2-3.09-.42-.08-1.21,.83-.88,1.44-1.03,.83-.03,1.69-.09,2.5,.04,2.97,.49,5.03-1.11,6.86-3.23,3.38-3.92,5.95-8.34,7.42-13.45,.19-.65,.23-1.39,.85-1.82Z"/><path class="ar" d="M328.69,99.92c-.26-4.94-.03-9.85,.78-14.73,2.91,.96,5.41,2.79,8.08,4.26,.06,.97-.94,1.03-1.28,1.65-1.15,1.23-2.31,2.46-3.48,3.67-.57,.6-1.01,1.31-1.52,1.97-.78,.87-1.25,1.99-1.99,2.9-.16,.18-.3,.43-.6,.28Z"/><path class="dh" d="M205.97,150.45c17.99,0,35.97,0,53.96,0,.82,0,1.69,.22,2.43-.39,.24,.21,.28,.46,.11,.74-16.7,.02-33.41,.03-50.11,.05-2.12-.34-4.3,.41-6.4-.4Z"/><path class="aj" d="M232.53,146.61h4c1.91-.26,3.82-.26,5.72,0,5.73,0,11.45-.01,17.18-.02-.78,.87-1.78,.36-2.67,.41-1.72,.11-3.44,.07-5.17,.09-1.43,.2-2.85,.2-4.28,0-2.65,0-5.3,0-7.95,0-1.67,.2-3.33,.2-5,0-2.29,0-4.58,0-6.88,0-1.07,.2-2.13,.2-3.2,0h-2.56c-1.19,.19-2.37,.2-3.56,0h-.4c-1.19,.2-2.37,.2-3.56,0-2.74,0-5.49,0-8.23,0,0-.14,0-.28,0-.42,6.22-.02,12.44-.04,18.66-.07,2.63-.26,5.25-.29,7.88,0Z"/><path class="fu" d="M325.53,106.66l.15,.03c.25,.04,.28,.28,.36,.47-.81,2.8-1.62,5.61-2.43,8.41-.21-.05-.23-.27-.34-.42-.03-3.06,1.41-5.69,2.26-8.5Z"/><path class="ed" d="M323.32,82.56c-1.57,2.52-3.66,4.51-5.85,6.4-.38,.13-.47-.05-.38-.41,1.85-1.97,3.97-3.67,5.43-6.03l.8,.04Z"/><path class="df" d="M302.84,19.68v7.01c-.83-1.74-.97-5.31,0-7.01Z"/><path class="ds" d="M323.54,118.18c0,2.41-.01,4.83-.02,7.24-.33,.5,.14,1.2-.38,1.66-.46-1.04-.27-2.13-.24-3.21,.23-1.25,.21-2.51,.01-3.76-.07-1.08-.21-2.16,.23-3.19,.45,.31,.07,.91,.39,1.26Z"/><path class="gb" d="M325.72,137.54c.55-.27,.67,.13,.86,.55,.78,1.72,1.61,3.43,2.41,5.14-.04,.24-.17,.39-.4,.44-1.24-1.9-2.29-3.9-2.88-6.14Z"/><path class="bs" d="M332.54,148.58c1.47,1.64,3.24,2.98,4.37,4.94-2.07-.97-3.36-2.81-4.67-4.64-.11-.33,0-.42,.3-.3Z"/><path class="bv" d="M229.97,86.42c-.77,.77,.05,1.8-.37,2.68-.9-.62-.63-1.56-.69-2.39,.41-.78,.87-1.57,1.85-1.51,.58,.03,1.23,.18,1.07,1.1-.6,.42-1.26-.25-1.86,.12Z"/><path class="ei" d="M224.57,86.32c-.64,.73-.03,1.66-.36,2.59-1.04-.49-.47-1.5-.71-2.18,1.41-1.91,2.13-1.97,3.44-.33-.12,.56-.38,.65-.77,.24-.48-.42-1.04-.37-1.6-.32Z"/><path class="gt" d="M345.56,159.11c1.49,.52,2.97,1.05,4.28,2.01l.02,.24c-1.63-.08-2.99-.89-4.34-1.74-.14-.18-.12-.36,.04-.51Z"/><path class="fc" d="M359.04,162.95c.89,0,1.78,0,2.67-.01,.51,0,.8,.18,.66,.78-1.67,.06-3.32-.13-4.96-.39,.37-.98,1.06-.37,1.63-.38Z"/><path class="d`" d="M278,37.85c1.39,.03,2.38,.92,3.38,1.81-1.33-.13-2.43-.8-3.38-1.81Z"/><path class="cb" d="M279,85.9c-1.25-.76-1.87-2.18-2.94-3.13,.16-.47,.46-.48,.82-.29,.6,1.22,1.88,1.86,2.41,3.14,.04,.25,.01,.43-.29,.28Z"/><path class="fx" d="M354.64,81.8l-4.41,1.21c-.16-.17-.17-.34-.03-.53,1.14-.6,2.35-.95,3.61-1.07,.23,.24,.66,0,.83,.39Z"/><path class="da" d="M261.67,86.68c-.91,.67,.25,1.53-.16,2.42-.88-.72-.48-1.64-.62-2.39,.6-.98,1.12-2.14,2.53-1.14-.03,.28-.17,.48-.4,.61-.45,.17-.97,.14-1.35,.51Z"/><path class="dc" d="M346.62,84.45l-3.28,1.77c-.18-.08-.41-.1-.44-.38,1.1-.9,2.35-1.49,3.66-1.95,.17,.17,.2,.35,.06,.56Z"/><path class="fk" d="M354.64,81.8l-.83-.39c1.41-.45,2.85-.68,4.32-.74,.11,.08,.17,.19,.19,.33-.02,.14-.09,.24-.2,.32-1.16,.16-2.32,.33-3.48,.49Z"/><path class="as" d="M269.94,85.19l.03,1.44c-.96,.43-1.92,.33-2.89,0,.85-.7,1.82-1.14,2.86-1.44Z"/><path class="gv" d="M285.04,30.2l-2.32-3.38,.46-.34c1.01,.75,1.44,1.96,1.95,3.11,.13,.23,.1,.43-.09,.61Z"/><path class="ck" d="M258.9,86.69c-.27,.56-.52,.11-.78-.01-.47-.39-.98-.44-1.54-.27l-.31,.27c-.34,.04-.57-.02-.37-.46,1.26-1.54,2.15-1.4,3,.47Z"/><path class="ey" d="M323.94,129.75c.5,.98,.59,2.07,.79,3.14,.06,.67-.24,.74-.74,.48,.35-1.21-.99-2.4-.06-3.62Z"/><path class="ew" d="M294.08,140.26c-.93,2.12-.99,2.14-2.17,.67,.72-.22,1.44-.45,2.17-.67Z"/><path class="fe" d="M349.86,161.36c-.04-.08-.04-.16-.02-.24,1.05-.09,2.01,.18,2.92,.7,0,.31-.16,.51-.37,.69-.82-.45-1.84-.39-2.53-1.15Z"/><path class="gr" d="M251.16,86.66c-.6,.67,.14,1.56-.34,2.28-1.07-.46-.47-1.49-.71-2.22,.09-.45,.42-.67,.75-.9,.24,.08,.42,.23,.52,.48,.02,.19-.05,.31-.23,.35Z"/><path class="cp" d="M245.82,86.67c-.66,.75,.02,1.61-.11,2.59-.93-.74-.83-1.65-.84-2.53,.27-.22,.21-.74,.65-.81,.32-.15,.43,.07,.52,.32,0,.18-.07,.32-.22,.42Z"/><path class="fu" d="M235.15,86.67l-.36,.46c-.25-.02-.27-.27-.38-.43h-.16c.61-1.03,1.2-2.12,2.62-1.18,.15,.29-.02,.46-.22,.61-.48,.26-1.11,.04-1.51,.54Z"/><path class="cd" d="M323.15,127.07c.16-.54-.1-1.19,.38-1.66,.04,1.4,.67,2.76,.25,4.19-.9-.66-.48-1.67-.62-2.53Z"/><path class="ej" d="M219.21,86.67c-.72,.74,.01,1.61-.16,2.54-.91-.74-.82-1.64-.72-2.54l.55-.75c.32-.16,.43,.06,.53,.32,0,.18-.06,.33-.2,.44Z"/><path class="do" d="M292.03,24.89c1.08,1.39,1.1,1.44,1.03,2.84q-.86-.91-1.03-2.84Z"/><path class="c`" d="M255.91,86.21l.37,.46c0,.8,0,1.6,0,2.52-.95-.63-.67-1.62-.75-2.48,.13-.17,.25-.33,.38-.5Z"/><path class="ag" d="M267.09,86.63c.96,0,1.92,0,2.89,0,.32,.18,.38,.49,.38,.83-.37-.03-.74-.06-1.11-.09-.83-.76-1.96,.09-2.81-.58,.22-.05,.44-.1,.66-.16Z"/><path class="dd" d="M340.15,88.02c-.35,.91-1.12,1.28-1.88,1.67-.32,.08-.43-.04-.31-.37,.61-.65,1.11-1.51,2.18-1.3Z"/><path class="gp" d="M245.85,86.25l-.33-.33c1.09-1.48,1.87-.46,2.68,.36-.2,.58-.51,.32-.82,.12-.49-.26-1.04,.12-1.52-.16Z"/><path class="ef" d="M213.86,86.69c-.68,.65,.03,1.42-.22,2.38-.85-.74-.6-1.62-.66-2.39,.18-.25,.35-.51,.53-.76,.32-.17,.43,.05,.52,.3,0,.18-.05,.33-.17,.46Z"/><path class="cy" d="M310.59,27.84c-.05-.99-.14-2.01,.93-2.88,0,1.22-.14,2.15-.93,2.88Z"/><path class="ct" d="M219.23,86.27l-.35-.35c1.09-1.46,1.88-.45,2.69,.36-.21,.59-.52,.3-.81,.11-.5-.23-1.03,.12-1.53-.12Z"/><path class="gf" d="M340.14,155.75c.73,.51,1.47,1.01,2.2,1.52-.04,.24-.26,.28-.41,.41-.82-.35-1.54-.88-2.21-1.5,.05-.24,.19-.38,.42-.43Z"/><path class="eg" d="M240.48,86.7c-.7,.64,.1,1.48-.23,2.37-.86-.74-.57-1.61-.63-2.38,.18-.25,.35-.51,.53-.76,.32-.17,.43,.06,.51,.31,0,.18-.06,.33-.18,.46Z"/><path class="er" d="M251.17,86.28l-.31-.45c1-.33,2.05-.91,2.7,.57-.12,.56-.38,.65-.77,.24-.48-.42-1.06-.35-1.62-.36Z"/><path class="dn" d="M359.04,162.95c-.54,.12-1.17-.16-1.63,.38-.52-.02-1.14,.23-1.42-.53l-.02,.05c1.04-.57,2.05-.24,3.07,.11Z"/><path class="cl" d="M325.35,134.9c.21,.88,1.12,1.65,.39,2.68-.48-.62-.7-1.35-.78-2.14-.15-.41,0-.57,.4-.54Z"/><path class="es" d="M341.93,157.68l.41-.41,2.09,1.22c.03,.36-.04,.57-.44,.38-.79-.21-1.47-.61-2.07-1.19Z"/><path class="em" d="M358.13,80.94c0-.09,0-.18,0-.28,1.44-.08,2.88-.45,4.33-.07-.43,.85-1.16,.33-1.75,.43-.87,.17-1.73,.32-2.58-.08Z"/><path class="gs" d="M336.87,153.49c1.04,.01,1.56,.9,2.25,1.5-.06,.24-.2,.36-.43,.4-.69-.54-1.63-.82-1.82-1.9Z"/><path class="gn" d="M346.62,84.45l-.06-.56c.49-.42,1.07-.6,1.67-.72,.4-.14,.57,.01,.53,.45-.71,.28-1.42,.55-2.14,.83Z"/><path class="fj" d="M332.54,148.58l-.3,.3c-.63-.49-1.13-1.08-1.47-1.83-.13-.4,.04-.5,.38-.4,.55,.57,1.1,1.14,1.38,1.92Z"/><path class="gu" d="M342.37,86.73c-.58,.57-1.14,1.2-2.05,1.1,.34-.73,.72-1.43,1.6-1.54,.24,.05,.39,.19,.45,.44Z"/><path class="ge" d="M337.97,89.32c.1,.12,.2,.24,.31,.37-.47,.66-1.08,1.14-1.73,1.56-.2-.05-.31-.18-.34-.39,.45-.47,.9-.94,1.35-1.41,.14-.04,.28-.08,.42-.12Z"/><path class="ea" d="M352.39,162.51c0-.3,.11-.54,.37-.69l2.1,.46c0,.71-.41,.49-.77,.37l-1.7-.14Z"/><path class="fg" d="M325.35,134.9l-.4,.54c-.32-.69-.64-1.38-.96-2.07,.35,.02,.58-.17,.74-.48l.62,2.02Z"/><path class="ec" d="M322.92,120.1c.42,1.25,.45,2.51-.01,3.76-.18-1.25-.2-2.51,.01-3.76Z"/><path class="dg" d="M331.15,146.66l-.38,.4c-.52-.62-1.22-1.13-1.09-2.12,.84,.24,1.13,1,1.47,1.72Z"/><path class="dj" d="M348.76,83.62l-.53-.45c.59-.43,1.24-.69,1.96-.69l.03,.53c-.49,.2-.98,.41-1.47,.61Z"/><path class="fb" d="M240.5,86.35l-.35-.42c.59-.59,1.16-1.44,1.83-.09-.04,.07-.08,.15-.12,.22-.42,.26-.88,.32-1.36,.3Z"/><path class="gh" d="M263.14,85.93l.28-.37c.68,.05,.76,.6,.86,1.14-.27,.41-.54,.28-.81,0-.15-.24-.55-.35-.32-.77Z"/><path class="fh" d="M213.87,86.35l-.36-.42c.59-.6,1.17-1.4,1.85-.1-.06,.16-.16,.29-.31,.37-.39,.09-.77,.22-1.18,.16Z"/><path class="fv" d="M338.7,155.38l.43-.4,1.02,.76-.42,.43-1.03-.8Z"/><path class="y" d="M229.97,86.42c.57-.97,1.24-.18,1.86-.12,.01,.11,.02,.21,.04,.31-.65,.1-1.31,.33-1.9-.19Z"/><path class="gg" d="M354.09,162.65l.77-.37c.48-.05,.92-.02,1.11,.56l.02-.05c-.65,.26-1.29,.33-1.9-.15Z"/><path class="gs" d="M328.59,143.68l.4-.44c.37,.52,.91,.96,.71,1.74-.69-.12-.91-.7-1.11-1.3Z"/><path class="ep" d="M243.01,86.7c-.29,.31-.57,.45-.84-.02-.15-.24-.54-.38-.25-.78l.06-.06c.9-.45,.87,.34,1.04,.86Z"/><path class="gq" d="M236.45,85.95l.43-.43c.54,.19,.71,.65,.77,1.19-.28,.45-.55,.26-.82-.01-.16-.23-.51-.35-.38-.75Z"/><path class="dp" d="M216.4,86.69c-.28,.35-.57,.41-.84-.01-.15-.23-.54-.38-.26-.77l.07-.08c.92-.47,.85,.37,1.03,.87Z"/><path class="cm" d="M323.54,118.18c-.41-.33-.27-.84-.39-1.26l.12-1.75,.34,.42-.06,2.6Z"/><path class="dv" d="M285.04,30.2l.09-.61c.16,.09,.37,.14,.46,.28,.23,.39,.93,.88,.44,1.22-.74,.51-.62-.61-.98-.89Z"/><path class="fj" d="M344,158.86l.44-.38,1.12,.63-.04,.51c-.58-.07-1.11-.29-1.51-.76Z"/><path class="f`" d="M342.37,86.73l-.45-.44c.15-.59,.68-.23,.98-.45l.44,.38-.97,.51Z"/><path class="bh" d="M376.48,102.62c1.17,.64,2.04,1.62,2.88,2.66,1.34,1.18-.36,1.69-.51,2.55-.11,.14-.25,.22-.42,.25-1.02,0-.69,.83-.71,1.38-.03,1.77-.54,3.34-1.59,4.72-.35,.42-.76,.76-1.18,1.05-.11,.2-.24-.05-.04,.08,.02,.01,.13-.12,.25-.19,1.63-1.58,3.72-1.98,5.72-2.63,.58-.03,1.15-.03,1.46,.62,.11,.94-.1,1.89,.03,2.83,.07,.7,.28,1.35,.57,1.97,.91,.94,2.35,.83,3.23,1.82-.76,.54-.71,1.34-.7,2.19,.08,8.19-3.05,14.77-9.13,19.75-4.52,3.7-9.71,5.36-15.42,5.01-7.95-.49-14.05-4.43-18.44-11.36-.52-.82-1.23-1.58-1.3-2.66,.44-.43,.89-.16,1.35-.03,2.78,.81,5.29,.21,7.24-2,2.01-2.28,4.35-3.58,7.25-4.11,2.76-.51,5.03-3.29,5.1-5.77-.04-.45,.03-.88,.23-1.29,.06-.15,.13-.3,.2-.45,.27-.69,.21-1.39,.02-2.1-.1-.31-.24-.6-.37-.9-.07-.16-.13-.31-.19-.48-.24-.76-.44-1.54-.35-2.35,.1-.91,.55-1.64,1.12-2.29,.84-.96,1.12-2.03,.71-3.27-.1-.53-.12-1.07-.34-1.57-2.5-1.95-4.4-4.9-7.87-5.23-.42-.04-.83-.1-1.14-.45h-2.97c6.75-3.63,13.19-4.02,19.8-1.16,.38,2.18,.19,4.36-.01,6.53-.05,.17-.13,.31-.24,.44-.29,.25-.73,.24-.92,.64-.08,.5,.17,.89,.42,1.26,.38,.52,.94,.8,1.41,1.2,.53,.5,1.2,.85,1.57,1.53,.23,.41,.41,.84,.62,1.26l.12-.11c-.22-.11,.24-.23,0-.19,.51-1.46,.5-3,.74-4.49,.19-.68,.79-1.06,1.11-1.65,.34-.64,.56-1.23-.14-1.77-.08-.17-.12-.34-.12-.53,.15-.48,.34-.88,.94-.69Z"/><path class="af" d="M354.17,100.35c2.33-.24,4.33,.28,5.79,2.44,.56,.83,1.6,1.06,2.44,1.5,.7,.36,1.22,.78,1.1,1.7,.36,.52,.15,1.03-.02,1.54-.29,.63-.71,1.17-1.05,1.76-.3,.48-.61,.97-.69,1.56-.36,.9-.17,1.81-.04,2.72-.02,.88,.23,1.67,.74,2.36l-.02-.05c0,.78,.35,1.51,.26,2.3-.2,.96-.51,1.87-.97,2.72-.52,1.1-1.57,1.69-2.26,2.64-.15,.2-.34,.36-.55,.47-.5,.17-1.05,.15-1.49,.52-.12,.1-.25,.17-.39,.24-.52,.06-1.04,.1-1.51,.38-.6,.29-1.25,.31-1.89,.37-1.51,.47-2.31,1.75-3.11,3.02-.13,.23-.31,.41-.52,.56-.52,.27-1.01,.6-1.49,.96-.81,.61-1.67,1.08-2.67,1.25-2.34,.63-4.44,.33-6.08-1.75l.03,.03c-.57-.68-.97-1.46-1.28-2.29-.37-.73-.62-1.48-.53-2.32-.14-1.22,.13-2.34,.69-3.39-.53-.84-1.07-1.68-1.42-2.63-1.53-2.12-1.42-3.82,.33-5.86,1.08-1.26,2.53-2.18,3.15-3.83,.29-.75,.46-1.54,.5-2.38,.25-5.32,3.92-6.85,8.05-6.4,1.65,.18,3.27,.55,4.89-.13Z"/><path class="ev" d="M378.59,107.86c-.5-1.11,1.52-1.39,.77-2.58,.22-.85,.4-1.71,.68-2.54,.18-.55,.65-1.2,1.18-.74,.74,.64,1.08,.64,1.61-.22,.4-.64,.95-1.52,1.83-1.2,.88,.32,.58,1.35,.68,2.3,1.34-1.43,2.62-.12,3.79,.13,1.22,.25,.45,1.49-.07,2.28-.25,.67-.83,.93-1.41,1.01-2.23,.31-3.87,1.76-5.49,3.02,.6-.08,1.13-.11,.84,.91l-.43,.73c-.35,.85-1.21,.99-1.82,1.47-1.64,.62-3.17,1.63-5,1.6,1.14-1.7,1.82-3.54,1.5-5.67-.06-.43-.17-.96,.35-1.14,.51-.19,.67,.42,.99,.66,.22,.23,.17,.59,.46,1.03-.26-.46-.24-.81-.46-1.05Z"/><path class="ev" d="M375.74,103.4c0,.12,0,.24,.05,.35,.45,.74-.11,1.28-.3,1.91-.15,.5-.78,.85-.44,1.51,.03,1.67,.05,3.33-.94,4.77-.71-.05-.67-.8-1.01-1.19-.36-.64-1-.97-1.5-1.44-.42-.36-.9-.6-1.33-.94-.38-.63-.67-1.3-.92-1.99,.34-.57,.87-.35,1.34-.36,.32,.45,1.15-.12,1.27,.72-.08-.92-.95-.27-1.27-.71,.03-2.28-.26-4.57,.3-6.83-.06-1.3,.47-2.55,.18-3.91-.16-.72-.13-1.83,.71-2.13,1.12-.4,1.22,.87,1.68,1.52,.15,.2,.07-.11,.13,.12,.59,2.43,2.3,4.65,1.42,7.33-.3,.9,.75,.69,.63,1.27Z"/><path class="au" d="M358.85,123.67v-.14l.15-.02c.96-.66,1.86-1.39,2.51-2.41,.3-.24,.35-.87,.93-.63,.43,.65,.36,1.28-.02,1.93-1.37,2.39-3.06,4.29-5.87,4.71-2.11,.31-4.01,1.06-5.47,2.84-2.7,3.31-5.96,4.39-9.89,2.67-.46-.79-1.39-1.26-1.4-2.35,1.63,.2,2.95,1.7,4.76,1.22,.45-.12,.95-.06,1.38-.31,1.01-.11,1.83-.67,2.63-1.29,.47-.27,.88-.61,1.22-1.05l.42-.44c1.09-1.11,2.16-2.25,3.22-3.39,.75,.04,1.5,.06,2.18-.37,.49,.07,.99,.23,1.44-.16-.08-.09-.07-.17,0-.26,.63-.07,1.31,.03,1.79-.56Z"/><path class="bm" d="M383,110.22c-.02-.89-.92-.54-1.28-.95,1.94-2.42,4.64-3.21,7.34-3.99,.46,.67,2.06,.11,1.69,1.64-.29,1.17-1.22,1.38-2.24,1.41-2,.07-3.82,.79-5.51,1.89Z"/><path class="bo" d="M375.74,103.4c-.7-.37-1.53-.51-.87-1.81,.38-.75,.67-1.94-.67-2.53-.54-.24-.27-1.04-.26-1.58,.03-.96-.17-1.88-.39-2.79,.53-.33,.62-1.42,1.49-1.08,.84,.33,1.02,1.19,1.04,2.03,.02,1.01-.06,2.01-.11,3.02-.02,.31-.18,.85-.12,.88,1.63,.73,.56,2.04,.62,3.09-.36,.14-.59,.42-.74,.78Z"/><path class="ex" d="M381.93,116.11c.02-.99-.22-2,.23-2.95,.2-.29,.43-.51,.81-.33,.48,.32,.48,1.05,1.44,1.06,1.18,0,2.52,2.86,2.15,3.96-1.84,.32-3.57,.29-4.63-1.73Z"/><path class="cl" d="M346.24,131.46c-2.39,1.06-4.47,.27-6.44-1.18l-.04-.72c1.33,.44,2.38,1.64,3.91,1.59,.76-.02,1.51-.05,2.23-.35,.26,.14,.56,.25,.35,.66Z"/><path class="al" d="M386.18,119.71c-1.28-.3-2.56-.6-3.59-1.54,1.38-.98,2.64-.4,3.9,.32,.05,.45,.13,.91-.31,1.22Z"/><path class="by" d="M386.49,118.49c-1.29-.22-2.56-.78-3.9-.32-.42-.61-.54-1.33-.66-2.05,1.34,1.18,3.07,1.21,4.63,1.73l-.07,.64Z"/><path class="fn" d="M336.2,90.86l.34,.39c-1.2,1.27-2.4,2.53-3.6,3.8-.15-.08-.25-.2-.3-.37,.92-1.54,2.17-2.75,3.56-3.82Z"/><path class="bj" d="M382.97,112.82c-.27,.11-.54,.22-.81,.33-.41-.46-.96-.21-1.44-.31-.19-.33-.15-.64,.07-.94,.46-.58,1.21-.57,1.77-.95,.62,.51,.97,1.07,.4,1.86Z"/><path class="ap" d="M337.25,118.95c.93,.6,1.48,1.43,1.42,2.63-1.23-.42-1.99-1.12-1.42-2.63Z"/><path class="fm" d="M329.03,99.6c.58-1.12,1.21-2.2,2.09-3.09,.22,.05,.35,.19,.39,.43-.7,1.05-1.41,2.09-2.11,3.14-.25-.05-.27-.28-.36-.47Z"/><path class="bu" d="M326.14,105.29c.51-1.19,.81-2.5,1.78-3.42,.13-.13,.25-.12,.37,0-.42,1.39-1.09,2.65-1.77,3.91-.26-.05-.28-.31-.38-.5Z"/><path class="dl" d="M337.98,124.98c.56,.66,.37,1.58,.72,2.32,.23,.37,.26,.66-.27,.72-.22-1-1.42-1.84-.45-3.04Z"/><path class="cj" d="M331.5,96.93l-.39-.43c.47-.64,.78-1.44,1.53-1.83,.1,.12,.2,.25,.3,.37l-1.44,1.88Z"/><path class="cw" d="M338.43,128.01l.27-.72c.42,.74,1.07,1.35,1.09,2.3-.91-.09-1.08-.89-1.36-1.58Z"/><path class="cf" d="M328.29,101.87h-.37c-.03-.78,.62-1.25,.76-1.95,.11-.11,.23-.22,.34-.33l.36,.47c-.26,.67-.51,1.36-1.1,1.81Z"/><path class="bt" d="M326.14,105.29l.38,.5-.49,1.38c-.12-.16-.24-.31-.36-.47l.46-1.41Z"/><path class="dd" d="M358.13,80.94c.86,.03,1.72,.05,2.58,.08-.85,.26-1.71,.33-2.59,.28,0-.12,0-.24,.01-.36Z"/><path class="aw" d="M213.97,129.97c.49,.09,1.34-.29,1.22,.78-.11,1.07-.66,1.71-1.79,1.48-.52-.1-1.36,.26-1.24-.8,.12-1.05,.62-1.77,1.81-1.46Z"/><path class="bd" d="M247.2,132.17c-.24-.13-1.07,.48-1.03-.5,.05-1.12,.56-1.94,1.81-1.71,.48,.09,1.37-.43,1.28,.67-.09,1.17-.69,1.84-2.06,1.53Z"/><path class="aw" d="M233.7,105.97c-.18-.09-.99,.48-.84-.62,.17-1.2,.77-1.78,1.94-1.57,.44,.08,1.23-.31,1.16,.63-.09,1.28-.79,1.9-2.26,1.56Z"/><path class="be" d="M249.91,123.53c.28,.16,1.12-.47,1.06,.53-.06,1.13-.58,1.91-1.83,1.71-.53-.09-1.31,.19-1.21-.86,.12-1.2,.82-1.58,1.98-1.37Z"/><path class="bc" d="M243.47,123.69s.88-.61,.75,.54c-.1,.95-.51,1.69-1.62,1.55-.61-.08-1.47,.19-1.37-.93,.1-1.07,.7-1.57,2.24-1.16Z"/><path class="ba" d="M219.82,132.13c-.07-.02-.95,.4-.83-.68,.1-.94,.49-1.72,1.62-1.49,.52,.11,1.42-.33,1.4,.64-.02,1.03-.57,1.81-2.19,1.53Z"/><path class="ax" d="M234.38,129.98c.42,.14,1.33-.44,1.21,.7-.1,.95-.51,1.69-1.62,1.55-.61-.08-1.47,.22-1.37-.92,.1-1.06,.69-1.58,1.78-1.33Z"/><path class="aw" d="M254.12,105.99c-.21-.07-1,.36-.87-.66,.14-1.08,.66-1.71,1.81-1.57,.59,.08,1.3-.06,1.21,.92-.12,1.23-.89,1.52-2.15,1.31Z"/><path class="aw" d="M241.46,130.01c.23,.07,1.03-.36,.97,.56-.07,1.01-.49,1.84-1.7,1.67-.55-.08-1.33,.19-1.3-.81,.04-1.21,.74-1.63,2.03-1.42Z"/><path class="av" d="M244.81,117.08c.29,.18,1.22-.55,1.11,.63-.1,1.06-.58,1.78-1.74,1.6-.53-.08-1.34,.23-1.29-.78,.06-1.14,.68-1.69,1.92-1.45Z"/><path class="aw" d="M222.07,125.6c-.64,.05-1.47,.44-1.34-.78,.11-1.07,.76-1.5,1.73-1.32,.48,.09,1.38-.42,1.27,.67-.1,.93-.38,1.96-1.66,1.43Z"/><path class="b`" d="M250.78,119.31c-.47-.05-1.14,.09-1.08-.77,.08-1.14,.71-1.7,1.79-1.48,.45,.09,1.3-.53,1.26,.64-.05,1.32-.92,1.57-1.97,1.61Z"/><path class="aw" d="M229.37,123.49c.39,.18,1.31-.42,1.18,.73-.1,.95-.51,1.77-1.61,1.51-.52-.12-1.47,.3-1.4-.9,.05-.93,.6-1.34,1.83-1.34Z"/><path class="bg" d="M205.37,132.1c-.08-1.89,.84-2.34,2.35-2.15,.65,.08,.79,.32,.64,.96-.48,2.01-1.87,1.11-2.99,1.19Z"/><path class="bb" d="M227.61,129.95c.4,.16,1.28-.39,1.14,.77-.13,1.11-.71,1.68-1.82,1.51-.49-.07-1.14,.18-1.15-.74-.01-1,.6-1.55,1.82-1.54Z"/><path class="aw" d="M247.47,105.99c-.23-.14-1.08,.5-.95-.58,.13-1.01,.51-1.81,1.7-1.64,.53,.08,1.4-.21,1.33,.71-.08,1.09-.71,1.84-2.07,1.51Z"/><path class="aw" d="M240.79,106.05c-.33-.2-1.18,.43-1.09-.59,.08-1,.45-1.81,1.66-1.7,.69,.06,1.33,.03,1.27,1.07-.08,1.28-.93,1.25-1.84,1.22Z"/><path class="aw" d="M226.95,105.92c-.14-.11-1.08,.61-.88-.47,.19-1.05,.74-1.89,1.97-1.67,.44,.08,1.23-.31,1.09,.7-.16,1.16-.71,1.88-2.18,1.43Z"/><path class="aw" d="M220.55,105.99c-.45-.06-1.33,.35-1.21-.71,.12-1.07,.78-1.67,1.87-1.5,.44,.07,1.23-.3,1.08,.71-.15,.96-.3,2.02-1.74,1.5Z"/><path class="ay" d="M224.02,119.19c-.95,.14-1.59,.2-1.5-.77,.08-.91,.54-1.54,1.51-1.37,.53,.09,1.51-.49,1.49,.61-.02,1.03-.35,2.16-1.49,1.53Z"/><path class="bk" d="M231.3,117.04c.38,.13,1.2-.32,1.05,.71-.14,.92-.47,1.84-1.6,1.47-.48-.15-1.49,.5-1.42-.81,.06-1.01,.62-1.43,1.97-1.38Z"/><path class="aw" d="M235.73,125.72c-.41-.35-1.49,.43-1.35-.87,.12-1.07,.74-1.53,1.73-1.34,.47,.09,1.37-.44,1.28,.67-.08,.97-.61,1.61-1.66,1.54Z"/><path class="ax" d="M215.08,125.71c-.31-.27-1.21,.24-1.15-.62,.06-.99,.48-1.87,1.71-1.6,.51,.11,1.39-.34,1.36,.69-.04,1.15-.83,1.56-1.91,1.53Z"/><path class="ay" d="M238,117.06c.41,.1,1.24-.34,1.19,.53-.06,1.13-.8,1.72-1.9,1.71-.54,0-1.17,.07-1.11-.79,.08-1.15,.66-1.7,1.82-1.45Z"/><path class="av" d="M217.78,117.15c.14,.06,1-.55,.92,.64-.09,1.46-1.08,1.33-2.03,1.4-.52,.04-1.06,.18-.95-.61,.14-1,.52-1.85,2.06-1.43Z"/><path class="bf" d="M208.22,125.49c-.28-.14-1.17,.61-1.09-.42,.08-1.09,.62-1.91,1.87-1.62,.44,.1,1.27-.35,1.18,.6-.1,1.07-.47,2.08-1.96,1.45Z"/><path class="bm" d="M225.69,112.58c-.41-.18-1.45,.52-1.35-.73,.09-1.14,.87-1.41,1.81-1.26,.44,.07,1.27-.34,1.17,.61-.09,.85-.23,1.94-1.63,1.38Z"/><path class="bl" d="M240.07,110.62c.22,.1,.92-.4,.84,.57-.13,1.51-1.14,1.53-2.19,1.48-.39-.02-1.04,.26-.89-.69,.21-1.36,1.05-1.53,2.24-1.35Z"/><path class="bm" d="M246.55,110.58c.36,.21,1.19-.44,1.17,.54-.03,1.25-.78,1.77-1.92,1.54-.41-.08-1.19,.46-1.16-.61,.02-1,.6-1.47,1.91-1.47Z"/><path class="bl" d="M218.92,112.58c-.63,.1-1.37,.21-1.39-.67-.02-1.14,.77-1.48,1.73-1.32,.45,.07,1.27-.37,1.23,.56-.04,.92-.39,1.79-1.57,1.43Z"/><path class="bk" d="M253.5,110.61c.29,.17,1.08-.47,1.06,.54-.02,1.13-.81,1.52-1.67,1.47-.42-.03-1.36,.32-1.34-.66,.02-1.22,.83-1.52,1.96-1.35Z"/><path class="bl" d="M234.07,110.63c.06,1.58-.68,2.16-1.99,2.04-.58-.05-1.12-.29-.87-1.06,.54-1.71,1.83-.84,2.86-.98Z"/><path class="an" d="M210.8,117.09c.23,.15,1.17-.61,1.12,.52-.04,.98-.56,1.69-1.64,1.43-.46-.11-1.37,.52-1.31-.61,.05-.96,.49-1.71,1.83-1.34Z"/><path class="an" d="M212.75,110.64c.15,.07,1.05-.56,.93,.61-.11,1.06-.69,1.56-1.71,1.33-.46-.11-1.35,.44-1.23-.71,.11-1.03,.66-1.58,2-1.23Z"/><path class="ao" d="M214.8,104.15s.74-.45,.67,.48c-.08,1.06-.61,1.75-1.75,1.49-.46-.11-1.32,.42-1.21-.72,.12-1.14,.73-1.63,2.28-1.26Z"/><path class="ab" d="M324.03,175.93c-1.55,7.37-5.18,13.37-10.68,18.15-.67,.59-1.39,.8-2.28,.75-1.43-.08-2.87,0-4.31,.02-.7-.26-1.4-.23-2.1,0-.64,.22-1.33,.31-1.94,.11-3.14-1.03-6.38-.54-9.57-.75-.34-.05-.64-.19-.88-.47-4.05-1.55-5.95-5.64-5.06-10.25,1.06-5.49,2.17-10.95,3.67-16.32,.11-.7,.6-1,1.15-1.25,1.19-.52,2.43-.42,3.67-.38,1.52,.19,2.78,.96,3.89,2.03,.59,.59,.98,1.33,1.43,2.04,.37,.46,.64,.97,.7,1.59,.15,2.59,.12,5.16-1.1,7.52-.21,.41-.4,.83-.57,1.26-.05,.1-.11,.2-.17,.31-.06,.1-.12,.2-.19,.29,.11-.04,.13-.17,.21-.24,.24-.34,.32-.75,.51-1.11,.2-.38,.38-.77,.73-1.04,.96-.51,1.84-1.3,3.03-1.11,.4-.04,.82-.01,1.13-.38,.3-.37,.65-.34,1.01-.11,2.8-.7,5.62-.38,8.37,.14,2.98,.55,5.82,.37,8.63-.76,.21-.09,.47-.04,.71-.05Z"/><path class="ad" d="M300.56,169.82l-1.13-1.82c-.14-.31,.04-.5,.23-.69,1.02-1.14,1.15-2.55,1.16-4.02,0-.81-.07-1.63,.19-2.42,.27-.63,.81-.92,1.35-1.22,.63-.41,1.42-.62,1.67-1.51,.07-.15,.16-.28,.28-.39,.63-.56,1.68-.71,1.66-1.89-.12-.57-.69-.82-.85-1.35,.03-.92,1.4-1.74,.19-2.75-1.02-.88-2.08-1.72-3.09-2.61-1.09-.96-2.02-.8-3.01,.19-2.16,2.15-3.39,4.89-4.39,7.75-.83,2.36-1.92,4.64-2.25,7.19-.06,.5-.31,.95-.68,1.3-.99,.3,.68,.54,.02,.83-.34,.26-.68,.52-1.03,.78-.76-.56-.15-1.1,0-1.66,.31-1.08,.81-2.13,.61-3.29-.42-2.49-1.89-3.2-5.42-2.4,2.46-2.76,2.44-5.3-.16-7.53,.13-.24,.18-.42,.25-.44,4.43-.99,5.04-1.78,4.78-6.42-.03-.46-.18-.93,.28-1.14,.21-.1,.59,.03,.82,.18,.9,.59,1.6,1.95,2.92,.91,.99-.77,1.14-1.99,1.31-3.17,.02-.11,.12-.21,.2-.35,.93,.1,1.06,1.1,1.57,1.65,1.71,1.86,2.98,1.95,4.78,.16,.25-.25,.47-.68,.87-.54,.38,.13,.38,.57,.44,.96,.35,2.32,2.34,3.66,4.56,3.08,.47-.13,.98-.29,1.34,.13,.41,.48-.05,.94-.21,1.39-.94,2.71,.4,4.93,3.16,5.2,.53,.05,1.13-.08,1.2,.75-.26,.87-1.03,1.2-1.63,1.69-.81,.67-1.57,1.36-2.2,2.22-.96,1.33-1.22,2.64-.34,4.2,.62,1.1,.21,1.64-.99,1.6-.3,0-.59-.09-.89-.14-3.58-.63-5.04,.16-6.55,3.59-.49,.59,.15,1.84-1.06,2.01Z"/><path class="ee" d="M284.93,164.85c.77-1.37,1.79-1.58,3.07-1.92-.81,1.22-1.72,1.64-3.07,1.92Z"/><path class="bw" d="M283.01,156.54c.85-.28,1.65-.87,3.04-.57-1.23,.84-2.05,1.2-3.04,.57Z"/><path class="gk" d="M306.31,176.6c-.34,.04-.67,.07-1.01,.11-.62-.4-.31-1.06,0-1.17,.76-.26,.87,.48,1,1.06Z"/><path class="fw" d="M330.37,172.42c-.02,.91,.48,1.91-.44,2.65,.15-.88,.29-1.76,.44-2.65Z"/><path class="ew" d="M287.34,147.77c-.15,.08-.29,.21-.43,.22-.31,.02-.36-.25-.29-.48,.03-.12,.22-.19,.34-.29l.39,.55Z"/><path class="et" d="M304.14,96.12c-8.1,1.65-15.01-1.07-21.21-6.42-.07-.34,.02-.51,.37-.38,4.52,3.51,9.38,6.16,15.12,6.54,1.19,.19,2.38,.25,3.57-.04l1.01-.06c.44-.07,.98-.52,1.15,.36Z"/><path class="bx" d="M304.14,96.12c-.3-.42-.75-.3-1.15-.36,3.05-.71,5.97-1.8,8.71-3.37,.21,.13,.22,.28,.03,.45-2.27,1.78-4.87,2.7-7.6,3.28Z"/><path class="dx" d="M305.83,68.51c-1.48,1.82-4.78,2.58-6.92,1.65,2.35-.33,4.73-.52,6.92-1.65Z"/><path class="cq" d="M311.74,92.83l-.03-.45c1.79-1.28,3.59-2.56,5.38-3.84l.38,.41c-1.76,1.53-3.36,3.33-5.73,3.88Z"/><path class="dq" d="M299.71,56.05q-.12,2.38,1.49,2.28c-.35,.93-.99,1.02-1.7,.83-.53-.14-1.05-.41-1.14-1.06-.15-1.07,.62-1.48,1.34-2.05Z"/><path class="fd" d="M295.35,58.75c1.22,.65,2.11,1.84,3.48,2.21-1.74,.33-2.82-.57-3.48-2.21Z"/><path class="cg" d="M283.3,89.32l-.37,.38c-1.19-.87-2.34-1.79-3.21-3.04,.06-.14,.15-.23,.29-.28,1.26,.78,2.22,1.93,3.29,2.94Z"/><path class="de" d="M313.51,51.66c.31,.09,.69,.32,.51,.44-.8,.56-.12,1.86-.97,2.22-.56,.23-.61-.46-.56-.88,.09-.76,.32-1.46,1.01-1.78Z"/><path class="ca" d="M286.63,54.46c-.86-.62-.15-1.79-1.02-2.2-.03-.02,0-.36,.08-.45,.2-.19,.47-.13,.63,.07,.57,.71,.81,1.5,.31,2.58Z"/><path class="cv" d="M293.04,48.79c.44-1.34,1.31-1.54,2.25-1.54l.16,.47-2.41,1.07Z"/><path class="gl" d="M307.94,49.23l-2.28-1.08,.19-.48c.84,.2,1.76,.21,2.09,1.56Z"/><path class="dr" d="M305.65,52.71c.36,.18,.51,.51,.46,.91-.04,.32-.18,.67-.53,.63-.48-.05-.42-.51-.41-.88,.01-.32,.09-.62,.48-.67Z"/><path class="fl" d="M294.04,54.26c-.44,0-.6-.26-.65-.59-.06-.4,.02-.81,.44-.91,.34-.08,.51,.24,.57,.57,.08,.42-.1,.72-.36,.93Z"/><path class="bx" d="M301.99,95.81c-1.18,.58-2.37,.53-3.57,.04,1.19-.01,2.38-.03,3.57-.04Z"/><path class="ey" d="M280.01,86.38l-.29,.28c-.35-.14-.59-.38-.72-.76,.1-.09,.2-.19,.29-.28,.4,.08,.62,.36,.72,.76Z"/><path class="cr" d="M308.13,39.98c.02-.36,.05-.88,.43-.85,.46,.04,.21,.54,.21,.86h-.64Z"/><path class="bo" d="M262.47,150.8l-.11-.74c1.93-14.82,3.86-29.65,5.8-44.47,.03-.25,.05-.5,.07-.76,.04-.56,.2-1,.84-.99,.78,.02,.61,.62,.58,1.1-.11,1.89-.24,3.78-.37,5.67-.91,12.66-1.87,25.32-2.7,37.99-.12,1.79-.58,2.52-2.3,2.22-.58-.1-1.2-.02-1.79-.02Z"/><path class="en" d="M234.37,147.11c1.67,0,3.33,0,5,0-1.67,.51-3.33,.5-5,0Z"/><path class="en" d="M247.33,147.11c1.43,0,2.85,0,4.28,0-1.43,.51-2.85,.51-4.28,0Z"/><path class="en" d="M214.23,147.11h3.56c-1.19,.51-2.37,.51-3.56,0Z"/><path class="en" d="M218.18,147.1c1.19,0,2.37,0,3.56,0-1.19,.51-2.37,.51-3.56,0Z"/><path class="en" d="M224.3,147.11h3.2c-1.07,.5-2.13,.5-3.2,0Z"/><path class="v" d="M232.53,146.61c-2.63,0-5.25,0-7.88,0,1.03-1.03,2.36-.35,3.51-.51,1.39-.2,3.02-.65,4.36,.51Z"/><path class="w" d="M242.25,146.62c-1.91,0-3.82,0-5.72,0,.08-.17,.19-.48,.25-.47,1.82,.29,3.72-.48,5.47,.48Z"/><path class="t" d="M224.57,86.32c.67-.67,1.23-.65,1.6,.32-.57,.07-1.16,.27-1.6-.32Z"/><path class="o" d="M236.45,85.95c.13,.25,.26,.5,.38,.75-.56,0-1.12-.01-1.68-.02,.22-.67,.71-.8,1.3-.72Z"/><path class="ae" d="M215.29,85.9l.26,.77c-.56,0-1.13,0-1.69,.01-.01-.11,0-.23,.01-.34,.42-.35,.9-.48,1.42-.45Z"/><path class="ae" d="M241.92,85.9l.25,.78c-.56,0-1.13,.02-1.69,.02-.01-.12,0-.24,.02-.35,.42-.35,.9-.47,1.42-.45Z"/><path class="p" d="M251.17,86.28c.68-.57,1.26-.64,1.62,.36-.55,0-1.09,.01-1.64,.02,.02-.12,.03-.25,.02-.38Z"/><path class="o" d="M263.14,85.93c.11,.25,.22,.51,.32,.76-.6,0-1.19-.01-1.79-.02,.33-.6,.82-.85,1.47-.75Z"/><path class="u" d="M256.59,86.41c.66-.83,1.13-.5,1.54,.27-.53,.04-1.08,.2-1.54-.27Z"/><path class="n" d="M219.23,86.27c.53-.22,1.07-.69,1.53,.12-.45,.5-1.01,.33-1.55,.29l.03-.4Z"/><path class="q" d="M245.85,86.25c.53-.19,1.08-.68,1.52,.15-.46,.48-1.01,.31-1.55,.26l.03-.42Z"/><path class="dm" d="M234.42,86.7c.13,.14,.25,.29,.38,.43,.05,.46,.11,.92,.16,1.38-.78-.47-.66-1.14-.54-1.81Z"/><path class="ch" d="M311.1,195.31c-1.04,.41-2.09,.46-3.13,.01,1.04,0,2.09,0,3.13-.01Z"/><path class="am" d="M356.65,136.32c.2-2.48,1.66-4.07,3.6-5.08,4.08-2.11,7.79-4.65,10.7-8.43,1.28-1.65,3.28-1.64,5.17-1.55,1.12,0,1.84,.68,2.48,1.54,1.34,2.59,.59,4.91-.81,7.15-1.98,1.98-3.62,4.32-5.83,6.08-2.12,1.68-4.51,2.79-6.77,4.19-2.6,1.12-5.12,1.15-7.53-.58-.68-.99-1.72-1.86-1.01-3.33Z"/><path class="bn" d="M377.5,129.9c.36-.85,.72-1.69,1.08-2.54,.65-1.55,.29-3.05-.2-4.54,.46-.79,1.11-1.25,2.01-1.27,.47,1.04,1.43,2.14-.43,2.8-.43,.15-.59,.55-.42,1.08,.93,2.99-.55,5.31-2.15,7.4-2.89,3.77-6.47,6.73-10.79,8.47-2.27,.91-4.69,1.6-7.02-.07-.36-.26-.67-.13-.93,.21-.34,.46-.51,1.3-1.33,.74-.65-.44-1.68-.6-1.38-1.84,.54-.46,1.31-.39,1.82-.89,2.47,1.25,4.98,1.33,7.54,.33,4.49-1.96,8.48-4.64,11.29-8.97,.24-.37,.65-.56,.9-.91Z"/><path class="gc" d="M380.39,121.54c-.54,.64-1.19,1.11-2.01,1.27-.75-.52-1.51-1.03-2.26-1.55,0-.79-.43-1.98,.45-2.18,.85-.2,2.11-.58,2.75,.8,.28,.6,.71,1.11,1.07,1.66Z"/><path class="fp" d="M357.77,139.45c-.25,1.12-.79,1.56-1.82,.89-1.64-.59-1.55-2.17-1.4-3.41,.14-1.21,1.37-.47,2.11-.61-.17,1.26,.93,2.02,1.12,3.13Z"/><path class="gj" d="M368.74,113.61c-.69-.72,.6-.68,.44-1.31-.24-.9,.43-1.75,1.04-1.83,.77-.1,1.03,.94,1.15,1.66,.1,.61,.54,.78,.89,1.09,.57,.52,.8,1.07,.33,1.79-.69-.31-1.35-.73-2.15-.64-.66-.04-1.16-.44-1.7-.77Z"/><path class="ak" d="M363.88,107.56c.69,1.29,.36,2.42-.54,3.4-.64,.69-1.15,1.42-1.3,2.38-.2,.06-.35,0-.45-.19-.23-.64-.28-1.28-.05-1.93,.14-.61,.36-1.19,.71-1.71,.34-.58,.75-1.11,1.06-1.71,.14-.22,.3-.4,.58-.24Z"/><path class="ce" d="M380.8,111.91l-.07,.94c-1.79,1.08-4.02,1.17-5.59,2.75-.46,.17-.56-.07-.49-.49l1.1-1.07c1.68-.71,3.37-1.41,5.05-2.12Z"/><path class="bi" d="M375.05,107.16c-.55-.21-.72-.46-.33-1.09,.45-.71,.72-1.55,1.07-2.33,.85,0,1.22,.28,.83,1.24-.36,.87-.83,1.62-1.57,2.17Z"/><path class="br" d="M370.7,114.06c.81-.07,1.49,.15,1.89,.96-1.1,.23-2.06-.37-3.09-.56,.29-.49,.86-.07,1.2-.4Z"/><path class="fi" d="M373.29,110.5c.27,.48,.55,.96,.82,1.44,0,.4,.71,.79,.25,1.11-.59,.41-.74-.3-.93-.72-.2-.45-.36-.91-.53-1.37,.1-.18,.14-.42,.39-.47Z"/><path class="dw" d="M362.44,120.48l-.68,.77c-.36,.09-.55-.01-.42-.44,.54-.82,.76-1.79,1.05-2.72,.45,.3,.39,.76,.36,1.21l-.3,1.18Z"/><path class="ga" d="M361.77,113.19c.09,.04,.18,.09,.26,.15,.14,.87,.28,1.73,.42,2.6-1.13-.37-.87-1.46-1.06-2.31,.12-.15,.15-.39,.38-.43Z"/><path class="ek" d="M362.74,119.3c-.39-.31-.25-.8-.36-1.21-.21-.74-.47-1.47,.04-2.2,.14,.26,.29,.52,.43,.79,.18,.89,.18,1.78,0,2.67l-.11-.05Z"/><path class="cn" d="M373.29,110.5l-.39,.47-1.52-1.48c.04-.24,.24-.26,.39-.35,.65,.27,1.15,.73,1.51,1.37Z"/><path class="ci" d="M369.35,106.38c.72,.42,.82,1.2,1.04,1.92-.13,.17-.26,.19-.4,.02-.59-.51-.99-1.09-.64-1.94Z"/><path class="bq" d="M369.98,108.32l.4-.02c.58,.05,.96,.49,1.39,.83l-.39,.35c-.52-.32-1.13-.51-1.4-1.16Z"/><path class="eh" d="M370.7,114.06c-.31,.43-.79,.3-1.2,.4-.57,.03-.57-.5-.76-.85l1.96,.45Z"/><path class="au" d="M362.86,119.34v-2.67c.49,.89,.5,1.78,0,2.67Z"/><path class="eb" d="M363.88,107.56l-.36,.38c-.33,.08-.51,.01-.37-.4l.36-1.55c.96,.3,.26,1.04,.37,1.57Z"/><path class="go" d="M374.65,115.1l.49,.49c-.38,.53-.99,.72-1.28,.15-.29-.58,.48-.46,.78-.64Z"/><path class="s" d="M349.89,118.23c-1.2,.44-2.37,.14-3.45-.33-2.13-.91-2.88-3.31-1.83-5.47,1.74-3.58,7.56-5.68,10.24-1.09,.05,1.21-.38,2.26-1.3,2.9-1.53,1.04-2.6,2.5-3.65,3.99Z"/><path class="bp" d="M349.89,118.23c.31-1.28,.8-2.49,1.93-3.17,1.45-.87,2.44-2.09,3.02-3.72,.99,2.68-.04,4.97-2.89,6.32-.65,.31-1.31,.63-2.06,.57Z"/><path class="gw" d="M353.44,125.02c-.56,1.67-1.64,2.8-3.22,3.39,.7-1.53,1.85-2.58,3.22-3.39Z"/><path class="du" d="M361.34,120.8l.42,.44c-.73,1.01-1.36,2.15-2.76,2.27,.52-1.15,1.72-1.65,2.34-2.71Z"/><path class="fk" d="M346.24,131.46l-.35-.66c.95-.12,1.68-.77,2.52-1.15,.18,.08,.41,.1,.46,.37-.74,.76-1.64,1.19-2.63,1.45Z"/><path class="dk" d="M361.77,113.19l-.38,.43c-.4-1-.39-2.01,0-3.01,.35-.06,.54,.03,.39,.45v2.13Z"/><path class="l" d="M353.73,104.39c-.04,.3-.24,.44-.48,.42-.35-.03-.51-.27-.42-.64,.07-.28,.28-.37,.54-.32,.28,.05,.36,.27,.36,.54Z"/><path class="fy" d="M361.78,111.06l-.39-.45c-.02-.64,.34-1.08,.69-1.53,.34-.05,.53,.05,.4,.46l-.7,1.52Z"/><path class="di" d="M362.48,109.53l-.4-.46,1.06-1.54,.37,.4c-.17,.66-.6,1.14-1.04,1.6Z"/><path class="cu" d="M348.87,130.01l-.46-.37c.41-.36,.7-.95,1.38-.79,.08,.72-.43,.94-.92,1.16Z"/><path class="do" d="M358.85,123.67c-.42,.83-.94,1.26-1.79,.56,.55-.36,1.04-.93,1.79-.56Z"/><path class="aa" d="M357.34,116.45c-.02,.26-.1,.49-.39,.52-.24,.02-.52-.04-.47-.36,.03-.2,.22-.44,.4-.52,.24-.11,.44,.06,.46,.37Z"/><path class="x" d="M341.77,116.98c-.25-.02-.47-.11-.49-.41-.02-.25,.04-.55,.35-.49,.19,.04,.42,.24,.49,.43,.1,.25-.05,.46-.35,.48Z"/><path class="j" d="M351.81,122.13c.1,.11,.31,.25,.38,.45,.09,.26-.06,.47-.35,.47-.25,0-.46-.11-.48-.41-.02-.25,.03-.49,.46-.51Z"/><path class="cx" d="M357.05,124.49c-.41,.76-.88,.85-1.44,.16,.44-.42,.93-.38,1.44-.16Z"/><path class="i" d="M378.59,107.86c.56,.6,.99,1.22,.17,2.54-.08-1.15-.13-1.84-.17-2.53h0Z"/><path class="g" d="M380.4,106.94c1.12-.74,1.38,0,2.1,.87l-2.1-.87Z"/><path class="ai" d="M383.26,104.12c.82,.62,.95,1.12,1.04,1.94-.76-.49-.77-1.08-1.04-1.94Z"/><path class="ah" d="M370.69,106.02c1.09-.44,1.56,.34,2.27,1.6-1.01-.71-1.64-1.16-2.27-1.61h0Z"/><path class="f" d="M373.64,99.74c-.29,.61-.38,1.37-1.44,1.84,.49-.91,.7-1.59,1.44-1.84Z"/><path class="ft" d="M373.42,104.26c-.2,.27-.48,.28-.75,.22-.2-.04-.25-.22-.08-.34,.18-.13,.4-.22,.61-.24,.18-.02,.3,.13,.22,.36Z"/><path class="co" d="M301.63,170.86l.27,.51c-.14,1.12-.17,2.25,.02,3.37-.23,1.26-.47,2.51-.7,3.77l-.64,.84c-.22-.03-.25-.24-.33-.4,.92-2.57,1.21-5.24,1.05-7.98,.07-.17,.19-.2,.34-.12Z"/><path class="a`" d="M291.91,166.4c.08-.33-.81-.26-.28-.77,1.58-1.13,3.23-1.25,4.95-.37,.25,.74-.49,.46-.69,.74-1.33,.05-2.68-.11-3.98,.39Z"/><path class="a`" d="M295.89,166c.18-.3,.47-.36,.77-.39,1.59-.28,2.45,.25,3.14,1.94l-.37,.44c-1.06-.91-2.17-1.7-3.54-1.99Z"/><path class="at" d="M301.63,170.86c-.11,.06-.22,.1-.34,.12,.05-.6-.51-.76-.74-1.16,.77-.57-.04-1.68,.7-2.25,.13,1.1,.53,2.16,.37,3.3Z"/><path class="h" d="M308.37,186.57c-.84,.38-1.25,.88-1.87,.53-.06-.04-.11-.28-.07-.32,.44-.46,.93-.7,1.94-.21Z"/><path class="e`" d="M300.14,180.44c-.23,.63-.5,1.23-1.24,1.59-.22-.99,.46-1.45,.88-2.02,.24,.03,.27,.26,.36,.43Z"/><path class="dt" d="M300.14,180.44l-.36-.43,.46-1.05,.33,.4-.44,1.08Z"/><path class="db" d="M305.51,185.36c-.06,.35-.25,.91-.51,.71-.65-.49,.01-1.01,.19-1.5,.31,.17,.15,.56,.31,.79Z"/><path class="cc" d="M307.26,182.75c.36,.47,.41,.95,.24,1.45-.01,.04-.26,.07-.31,.02-.37-.47-.37-.94,.07-1.47Z"/><path class="gm" d="M305.51,185.36l-.31-.79c.03-.33-.21-.88,.2-.92,.46-.04,.25,.53,.26,.83,0,.29-.1,.59-.15,.88Z"/><path class="ab" d="M299.8,167.55c-.91-.9-1.78-1.87-3.14-1.94-1.68-.83-3.36-.24-5.03,.01,1.04-3.87,2.24-7.67,3.82-11.34,.95-2.2,2.16-4.21,3.94-5.77,.86-.75,1.71-1.04,2.7-.08,1.14,1.1,2.54,1.87,3.53,3.16,.95,1.15-.45,1.96-.38,2.98,.55,.13,.98,.38,1.04,1.05-.13,1.38-1.42,1.63-2.14,2.44l.02-.03c-.49,.65-.91,1.38-1.71,1.68-.45,.28-1.06,.34-1.21,1.02,0,2.22,.18,4.45-.7,6.57-.2,.48-.36,.58-.73,.25Z"/><path class="g`" d="M305.23,154.58c-.63,.06-1.03-.12-.37-.7,.73-.64,.77-1.43,.75-2.28,1.76,1.26,.08,2.04-.38,2.98Z"/><path class="eq" d="M304.14,158.07c.22-1.29,1.7-1.35,2.14-2.44,.54,2.03-1.13,1.91-2.14,2.44Z"/><path class="eo" d="M302.3,159.54c.65-.45,.98-1.36,1.86-1.5,.29,1.3-.7,1.48-1.46,1.86-.16-.09-.36-.12-.4-.36Z"/><path class="el" d="M302.3,159.54c.13,.12,.26,.24,.4,.36-.49,.28-.98,.55-1.46,.83-.42-1.17,.67-.83,1.07-1.19Z"/><path class="dy" d="M306.52,168.25c-.8-.27-1.03-.95-1.53-1.64q1.12,.36,1.53,1.64Z"/><path class="fa" d="M301.92,174.74c-.45-1.12-.43-2.24-.02-3.37,.19,1.12,.17,2.24,.02,3.37Z"/><path class="ff" d="M312.67,161.39c-.63,.25-.94,0-1.15-.43-.03-.07,.17-.38,.27-.38,.46-.02,.78,.21,.87,.81Z"/><path class="eu" d="M377.5,129.9c-2.65,4.73-6.65,7.72-11.33,9.84-.25,.11-.57,.03-.86,.04,.92-1.27,2.45-1.4,3.65-2.19,2.79-1.85,5.3-3.97,7.29-6.76,.32-.45,.65-.91,1.26-.94Z"/><path class="fs" d="M362.94,136.99l-1.72-2.99c1.13,.49,1.96,1.18,1.72,2.99Z"/><path class="fr" d="M370.97,126.46c1.22-.42,1.72,.3,2.13,1.52-1.02-.22-1.36-1.21-2.13-1.52Z"/><path class="gd" d="M368.93,128.67c1.05,.15,1.25,.89,1.63,1.51q-.73-.12-1.63-1.51Z"/><path class="fq" d="M364.91,132.43c.78,.19,1.11,.75,1.32,1.62-.97-.21-.98-1.06-1.32-1.62Z"/><path class="ac" d="M350.56,110.06c.38-.08,.77,.05,.89,.42,.18,.56-.25,.77-.68,.88-1.51,.36-2.78,1.1-3.74,2.42-.21,.29-.51,.62-.89,.26-.38-.36-.27-.78-.04-1.2,1.01-1.77,2.57-2.55,4.45-2.77Z"/><path class="e" d="M347.11,115.81c-.14,.43-.27,.86-.81,.78-.46-.07-.73-.4-.72-.89,.02-.48,.27-.87,.76-.78,.4,.08,.7,.41,.77,.88Z"/></g></g></g></g></svg>