<?xml version="1.0" encoding="UTF-8"?><svg xmlns="http://www.w3.org/2000/svg" viewBox="0 0 650 650"><defs><style>.e{fill:#f2eceb;}.f{fill:#696665;}.g{fill:#696766;}.h{fill:#68383a;}.i{fill:#676564;}.j{fill:#eaeae7;}.k{fill:#e8e2df;}.l{fill:#feffff;}.m{fill:#e5efe6;}.n{fill:#e4e6e5;}.o{fill:#7d7c7a;}.p{fill:#7e7d7b;}.q{fill:#734b42;}.r{fill:#656362;}.s{fill:#989695;}.t{fill:#9a6653;}.u{fill:#6c6a69;}.v{fill:#6b905f;}.w{fill:#7c7b79;}.x{fill:#7c7a79;}.y{fill:#979594;}.a`{fill:#6d383b;}.aa{fill:#7c7c7c;}.ab{fill:#7d5648;}.ac{fill:#8b8a89;}.ad{fill:#848281;}.ae{fill:#858383;}.af{fill:#b5765f;}.ag{fill:#b67b3d;}.ah{fill:#8b8988;}.ai{fill:#8c582f;}.aj{fill:#8d5d33;}.ak{fill:#b4793c;}.al{fill:#c1e0ed;}.am{fill:#666463;}.an{fill:#322e2b;}.ao{fill:#302d2c;}.ap{fill:#8d3943;}.aq{fill:#8d8a8a;}.ar{fill:#858483;}.as{fill:#b27639;}.at{fill:#b2773b;}.au{fill:#b2753b;}.av{fill:#b27539;}.aw{fill:#af7238;}.ax{fill:#ac6e36;}.ay{fill:#aa6a34;}.b`{fill:#b3793c;}.ba{fill:#b3783b;}.bb{fill:#b3783c;}.bc{fill:#ab6b34;}.bd{fill:#b17438;}.be{fill:#b1743a;}.bf{fill:#b07339;}.bg{fill:#b07338;}.bh{fill:#af7137;}.bi{fill:#bc7a62;}.bj{fill:#d3a04b;}.bk{fill:#ae4950;}.bl{fill:#ae4850;}.bm{fill:#ae4750;}.bn{fill:#b07439;}.bo{fill:#ad6f37;}.bp{fill:#ad6f36;}.bq{fill:#ad7037;}.br{fill:#c5c2c1;}.bs{fill:#c5c2c0;}.bt{fill:#e2b663;}.bu{fill:#408eb0;}.bv{fill:#3f3130;}.bw{fill:#81b378;}.bx{fill:#807e7d;}.by{fill:#716f6e;}.c`{fill:#959493;}.ca{fill:#959290;}.cb{fill:#45a5d0;}.cc{fill:#868382;}.cd{fill:#895d4d;}.ce{fill:#706c6b;}.cf{fill:#646261;}.cg{fill:#646260;}.ch{fill:#645751;}.ci{fill:#65383a;}.cj{fill:#636160;}.ck{fill:#64473e;}.cl{fill:#34525f;}.cm{fill:#302c2a;}.cn{fill:#3892b1;}.co{fill:#312d2b;}.cp{fill:#2e2b2a;}.cq{fill:#393635;}.cr{fill:#3c3735;}.cs{fill:#3b5e6d;}.ct{fill:#2f2c2b;}.cu{fill:#2f2c2a;}.cv{fill:#4b3834;}.cw{fill:#62605e;}.cx{fill:#615f5e;}.cy{fill:#5f3a38;}.d`{fill:#46a5d0;}</style></defs><g id="a"/><g id="b"><g id="c"><g id="d"><g><path class="j" d="M.09,649.91C.09,434.8,.1,219.7,0,4.59,0,.85,.84,0,4.59,0,218.2,.11,431.8,.11,645.41,0c3.75,0,4.59,.84,4.59,4.59-.11,213.6-.11,427.21,0,640.82,0,3.75-.84,4.6-4.59,4.59-75.41-40-236.41-65-645.31-.09Z"/><path class="bt" d="M357.06,278.01c-2.45-14.78,2.1-27.69,11.33-38.91,10.88-13.22,25.63-21.62,40.12-30.11,22.6-13.25,46.69-22.92,72.95-25.4,18.35-1.74,36.99-2.8,54.03,6.82,5.83,3.29,10.95,7.52,14.57,13.31-.44,12.12-3.58,23.02-13.96,30.6-1.79,.11-3.44,.41-3.72,2.66-5.74,5.53-13.01,8.57-20.01,11.9-4.1,1.95-7.99,4.97-12.97,4.68-.96-.05-.99-1.71-2.08-1.3-.25,.09,.03,1.17-.24,1.77-5.19,3.92-11.48,4.49-17.51,5.86-5.79-1.51-1.79-4.94-1.09-8.17-5.07,1.87-5.96,7.51-10.3,9.24-2.99,.71-5.95,.37-8.92-.13-6.64-1.12-12.73-.34-18.45,3.84-9.17,6.7-20.17,8.35-31.02,10.22-5.56-.04-9.84-4.2-15.54-5.04,.32,2.33,3.21,2.76,3.02,4.96-1.16,2.01-3.18,2.24-5.16,2.32-11.67,.5-23.37,.41-35.04,.88Z"/><path class="cp" d="M184.73,354.03c13.12,50.65,24.54,101.51,21.26,154.44-1.34,21.58-2.03,43.2-3.03,64.8-.04,.97,.11,2.02-.8,2.75-6.08,2.31-12.15,2.34-18.22-.02-3.41-9.75-4.25-20.04-6.36-30.06-6.29-29.86-10.46-59.97-8.3-90.58,.48-6.75-.94-11.87-5.33-17.07-6.66-7.89-11.35-17.15-15.54-26.59-.98-.97-1.19-2.14-.92-3.44,2.46-8.62,3.97-17.42,5.42-26.25,.58-3.51-.5-5.14-3.81-6.17-9.17-2.87-18.28-5.92-27.14-9.67-4.44-1.88-8.81-3.89-12.62-6.87-1.16-.91-3.67-1.75-1.5-4.07,4.85-1.19,9.57,.41,14.33,.75,9.63,.69,19.25,.79,28.87,.08,4.11-.55,7.82,1.09,11.61,2.23,3.17,.95,6.24,2.21,9.63,2.36,3.91,.16,7.19-.82,9.5-4.22,.72-1.06,1.37-2.34,2.96-2.38Z"/><path class="bm" d="M355.27,230.23c-.16,6.94,.24,13.95-.61,20.81-1.74,14.08-9.76,24.23-21.56,31.63-11.73-11.02-24.08-21.47-32.64-35.39-2.01-3.26-3.66-6.72-4.48-10.5-.19-.87-.38-1.74-.62-2.6-.17-.64-.22-1.3-.13-1.95,.43-1.22-.2-1.98-1.13-2.63-.32-.33-.53-.72-.64-1.16-.12-2.54,3.96-5.02,.1-7.62-.49-.85-.57-1.8-.42-2.88-1.9,1.7-3.82,2.71-5.75,3.73-2.45-.03-4.99,.23-6.71-2.1,.07-4.73,3.6-6.53,7.17-7.98,3.44-1.4,4.74-3.66,4.69-7.3-.27-18.48,.4-36.97-.41-55.45,3.04-1.36,5.94-.35,8.55,.98,15.25,7.78,31.19,12.3,48.49,11.29,4.51-.26,5.95,2.56,5.94,6.75-.05,19.98,.02,39.96,.05,59.93,.58,.79-.25,1.64,.11,2.44Z"/><path class="bj" d="M408.7,274.17c3.93-1.88,8.28-2.12,12.44-2.89,7.31-1.36,14.07-3.98,19.86-8.42,5.56-4.26,11.66-4.48,17.88-3.53,3.31,.5,6.54,.57,9.83,.66,3.74,3.64,6.79,3.35,10.26-.97,6-1.92,12.49-2.37,17.95-5.93,.62-.57,1.26-.67,1.92-.08,11.89-3.95,23-9.41,33.06-16.92,1.01-.76,2.01-1.53,3.13-2.11,7.28-5.65,11.35-13.14,12.92-22.14,.48-2.75,1.38-5.42,2.1-8.12,5.24,5.46,7.92,12.28,9.64,19.4,1.2,4.97,2.92,9.49,6.35,13.29,2.49,2.57,1.29,5.29,.16,7.87-2.53,5.79-6.78,10.18-11.69,14.03-11.96,9.38-25.79,15.21-39.85,20.3-29.12,10.52-59.02,18.51-89.21,25.29-17.3,3.89-34.87,4.79-52.51,2.42-2.58-.35-5.43-.35-6.8-3.28-6.58-4.57-6.82-5.29-3.56-12.27,1.1-2.35,.56-4.11-1.32-5.72-2.18-1.86-4.03-3.96-4.21-7.04,2.21-1.24,4.58-1.48,7.09-1.5,9.13-.08,18.26-.28,27.39-.55,1.77-.05,3.53-.64,5.29-.97,3.29,4.19,8.91,3.8,11.87-.82Z"/><path class="bt" d="M499.02,448.11c-21.01,4.2-42.04,6-63.01-.13-15.45-4.51-28.05-12.7-34.84-28.04,6.17-1.89,11.76,.2,17.26,2.64,1.2,.53,1.88,2.57,3.65,1.03,1.9-3.99,4.77-4.88,8.59-2.73,1.83,3.04,3.72,.92,5.6,.05,6.68-.9,13.46,.07,20.13-1.13,1.47-.26,2.92,.28,4.25,.98,1.17,.75,2.28,.43,3.37-.25,1.8-1.38,3.91-1.69,6.09-1.99,23.42-3.21,45.93-9.55,67.29-19.77,.42-.24,.87-.46,1.31-.66,9.21-3.86,17.77-8.91,26.16-14.28,.37-.28,.75-.53,1.15-.77,5.6-3.14,10.15-7.64,15.13-11.57,.47-.51,.93-1.02,1.36-1.57,4.24-5.31,7.36-11.22,10.03-17.47,1.3-3.05,2.08-7.05,6.57-7.52,5.2,20.7,1.09,39.53-11.99,56.2-14.08,17.95-33.31,28.63-54.09,36.85-8.79,3.48-17.7,6.64-27.09,8.17-1.32-1.7-.27-3.19,.57-4.57,1.57-2.55,2.85-5.26,4.44-7.8,1.77-2.83,3.74-5.21,7.78-3.66-1.53-5.15-2.7-6.45-7.69-8.39,3.1,5.11-.44,8.22-2.5,11.71-2.11,3.58-4.14,7.2-6.01,10.91-.77,1.53-1.13,3.63-3.5,3.73Z"/><path class="e" d="M97.05,324c-1.51-1.31-.91-3.09-.99-4.69-.17-3.31,.99-7-3.8-8.45-1.9-.57-1.59-3.06-1.03-4.44,4.48-10.96,3.23-22.86,5.84-34.11,3.86-16.61,10.99-30.99,27.23-38.89,5.25-2.55,10.93-3.79,16.73-4.41-2.89,10.47,4.29,19.86,15.53,20.37,3.82,.17,5.28-2.2,5.88-5.4,.52-2.78,.16-5.61,.29-8.41,.09-1.93-.37-4.03,1.38-5.56,15.5,3.1,29.92,9.32,44.45,15.25,2.14,.87,4.28,1.78,6.65,1.86,1.2,1.65,.47,3.22-.35,4.66-5.49,9.7-10.7,19.56-16.3,29.19-.82,1.41-1.53,3.02-3.36,3.49-1.96-.09-4.02,.1-5.37-1.8,1.33-2.48,.75-4.57-1.06-6.62-1.61-1.82-3.74-3.24-4.57-5.69-.03-2.09,.45-4.13,.47-5.42-.09,1.8-.86,4.33-.52,6.95-.12,3.52-2.15,6.78-1.45,10.42-.33,2.66-.41,5.43-2.92,7.21-8.54-.41-16.74,1.85-25.04,3.3-8.67,1.52-16.82,.51-24.09-4.8-1.92,.69-.96,2.52-1.5,3.74-.62,2.19-.84,4.43-.8,6.7-.31,2.77-1.11,5.45-1.46,8.2-.61,4.82-3.11,7.76-7.99,8.53-5.33,.63-10.53-.75-15.79-1.11-3.21-.22-4.67,.52-4.63,3.87,.03,2.09,.34,4.36-1.43,6.08Z"/><path class="cb" d="M148.22,409.01c.06,.9,.13,1.8,.19,2.7-1.93,.94-1.91,2.98-2.55,4.62-2.92,7.5-6.58,14.58-12.01,20.58-10.62,11.73-20.59,13.16-34.21,5.07-15.15-9-26.74-21.88-37.89-35.15-13.51-16.08-25.48-33.3-36.66-51.07-1.06-1.69-3.19-3.21-2.03-5.76,3.27-5.08,7.52-9.21,12.42-12.71,7.37,3.66,13.12,9.49,19.39,14.59,14.81,12.05,29.41,24.35,42.32,38.48,2.79,3.06,5.28,6.39,7.9,9.6,2.79-.17,1.17-1.94,1.14-3.13-.65-10.27-1.91-20.52-1.23-30.84,1.27-.52,1.87,.42,2.31,1.25,6.31,11.83,16.24,20.27,26.43,28.52,4.11,3.33,8.06,6.84,12.2,10.14,1.04,.83,2,1.74,2.3,3.13Z"/><path class="bj" d="M461.04,422.89c-1.34-1.3-2.8-2.4-4.81-1.89-7.03,1.77-14.19,.62-21.29,.96-1.29,.68-2.57,.62-3.86,0-3.71-1.79-6.76-1.84-7.96,3.02-1.11-.69-1.25-1.86-1.42-3-.51-3.42,.02-5.86-5.85-4.08-5.01,1.51-11.96,.37-16.92-3.93-1.1-5.13-2.31-10.19-5.88-14.32-1.67-1.93-1.07-4.34-1.01-6.6,.86-2.81,2.37-4.57,5.64-3.5,.58,1.24,.34,2.72,2.16,3.52,3.19,1.42,6.42,2.51,9.84,3.14,12.92,1.4,25.84,2.41,38.83,1.37,.53-.06,1.06-.06,1.59-.03,2.86,.04,5.74,.37,8.57-.44,.76-.2,1.53-.32,2.31-.39,12.67-.99,25.02-3.79,37.2-7.22,19.83-5.59,38.63-13.58,55.94-24.88,7-4.57,13.59-9.63,18.93-16.14,4.13-3.95,6.44-9.01,8.61-14.17,.67-1.6,.69-3.61,2.61-4.5,8.76,1.3,13.48,6.56,14.85,15.11-3.12,2.17-4.67,5.49-5.93,8.84-2.4,6.38-5.63,12.19-10.26,17.2-.41-.08-.9-.41-1.23-.07-.37,.38,.18,.74,.27,1.13-5.1,4.31-9.59,9.44-16.04,11.93-.2-.41-.25-.87-.42-1.29,.08,.45,.2,.88,.41,1.28-8.19,6.45-17.24,11.38-27,15-.35-.25-.48-.75-.96-.84,.37,.23,.64,.56,.96,.84-9.94,6.03-20.9,9.6-31.9,12.99-12.76,3.94-25.78,6.77-39.11,8.04-1.65,.16-2.59,1.38-3.91,2.01-1.35-.89-2.19-.1-2.95,.92Z"/><path class="bw" d="M374.89,347.02c-2.58-2.61-4.01-5.8-3.81-9.42,.18-3.22-1.07-4.03-4.05-3.74-2.63,.25-5.3,0-7.96-.02,.44-2.58,2.61-1.82,4.17-2.05,1.85-.28,3.82,.21,5.61-.67-.31-1.12-1.24-1.24-1.8-1.78-.28-.37-.4-.79-.32-1.25,.34-.38,.74-.61,1.27-.43-.22-.52-.64-.14-.84-.07-1.1,.34-2.19,.69-3.37,.49-.73-.12-1.37-.41-1.88-.95-8.88-3.18-9.82-11.23-2.14-18.39,.87,.19,1.54,.72,1.9,1.49,3.54,7.5,10.63,7.52,16.67,5.8,6.59-1.87,6.58-1.85,10.67,3.4,2.74,3.51,6.22,4.79,10.6,3.57,2.47-.68,4.58-1.93,6.51-3.56,1.77-1.5,3.09-3.76,5.4-4.31,3.16-.76,3.04,2.93,4.86,4.18,2.49,1.72,4.94,2.68,7.93,1.68,1.59-.53,3.28-1.04,4.42-2.24,5.36-5.7,11.18-8.7,18.85-4.19,1.54,.91,3.23,0,4.56-1.18,1.38-1.23,2.49-2.68,3.59-4.15,3.29-4.37,7.07-5.65,12.61-3.74,11.2,3.86,21.81-.49,26.76-10.23,.99-1.95,1.46-4.07,2.07-6.14,.91-3.09,2.44-4.3,5.32-1.89,1.02,.86,2.13,1.6,3.31,2.22,8.73,4.62,16.45,1.41,18.74-8.18,.93-3.89,2.78-4.44,6.06-3.25,1.72,.62,3.46,1.22,5.28,1.5,6.8,1.04,10.44-1.35,11.76-8.14,.55-2.83,1.6-4.13,4.62-3.62,5.36,.91,9.73-1.13,13.59-4.76,6.06-5.7,10.33-12.54,13.36-20.23,.78-1.98,.94-4.27,2.75-5.76,5.43,1.15,8.95,4.37,9.97,9.83,.91,4.89-1.01,8.8-5.07,11.64-3.09,2.17-6.69,1.54-10.41,1.57,.5,2.43,.96,4.63,1.42,6.83-.14,.3-.13,.74-.32,.91-4.88,4.28-4.21,9.84-3.59,15.4-.73,3.18-1.5,6.34-3.32,9.12-8.5,9.74-16.92,12.19-26.86,7.96-3.11-1.32-5.41-3.73-7.99-5.93-6.77,18.44-17.09,23.97-26.86,14.11-2.13,5.42-4.76,10.35-10.5,12.52-5.7,2.16-11.07,1.65-16.35-2.26-1.48,2.7-2.2,5.59-4.28,7.8-6.88,7.3-16.12,7.29-22.48-.52-2.12-2.6-3.05-3.11-5.34-.11-4.54,5.94-8.61,6.88-15.62,4.18-2.76-1.06-4.5-.54-5.51,2.21-.99,2.67-2.15,5.2-4.16,7.31-5.85,6.15-14.67,6.53-20.24,.22-2.79-3.16-3.75-2.21-5.57,.6-4.24,6.53-9.91,10.64-18.24,9.87-2.52-.23-4.51-.94-5.71-3.25Z"/><path class="bt" d="M195.2,284.19c6.35-11.26,12.72-22.51,19.02-33.8,.55-.98,.68-2.19,1.01-3.29,3.91-3.34,5.3-8.27,7.68-12.53,4.16-7.48,9.01-14.6,12.15-22.63,4.2-12.33,12.34-21.48,23.06-28.54,2.64-1.74,5.33-3.43,8.09-4.97,3.17-1.77,4.72-1.01,4.98,2.62,.9,12.44,.28,24.7-5.78,36-2.91,5.43-5.68,10.94-9.15,16.05-7.16,12.62-13.74,25.58-21.35,37.95-5.08,4.76-7.34,11.3-10.6,17.17-8.61,15.46-17.7,30.65-25.48,46.56-1.76,.88-3.24-.12-4.63-.89-6.21-3.41-12.36-6.94-18.56-10.35-.87-.48-1.66-1.09-1.91-2.15,.73-3.1,2.89-5.45,4.29-8.21,4.2-8.12,8.95-15.93,13.23-24.01,.98-1.85,1.84-3.96,3.96-4.98Z"/><path class="ay" d="M569.84,291.77c1.01-2.91,2.02-5.82,3.03-8.73,.93-1.43,.93-3.1,.9-4.66-.09-6.1-.16-6.1,6.27-5.54,1.92,3.73,2.77,7.8,3.71,11.84,.26,1.14,.2,2.4,1.82,2.49-.76,3.21-3.59,3.18-5.75,2.93-2.96-.34-1.1-3.64-2.19-5.39-4.13,4.51-4.43,8.7-.98,14.61,1.49-1.95,.13-5.38,3.25-6.17,1.55-.39,3.16-1.32,4.62,.28,1.37,6.08-1.6,10.69-5.44,14.73-7.33,7.72-16.76,12.58-25.91,17.57-39.35,21.44-81.4,35.24-125.46,42.92-11.63,2.03-23.45,2.94-35.2,.48-2.86-.6-6.04-.95-7.45-4.23-.77-.94-1.53-1.87-2.3-2.81,5.58-2.82,10.23-6.62,13.53-12.07,1.69-2.8,3.61-2.61,5.9-.05,7.67,8.57,16.28,7.08,21.03-3.44,3.21-7.1,3.22-7.14,10.71-4.56,3.87,1.33,7.16,.6,10.07-2.29,1.68-1.67,2.97-3.58,4.13-5.61,1.58-2.74,3.06-2.77,4.42,.2,.77,1.66,1.6,3.29,2.93,4.61,7.25,7.19,17.7,4.39,20.81-5.59q1.56-5.01,5.85-2.29c8,5.07,16.88,2.15,20.79-7.19,1.49-3.56,2.5-4.9,6.23-2.17,6.07,4.44,13.07,2.77,17.2-3.57,2.22-3.41,3.14-7.31,4.16-11.18,.77-2.9,2.15-4.16,4.54-1.15,.41,.52,.89,.99,1.38,1.44,5.51,5.07,11.85,7.67,19.23,5.2,7.22-2.43,11.33-7.91,12.82-15.32,.36-1.8,.5-3.63,1.37-5.28Z"/><path class="cp" d="M296.98,236.04c2.63,9.37,8.03,17.07,14.65,23.96,5.98,6.23,12.21,12.23,18.29,18.37,1.25,1.27,2.94,2.27,3.18,4.3-10.05,7.06-20.07,14.16-30.17,21.15-5.76,3.99-9.96,4.03-15.59,.13-11.46-7.94-22.87-15.96-34.26-24-4.51-3.18-8.47-6.93-11.27-11.78-.29-2.24,1.68-2.66,2.96-3.5,9.88-6.47,19.38-13.44,28.47-20.99,2.55-2.11,5.32-4.07,9-2.81,1.24,1.56,.89,3.47,1.18,5.25,.35,2.15,1.43,3.75,3.58,4.32,1.52,.4,3.51,1.4,4.44-.55,.74-1.56-1.23-2.04-2.24-2.77-3.23-2.34-2.7-5.33-1.55-8.46,2.8-1.99,5.65-3.79,9.33-2.62Z"/><path class="v" d="M581.93,237c-2.25,12.13-8.79,21.68-18.1,29.39-3.27,2.71-7.42,3.49-11.74,2.67-1.55-.3-3.3-1.02-3.17,1.94,.33,7.92-6.39,11.86-14.24,9.58-5.35-1.56-8.13-3.07-10.18,4.54-2.46,9.1-14.04,10.36-22.35,3.58-.76-.62-1.45-1.34-2.45-2.27-2.29,3.65-2.12,7.96-4.51,11.41-6.02,8.7-15.91,12.49-26.02,9.37-8.18-2.52-8.47-2.43-13.51,4.39-3.89,5.26-5.76,6.05-12.23,2.93-4.28-2.07-7.18-1.4-10.05,1.97-.95,1.12-2.18,2.02-3.34,2.96-7.06,5.69-13.75,4.28-17.83-3.94-3.97,3.16-6.8,7.71-12.34,8.77-6.04,1.16-10.62-.35-13.08-5.98-1.28-2.92-2.57-3.19-5.11-2.11-1.82,.77-3.74,1.43-5.68,1.76-8.56,1.48-12.5-.81-16.23-9.22,1.36-2.76,4.56-3.45,6.37-5.7,4.76,2.28,9.95,2.57,15.05,2.88,18.37,1.11,36.37-1.32,54.22-5.73,26.12-6.46,52.13-13.28,77.45-22.4,14.53-5.24,28.92-11.03,41.21-20.84,3.8-3.03,7.11-6.51,9.69-10.64,1.89-3.03,3.12-6.23,2.3-9.89,5.32-.56,10.65-1.36,15.88,.6Z"/><path class="cp" d="M142.99,223.16c-4.49-1.19-9.23-1.81-13.41-3.68-7.11-3.19-12.99-8.76-16.02-15.6-5.27-11.9-5.45-18.57,0-30.65,3.3-7.31,9.23-13.77,17.77-16.23,7.28-2.1,14.22-3.72,22.24-1.09,13.18,4.32,23.31,15.11,24.56,28.96,.44,1.25,.86,2.5-.6,3.41-2.14-.25-4.27-.24-6.44,.03-3.15,.38-4.88,1.83-4.77,5.14,.11,3.27-.89,5.82-4.27,7.08-2.32,.86-2.08,2.95-2.25,5.02-.54,6.63-3.63,12.02-8.93,16-2.29,1.72-4.89,2.93-7.9,1.6Z"/><path class="cp" d="M254.88,233.06c5.79-10.41,12.68-20.34,14.64-32.48,1.19-7.36,.59-14.74,.59-22.68-13.17,6.87-24.4,14.77-31.11,27.77-1.13,2.19-2.62,4.18-3.94,6.27-.06-14.94-.14-29.87-.16-44.81,0-3.39,1.34-6.22,5.1-6,18.3,1.09,35.08-3.95,51.15-12.12,.28-.14,.65-.13,.98-.19,2.3,.58,1.81,2.45,1.81,4.03,.02,18.07-.04,36.15,.07,54.22,.02,2.76-.73,4.33-3.5,5.01-4.36,1.07-7.82,3.4-9.56,7.77-6.75,5.1-13.28,10.55-21.29,13.65-1.5,.58-3.49,2.72-4.77-.46Z"/><path class="br" d="M385.05,364.91c10.04,5.68,21.1,4.96,31.67,3.62,49.99-6.36,96.94-22.24,140.9-46.87,5.36-3,10.53-6.37,15.53-9.94,6.32-4.51,10.89-10.26,10.95-18.57,.56-1.7,1.61-2.06,3.14-1.16,4.66,12.04,.99,24.43-9.56,31.74-18.43,12.78-38.31,22.84-59.07,31.22-22.14,8.93-44.94,15.72-68.13,21.31-8.11,1.95-16.26,3.58-24.59,4.13-2.04,.13-3.87,.94-5.82,1.35-.82,.16-1.65,.15-2.48,.03-4.96-.87-9.97-.16-14.95-.4-5.76-.27-11.28-1.28-15.74-5.31-2.1-1.9-4.23-3.85-3.98-7.1,.01-1.72,1.46-2.68,2.13-4.05Z"/><path class="ai" d="M569.84,291.77c2.06,11.78-9.61,25.88-23.94,22.2-5.53-1.42-9.89-4.53-13.5-9.52-1.88,6.67-2.6,13.61-8.37,18.06-5.95,4.58-11.03,4.07-18.64-2.04-1.12,6.46-4.9,10.98-10.54,13.4-6.13,2.63-11.53,.27-16.54-4.4-.46,3.82-1.27,7.37-3.75,10.05-2.53,2.72-5.7,4.55-9.53,4.81-5.83,.4-11.24-3.93-14.63-11.87-1.83,2.95-3.13,5.95-5.58,8.28-3.75,3.56-7.87,4.52-12.23,1.94-4.49-2.66-6.24-1.26-7.85,3.29-3.81,10.81-12.97,14.14-20.88,7.86-1.76-1.4-2.99-3.46-4.68-5.47-4.86,5.33-7.61,13.28-16.43,13.73-4.08-4.27-6.39-9.46-7.86-15.09,6.86,4.61,15.85,1.95,21.16-4.8,1.93-2.46,3.61-5.12,5.68-8.07,2.04,3.17,3.87,6.13,7.12,7.78,6.75,3.43,15.12-.35,18.05-8.24q2.64-7.11,9.3-4.01c4.33,2.01,9.69,0,13.27-4.87,1.05-1.43,1.25-3.47,3.06-4.37,8.26,14.77,24,13.82,28.84-3.78,11.09,9.28,23.12,3.21,26.93-9.98,3.12,3.59,6.81,5.81,11.53,5.23,4.81-.59,8.3-3.49,10.7-7.43,2.33-3.82,3.36-8.2,3.75-13.44,3.52,3.08,6.02,6.43,9.93,8.08,8.21,3.46,16.23,2.06,22.45-4.2,1.05-1.06,2.13-2.1,3.19-3.14Z"/><path class="bi" d="M97.05,324c-.05-2.79,.08-5.6-.18-8.38-.31-3.36,1.25-3.77,4.1-3.43,6.02,.73,12.08,1.18,18.12,1.75,.95,1.07,.4,2.04-.19,2.98,.08,1.94,1.77,.51,2.46,1.15,4.24,1.06,8.01,3.17,11.83,5.19,7.78,6.11,14.57,13.46,23.52,18.14,3.22,1.68,5.56,1.97,8.46-.54,2.5-2.15,5.3-5.01,9.11-1.94-.16,2.83,.89,4.06,3.99,3.91,2.68-.13,4.91-1.83,7.58-1.65,3.36,2.22,3.42,4.44,.5,7.29-1.35,1.32-1.69,3.53-1.62,5.57-4.92,8.47-8.61,9.85-18.3,6.87-4.7-1.44-9.28-3.32-14.22-3.86-10.54-.85-19.91-5.43-29.47-9.34-3.96-1.62-7.75-3.71-11.53-5.75-2.99-2.26-6.75-3.52-8.8-6.88,.47,1.53,1.51,3.1-1.12,3.72,.52-5.49-3.71-9.62-4.23-14.81Z"/><path class="ap" d="M417.92,380.9c.7,0,1.39,0,2.09,.01,4.39-.87,8.07,1.25,11.78,2.97,11.78,5.47,23.4,5.77,34.89-.78,2.03-1.16,4.15-2.3,5.66-4.06,7.97-9.26,18.59-12.45,30.21-13.28,10.12-.72,19.22-3.66,26.56-11.04,8.69-8.74,20.14-11.24,31.55-13.74,3.1-.68,6.12-1.53,9.12-2.55,5.64-1.91,9.29-5.4,10.59-11.45,.57-2.64,.5-6.21,4.47-6.84,.29,3.25,.05,6.46-.6,9.66-1.97,7.18-4.56,14.02-10.22,19.23-3.59,2.71-7.92,3.43-12.13,4.27-11.49,2.29-21.93,6.49-30.45,14.9-6.25,6.17-14.38,8.04-22.76,9.04-4.46,.54-8.92,1.03-13.31,1.99-5.66,1.25-10.62,3.77-14.73,7.92-5.49,5.54-11.72,9.73-19.68,10.76l-1.91,.12c-2.95,1.13-6.13-.3-9.08,.83-.34,0-.68,.01-1.02,.02-5.97-.44-11.61-1.92-16.98-4.68-6.85-3.51-13.62-4.11-19.79,1.65-.87,.81-2.02,1.12-3.22,1.13-4.11,.15-7.57-1.69-10.96-3.69-1.45-.86-2.36-1.89-.2-3.06,4.66-3.45,9.93-5.87,14.88-8.82,1.44-.85,3.38-1.52,5.24-.53Z"/><path class="k" d="M584.85,320.16c-2.22,2.05-2.76,4.89-3.29,7.61-1.16,6.03-4.86,9.48-10.44,11.58-5.79,2.17-11.79,3.45-17.78,4.76-9.11,2-17.39,5.57-24.04,12.31-6.79,6.89-15.29,9.8-24.65,10.5-12.44,.92-23.14,4.55-32.62,13.7-10.71,10.34-24.29,11.36-38.08,5.56-4.59-1.93-9.04-4.21-13.96-5.25,3.67-3.13,8.3-1.79,12.44-2.48,23.8-3.96,46.81-10.78,69.52-18.66,26.29-9.12,51.32-20.92,74.36-36.69,9.38-6.42,13.11-15.51,10.9-26.69-.29-1.45-.23-2.97-.33-4.46,.21-2.02,1.27-2.53,3.06-1.7,1.23,2.02,3.52,2.4,5.36,3.45,6.57,3.75,7.17,8.17,1.96,13.53-3.56,3.66-9.01,5.21-11.31,10.24-.41,.89-.75,1.81-1.12,2.71Z"/><path class="bi" d="M142.99,223.16c9.52-1.83,15.98-10.02,15.27-19.4-.17-2.27,.67-4.37,2.89-4.47,4-.18,4.38-2.82,3.85-5.41-1.2-5.86,2.16-6.89,6.62-6.8,1.86,.04,4.17-2.43,5.6,.77,.74,.94,1.14,2.02,1.44,3.16-1.05,2.8-.75,5.83,.36,8.25,2.2,4.75,1.17,9.47,1.05,14.24-.25,9.31-3.28,12.69-12.51,12.58-3.59-.04-3.85,1.25-3.43,3.93-.02,4.46,.11,8.92-.1,13.37-.29,6.02-3.3,8.29-9.15,7.14-7.8-1.52-13.83-5.2-16.29-13.31-1.02-3.35-.73-6.17,2.46-8.2,1.94-1.52,1.5-3.84,1.95-5.86Z"/><path class="cp" d="M499.02,448.11c4.11-6.79,7.28-14.12,11.94-20.59,1-1.38,.89-2.2-.8-2.96-1.4-.63-1.78-2-.8-3.33,.75-1.02,1.88-1.26,3.12-.82,4.29,1.52,6.17,5.31,8.29,8.85,.45,.75,0,1.64-.66,2.22-.85,.76-2.05,.9-2.7,.1-2.28-2.78-3.26-.66-4.23,1.04-2.54,4.44-5.69,8.56-7.24,13.53-8.26,15.03-13.09,31.2-15.54,48.09-.95,6.55,1.9,9.22,8.63,8.8,7.76-.48,14.33-4.03,20.44-8.48,7.12-5.19,14.13-10.54,21.12-15.91,1.92-1.48,3.56-2.36,5.54-.11,5.97,6.75,10.35,14.27,11.22,23.42,.54,5.73-1.82,10.12-5.88,11.52-3.9,1.35-8.14-.49-11.14-5.49-2.55-4.26-4.71-8.79-6.75-13.33-1.19-2.65-2.09-3.08-4.53-1.13-5.72,4.56-11.65,8.83-18.49,11.68-4.2,1.75-8.5,2.84-13.07,2.79-7.79-.08-11.99-4.19-11.89-12.17,.1-8.39,2.6-16.38,4.84-24.38,2.25-8.01,5.64-15.6,8.56-23.36Z"/><path class="cn" d="M148.22,409.01c-13.96-11.38-28.93-21.66-39.51-36.72-1.44-2.05-1.45-4.84-3.72-6.31,.03-3.65,.06-7.31,.09-10.96,1.13-.48,1.67,.12,2,1.1,12.41,9.38,27.12,13.54,41.6,18.1,4.58,1.44,6.84,2.8,5.57,8.37-2,8.81-2.57,17.94-6.03,26.42Z"/><path class="cp" d="M398.93,413.97c5.16,1.1,10.32,2.19,15.48,3.33,1.25,.28,2.32,.53,2.43-1.29,.08-1.34,.76-2.17,2.18-2.18,1.6,0,2.21,1.14,2.84,2.37,1.44,2.79,1.06,5.82,1.27,8.78-.88,1.26-2.73,2.94-3.42,1.36-2.75-6.2-8.68-4.13-13.17-5.67-1.68-.57-3.57-.51-5.36-.74-27.73-5.5-55.07-6.92-81.18,6.96-5.05,2.68-8.72,7.06-13.62,9.92-3.17,1.85-4.92,1.54-6.84-1.58-4.64-7.53-7.27-15.67-7.78-24.44-.39-6.62,4.7-10.04,10.91-7.57,5.9,2.35,9.34,6.73,10.32,13,.41,2.62,.74,5.25,1.18,8.42,9.88-5.84,20.18-9.71,31.19-11.71,15.93-2.9,31.79-1.8,47.66,.43,1.97,.28,3.95,.39,5.93,.59Z"/><path class="bi" d="M254.88,233.06c6.2-.02,10.8-3.79,15.67-6.82,3.45-2.15,5.77-6.11,10.39-6.36,2.32,.39,4.64,.78,6.96,1.18,1.97-.6,3.92-1.75,5.95-.17,1.23-.12,2.4-1.43,3.7-.17-1.92,1.57-.11,4.37-1.9,5.92-.77,.67-1.6,1.16-1.66,2.29-1.17,.71-2.57,.75-3.8,1.29-.88,.19-1.78,.44-2.56-.28-1.05-1.31-.42-3.42-2.14-4.4-1.15-.28-2.07,.03-2.72,1.03-1.93,1.83-.75,3.46,.33,5.11,.23,3.27,1.28,6.64-1.21,9.55-2.39,.12-4.69,.8-6.45,2.31-10.58,9.09-22.12,16.86-33.64,24.65-2.3,.96-4.6,1.92-6.9,2.88,.61-5.94,4.9-10.14,7.37-15.2,3.8-7.8,8.36-15.22,12.61-22.8Z"/><path class="cu" d="M589.96,290.23c-1.02,.57-2.04,1.14-3.06,1.7-.93,.41-1.86,.82-2.79,1.23-3.06,.76-7,.68-5.18,5.86,.36,1.02-.5,1.85-1.56,2.22-1.18,.41-1.82-.27-2.45-1.13-2.7-3.65-2.22-13.38,.87-16.59,.7-.73,1.49-1.48,2.59-1.07,1.02,.38,1.42,1.25,1.43,2.38,.07,5.03,.09,5.03,5.78,2.34,15.74-9.58,19.83-24.59,19.12-41.66-.44-10.55-3.55-20.6-6.34-30.71-.83-3.01-2.89-2.59-4.96-2.86-5.73-.74-6.01-1.26-4.72-6.97,.58-2.57-1.22-4.74-1.55-7.19-.6-4.43,.69-6.02,5.21-5.97,.63,0,1.27,.4,1.8-.2,1.35-1.53,3.38-3.7,4.92-2.34,2.26,2.01,5.59,.58,7.34,3.17,2.33,3.44,1.42,13.02-2.24,15.8-2.19,1.66-1.94,2.88-1.33,4.89,3.02,9.87,5.84,19.81,6.54,30.16,1.27,18.79-2.97,35.41-19.41,46.92Z"/><path class="ct" d="M367.01,328.81c1.38,.91,4.19-1.11,4.42,1.47,.28,3.17-2.59,2.53-4.63,2.74-2.58,.26-5.26-.32-7.74,.82-14.29,.25-28.59,.58-42.88,.65-2.03,.01-2.82,.21-3.36,2.28-1.11,4.22-3.92,6.7-8.42,7.36-4.9,.72-8.28-3.07-9.15-5.91-1.02-3.32-1.47-6.69-3.27-9.97-1.08-1.96,1.91-2.72,3.64-2.95,3.62-.5,6.86-.51,9.7-4.09,2.81-3.53,8.63-.8,9.95,4.66,.8,3.33,2.2,4.06,5.34,3.92,10.13-.44,20.26-.59,30.4-.86,5.34-.31,10.67-1.33,16.02-.14Z"/><path class="cu" d="M185.85,341.17c-3.42,3.75-8.06,3.17-12.08,2.44-3.84-.7,.69-2.88,.11-4.45-.18-.47-.33-.96-.21-1.45,1.54-6.57,1.17-7.22-5.33-9.14-1.43-.42-2.92-.64-4.26-1.32-3.86-1.96-5.31-6.21-3.28-9.59,1.82-3.02,6.33-3.8,9.69-1.56,1.82,1.21,3.26,2.8,3.84,5.01,8.17,4.56,16.35,9.12,24.52,13.67,1.47,1.48,3.38,1.01,5.17,1.24,2.83,.37,4.44,2.2,4.82,4.95,.35,2.6-.9,4.65-3.18,5.69-2.45,1.11-5.26,.98-6.69-1.49-1.74-3.01-4.72-3.98-7.24-5.78-2.92-2.08-4.72-1.53-5.86,1.77Z"/><path class="d`" d="M183.94,576c6.07,0,12.15,.02,18.22,.02,.11,3.14,.27,6.29,.3,9.43,.06,4.75,.52,9.24,5.23,11.99,1,.59,1.7,1.73,1.06,2.99-.6,1.17-1.82,1.29-3.02,1.29-5.3,0-10.61-.04-15.91,.03-2.48,.03-3.57-1.06-3.77-3.51-.63-7.42-1.39-14.83-2.1-22.24Z"/><path class="bs" d="M107.07,356.11c-.67-.37-1.33-.73-2-1.1-4.98-3.29-3.88-8.4-3.91-13.16,3.21-1.74,6.54-1.98,10-.86,8.59,3.48,16.7,8.11,25.6,10.9,5.18,1.62,10.3,3.43,15.45,5.15-9.91,1.74-19.86,.9-29.81,.55-5.13-.18-10.13-1.84-15.32-1.48Z"/><path class="k" d="M417.92,380.9c-3.25,.35-6,1.79-8.51,3.82-3.42,2.76-7.28,4.64-11.6,5.52-2.61-.48-4.38,.77-5.77,2.79-.17-1.67-.98-2.56-2.71-3.03-9.63-2.63-11.62-6.15-8.91-15.75,.53-1.87,.83-3.93,2.5-5.3,4.52,8.36,11.94,11.01,20.95,11.1,4.68,.04,9.48-1.1,14.05,.84Z"/><path class="ct" d="M35.47,337.28c-3.1,5.26-8.01,8.73-12.42,12.71-3.53-4.53-7.25-8.45-13.85-7.87-2.77,.24-3.07-1.82-1.17-3.51,4.46-3.97,9.11-7.71,13.65-11.59,1.82-1.56,2.99-.36,4.21,.84,3.19,3.14,6.39,6.28,9.58,9.42Z"/><path class="aj" d="M580.04,272.85c-1.51,2.07-3.64,.72-5.9,1.01,1.3,3.32,.98,6.44-1.28,9.19-.02-.66,.16-1.41-.08-1.98-2.66-6.29,.11-10.62,5.05-14.18,.94,1.91,2.04,3.76,2.21,5.96Z"/><path class="cr" d="M111.16,341c-3.26,1.11-6.6,1.35-10,.86,.04-1.02,.08-2.03,.12-3.05,.35-1.37,.7-2.73,1.13-4.41,3.06,2.31,5.9,4.45,8.75,6.59Z"/><path class="aq" d="M630.12,251.11c.03-3.83-.55-7.69,.77-11.46,1.23,4.16,1.65,8.32,.15,12.52-.62-.08-.67-.66-.93-1.06Z"/><path class="n" d="M367.01,328.81c-5.34,.05-10.68,.09-16.02,.14,3.33-2.46,7.55,.46,10.91-1.82,.72,.01,1.43,.02,2.15,.03,.95,.78,2.43-.2,3.25,1-.14,.2-.23,.41-.29,.65Z"/><path class="o" d="M225.14,443c1.04,2.86,.94,5.72-.11,9.69-1.61-3.86-.82-6.85-.86-9.76,.35-.4,.67-.38,.97,.06Z"/><path class="s" d="M67.45,318.43c-1.87-2.18-1.55-4.46-.75-7.28,2.6,2.53,.62,5.05,.75,7.28Z"/><path class="cf" d="M465.12,489.07v12.26c-1.51-4.41-1.33-8.85-1.02-13.3,.92-.23,1.38,0,1.02,1.04Z"/><path class="by" d="M77.98,321.02c-1-2.54-.73-5.01,.93-7.46v7.45c-.31,.45-.62,.48-.93,0Z"/><path class="p" d="M81.23,303.03l-1.93,7.86c-1.19-2.94-.34-5.44,.81-7.88,.38-.34,.76-.32,1.12,.03Z"/><path class="cc" d="M450.82,488.9v5.91c-2.27-2.13-1.9-3.97-.99-5.89,.33-.44,.66-.46,.99-.01Z"/><path class="x" d="M630.28,236.03c-1.59-2.83-2.22-4.58-1.72-7.4,1.75,2.28,2.01,4.11,1.72,7.4Z"/><path class="am" d="M643.78,238.1c.13,3.1,.57,6.2-.29,10-1.25-3.38-.41-6.23-.7-8.97-.4-1.04,.08-1.24,.98-1.02Z"/><path class="w" d="M288.92,383.12c-1.36-2.1-.99-4.51-2.16-7.99,2.99,2.57,2.29,5,3.03,6.91-.14,.48-.43,.84-.87,1.08Z"/><path class="i" d="M630.12,251.11c.31,.35,.62,.7,.93,1.06-.1,2.24,.2,4.58-2.03,7.49,.46-3.56,.78-6.05,1.1-8.54Z"/><path class="ad" d="M160.36,142.44c.19,1.74,.16,3.27-1.54,4.55-.41-2.19,.06-3.6,1.54-4.55Z"/><path class="ca" d="M642.02,232.79c-1.28-1.23-1.75-2.67-1.52-4.92,1.81,1.63,2.05,3.16,1.52,4.92Z"/><path class="cj" d="M450.82,488.9h-.99c.11-2.18-.43-4.51,1.77-7.07-.31,2.83-.54,4.95-.78,7.07Z"/><path class="ah" d="M223.93,438.08c-.66-1.43-1.62-2.87,.32-4.54,.97,1.12,.84,2.29,.65,3.48-.31,.36-.37,.96-.98,1.06Z"/><path class="ae" d="M238.48,434.72c2.11,1.4,1.44,2.95,1.44,4.96-1.73-1.63-1.94-2.99-1.44-4.96Z"/><path class="ch" d="M178.66,191.01c-1-.81-1.78-1.73-1.44-3.16,1.06-.76,.64-1.98,.93-2.98,1.47,1.94,.99,4.04,.51,6.13Z"/><path class="aa" d="M221.86,426.01c-.53-1.55-1.07-3.11-2.04-5.93,2.78,2.23,2.66,4.19,3.09,5.9-.34,.47-.69,.46-1.05,.03Z"/><path class="cg" d="M464.84,483.83c.13-1.58-.11-3.28,1.89-5.14-.39,2.87-.68,5-.97,7.12-1.9,.08-1.18-1.05-.92-1.98Z"/><path class="al" d="M106.22,396.82c1.14,1.7,.95,3.51,.74,5.49-1.39-.49-1.61-1.43-1.87-2.35,1.28-.72,.76-2.09,1.14-3.13Z"/><path class="cw" d="M309.12,380.33c0,1.59,.16,3.27-1.76,4.2,.02-1.75,.49-3.14,1.76-4.2Z"/><path class="g" d="M221.86,426.01l1.05-.03c0,1.87,1.57,3.55,.73,5.72-1.73-1.66-1.66-3.71-1.78-5.69Z"/><path class="f" d="M236.88,426.64c2.02,1.66,1.76,3.28,2.16,5.18-2.67-1.27-1.61-3.12-2.16-5.18Z"/><path class="y" d="M464.84,483.83c.31,.66,.61,1.32,.92,1.98,.2,1.17,.18,2.3-.64,3.27-.34-.35-.68-.69-1.02-1.04-.32-1.5-.21-2.93,.74-4.21Z"/><path class="c`" d="M179.37,145.24c-.27,.46-.32,1.46-1.38,1.34-.21-.02-.59-.81-.48-1.03,.32-.63,.38-1.67,1.47-1.51,.5,.08,.73,.49,.38,1.2Z"/><path class="r" d="M223.93,438.08l.98-1.06c.08,1.99,.16,3.98,.24,5.97-.32-.04-.64-.06-.97-.06-.08-1.62-.16-3.23-.25-4.85Z"/><path class="cw" d="M355.27,230.23c-1.36-.75-.31-1.61-.11-2.44,.66-.15,1.51-1.41,1.87-.46,.48,1.25-.97,2.03-1.76,2.9Z"/><path class="y" d="M643.78,238.1c-.33,.34-.66,.68-.98,1.02-.76-.95-1.35-1.94-.29-3.04,.2-.21,.59-.22,.9-.33,.13,.78,.26,1.56,.38,2.34Z"/><path class="ar" d="M628.21,227.49c-1.63-1.16-2.16-2.17-1.15-4.13,1.22,1.24,1.38,2.37,1.15,4.13Z"/><path class="u" d="M288.92,383.12l.87-1.08c.02,1.28,1.11,2.53,.18,3.93-1.45-.64-.85-1.89-1.05-2.85Z"/><path class="cw" d="M77.98,321.02c.31,0,.62,0,.93,0,.21,1.56,.82,3.13-.21,4.72-1.03-1.51-.68-3.14-.72-4.71Z"/><path class="ac" d="M81.23,303.03l-1.12-.03c-.09-1.2,.59-2.85,1.34-2.58,1.32,.48,.58,1.75-.22,2.6Z"/><path class="an" d="M408.7,274.17c1.71,3.15,1,4.77-2.77,4.12-1.17-.2-1.97-.25-3.12,.43-4.29,2.56-5.68,1.62-5.98-3.74-.3-1.9-2.16-1.81-3.33-2.57-1.27-.82-2.04-1.8-1.36-3.28,.72-1.58,2.11-1.45,3.41-.88,4.4,1.94,8.78,3.94,13.16,5.92Z"/><path class="co" d="M478.97,259.01c.19,2.08,0,4.31-2.41,4.66-2.53,.37-5.28,.34-7.75-.27-1.54-.38-.49-2.22-.1-3.42,2.27-2.87,4.54-5.74,6.8-8.61,1.15-1.46,2.57-2.44,4.19-.96,1.49,1.36,.36,2.81-.62,3.92-1.41,1.6-2.89,3.04-.11,4.67Z"/><path class="ag" d="M535.8,219.98c-.13,.86-.68,1.66-1.82,1.65-1.14-.02-1.81-.8-1.66-1.91,.15-1.09,1.03-1.64,2.1-1.58,.92,.06,1.43,.65,1.37,1.84Z"/><path class="ba" d="M385.15,253.24c1.18-.04,1.7,.55,1.8,1.4,.13,1.01-.11,1.98-1.33,2.13-.94,.12-1.47-.54-1.6-1.39-.16-1.04,.22-1.86,1.13-2.14Z"/><path class="at" d="M498.84,253c-.64,.03-1.28,.05-1.92,.08-1.08-.61-1.9-1.33-1.1-2.71,.45-.77,1.04-1.31,1.95-.81,1.42,.78,1.23,2.13,1.07,3.44Z"/><path class="bb" d="M515.57,209.98c-.39,1.11-1.26,1.58-2.28,1.37-.88-.17-1.29-.99-1.21-1.88,.09-.94,.7-1.46,1.66-1.36,1.11,.11,1.76,.73,1.83,1.87Z"/><path class="ak" d="M502.73,226.12c-.14,1.03-.79,1.71-1.93,1.6-.87-.08-1.51-.71-1.48-1.64,.03-1.15,.75-1.84,1.89-1.72,.85,.09,1.45,.68,1.52,1.76Z"/><path class="au" d="M512.87,239.59c.03,.95-.45,1.76-1.32,1.82-1.09,.08-1.92-.69-1.96-1.82-.04-.96,.72-1.43,1.64-1.47,1-.05,1.51,.52,1.64,1.47Z"/><path class="bf" d="M535.03,233.97c-.21,1.95-.92,3.14-3.13,2.11-.27-.89-.9-1.83,.18-2.59,1.11-.79,2.1-.5,2.96,.48Z"/><path class="bu" d="M184.21,435.76c1.99-2.68,4.15-1.54,6.17-1.11-1.88,.34-3.77,.68-6.17,1.11Z"/><path class="af" d="M288.06,230.01c.71-.31,1.41-.62,2.12-.93,1.61,.56,3.22,.62,4.82-.04,1.71,.58,1.81,1.68,.98,3.07-1.46,.72-.85,1.34,.1,1.94,.77,.45,.91,1.19,.91,1.99-2.99,.97-5.98,1.93-8.97,2.9-2.05-2.99-2.1-5.96,.05-8.92Z"/><path class="bv" d="M293.86,220.88c-1.99-.3-3.92,1.68-5.95,.17,.64-2.97,3.21-3.23,5.37-3.17,1.2,.03,.59,1.92,.58,3.01Z"/><path class="ci" d="M349.48,241.93c.41-3.89,1.21-7.44,4.31-9.95-1.44,3.32-2.87,6.63-4.31,9.95Z"/><path class="a`" d="M344.1,223.03c1.22-1.93,2.1-4.12,4.9-5.99-1.07,2.82-2.05,4.67-3.91,6.01-.34,.48-.67,.48-.99-.02Z"/><path class="h" d="M344.1,223.03c.33,0,.66,0,.99,.02-.37,1.98-1.25,3.72-2.74,5.57-.62-2.48,1.03-3.9,1.75-5.59Z"/><path class="cv" d="M296.07,234.05h-3.53c.88-1.61,2.12-1.84,3.43-1.94,.03,.65,.07,1.3,.1,1.94Z"/><path class="ck" d="M294.99,229.04c-1.6,1.33-3.2,1.57-4.82,.04,1.27-.26,2.52-.88,3.83-.16,.33,.06,.66,.1,.99,.12Z"/><path class="cm" d="M432,290.61c-2.7-.36-5.18-2.03-7.82-.19-1.13,.79-2.48-.75-2.27-2.34,.27-2.14,.79-4.46,2.59-5.73,2.19-1.55,2.83,.9,4.16,1.98,1.89,1.54,4.79,1.39,6.64,.27,3.86-2.34,8.22-2.35,12.26-3.64,4.84-1.54,10.18-2.96,9.82-9.89-.06-1.08,.88-1.85,1.95-1.92,1.61-.1,2.8,.93,3.87,1.97,.94,.91,1.26,2.25,.29,3.12-2.73,2.44-4.17,5.99-7.29,8.1-7.39,4.99-16.75,3.57-24.21,8.27Z"/><path class="bl" d="M392.21,295.47c-3.04-.59-6.34-1.48-5.93-5.26,.44-4.14,3.73-5.44,7.63-5.29,3.07,.12,5.06,1.43,5.09,4.73,.03,3.04-3.42,5.94-6.79,5.82Z"/><path class="bl" d="M487.16,264.91c2.59,.04,5.06,1.25,4.78,4.91-.32,4.15-3.55,5.53-7.05,5.54-3.06,0-5.81-1.95-5.6-5.12,.27-3.92,3.45-5.35,7.87-5.32Z"/><path class="aw" d="M550.86,229.78c-.01,1.31-.49,2.03-1.44,2-1.29-.04-1.55-1.08-1.43-2.14,.11-.9,.62-1.54,1.66-1.37,1.03,.18,1.18,.99,1.21,1.5Z"/><path class="bh" d="M518.36,250.63c.97,.12,1.39,.77,1.47,1.65,.09,.99-.45,1.61-1.4,1.61-1.05,0-2.05-.4-1.8-1.71,.16-.82,.84-1.38,1.73-1.56Z"/><path class="bc" d="M372.86,280.36c-.02,.98-.54,1.51-1.5,1.53-.91,.02-1.73-.44-1.74-1.33-.01-1.06,.77-1.89,1.85-1.89,.9,0,1.32,.8,1.39,1.69Z"/><path class="as" d="M559.69,394.02c-.35,.95-.82,1.66-1.76,1.58-1.38-.13-1.95-1.07-1.79-2.38,.13-1.03,.95-1.25,1.81-1.09,1.08,.2,1.62,.94,1.73,1.89Z"/><path class="bg" d="M581.95,372.02c-1.09-.13-2.48,.27-2.79-1.36-.14-.71,.22-1.3,.96-1.5,1.58-.43,2.59,.07,2.79,1.81-.32,.35-.64,.7-.96,1.06Z"/><path class="bn" d="M431.08,421.96c1.29-.97,2.57-.9,3.86,0-.06,1.33-.34,2.69-1.95,2.68-1.61,0-1.92-1.32-1.91-2.69Z"/><path class="bb" d="M568.07,400.52c.13-.91,.61-1.49,1.58-1.45,1.09,.05,1.83,.62,1.85,1.77,.01,.82-.69,1.06-1.32,1.13-1.07,.11-1.92-.23-2.1-1.46Z"/><path class="bq" d="M451.89,430.03c-.02,1.26-.58,1.81-1.5,1.77-.94-.03-1.41-.69-1.36-1.63,.05-.93,.6-1.6,1.49-1.56,.89,.04,1.33,.79,1.38,1.42Z"/><path class="ax" d="M461.04,422.89c-.05-1.26-.43-2.9,1.21-3.23,1.49-.3,1.57,1.21,1.74,2.31-.73,1.12-1.83,1.04-2.95,.92Z"/><path class="bo" d="M550.28,410.23c.01,.98-.59,1.47-1.44,1.6-.9,.14-1.62-.23-1.75-1.21-.13-.96,.41-1.54,1.34-1.62,.89-.07,1.55,.34,1.85,1.22Z"/><path class="b`" d="M582.24,386.03c1,0,1.56,.56,1.52,1.5-.03,.95-.68,1.44-1.64,1.38-.93-.06-1.64-.6-1.6-1.49,.04-.89,.79-1.36,1.71-1.39Z"/><path class="br" d="M174.31,321.11c-1.93-.29-2.5-1.97-3.49-3.28-1.73-2.29-4.18-2.73-6.71-1.76-2.42,.94-3.49,3.01-3.26,5.6,.26,2.89,2.14,4.41,4.77,5.03,1.11,.26,2.35-.02,3.45,.28,8.19,2.23,9.09,4.57,4.79,12.16-3.57-1.37-6.11,.63-8.3,2.88-2.81,2.88-5.37,2.76-8.76,.87-9.04-5.04-16.76-11.65-23.99-18.92-.57-.83-1.11-1.74-1.04-2.74,.6-8.59-2.01-16.69-3.69-24.93-.2-1.72,.46-3.36,.49-5.05,.74-2.37,.79-4.88,1.5-7.26,2.71,6.81,9.23,7.08,14.87,7.87,8.27,1.16,16.27-1.87,24.36-3.22,3.71-.62,7.15-.83,10.65,.48,1.41,4.66-.56,9.1-1.02,13.62-.38,3.79-.65,7.53-.03,11.3-1.65,2.28-2.4,5.14-4.59,7.07Z"/><path class="l" d="M178.91,314.03c-2.04-1.08-1.77-3.01-1.75-4.82,.08-6.82,1.25-13.49,2.8-20.1,.65-2.47,1.3-4.93,1.95-7.4-.62-2.6,1.34-2.12,2.64-2.05,2.1,.12,4.29,.3,5.49,2.52,1.32,1.71,3.99-.04,5.17,2.01-5.43,9.95-10.86,19.89-16.29,29.84Z"/><path class="ao" d="M129.02,296.03c2.94,9.09,5.48,18.23,3.81,27.95-3.92-1.66-7.84-3.33-11.76-5-.6-1.27-3.31,.65-3.02-1.99,.35-1.02,.69-2.04,1.04-3.05,4.95-.8,6.29-4.37,6.78-8.69,.28-2.43,.78-4.83,1.19-7.24,.89-.42,.02-2.58,1.95-1.97Z"/><path class="cq" d="M190.02,282.18c-2.7-.28-5.26-3-8.12-.47-1.63-3.48,.86-6.45,1.22-9.68,.5-.62,.78-1.65,1.93-1.03,2.99,2.19,5.27,4.98,7.26,8.09,2.09,3.26-.24,3.02-2.29,3.08Z"/><path class="ce" d="M185.05,271c-.64,.34-1.29,.69-1.93,1.03,.32-2.87,.63-5.74,1.05-9.51,1.68,3.4,.29,6.01,.88,8.49Z"/><path class="cx" d="M129.02,296.03c-.65,.66-1.3,1.31-1.95,1.97-.52-2.46,.65-4.66,1.06-6.98,.3-.47,.61-.5,.92-.01,0,1.67-.02,3.35-.02,5.02Z"/><path class="bx" d="M129.04,291.01h-.92c.1-2.48,.54-4.89,1.95-7.02-.13,2.37,.52,4.86-1.04,7.02Z"/><path class="cs" d="M108.04,411.97c.02,1.74,1.71,3.28,.61,5.3-1.7-1.5-1.6-3.4-1.49-5.31,.3-.45,.6-.43,.89,.01Z"/><path class="cl" d="M108.04,411.97h-.89c0-2.08,0-4.14,0-6.2l.89-.02v6.22Z"/><path class="bm" d="M460.96,397.92c8.17-2.78,14.75-7.82,20.97-13.72,6.91-6.55,16.2-7.33,25.07-8.1,10.51-.9,19.62-4.28,27.15-11.81,5.18-5.18,11.62-8.26,18.62-10.09,7.05-1.85,14.16-3.45,21.24-5.15-8.79,11.58-21.2,18.39-33.59,25.06-23.47,12.62-48.74,19.79-74.99,23.73-1.46,.22-2.98,.07-4.48,.1Z"/><path class="bk" d="M408.96,396.99c6.81-7.3,14.58-8.85,23.49-4.04,5.2,2.8,10.84,4.41,16.5,5.94-12.64,1.45-25.21-.05-37.79-1-.75-.06-1.47-.59-2.2-.89Z"/><path class="av" d="M444.02,412.11c1.12-.08,1.73,.42,1.79,1.34,.07,1.07-.52,1.94-1.58,2.12-1.12,.19-1.89-.51-1.92-1.63-.03-1.15,.82-1.66,1.71-1.83Z"/><path class="bd" d="M538.9,398.94c-1.67,0-3.54,.18-3.55-2.26,0-.45,.84-1.29,1.29-1.29,2.43,.02,2.27,1.87,2.26,3.55h0Z"/><path class="be" d="M565.91,383.94c-1.13-.77-2.89-1.22-2.1-3.14,.31-.75,1.35-1.06,2.11-.6,1.96,1.19,.39,2.49-.01,3.75h0Z"/><path class="bp" d="M587.69,350.09c.89,.09,1.62,.58,1.57,1.45-.05,.86-.81,1.32-1.7,1.33-.97,.01-1.51-.54-1.47-1.46,.04-.93,.68-1.36,1.61-1.32Z"/><path class="bk" d="M449.97,398.87c2.89-1.73,6.05-.62,9.08-.83-2.9,1.63-6.04,.75-9.08,.83Z"/><path class="m" d="M367.3,328.16c-1.11-.26-2.4,.08-3.25-1,2.63,.23,5.14-1.88,8.31-.51-1.57,1.95-3.44,1.35-5.06,1.51Z"/><path class="bl" d="M288.06,230.01c-.02,2.97-.03,5.95-.05,8.92-.21,3.56-1.01,7.34,4.25,8.2,1.37,.23,2.07,1.71,1.58,3.17-.51,1.53-1.67,2.32-3.39,2.32-5.64,0-8.33-2.61-8.52-8.45-.03-.99-.01-1.98-.02-2.97,.03-3.78,.06-7.56,.09-11.35-1.1-1.48-.21-2.71,.5-3.97,.42-2.01,2.52-.84,3.48-1.84,3.78,.91,1.24,4.02,2.08,5.96Z"/><path class="ab" d="M118.05,316.99c1.01,.66,2.01,1.33,3.02,1.99-1.27,0-2.55,.02-3.82-.02-.8-.02-1.92-.19-1.69-1.13,.27-1.09,1.57-.76,2.49-.84Z"/><path class="cd" d="M173.76,196.03c-.51-.31-1.13-.48-1.21-.79-.22-.84,.46-1.12,1.11-1.03,.35,.05,.84,.49,.89,.81,.05,.26-.47,.62-.8,1.01Z"/><path class="q" d="M282.93,226c-.31,1.29-.63,2.58-.94,3.86-.78,.59-1.57,1.17-3.42,2.57,1.47-2.88,2.39-4.66,3.3-6.44,.36-.56,.72-.56,1.07,.01Z"/><path class="t" d="M293.26,225.14c.16,.61-.31,.8-.81,.82-.57,.02-1.31,.32-1.57-.51-.04-.13,.39-.47,.66-.62,.61-.34,1.24-.56,1.72,.31Z"/><path class="cy" d="M282.93,226c-.35,0-.71,0-1.07-.01,.43-2.63,2.38-2.05,4.11-1.94-1.01,.65-2.03,1.3-3.04,1.95Z"/></g></g></g></g></svg>