<?xml version="1.0" encoding="UTF-8"?><svg xmlns="http://www.w3.org/2000/svg" viewBox="0 0 655.53 712.42"><defs><style>.e{fill:#f4ce93;}.f{fill:#f4cf93;}.g{fill:#f3ce94;}.h{fill:#696665;}.i{fill:#676463;}.j{fill:#676464;}.k{fill:#efc989;}.l{fill:#ebebeb;}.m{fill:#ebebea;}.n{fill:#f1cb8d;}.o{fill:#f1cb8c;}.p{fill:#f1cd93;}.q{fill:#eaeae7;}.r{fill:#e9e2e0;}.s{fill:#e7e0dd;}.t{fill:#e57e78;}.u{fill:#e57d78;}.v{fill:#e8e2df;}.w{fill:#f5d095;}.x{fill:#efc888;}.y{fill:#ece8e6;}.a`{fill:#ececec;}.aa{fill:#e47c78;}.ab{fill:#e3b765;}.ac{fill:#e3b764;}.ad{fill:#f0ca8b;}.ae{fill:#f0ca8a;}.af{fill:#e5dedc;}.ag{fill:#e5dfdc;}.ah{fill:#7d7b7a;}.ai{fill:#7f7c7b;}.aj{fill:#656261;}.ak{fill:#686565;}.al{fill:#806561;}.am{fill:#848180;}.an{fill:#866561;}.ao{fill:#c1bdbd;}.ap{fill:#8a8887;}.aq{fill:#b98538;}.ar{fill:#8c5831;}.as{fill:#8e3a43;}.at{fill:#b9b6b5;}.au{fill:#8d5831;}.av{fill:#905c32;}.aw{fill:#666363;}.ax{fill:#322f2e;}.ay{fill:#8e3d45;}.b`{fill:#302d2b;}.ba{fill:#302d2c;}.bb{fill:#ba8538;}.bc{fill:#ab6b35;}.bd{fill:#aaa9a9;}.be{fill:#a57338;}.bf{fill:#ccc9c9;}.bg{fill:#c4c1c0;}.bh{fill:#c4c0bf;}.bi{fill:#d5a04c;}.bj{fill:#c5c3c2;}.bk{fill:#413930;}.bl{fill:#3f382f;}.bm{fill:#807e7d;}.bn{fill:#716f6e;}.bo{fill:#464241;}.bp{fill:#6d6a69;}.bq{fill:#9b9999;}.br{fill:#646161;}.bs{fill:#5b5958;}.bt{fill:#312d2c;}.bu{fill:#3a352e;}.bv{fill:#5a5857;}.bw{fill:#83807f;}.bx{fill:#828080;}.by{fill:#82807f;}.c`{fill:#62605f;}.ca{fill:#757271;}.cb{fill:#767473;}.cc{fill:#775249;}.cd{fill:#615f5e;}.ce{fill:#795c57;}.cf{fill:#72706e;}.cg{fill:#72706f;}.ch{fill:#817e7d;}.ci{fill:#7c7978;}.cj{fill:#312e2d;}</style></defs><g id="a"/><g id="b"><g id="c"><g id="d"><g><path class="q" d="M328.53,.1C436.16,.1,543.79,.12,651.42,0c3.44,0,4.11,.68,4.11,4.12-.11,215.25-.11,430.51,0,645.76,0,3.44-.67,4.12-4.11,4.12-175.89,133.5-434.63-3.61-649.89-3.5-3.44,0,0,2.83,0-.62,.11-215.25,.11-430.51,0-645.76C1.53,.68,2.2,0,5.64,0,113.27,.12,220.9,.1,328.53,.1Z"/><path class="bj" d="M454.6,347.54c13.99-.02,27.98-.06,41.98-.06,25.51,0,51.03-.01,76.54,.01,26.6,.02,45.14,18.56,45.15,45.1,0,25.96-.42,51.94,.13,77.89,.5,23.74-15.98,44.46-39.99,46.06-2.24,.15-3.35,.98-3,3.47,1.51,10.71,2.89,21.45,4.39,32.16,.59,4.16-.48,7.32-4.75,8.69-4.04,1.29-7.04-.37-8.46-4.08-3.35-8.73-6.38-17.59-9.52-26.4-5.77-16.2-3.84-13.61-19.02-13.8-6.52-.08-13.05-.07-19.57,0-4.59,.05-7.39,2.76-6.99,7.14,.84,9.12,1.84,18.23,3,27.32,.56,4.4,.16,8.04-4.59,9.81-4.76,1.77-9.06,.34-11.25-4.55-4.24-9.44-7.9-19.15-12.15-28.59-1.59-3.55-2.02-7.89-5.8-10.24-3.28-.84-6.56-.6-9.86-.06-30.46,5-53.92-15.58-54.69-43.63-.75-27.29-.47-54.61-.05-81.91,.26-17.06,7.45-30.59,22.34-39.74,5.07-3.12,10.61-3.68,16.17-4.58Z"/><path class="ac" d="M82,281.86c5.65,.51,7.62-3.06,9.67-7.64,8.91-19.94,21.47-37.04,40.77-48.11,17.93-10.28,36.68-13.77,56.52-5.35,11.73,4.97,19.38,13.81,24.51,25.17,2.56,3.04,3.72,6.65,4.39,10.5,1.83,10.58,2.54,21.23,2.21,31.96-.27,9.04,.07,18.04,1.84,26.94,.28,3.88-1.34,7.4-2.22,11.05-.96,3.97-1.13,7.81,1.19,11.39,1.21,1.67,2.65,1.72,4.26,.58,2.24-1.29,2.27-5.22,5.85-4.91,1.75,1.87,2.18,4.29,2.76,6.65,.39,4.27,3.46,6.33,6.82,7.99,5.11,2.53,10.06,5.29,14.59,8.78,5,4.85,10.06,9.66,13.52,15.82,2.74,4.78,5.15,9.7,6.46,15.09,.92,3.27,2.21,6.46,1.99,9.96-.06,2.32-.53,4.31-3.3,4.86-1.61,.32-2.43,1.68-3.21,2.99-3,5.01-7.56,6.11-12.99,5.35-6.26-.87-12.46-2.11-18.89-.86-6.31,1.23-12.58,2.69-17.71,6.57-13.6,10.28-26.91,4.64-36.58-4.46-7.39-6.95-11.84-15.68-15.21-25.06-2.72-7.57-5.54-15.06-10.25-21.72-6.13-8.66-14.75-12.79-24.9-14.38-4.79-.75-9.6-1.42-14.32-2.54-6.5-1.55-11.28-4.98-12.59-12.02-.58-3.11-2.06-5.61-4.88-7.24-15.32-8.87-18.09-22.97-16.15-39.01,.25-2.09,1.46-4.15,.2-6.27-1.39-.84-3.41-.33-4.37-2.06Z"/><path class="r" d="M454.6,347.54c-8.25,2.17-16.13,5.1-22.6,10.99-9.87,8.97-14.4,20.37-14.5,33.43-.21,27.31-.41,54.63,.04,81.93,.41,24.45,20.63,43.05,42.89,42.74,6.74-.09,13.61-1.39,20.28,.83q-9.92,.09-13.69,9.25c-3.94,9.56-7.87,19.14-11.84,28.69-1.83,4.39-5.92,7.08-9.83,6.09-4.23-1.07-7.46-2.51-6.87-9.24,.78-8.95,1.57-17.91,1.97-26.89,.31-6.93-1.87-8.84-8.91-8.86-8.03-.02-16.07,.3-24.08-.1-5.81-.29-8.55,2.47-10.14,7.53-3.2,10.18-6.52,20.33-9.84,30.47-1.71,5.22-5.02,7.62-8.86,6.59-4.33-1.16-6.04-4.93-5.24-10.42,1.42-9.86,2.39-19.8,3.97-29.63,.65-4-.85-4.67-4.18-4.46-15.51,.98-35.13-12.7-39.14-30.16-3.51-4.35-4.15-9.87-5.3-14.95-3.78-16.68-5.21-33.62-3.53-50.72,.56-5.64,.57-11.32,1.3-16.97,1.06-8.18,3.78-15.91,5.55-23.89,.46-2.06,1.91-3.48,3-5.13,4.93-14.5,21.98-27.05,37.39-27.12,27.39-.12,54.77-.01,82.16,0Z"/><path class="bj" d="M391.38,281.17c-.43,.26-.85,.51-1.28,.77-2.15-4.57-.84-9.44-1.23-14.17,.03-20.06,0-40.11,0-60.16,0-.92,0-1.85,0-2.78,.05-3.25,.04-6.51,.01-9.77-.02-.58-.01-1.17,0-1.75,.05-3.49,.03-6.98,.01-10.47-.01-.88-.01-1.75,0-2.63,.03-3.82,.02-7.64,0-11.46-.01-.89-.01-1.79,0-2.68,.02-2.67-.06-5.34,.06-8.01,.08-1.77-.24-3.78,1.9-4.75,2.52,1.77,1.84,4.5,1.84,6.89,0,3.35,1.24,4.9,4.73,4.83,6.18-.12,12.37,.03,18.55-.07,1.97-.03,4.33,.15,5.19-2.14,.94-2.49-1.26-3.47-2.87-4.63-2.05-1.48-3.88-3.04-1.15-5.54,1.9-.88,3.92-.69,5.91-.69,19.31-.02,38.62-.03,57.92,0,2.3,0,4.71-.33,6.69,1.33,5.13,17.47,4.11,35.41,4.11,53.27,0,23.12-.1,46.25,.09,69.37,.03,4.19-1.17,5.41-5.34,5.35-15.56-.23-31.12-.08-46.67-.1-12.83-.01-25.65-.06-38.48-.1-1.47-1.41-1.26-3.35-1.59-5.11-.37-2-1.02-3.87-2.54-5.28-.96-.9-2.04-1.97-3.48-1.3-1.22,.57-.99,1.96-1.1,3.09-.3,2.91,.7,6.02-1.29,8.68Z"/><path class="bc" d="M82,281.86c1.97,.15,3.93,.29,5.9,.44,.04,5.32-1.64,10.41-2.68,15.51-2.34,11.5-1.5,23.03-1.75,34.56-.29,2.9,.56,5.94-.97,8.69-2.65-.74-2.76-.73-2.87-4.12-.18-6.03-.01-12.06-.09-18.09-.02-1.45,.57-3.4-1.02-4.12-1.53-.69-2.72,.94-3.83,1.86-7.76,6.44-9.88,15.5-10.2,24.79-.52,15.26-1.74,12.41,12.03,12.73,1.67,.04,3.34-.19,5.02-.15,1.48,2.13,4.91,.4,6.11,3.1,.67,2.29-.5,4.23-1.18,6.26-3.82,11.34-5.62,23.03-4.83,34.93,.75,11.33,3,22.45,6.55,33.28,1.15,3.53,1.7,6.92-2.32,9.14-1.74,.75-3.59,.59-5.42,.69-9.5,.52-16.13,7.16-16.24,16.25-.12,9.89,6.14,16.73,16.09,17.43,8.82,.62,17.67-.41,26.5,.16,2.31-.29,4.62-.59,6.86,.33,1.31,.76,1.66,2.12,1.38,3.36-.55,2.49,.88,3.94,2.34,5.47,.07,1.45-.98,2.47-1.42,3.73-.5,5.13-.64,10.28-1.3,15.4-.69,5.31-1.35,6.21-6.84,6.3-5.33,.09-10.66,.02-15.99,.03-8.13-.96-16.24-1.98-22.87-7.52-15.7-9.22-26.5-22.19-30.69-40.22-1.06-4.58-1.57-9.22-1.57-13.93,.02-39.84-.09-79.69,.05-119.53,.09-25.94,19.5-45.81,45.26-46.78Z"/><path class="a`" d="M335.05,374.65c-11.69,37.12-12.05,74.34-1.01,111.66-3.62-1.76-6.85,.5-10.08,1.28-11.15,2.69-22.18,5.88-33.28,8.76-1.32,.34-1.79,1.4-2.73,2.03-2.18-2.07-4.63-3.03-7.71-2.35-1.35,.3-3.06,.65-3.75-1.36,.2-.64-.27,.06,.07-.5,7.66-12.56,6.93-26.49,6.83-40.39-.16-22.57-.04-45.14-.05-67.71,0-18.17-6.61-25.69-24.7-28.17-1-.14-1.97-.34-2.82-.92-2.08-3.49,.27-6.81,.61-10.15,.56-5.58,.06-11.36,2.36-16.7,1.7-2.04,2.55-.18,3.6,.78,1.44,1.57,2.85,1.51,4.25-.06,.51-.66,.99-1.33,1.38-2.07,.61-1.22,.47-2.47,.13-3.73-1.27-5.55-3.11-10.89-5.9-15.87-3.18-5.66-7.73-8.05-14.09-7.17-3.45,.48-6.93,.7-10.37,1.38-6.22,1.22-11.32,3.72-13.9,9.99-.53,1.28-1.14,2.88-3.08,2.79-2.7-9.77-2.71-19.78-2.51-29.79,.27-13.72-.48-27.3-4.84-40.46,8.25,6.39,14.11,15.09,21.55,22.29,5.13,4.97,9.45,10.76,14.31,16.02,14.29,15.43,28.71,30.74,43,46.16,11.22,12.11,22.33,24.33,33.47,36.52,2.02,2.21,3.91,4.54,5.84,6.83,.94,1.11,1.95,1.85,3.42,.91Z"/><path class="bj" d="M288.82,177.44c.85-22.42,9.1-41.97,23.38-58.96,16.08-19.13,36.62-30.79,61.25-35.05,5.24-.91,10.52-1.83,15.9-1.44,1.08,1.19,1.32,2.66,1.31,4.18-.06,13.48,.34,26.96-.21,40.43-.13,.57-.37,1.1-.69,1.58-.23,.22-.49,.57-.78,.59-9.64,.63-16.45,5.78-21.78,13.44-.99,1.42-2.62,2.09-4.33,2.3-4.82,.57-7.79,3.65-10,7.55-1.62,2.87-3.51,5.21-6.76,6.32-1.79,.61-3.44,1.72-2.9,4.04,.53,2.24,2.46,2.56,4.35,2.61,6.68,.16,13.37,.01,20.05,.09,2.15,.02,4.37-.31,6.36,.88,1.31,1.8-.25,3.1-.83,4.54-2.05,5.06-4.77,9.83-6.33,14.83,.28,.63,.54,.84,.9,.87,6.88,.63,7.3,1.36,4.36,7.51-.43,.9-.85,1.81-1.34,2.68-1.2,2.12-1.37,3.62,1.65,4.27,2.4,.52,3.39,2.03,1.54,4.33-.58,.14-1.14,.16-1.72,.08-25.03-.08-50.04,0-75.05-.03-1.83,0-3.67,.06-5.5-.16-2.08-.25-3.39-1.14-3.31-3.52,.29-7.98-.54-15.99,.46-23.96Z"/><path class="bj" d="M390.35,81.92c40.83,1.81,71.32,20.33,90.81,56.49,2.44,4.52,4.36,9.33,6.52,14-1.75,.82-3.61,.41-5.42,.42-21.83,.1-43.66-.13-65.49,.13-8.18,1.44-16.38,1.04-24.57,.25-.52-.22-.92-.6-1.19-1.09,1.06-2.33,3.24-2.06,5.18-2.09,5-.08,10-.15,15.56,.08-1.78-2.05-1.61-4.51-2.42-6.69-1.25-3.4-3.35-6.19-7.29-5.53-4.19,.7-7.07-.4-9.05-4.36-.39,4.51-.18,8.82-.4,13.11-.09,1.78,.53,4.19-2.4,4.59-2.33-7.69-1.61-15.43-.45-23.18,.16-13.75,0-27.49,.09-41.23,.01-1.63-.48-3.36,.52-4.9Z"/><path class="r" d="M389.16,281.13c-31.8,0-63.6-.12-95.4,.1-4.96,.03-6.08-1.51-6.02-6.23,.28-20.11,.15-40.23,.18-60.34,12.2-4.04,25.88,6.24,26.21,20.01,.09,3.57-.04,5.59,4.67,5.43,4.04-.14,6.19,3.43,7.51,7.12,1.18,3.3,5.56,6.03,8.64,5.57,1.59-.24,1.61-1.53,1.83-2.62,.61-3.01,1.85-5.77,3.57-8.25,3.48-5.04,8.21-8.02,14.49-7.17,6.13,.83,9.76,5.04,11.58,10.58,1.51,4.59,2.23,9.44,1.36,14.43,2.01,.39,4.02,.57,5.49,2.16,.99,1.08,2.21,1.14,3.67,.88,7.81-1.39,9.81-.21,12.85,7.29-.33,3.68,.7,7.42-.62,11.03Z"/><path class="bj" d="M389.14,269.08c-1.13-.17-1.63-.87-1.98-1.95-.75-2.32-3-4.15-4.82-3.79-4.96,.98-9.07,.61-13.76-1.92-2.33-1.25-2.05-1.61-1.95-3.46,.28-5.16,.1-10.45-2.55-14.98-2.28-3.9-5.37-7.25-10.66-7.2-5.59,.05-9.42,2.83-12.39,7.23-2.48,3.68-3,8.06-4.21,12.58-2.82-1.76-5.38-3.47-8.59-2.26-2.12,.8-1.94-.77-2.28-2.11-.56-2.25-1.01-4.68-2.2-6.6-2.68-4.3-6.6-4.67-11.33-2.09,.74-5.46,1.03-10.47-1.21-15.31-3.87-8.4-11.64-13.02-20.9-12.21-.78,.07-1.59-.22-2.38-.34,.06-2.75,.12-5.51,.18-8.26,1.88-1.5,4.13-1.12,6.26-1.13,23.68-.03,47.37-.04,71.05,0,2.44,0,5.07-.53,7.07,1.56,1.19,2.58-.03,4.78-1.14,6.95-.06,.23-.34,.47-.35,.68-.03,.67,.73,.48,.13,.17s.57-.88,.18-.39c2.65-3.4,4.84-7.22,9.18-8.79,3.14,.16,6.56-1.31,9.22,1.6,.16,20.09,.04,40.17,.07,60.25,.05,.68-.16,1.27-.63,1.77Z"/><path class="r" d="M170.34,517.49c-6.97-2.33-9.57-1.13-12.38,5.6-4.43,10.6-8.87,21.2-13.34,31.78-2.79,6.61-8.66,8.71-13.94,5.1-1.94-1.33-3.24-3.32-3.1-5.42,.6-8.93,1.28-17.87,2.45-26.74,.92-6.98-2.02-11.2-8.72-11.28-2.12-2.36-1.82-4.83-.36-7.36,7.63-2.26,15.39-.88,23.11-.85,1.45,.42,2.91,.71,4.43,.71,17.06-.06,34.12,.19,51.17-.15,.64-.07,1.25,.04,1.83,.31,1.16,1.51,.76,2.89-.35,4.21-3.22,3.36-7.25,4.59-11.8,4.54-6.33-.07-12.67,.25-18.99-.46Z"/><path class="r" d="M68.94,502.32c7.19,2.91,14.45,5.61,22.26,6.33,5.78,.69,11.59,.18,17.38,.29,6.06,.11,7.2,2.01,4.38,7.58-5.68-.01-11.36,.05-17.04-.07-4.66-.1-7.52,2.03-8.92,6.44-3.24,10.17-6.58,20.3-9.82,30.47-.56,1.77-1.11,3.5-2.34,4.93-2.01,2.35-4.44,3.55-7.52,2.4-2.92-1.09-4.57-3.1-4.48-6.45,.3-10.33,2.56-20.42,3.56-30.67,.69-7.1,1.67-14.17,2.53-21.26Z"/><path class="bj" d="M262.56,506.1c2.21,5.67,1.96,11.76,2.9,17.64,1.49,9.35,2.29,18.8,3.34,28.22,.5,4.44-.49,8.25-5.58,9.01-4.93,.74-7.08-2.66-8.51-6.73-3.65-10.38-7.47-20.69-10.95-31.13-1.83-5.47-5.53-7.56-10.94-7.57-5.16-.02-10.33-.14-15.49-.22,2.09-3.42,5.46-5.47,8.47-7.93,5.47-.95,10.99-.32,16.48-.47,5.65-.15,11.35,.45,16.9-1.23,1.13-.34,2.32-.27,3.38,.4Z"/><path class="bc" d="M262.56,506.1c-12.37,4.48-25.22,2.02-37.86,2.58-3.87-2.01-7.85-3.14-12.33-2.91-6.12,.31-6.55-.42-5.76-7.02,1.16-3.41,3.7-3.14,6.53-2.62,7.1,1.3,14.24,1.87,21.2-.71,10.75-3.98,17.13-12.33,21.76-22.3,1.19-2.57,2.1-5.27,3.06-7.94,.5-1.4,.52-3.59,3.08-3.01,3.59,4.08,4.25,9.37,5.67,14.29,2.28,7.94,2.14,16.24,3.08,24.38,.18,1.6,.28,3.43-1.66,4.33-.83-.43,.31-3.31-2.17-1.72-1.49,.95-3.06,1.78-4.59,2.66Z"/><path class="bj" d="M170.34,517.49c5.56-2.27,11.36-.85,17.02-.92,4.96-.06,9.46-.7,13.3-4.04,1.28,1.88,1.4,4.31,2.87,6.1-2.92,1.94-3.1,4.56-2.67,7.86,1.14,8.73,1.79,17.52,2.7,26.28,.51,4.87-1.76,7.61-6.36,8.56-4.41,.91-7.8-1.2-9.7-5.79-4.58-11.08-9.18-22.17-13.83-33.22-.76-1.81-1.34-3.83-3.33-4.83Z"/><path class="b`" d="M203.53,518.63c-4.77-.23-2.63-3.72-2.87-6.1,.73-1.04,.96-2.16,.57-3.39-.23-.51-.33-1.05-.3-1.62,.27-4.38,.11-8.77,.11-13.15,.47-5.51-.6-10.83-1.96-16.12-1.8-6.82-4.26-13.33-8.12-19.32-1.99-3.09-4.09-5.53-7.82-6.47-2.2-.55-4.91-1.43-4.29-4.55,.6-3.02,3.23-2.97,5.64-2.7,2.59,.29,4.9-.98,7.38-1.17,4.21-.32,5.89,1.7,4.22,5.62-.97,2.26,.23,3.53,1.14,5,4.66,7.45,7.87,15.48,9.76,24.05,1.76,6.51,3.12,13.03,.66,19.67-1.28,5.14,.5,6.84,5.85,6.13,4.15-.55,8.8-.78,11.2,4.16-.76,4.11-4.48,4.92-7.38,6.64-4.6,1.1-9.2,2.21-13.8,3.31Z"/><path class="b`" d="M269.33,505.16c.17-14.79-1.65-29.22-7.68-42.9-2.84-1.88-2.83-5.54-4.94-7.87-1.22-1.8-2.09-3.8-3.22-5.66-2.59-4.28-4.76-9.02-11.32-7.64-1.81,.38-3.76-.68-3.98-2.93-.19-1.9,1.14-3.28,2.79-3.72,3.27-.88,6.13-2.52,9.08-4.07,1.66-.87,3.59-.8,5.39-.27,2.99,.89,4.11,3.68,1.82,5.63-2.29,1.95-1.52,3.18-.3,4.95,1.8,2.61,3.6,5.23,5.12,8.02,6.18,11.59,10.52,23.78,12.2,36.88,.42,3.25,.32,6.74,2.58,9.53,1.97-.22,3.98-.28,5.91-.68,3.35-.69,5.16,.39,5.16,3.95-2.66,5.28-11.3,9.85-16.78,8.84-1.1-.2-1.62-1.02-1.83-2.07Z"/><path class="cf" d="M372.3,208.73c-.36-3.7-3.24-2.16-5.02-2.17-26.39-.13-52.79-.13-79.18-.16-.05-.53-.1-1.06-.15-1.6,.42-.24,.76-.6,1.33-.6,27.97,.06,55.95-.27,83.92,.18,.27,.04,.54,.06,.81,.08,.95,2.03,.71,3.59-1.71,4.27Z"/><path class="ax" d="M552.08,259.13c-.06,4.25-3.4,7.28-7.88,7.13-3.7-.12-6.8-3.31-6.89-7.06-.1-4.17,3.39-7.58,7.64-7.48,4.08,.1,7.18,3.32,7.13,7.41Z"/><path class="g" d="M112.97,516.52c.3-7.12,.3-6.98-6.54-7.16-5.07-.14-10.21,.85-15.22-.71,6.17-.04,12.34-.19,18.5-.09,2.58,.04,3.31-.87,3.55-3.44,.58-6.27,.07-12.68,1.98-18.81,2.91-.9,2.94,1.45,3.14,3.08,.48,3.83,.24,7.67-.29,11.51-.74,5.32-.7,10.68-.15,16.02,.19,1.82,.8,3.54,2.66,5.67-2.93-5.55-2.56-10.32,.51-13.1,.07,2.35,.13,4.7,.2,7.05-.02,.16-.02,.33-.06,.49-.71,3.01,1.53,8.37-2.47,8.48-3.56,.09-5.37-4.91-5.81-8.98Z"/><path class="s" d="M391.38,281.17c-.02-3.65,0-7.29-.07-10.94-.07-3.22,1.49-3.69,4.1-2.63,3.8,1.56,5.39,4.71,5.89,8.52,.21,1.63,.07,3.31,.08,4.97-3.33,.03-6.66,.05-9.99,.08Z"/><path class="bf" d="M373.2,204.39c-16.04,.09-32.09,.2-48.13,.28-12.37,.06-24.74,.1-37.12,.15-.02-7.7-.06-15.41-.05-23.11,0-1.47-.36-3.05,.91-4.26,.01,7.19,.16,14.39-.02,21.58-.08,3.33,.73,4.74,4.42,4.71,26.21-.25,52.43-.3,78.65-.44,.84,0,1.18,.37,1.33,1.09Z"/><path class="c`" d="M416.43,152.47c23.75-.53,47.5-.41,71.25-.06,.18,.3,.18,.59-.01,.88l-71.3,.15-.31-.51,.38-.46Z"/><path class="j" d="M390.35,81.92c0,15.44,0,30.88,0,46.32-.29,.41-.58,.39-.87,0l-.13-46.26,1-.08Z"/><path class="ca" d="M389.14,269.08c.1-.36,.21-.72,.31-1.08,.26-.44,.52-.41,.77,.01-.04,4.64-.08,9.28-.12,13.92-.31-.27-.63-.53-.94-.8l-.02-12.05Z"/><path class="bq" d="M162.14,202.52c.12,1.67,.7,3.44-1.23,5.4-.97-3.61-.79-6.52,.26-9.42,1.3,1.1,.1,2.81,.96,4.02Z"/><path class="h" d="M137.58,200.06c2.33,1.61,1.13,4.08,1.9,6.07-1.91-1.71-1.29-4.04-1.9-6.07Z"/><path class="bm" d="M531.86,286.11c.23,1.99-.88,3.33-2.27,5.46-.56-2.82,.78-4.11,1.67-5.54l.6,.09Z"/><path class="ah" d="M512.21,328.39c.52,1.99-.55,3.38-1.97,5.29-.44-2.66,.6-4.05,2.07-5.27h-.09Z"/><path class="am" d="M445.98,309.7c1.7,1.66,2.41,2.62,1.62,4.18-1.41-.9-1.7-2.08-1.62-4.18Z"/><path class="ap" d="M457.04,334.12c-2.02-.77-1.75-2.25-2.51-3.84,2.53,.7,2.53,2.05,2.51,3.84Z"/><path class="ai" d="M512.21,328.39h.09c-.15-1.61,.03-3.07,1.92-4.05,.2,2.02-.59,3.19-2.02,4.05Z"/><path class="cd" d="M519.86,311.29c.33,1.5-.01,3.09-.97,2.99-1.61-.16,.22-1.19,.04-1.9-.06-.22,.48-.59,.92-1.09Z"/><path class="bx" d="M524.53,301.79c-.05,2.14-.63,3.14-1.91,4.36-.55-1.98,.09-2.98,1.91-4.36Z"/><path class="bw" d="M444.37,306.1c-1.64-.85-2.19-2.01-2.05-4.14,1.57,1.21,2.35,2.26,2.05,4.14Z"/><path class="aw" d="M269.48,297.05c-2.09,0-2.52-1.28-3.45-2.61,1.97,.15,2.54,1.28,3.45,2.61Z"/><path class="ch" d="M525.98,297.77c.46-2.11,.56-3.36,2.16-4.16,.55,1.72-.14,2.7-2.16,4.16Z"/><path class="bv" d="M438.15,292.31c.54,1.11,1.7,1.98,1.57,3.86-1.66-1.16-1.79-2.59-2.01-3.97l.44,.11Z"/><path class="bp" d="M162.14,202.52c-1.24-1.12-.35-2.75-.96-4.02,.08-.47,0-1.12,.29-1.37,.31-.28,.87-.05,.85,.57-.05,1.6-.12,3.21-.18,4.81Z"/><path class="bv" d="M450.64,318.92c.22,.56,.25,1.11-.4,1.04-.28-.03-.6-.66-.71-1.07-.1-.38,0-1.18,.11-1.2,1.02-.16,.72,.83,.99,1.23Z"/><path class="bx" d="M442.43,300.85c-2.32-1.09-2.45-2.15-2.58-3.45,1.88,.09,1.74,1.45,2.58,3.45Z"/><path class="by" d="M438.15,292.31l-.25,.08-.18-.19c-1.47-.55-1.53-1.65-1.55-3.3,1.71,.99,2.14,2.05,1.99,3.41Z"/><path class="bv" d="M531.86,286.11l-.28-.17-.32,.08c.55-.87,.33-2.25,1.84-2.66,.11,1.23-.05,2.21-1.24,2.75Z"/><path class="af" d="M465.27,467.12c-2.34,0-4.69,.07-7.03-.03-1.24-.05-2.38-.64-2.22-2.14,.13-1.15,1.14-1.67,2.19-1.68,5.02-.04,10.04-.05,15.06,.03,1.01,.02,1.97,.63,1.98,1.85,.01,1.23-.94,1.84-1.95,1.88-2.67,.12-5.35,.04-8.03,.04v.03Z"/><path class="ag" d="M465.02,459.06c-2.34,0-4.69,.08-7.02-.04-1.03-.05-1.97-.65-1.99-1.86-.02-1.23,.94-1.87,1.95-1.89,5.02-.1,10.04-.1,15.06-.04,1.23,.02,2.38,.64,2.22,2.13-.12,1.15-1.13,1.65-2.18,1.67-2.68,.07-5.35,.02-8.03,.02v-.02Z"/><path class="v" d="M465.25,474.25c-2.34,0-4.68,.02-7.02-.01-.98-.02-2.21,0-2.11-1.42,.06-.87,.94-1.47,1.8-1.48,5.35-.06,10.7-.06,16.04-.02,.92,0,1.59,.62,1.45,1.63-.16,1.22-1.19,1.68-2.18,1.65-2.66-.06-5.31-.32-7.97-.5v.14Z"/><path class="bi" d="M82.02,332.39c-.86-17.03,.11-33.84,5.87-50.09,1.78,.98,.64,2.24,.4,3.47-2.01,10.33-2.48,20.52,2.56,30.28,2.45,4.75,6.04,8.31,10.57,11.05,2.54,1.53,5.99,2.64,6.3,5.97,1.13,12.01,9.77,14.08,19.31,15.48,8.2,1.21,16.5,2.15,23.72,6.94,10.09,6.69,14.76,17.01,18.52,27.8,2.82,8.12,6.51,15.67,11.21,22.84,9.42,14.37,26.22,18.02,40.44,8.97,10.9-6.94,22.96-8.26,35.48-5.82,7.67,1.49,9.49,.79,13.81-6.07,.73-1.16,1.68-2.52,3.08-2.22,3.38,.72,2.28-1.79,2.63-3.29,2.02,.3,2.15,1.99,2.2,3.41,.32,9.72-.12,19.34-4.39,28.36-5.31-.03-10.69,2.22-15.92,.32-7.94-2.89-15.12-1.02-22.09,2.77-5.43,2.96-10.37,6.72-15.72,9.82-2.76,1.6-5.62,3-8.71,3.75-5.19,1.26-10.1,.8-13.67-3.69-4.18-5.27-9.42-6.92-15.95-5.93-5.79,.88-10.28-1.42-12.39-7.04-2.03-5.41-5.4-9.89-8.9-14.34-1.07-9.17-.87-18.41-.36-27.55,.88-15.89-8.93-30.14-29.51-30.52-7.51-.14-15.03,0-22.55-.06-2.32-.02-4.71,.25-6.8-1.14-2.64-4.12-6.19-7.71-7.36-12.74-.43-1.84-2.14-2.87-3.78-3.75-2.98-1.95-6.45-3.34-7.97-6.97Z"/><path class="bc" d="M272.7,429.86c2.94-8.89,4.44-18.01,4.09-27.39-.06-1.62,.38-3.37-.88-4.78,.32-3.5-1.41-6.61-1.9-9.96,2.68-3.86,1.74-7.37-1.09-10.65-1.51-1.74-3.6-2.81-5.23-4.42-3.83-5.44-8.51-10.14-13-15-.34-1.08,.12-1.36,1.11-1.1,3.17,.12,6.34-.05,9.49,.64,11.34,2.49,19.36,11.47,19.44,23.08,.21,31.33,.16,62.66-.01,93.99-.04,7.75-3.43,14.56-7.83,20.83-3.29,.9-2.93-1.4-3.12-3.43-1.38-15.08-5.7-29.28-12.84-42.62,4.92-5.79,7.41-13.07,11.78-19.2Z"/><path class="aa" d="M268.83,329.57l-1.11,1.82c-1.7,1.24-3.46,2.15-5.6,1.07-.75-.95-1.5-1.89-2.25-2.84-1.44-1.21-.63-2.8-.7-4.23-.28-5.93-3.64-9.88-8.29-12.95-1.41-.93-3.38-1.95-3.07,1.33,.28,2.87-3.06,2.15-3.77,3.85,.42,2.23,4.79,1.89,3.2,4.83-1,1.86-4.15,.69-5.67,2.47,1.51,2.61,6.31-.43,6.4,4.09-3.22,2.63-7.08,2.43-10.89,2.46-1.85-.54-3.5-.26-4.86,1.21-.51,.46-1.08,.8-1.78,.86-1.45,1.97-2.89,3.93-4.34,5.9-2.01,1.03-4.01,.22-6.01,0-3.65-4.95-2.72-10.24-1.21-15.6,.71-2.53,1.28-5.1,1.91-7.66,5.31-15.17,18.45-15.03,30.98-15.53,5.2-.21,9.01,2.86,11.52,7.58,2.84,5.37,4.67,11.07,6.28,16.87-.4,1.47-.45,2.99-.76,4.47Z"/><path class="w" d="M171.85,226.81c20.19,.74,31.79,11.4,35.67,31.47,.41,2.12,.76,4.25,.96,6.4,.31,3.34-1.41,5.65-4.54,6.18-3.14,.54-4.31-1.99-4.85-4.6-.47-2.27-.54-4.62-1.05-6.88-3.99-17.91-14.3-24.92-33.4-22.27-4.03,.56-6.65-.53-6.86-4.2-.19-3.32,2.37-5.16,6.03-5.19,2.8-.02,5.59-.61,8.03-.91Z"/><path class="bt" d="M247.96,328.41c-1.53-1.51-3.45-.91-5.24-.92-1.54-.01-3.34,.16-3.6-1.77-.3-2.19,1.66-2.68,3.3-2.99,1.61-.3,3.27-.32,5.02-.47-.78-3.2-6.56-.85-5.53-5.24,.61-2.61,3.5-1.17,5.27-2-.55-1.54-2.88-2.84-.82-4.73,1.62-1.48,3.19-.24,4.61,.46,7.04,3.45,10.41,10.68,8.91,18.87-2.09,5.76-1.1,11.88-2.06,17.76-.5,3.09-1.34,6.13-2.03,9.2-.37,.37-.74,.73-1.1,1.1-5.42-3.58-10.91-7.03-16.83-9.78-3.03-1.4-5.14-3.72-5.1-7.38,5.83-.04,9.6,4.13,13.92,7.04,4.33,2.91,5.02,2.81,5.6-2.28,.38-3.33,.03-6.68,.17-10.02,.15-3.45-2.71-4.75-4.49-6.83Z"/><path class="m" d="M247.96,328.41c3.91,.14,5.69,2.32,5.73,6.09,.04,4.67,.13,9.32-.62,13.98-.61,3.78-1.59,4.6-4.78,1.91-4.71-3.97-9.73-7.57-15.53-9.89-.76-2.32-1.53-4.64-2.29-6.96,.32-.41,.64-.81,.95-1.22,1.15-1.39,2.81-1.55,4.42-1.83,4.12-.22,8.21-.68,12.13-2.09Z"/><path class="w" d="M212.34,352.47c3.62-.47,6.2,1.11,6.72,4.52,.57,3.72-2.44,4.81-5.42,5.01-7.99,.52-14.73,3.56-20.49,9.13-2.08,2.01-4.84,1.93-6.68-.29-2.09-2.51-1.63-5.31,.78-7.58,7.05-6.67,15.51-10.09,25.09-10.79Z"/><path class="t" d="M199.48,322.03c-3.4-.53-6.58-1.91-6.55-5.61,.03-3.72,3.06-5.21,6.61-5.17,3.54,.03,6.56,1.52,6.5,5.28-.06,3.68-3.26,5.02-6.55,5.5Z"/><path class="u" d="M132.26,311.18c3.64,.23,6.71,1.72,6.53,5.47-.17,3.61-3.38,5.43-6.78,5.24-3-.17-5.95-1.34-5.96-5.35-.01-4.32,2.9-5.1,6.22-5.37Z"/><path class="f" d="M200.45,283.05c-.32-2.92,1.62-4.57,4.34-4.69,2.69-.11,4.67,1.31,4.79,4.55,.12,3.19-1.64,4.87-4.37,4.98-2.68,.11-4.8-1.32-4.76-4.84Z"/><path class="f" d="M230.68,356.52c2.91-.32,4.55,1.63,4.68,4.32,.15,3.19-2.12,4.64-5.17,4.76-2.98,.12-4.32-1.98-4.36-4.39-.05-2.67,1.37-4.77,4.85-4.7Z"/><path class="av" d="M267.68,372.67c6.56,2.07,10.02,6.65,9.03,12.25-.23,1.31,.09,3.74-2.71,2.82-1.32-5.35-4.33-9.99-6.32-15.07Z"/><path class="bk" d="M169.49,319.55c-2.61-.78-6.71,1.29-6.77-2.54-.06-3.68,3.96-2.53,6.35-2.49,2.51,.04,6.77-1.38,6.66,2.67-.1,3.78-4.34,1.29-6.25,2.36Z"/><path class="bu" d="M191.29,301.46c2.13,.21,3.6,1.32,3.63,3.4,.02,2-1.16,3.45-3.37,3.53-2.24,.08-3.43-1.27-3.53-3.32-.11-2.14,1.26-3.28,3.28-3.61Z"/><path class="bl" d="M145.91,305.16c-.37,1.96-1.47,3.26-3.64,3.24-2.24-.02-3.3-1.36-3.29-3.5,0-2.23,1.42-3.44,3.47-3.37,2.04,.07,3.26,1.43,3.47,3.63Z"/><path class="k" d="M211.31,399.07c.08,.74-.18,1.3-.93,1.48-1.02,.24-1.6-.31-1.66-1.25-.04-.69,.42-1.26,1.19-1.29,.7-.02,1.27,.26,1.4,1.05Z"/><path class="o" d="M259.45,375.19c-.31,.21-.84,.86-1.3,.82-.92-.08-1.37-.86-1.11-1.8,.19-.67,.71-1.15,1.47-.89,.66,.23,1.05,.76,.93,1.86Z"/><path class="k" d="M165.13,349.38c-.35,.67-.86,1.02-1.57,.56-.57-.36-1.12-.86-.79-1.62,.3-.7,.96-.9,1.64-.58,.66,.31,.95,.88,.73,1.63Z"/><path class="x" d="M263.41,386.17c-.06,1.06-.56,1.45-1.29,1.43-.74-.02-1.22-.53-1.25-1.26-.02-.73,.41-1.38,1.17-1.2,.55,.13,.99,.73,1.37,1.03Z"/><path class="k" d="M230.95,399.2c.35-.28,.79-.88,1.34-1,.73-.16,1.19,.46,1.17,1.2-.02,.73-.52,1.22-1.25,1.25-.72,.03-1.22-.37-1.26-1.44Z"/><path class="ae" d="M161.99,357.66c-.08,.74-.5,1.33-1.19,1.32-.7,0-1.21-.62-1.13-1.33,.04-.35,.54-.83,.91-.92,.67-.16,1.3,.08,1.41,.93Z"/><path class="ad" d="M171.99,354.62c-.09,.72-.52,1.39-1.17,1.28-.46-.08-.88-.8-1.13-1.33-.06-.13,.53-.79,.89-.87,.66-.15,1.31,.06,1.41,.92Z"/><path class="n" d="M136.49,263.7c.21-.7,.66-1.18,1.4-1.02,.71,.16,1.16,.74,.87,1.47-.14,.35-.7,.71-1.1,.74-.73,.06-1.19-.39-1.17-1.19Z"/><path class="n" d="M174.01,346.44c0,.74-.32,1.34-1.05,1.41-.73,.08-1.26-.48-1.27-1.17,0-.34,.45-.87,.81-1.01,.66-.25,1.29-.05,1.51,.77Z"/><path class="n" d="M206.18,405.77c-.12,.85-.77,1.06-1.43,.9-.37-.09-.86-.58-.89-.93-.07-.71,.45-1.31,1.15-1.3,.69,.01,1.12,.58,1.17,1.33Z"/><path class="f" d="M215.49,408.59c-.45,1.24-.84,1.81-1.58,1.64-.35-.08-.84-.68-.81-1,.08-.68,.64-1.14,1.38-1.05,.44,.05,.85,.34,1.01,.41Z"/><path class="cc" d="M220.11,339.43h6.01c-2.01,1.63-4.01,1.72-6.01,0Z"/><path class="n" d="M153.08,274.95c-.48,.42-.78,.88-1.13,.92-.39,.05-1.09-.19-1.2-.47-.28-.76,.27-1.21,.98-1.19,.38,.01,.75,.4,1.35,.74Z"/><path class="ad" d="M156.33,265.28c-.33,.5-.5,1.12-.82,1.2-.82,.21-1.15-.45-1.07-1.12,.04-.34,.51-.85,.83-.88,.29-.03,.65,.47,1.06,.8Z"/><path class="e" d="M220.81,403.86c-.28,.19-.62,.56-1.01,.64-.55,.12-.96-.32-.79-.83,.11-.33,.61-.65,1-.74,.49-.12,.91,.13,.8,.93Z"/><path class="e" d="M187.99,389.32c.14,.77-.2,1.14-.72,1.07-.39-.05-.89-.37-1.08-.71-.34-.63,.24-.87,.71-.83,.4,.03,.78,.33,1.09,.47Z"/><path class="ba" d="M372.3,208.73c1.39-1.09,1.08-2.87,1.71-4.27,.29-1.28,1.02-2.77-1.29-2.83-1.66-.04-3.32,0-5.44,0,.99-5.18,4.6-8.95,6.08-14.04h-9.05c3.63-7.33,5.28-14.89,10.2-20.95,4.5-3.02,9.37-1.52,14.15-1.17,.55,.28,1.04,.64,1.47,1.09l.09,1.85c-.65,.62-.93,1.41-1.05,2.29-.87,2.97-2.65,5.53-3.81,8.41,1.22,.61,2.59,.02,3.76,.6,.41,.22,.78,.5,1.1,.84v1.95c-.65,.59-.94,1.37-1.08,2.23-.46,1.45-1.29,2.72-2.13,3.95-1.94,2.83-.58,3.8,2.15,4.11,.4,.22,.76,.5,1.09,.82,.11,.32,.1,.64-.04,.95-.63,.61-.95,1.42-1.38,2.16-2.23,2.79-4.74,5.36-6.67,8.4-.74,1.02-2.06,.85-2.99,1.46-2.65,3.06-5.3,6.11-7.95,9.17-.98,.23-1.46-.04-1.12-1.13,.73-1.96,1.45-3.93,2.18-5.89Z"/><path class="a`" d="M416.36,153.45c-.18,2.59,1.52,3.37,3.6,3.96,2.64,.75,3.82,2.65,3.38,5.32-.46,2.77-2.42,3.76-5.07,3.75-7.83-.02-15.66-.07-23.48,.04-2.56,.03-3.64-.86-3.52-3.48,.16-3.16,.08-6.34,.11-9.5,.25-.19,.49-.38,.74-.58,8.12,.05,16.24-.46,24.35,.26l-.11,.24Z"/><path class="cj" d="M425.44,266.03c-.99,.05-1.99,.1-2.98,.16-4.13,.23-6.67-1.85-7.64-5.7-.89-3.54,.74-6.34,3.76-7.93,3.27-1.73,6.58-1.16,8.97,1.82,2.51,3.13,2.45,6.42-.22,9.53-.32,.38-.72,.69-1.09,1.03-.11,.47-.37,.84-.79,1.08Z"/><path class="i" d="M390.22,268.02c-.26,0-.51,0-.77-.01,.03-20.45,.06-40.91,.1-61.36l.61,.06c.61,20.44,.5,40.88,.06,61.32Z"/><path class="cb" d="M390.13,166.57l-.41,.02-.39-.11c-1.32-1.46-1.6-3.26-1.61-5.11-.09-9.48-.09-18.97,0-28.45,.02-1.68,.25-3.33,1.35-4.71l.42,.05c.29-.02,.58-.02,.87,0,.41,7.75-1,15.56,.78,23.26l.02,.02c-.02,.31,.02,.62,.13,.91,.37,.19,.49,.38,.36,.56-.12,.18-.25,.27-.38,.27l.13,.27c-2.38,4.16-.28,8.74-1.25,13.04Z"/><path class="cg" d="M390.16,206.7c-.21,.02-.41,0-.61-.06-3.45-.02-6.9-.04-10.36-.06,.69-.65,1.39-1.3,2.08-1.94,2.39-1.49,4.93-1.67,7.59-.93,.52,.26,1.01,.59,1.46,.96l-.17,2.03Z"/><path class="aw" d="M388.5,169.75c.09-1.08,.89-1.23,1.72-1.33,.43,4.05,.44,8.09,.01,12.14l-1.01-.08c-2.76-3.41-.31-7.17-.72-10.73Z"/><path class="br" d="M390.27,193.62l-1.23-.26c-2.36-3.06-.17-6.38-.55-9.55,.16-1.02,.94-1.18,1.76-1.3,0,3.7,.01,7.4,.02,11.1Z"/><path class="ak" d="M390.33,204.67c-.36,0-.72-.01-1.08-.02-2.33-2.79-.8-5.98-.93-9,.27-1.02,1.11-1.04,1.92-1.09,.03,3.37,.06,6.73,.09,10.1Z"/><path class="ci" d="M427.67,270.01c1.01,.9,1.66,1.97,1.63,3.51-2.15-.32-1.96-2.27-2.67-3.53,.35-.42,.7-.43,1.03,.02Z"/><path class="aj" d="M427.67,270.01c-.34,0-.69-.02-1.03-.02-.62-1.25-1.62-2.39-1.19-3.96,.26-.36,.53-.72,.79-1.08,.48,1.69,.95,3.38,1.43,5.07Z"/><path class="as" d="M106.22,476.2c-8.97,.13-17.95,.73-26.92,.09-10.3-.74-16.73-8.51-16.46-19.85,.22-8.85,8.06-16.22,17.5-16.43,1.5-.03,3-.01,4.51-.02,.74,2.21-1.33,3.18-2.13,4.68-1.41,2.64-3.03,5.17-2.08,8.34,2.21,.43,2.04-4.74,4.87-2.03,1.42,1.37,.12,3.97,1.61,5.49,.45,.09,.74-.02,.96-.3,1.38-1.79-.15-5.91,2.48-5.73,2.48,.16,1.86,4.56,3.75,6.47-.33,7.96,3.46,13.43,10.25,17.12,.85,.46,1.8,.91,1.66,2.16Z"/><path class="b`" d="M93.72,457.35c-2.89-1.09-2.47-3.97-3.57-6.18-.07,1.09-.15,2.19-.19,3.28-.07,1.98,.35,4.58-2.55,4.48-2.83-.1-2.28-2.76-2.42-4.69-.07-1.08-.12-2.15-.17-3.28-.48,.14-.67,.13-.78,.23-1.5,1.41-.53,5.87-3.96,4.43-2.57-1.08-1.32-4.54-.75-6.81,.87-3.44,3.11-6.22,5.52-8.81,3.22-1.48,3.52-3.64,2.4-6.94-4.58-13.53-7.36-27.45-7.17-41.79,.16-11.97,2.86-23.49,7.03-34.68-.31-1.77,.53-3.26,1.39-4.62,1.65-2.61,1.73-5.14,.49-7.95-.83-1.89-1.84-4.12,1.1-5.37,3.1-.13,4.32,2.05,5.15,4.44,1.16,3.32,1.33,7.14,5.38,8.74,.45,.18,.33,1.8,.48,2.76-.55,1.2-1.5,1.76-2.8,1.77-1.38,.28-3.31-2.26-4.14,.84-10.49,22.34-9.43,45.1-2.74,68.14,1.45,4.98,3.8,9.63,4.94,14.71,.24,2.77-.04,5.55,.11,8.33,.19,1.66,.64,3.27,.78,4.94,.06,1.47-.04,2.9-1.07,4.08-.82,.46-1.64,.58-2.45-.03Z"/><path class="ar" d="M82.03,354.51c-5.62,2.28-11.46,.58-17.18,.93-1.45,.09-1.92-1.08-1.94-2.39-.2-11.54-.25-22.99,6.6-33.21,2.15-3.21,5.25-5.06,8.1-7.28,2.43-1.89,3.41-.73,3.38,2.13-.08,8.02-.02,16.04-.01,24.05,0,1.02,.09,2.01,.95,2.72,2.38,4.33,2.29,8.68,.1,13.04Z"/><path class="ab" d="M121.11,509.48c-2.22,4.18,.02,8.83-1.47,13.55-2.62-2.39-3.5-4.97-3.63-8.33-.29-8.04,1.3-15.96,1.12-23.96-.04-1.65,.92-3.89-1.89-4.42,.61-.6,1.22-1.2,1.83-1.8-1.21-1.47-1.69-3.14-1.5-5.04,.51-5.07-.29-10.17,.3-15.24,.97-.96,2.1-.99,3.31-.56,3.86,2.64,3.16,6.87,3.74,10.67-.37,8.53-.18,17.07-.17,25.6,0,6.41,.44,6.87,6.81,6.89,21.39,.05,42.78,0,64.17,.05,2.62,0,5.4-.5,7.65,1.51,.12,.28,.07,.54-.13,.76-.26,.16-.53,.28-.83,.36-10.27,.93-20.57,.37-30.85,.35-8.44-.02-16.9,.74-25.32-.46-7.71,.02-15.42,.05-23.13,.07Z"/><path class="aq" d="M82.03,354.51c-.03-4.35-.07-8.69-.1-13.04,.03-3.03,.06-6.06,.09-9.09,2.69,2.09,5.38,4.17,8.06,6.26-.64,1.16-1.6,2.35-.62,3.68,4.12,5.6,.63,9.88-2.36,14.26-1.81-.39-3.82-.3-5.07-2.07Z"/><path class="bh" d="M93.72,457.35l2.04-.39c3.04,.07,2.24,2.65,2.69,4.29,1.65,6.1,5.71,9.74,11.63,10.21,1.56-.09,2.97,.33,4.22,1.26,1.24,1.32,1.69,2.59-.24,3.71-2.61-.07-5.23-.14-7.84-.21-6.02-2.62-10.8-6.43-12.59-13.11-.51-1.92-1.18-3.85,.1-5.74Z"/><path class="p" d="M114.05,476.42c.57-1.04,.73-2.1,.09-3.18-1.59-3.03-1.95-6.09-.23-9.2,.8-.41,1.54-.4,2.19,.29,2,4.3,.77,8.85,1,13.28,.11,2.29,0,4.6-.03,6.9-5.97-.84-2.32-5.28-3.01-8.09Z"/><path class="al" d="M262.13,332.46c1.87-.36,3.73-.71,5.6-1.07-1.38,2.9-3.34,2.78-5.6,1.07Z"/><path class="ce" d="M268.83,329.57c-.68-1.65-.36-3.13,.76-4.47,.35,1.59,.71,3.19-.76,4.47Z"/><path class="a`" d="M389.06,128.2l.27,38.28c-4.94,.63-9.88,.34-14.82,.16-9.01-.05-18.03-.21-27.04-.1-3.3,.04-5.67-.84-6.21-4.3-.55-3.52,2.01-4.67,4.75-5.27,2.53-.55,3.91-2.01,5.02-4.31,2.48-5.13,5.73-9.48,12.29-9.43,2.17,.02,2.98-1.77,4.07-3.27,5.33-7.38,11.85-12.63,21.67-11.76Z"/><path class="l" d="M391.13,151.5v-21.2c1.64-.42,2.31,.37,2.54,1.02,1.59,4.43,3.93,6.24,9.17,5.14,5.04-1.06,7.26,3.34,8.18,7.59,.63,2.94,.09,6.25,5.73,5.53-.41,.64-.82,1.29-1.23,1.93-8.12,0-16.25,0-24.37,0l-.02-.02Z"/><path class="bn" d="M391.26,153.26c.02-.28,.03-.55,.02-.83,8.38,.01,16.77,.03,25.15,.04,.01,.25,.02,.5,.04,.74l-25.21,.05Z"/><path class="bs" d="M370.12,214.63l1.12,1.13c-.49,.87-.86,2.54-2.09,1.63-.83-.62,.17-1.97,.97-2.76Z"/><path class="y" d="M144.24,509.41c18.72,.04,37.45,.07,56.17,.11-.85,1.07-2.05,.93-3.2,.93-16.44,0-32.88,0-49.33,0-1.3,0-2.7,.26-3.65-1.03Z"/><path class="ar" d="M257.76,454.09c2.08,2.35,2.84,5.33,3.9,8.16-3.14,8.54-6.17,17.01-12.29,24.17-9.51,11.13-21.41,13.59-35.07,11.4-2.17-.35-4.69-2.57-6.64,.56,.16-6.85-.55-13.61-1.93-20.31,3.61-2.43,7.95-1.58,11.9-2.49,13.88-3.2,25.98-9.46,36.42-19.08,1.1-1.01,2.07-2.23,3.7-2.42Z"/><path class="bc" d="M201.37,508.39c-25.18,.01-50.37-.05-75.55,.11-3.7,.02-4.92-.93-4.79-4.75,.3-8.51,.12-17.03,.12-25.55,0-1.67-.09-3.35,.78-4.88-.27-1.62,.95-2.41,1.92-3.25,5.32-4.61,7.6-10.31,4.97-16.98-2.73-6.91-8.46-10.48-15.68-11.6-2.63-.41-5.32-.04-7.99-.06-3.36-.36-7.01,1.15-10.01-1.52-4.02-9.37-6.96-19.07-8.61-29.12-3.15-19.21-2.29-37.96,7.28-55.54,1.41,.03,2.73,.88,4.19,.4,1.03-.36,2.06-.72,3.09-1.07,1.48,1.64,3.43,.93,5.19,1,10.64,.43,21.29-.67,31.93,.87,12.13,1.75,22.91,13.44,23.07,25.82,.15,11.19,.07,22.38,.1,33.57,1.47,2.41,1.46,5.09,1.46,7.79,0,12.57,.1,25.14-.06,37.71-.05,4.09,.92,7.22,4.86,8.92,1.01,1.5,1.9,3.09,3.57,4.06,9.19,5.36,17.5,12.19,27.31,16.51,1.78,.78,3.03,1.95,4.04,3.5-.23,4.7,.94,9.52-1.18,14.06Z"/><path class="bb" d="M168.39,472.11c-7.47-1.62-7.3-7.11-7.17-13.14,.3-14.37,.13-28.75,.16-43.13,3.54,2.18,5.76,5.24,7.2,9.23,3.43,9.5,5.28,10.58,15.48,9.94,4.67-.29,8.69,.36,12.21,4.16,7.23,7.79,12.59,8.32,21.9,2.77,5.44-3.24,10.67-6.84,16.13-10.04,7.6-4.45,15.56-6.9,24.26-3.1,2.08,.91,4.18,1.03,6.25,.02,2.88-1.4,5.48-.98,7.88,1.05-2.73,7.13-5.13,14.48-11.78,19.2-2.72-4.18-5.44-8.36-8.14-12.5,.74-1.87,2.1-.23,3.06-.74,.95-.51,1.67-1.06,1.74-2.2,.07-1.16-.61-1.91-1.56-2.33-1.95-.85-4.08-.86-5.79,.24-2.82,1.81-5.47,3.75-9,4.01-1.19,.09-2.12,1.12-2.08,2.46,.04,1.42,1.22,2.34,2.36,2.01,10.09-2.84,11.12,6.08,14.91,11.4,.57,.8,.9,1.78,1.34,2.68-9.92,11.64-22.86,18.22-37.33,22.09-4.78,1.28-9.64,2.46-14.69,1.9-2.68-9.2-6.07-18.08-11.78-25.88-.93-1.27-1.58-2.32,.53-2.93,1.28-.37,2.18-1.06,1.8-2.5-.42-1.6-1.83-2.03-3.18-1.75-3.85,.8-7.54,2.49-11.65,1.2-.93-.29-1.78,.76-1.88,1.91-.11,1.17,.58,2.07,1.56,2.3,14.17,3.35,14.65,16.5,19.16,26.75-.66,1.92-2.29,2.48-3.97,2.24-8.97-1.3-18-2.37-26.43-6.05-.61-.26-1.09-.74-1.5-1.27Z"/><path class="au" d="M168.39,472.11c8.3,2.3,16.68,4.22,25.17,5.69,2.35,.41,4.59,.77,6.73-.62,1.5,5.62,2.67,11.28,2.27,17.14-11.31-5.02-21.32-12.25-31.69-18.86-1.21-.77-3.43-.94-2.47-3.36Z"/><path class="an" d="M235.83,330.5c-1.47,.61-2.95,1.22-4.42,1.83,.7-2.49,2.39-2.57,4.42-1.83Z"/><path class="bg" d="M388.31,195.66c2.07,2.82,.54,6.01,.93,9-2.66,0-5.31,0-7.97-.01,2.35-3,4.69-5.99,7.04-8.99Z"/><path class="ao" d="M388.5,169.75c1.72,3.48,.46,7.16,.72,10.73-1.79,.19-3.58,.52-5.59-.37,1.64-3.49,3.25-6.93,4.87-10.36Z"/><path class="at" d="M388.49,183.81c1.67,3.1,.74,6.35,.55,9.55-1.63-.07-3.85,.84-4.74-.47-1.19-1.76,1.14-3.13,1.82-4.71,.65-1.51,1.57-2.92,2.37-4.37Z"/><path class="bj" d="M106.59,440.08c6.55-.67,12.49,.41,17.77,4.89,9.34,7.92,9.44,18.61-.07,26.48-.77,.64-1.57,1.25-2.35,1.87-1.64-2.85-.1-6.84-3.25-9.15-.99-1.25-.5-3.22-2.08-4.3-2.01,.74-.95,3.28-2.45,4.27,0,3.03-.01,6.07-.02,9.1-1.37-.33-2.73-.66-4.1-1-6.95-.8-12.34-9.05-10.85-16.57,.96-4.82,3.17-7.83,7.88-10.86-2.96,1.44-5.27,3.61-7.18,6.3-.86,1.21-1.47,3.32-3.76,1.98-.28-1.35-.57-2.69-.85-4.04,1.23-6.2,6.17-7.72,11.31-8.97Z"/><path class="bd" d="M96.13,453.09c1.46,.02,1.93-1.1,2.47-2.14,2.4-4.65,6.31-7.03,12.71-8-7.04,4.31-12.06,9.01-11.03,16.62,.77,5.72,3.52,10.76,9.76,12.67-5.4,1.24-11.93-4.39-12.98-11.23-.22-1.43,.3-3.08-1.3-4.06,.13-1.29,.25-2.58,.38-3.87Z"/><path class="ay" d="M106.59,440.08c-4.49,2.09-8.62,4.62-11.31,8.98-.04-3.05-.09-6.1-.13-9.15,3.81,.06,7.63,.11,11.44,.17Z"/><path class="be" d="M98,355.66c-1.54,1.36-2.93,1.25-4.18-.4,1.67-2.74,2.77,.42,4.18,.4Z"/><path class="bo" d="M114.16,464.14c.27-2.35-1.72-6.31,1.95-6.46,4.22-.17,2.38,3.98,2.58,6.48-.87,.06-1.73,.11-2.6,.17-.65-.06-1.29-.12-1.94-.19Z"/><path class="au" d="M150.27,383.09c.05,5.55-4.53,10.31-9.97,10.37-5.16,.06-10.08-4.67-10.12-9.72-.04-5.97,4.33-10.43,10.33-10.55,5.2-.11,9.71,4.47,9.75,9.9Z"/></g></g></g></g></svg>