<?xml version="1.0" encoding="UTF-8"?><svg xmlns="http://www.w3.org/2000/svg" viewBox="0 0 704 732"><defs><style>.e{fill:#f7b868;}.f{fill:#688d62;}.g{fill:#688d61;}.h{fill:#67594c;}.i{fill:#698f64;}.j{fill:#eee9e7;}.k{fill:#f0ecec;}.l{fill:#f0ebe9;}.m{fill:#eae8e6;}.n{fill:#eaeae7;}.o{fill:#e9e6e5;}.p{fill:#e9e6e7;}.q{fill:#e9e8e7;}.r{fill:#e7e3de;}.s{fill:#ea9147;}.t{fill:#e8e6e6;}.u{fill:#e8e6e5;}.v{fill:#ede7e5;}.w{fill:#ede8e6;}.x{fill:#ede9e6;}.y{fill:#e8e5e4;}.a`{fill:#ece8e5;}.aa{fill:#fcd6ae;}.ab{fill:#fbc571;}.ac{fill:#e4e1df;}.ad{fill:#fdfdfc;}.ae{fill:#7ea9c3;}.af{fill:#678d61;}.ag{fill:#678c61;}.ah{fill:#989494;}.ai{fill:#c1bdbc;}.aj{fill:#9dcfba;}.ak{fill:#bab6b5;}.al{fill:#8d3943;}.am{fill:#d05f62;}.an{fill:#d05d61;}.ao{fill:#cdc8c5;}.ap{fill:#a8cfb5;}.aq{fill:#aacfb8;}.ar{fill:#bd7a63;}.as{fill:#bd7a64;}.at{fill:#bf806c;}.au{fill:#ccd0b1;}.av{fill:#c6c3c1;}.aw{fill:#cac6c5;}.ax{fill:#cac6c4;}.ay{fill:#cac5c4;}.b`{fill:#cac7c5;}.ba{fill:#c9c6c5;}.bb{fill:#c9c5c4;}.bc{fill:#c9c5c3;}.bd{fill:#cbc7c6;}.be{fill:#cbc6c4;}.bf{fill:#cbc7c5;}.bg{fill:#d2696a;}.bh{fill:#d26769;}.bi{fill:#dcd4d1;}.bj{fill:#c5c2bf;}.bk{fill:#c5c1bd;}.bl{fill:#c8c4c3;}.bm{fill:#c8c4c2;}.bn{fill:#c7c4c2;}.bo{fill:#c7c3c1;}.bp{fill:#c7c3c2;}.bq{fill:#c97033;}.br{fill:#25201f;}.bs{fill:#424440;}.bt{fill:#42453d;}.bu{fill:#43403f;}.bv{fill:#434044;}.bw{fill:#434045;}.bx{fill:#404243;}.by{fill:#404d45;}.c`{fill:#403a37;}.ca{fill:#40453c;}.cb{fill:#404549;}.cc{fill:#40453b;}.cd{fill:#403531;}.ce{fill:#40373b;}.cf{fill:#40332e;}.cg{fill:#413e3d;}.ch{fill:#41443d;}.ci{fill:#41443f;}.cj{fill:#413c3e;}.ck{fill:#41403c;}.cl{fill:#41373b;}.cm{fill:#373832;}.cn{fill:#444b41;}.co{fill:#443b38;}.cp{fill:#454544;}.cq{fill:#454241;}.cr{fill:#3e3b3a;}.cs{fill:#3e3c39;}.ct{fill:#3f433a;}.cu{fill:#3f464b;}.cv{fill:#3f3835;}.cw{fill:#9c6855;}.cx{fill:#70c4ee;}.cy{fill:#494747;}.d`{fill:#494746;}.da{fill:#554039;}.db{fill:#545150;}.dc{fill:#54514f;}.dd{fill:#545251;}.de{fill:#545252;}.df{fill:#464342;}.dg{fill:#54453c;}.dh{fill:#53504e;}.di{fill:#53514f;}.dj{fill:#56423a;}.dk{fill:#555352;}.dl{fill:#555250;}.dm{fill:#55524f;}.dn{fill:#555252;}.do{fill:#5c5957;}.dp{fill:#2a2524;}.dq{fill:#292323;}.dr{fill:#2b2626;}.ds{fill:#565353;}.dt{fill:#565351;}.du{fill:#555b60;}.dv{fill:#4a3b36;}.dw{fill:#4a3c36;}.dx{fill:#4a4745;}.dy{fill:#2a2625;}.e`{fill:#484644;}.ea{fill:#474443;}.eb{fill:#474545;}.ec{fill:#483934;}.ed{fill:#353e37;}.ee{fill:#5c4f44;}.ef{fill:#302c2b;}.eg{fill:#312d2b;}.eh{fill:#313130;}.ei{fill:#3a3432;}.ej{fill:#3b413c;}.ek{fill:#3d3f42;}.el{fill:#3d3f41;}.em{fill:#3d3e39;}.en{fill:#3d3d3d;}.eo{fill:#3d3b3b;}.ep{fill:#3d3a39;}.eq{fill:#2e2927;}.er{fill:#2e2b2a;}.es{fill:#271f20;}.et{fill:#5a5344;}.eu{fill:#585c5f;}.ev{fill:#575244;}.ew{fill:#3c3d3c;}.ex{fill:#3c3635;}.ey{fill:#3c3537;}.f`{fill:#3c3332;}.fa{fill:#83b67b;}.fb{fill:#81bfa7;}.fc{fill:#83b57b;}.fd{fill:#2f2c2b;}.fe{fill:#2e302e;}.ff{fill:#39423b;}.fg{fill:#4c4a49;}.fh{fill:#4c4948;}.fi{fill:#4c3b36;}.fj{fill:#5f5c5a;}.fk{fill:#496155;}.fl{fill:#4a4846;}.fm{fill:#4a4847;}.fn{fill:#494945;}.fo{fill:#494645;}.fp{fill:#494646;}.fq{fill:#454843;}.fr{fill:#473a36;}.fs{fill:#4d413d;}.ft{fill:#4d4442;}.fu{fill:#783740;}.fv{fill:#7a3740;}.fw{fill:#7a3741;}.fx{fill:#7b3741;}.fy{fill:#79a871;}.g`{fill:#4b4947;}.ga{fill:#4b4746;}.gb{fill:#4c5852;}.gc{fill:#4f4c4b;}.gd{fill:#4f4c4c;}.ge{fill:#524f42;}.gf{fill:#524f4e;}.gg{fill:#524d4c;}.gh{fill:#793941;}.gi{fill:#793640;}.gj{fill:#504541;}.gk{fill:#504d4b;}.gl{fill:#504b4a;}.gm{fill:#4f5559;}.gn{fill:#817ab7;}.go{fill:#82b17a;}.gp{fill:#80c0a8;}.gq{fill:#4e3c36;}.gr{fill:#282422;}.gs{fill:#4d4c4b;}.gt{fill:#4d4c47;}.gu{fill:#4d4a49;}.gv{fill:#4d5356;}.gw{fill:#4e4b4b;}.gx{fill:#4e4b49;}.gy{fill:#4e4b4a;}.h`{fill:#4e4c4b;}.ha{fill:#514e4e;}.hb{fill:#514e4d;}</style></defs><g id="a"/><g id="b"><g id="c"><g id="d"><g><path class="n" d="M703.9,352.54c0,115.68-.02,231.36,.1,347.03,0,3.7,0,26.43,0,32.43-231.72-.11-469.28-81.11-701-81-3.7,0,0,3.7,0,0C3.11,419.28,.11,236.14,0,4.43,0,.73,.72,0,4.43,0,236.14,.11,467.86,.11,699.57,0c3.7,0,4.43,.72,4.43,4.43-.13,116.04-.1,232.08-.1,348.11Z"/><path class="r" d="M451.71,408.16l.07,.12c-.88-1.55-1.74-3.11-2.8-4.55-3.65-5.21-5.54-11.4-9.18-16.62l.07,.1c-.26-2.67-.9-5.25-1.99-7.71-.32-2.09-1.77-3.75-2.19-5.8,.06-3-1.7-5.74-1.22-8.79-.31,.05-.48-.08-.52-.4-.85-4.15-1.44-8.33-1.64-12.56,0-6.46,0-12.92,0-19.37-.1-2.46,.82-4.85,.56-7.32,.76-8.56,4-16.43,6.87-24.39,.39-1.54,.89-3.06,1.45-4.54,1.75-3.62,3.59-7.21,5.34-10.84,1.05-1.95,2.3-3.77,3.46-5.65,2.16-2.9,3.97-6.07,6.29-8.86,1.42-1.95,2.85-3.9,4.61-5.57,3.64-3.54,7.2-7.15,10.76-10.76,1.66-1.78,3.6-3.21,5.7-4.43,1.63-1.82,4.05-2.5,5.82-4.1,.02-.33,.2-.52,.53-.56,1.93-1.11,3.71-2.44,5.5-3.76,1.05-.68,2.39-.71,3.41-1.46,3.15-2.04,6.59-3.48,9.99-5.01,1.92-1.3,4.24-1.59,6.31-2.54,1.7-.69,3.38-1.4,5.11-2.03,4.29-.92,8.42-2.5,12.76-3.25,3.42-.26,6.78-.97,10.17-1.44,2.54-.13,5.1,.27,7.62-.34,1.83-.63,3.89,.46,5.64-.78,7.45,1.99,15.21,1.45,22.76,3.12,33.06,7.29,58.5,25.16,76.46,53.79,13.21,21.06,18.87,44.27,17.24,68.77-1.55,23.29-9.54,44.72-23.98,63.41-19.83,25.65-46.1,40.38-77.93,45.34-4.93,.77-9.96,.91-14.81,2.26-3.25-2.19-7.1-.08-10.47-1.45-2.61-1.25-5.52-.09-8.18-.98-1.26-.63-2.61-.74-3.98-.75-2.13-.32-4.16-1.18-6.35-1.22-2.73-1.01-5.51-1.86-8.35-2.49-4.32-1.72-8.74-3.21-12.9-5.34-1.38-.58-2.69-1.3-4-2.02-2.13-1.12-4.44-1.9-6.31-3.49-2.29-1.24-4.39-2.78-6.58-4.18-1.08-.92-2.4-1.48-3.49-2.39-1.89-1.77-4.09-3.13-6.04-4.82l.11,.1c-4.86-4.13-9.33-8.65-13.42-13.54-1.41-1.98-3.25-3.61-4.57-5.66-1.06-1.88-2.56-3.44-3.72-5.24Z"/><path class="k" d="M64.75,400.12c-.39-2.65-2.46-2.14-4.18-2.16-3.77-.04-7.57-.28-11.32,.05-4.57,.41-5-1.14-3.66-5.15,9.21-27.52,18.38-55.05,27.25-82.68,4.76-14.84,9.43-29.71,14.72-44.38,1.98-1.64,4.39-1.48,6.71-1.48,55.31-.04,110.61-.05,165.92,0,1.44,0,2.88,.05,4.29,.32,1.39,.59,3.81,.97,1.86,3.12-3.37,3.73-3.6,8.6-5.04,12.96-11.92,36.08-23.91,72.14-35.56,108.31-3,9.33-3.02,9.52-13.59,9.52-23.42,0-46.83-.03-70.25-.03-23.76,0-47.53,.19-71.29-.26-2.38-.04-3.81,1.62-5.87,1.87Z"/><path class="fb" d="M321.92,569.01c-21.08-9.37-35.83-25.18-44.9-46-12.01-27.57-10.48-54.94,3.43-81.6,.65-1.25,1.63-2.34,2.46-3.5,2.19-1.76,3.71-3.96,4.42-6.69,1.73-3.85,5.14-6.35,7.62-9.61,2.31,1.53,2.3,4.26,3.43,6.22,1.52-2.65-.78-5.5-.2-8.37,10.68-12.26,24.4-19.16,40.03-22.69,2.86,1.72,4.84,.42,6.51-1.91,20.28-3.39,39.8-.9,58.12,8.46,31.66,16.17,48.82,42.12,51.23,77.7,.1,1.41,.51,2.8,.77,4.2-.27,.77-.55,1.55-.78,2.34-.63,2.39,.82,5.23-1.55,7.26-5.88,1.61-12.18,.5-17.94,2.86-9.88,3.61-19.98,4.32-30.31,2.33-6.95-1.34-13.98-1.11-20.99-.85-.9-.04-1.8-.2-2.44-.91-2.23-2.47-1.83,.37-2.44,1.2-1.04,1.12-2.26,1.13-3.58,.62-1.74-1.11-2.81-2.78-3.53-4.63-1.37-3.53,.14-6.37,3.84-6.49,3-.1,5.52-.92,8.1-2.32,4.95-2.67,7.91,.98,11.22,4.12-1.84-4.55-.39-7.76,3.19-10.41,1.72-1.27,1.88-3.38,1.9-5.4,.04-3.05,.11-6.11,0-9.15-.15-4.11,1.39-7.44,3.41-11.03,3.12-5.56,5.48-11.71,1.57-18.1-.84-1.44-2.3-1.5-3.73-1.78-8.42-1.65-11.99-7.25-10.11-15.79,.19-.86,.63-1.69,.15-2.58-11.08-.23-14.48-2.25-17.99-10.7-8.53,5.29-11.56,5.18-20.03-3.74-1.36,3.39-2.17,7.01-5.63,8.85-3.89,2.08-6.31-1.41-10.3-2.74,.77,10.68-1.33,19.53-14.74,20.49,5.27,6.52,7.58,12.76,1.91,19.54,11.1-.88,16.15,5.32,13.35,15.91-.68,2.55-2.44,4.92-1.48,7.8-1.73,9.9-5.08,19.41-7.09,29.25-1.29,6.33-2.57,12.69-3.62,19.05-1.84,11.09,2.94,19.78,12.88,25.25,.65,.36,1.13,.88,1.5,1.51-.83,2.91,.02,4.13,2.94,5.96,4.79,2.99,8.61,7.5,14.42,9.06,1.05,.28,1.65,1.85,2.22,2.97,1.43,2.83,3.59,3.69,6.68,3.08,5.2-1.03,10.31,.79,15.51,.85,3.53,.04,4.07,2.26,2.14,6.02-3.34,1.45-6.72,2.71-10.45,2.51-1.91,.17-3.82,.43-5.68,.91-2.19,.27-4.4,.07-6.59,.24-2.88-.59-5.97,.55-8.72-1.06,3.93-1.56,3.14-4.11,1.35-6.75-1.99-2.94-5.13-4.44-8.09-6.14-6.22-3.57-12.44-6.93-17.44-12.46-5.18-5.74-7.85-12.39-9.56-19.57-1.79-7.54-4.4-14.72-8.07-21.53-.79-1.46-1.13-3-1.3-4.63-.27-2.55-1.33-4.97-4.27-4.28-2.97,.7-4.12,3.29-3.52,6.36,.32,1.62,1.3,3,2.26,4.27,7.4,9.79,9.6,21.96,14.99,32.68,2.08,4.15,4.18,8.33,6.21,12.53,2.52,5.22,2.03,7.1-2.7,11.02Z"/><path class="ar" d="M382.47,209.92c-.23,.67-.6,1.33-.68,2.02-.96,9-.88,8.88,7.96,10.06,13.68,1.82,27.33,3.85,40.43,8.45-1.41,6.58-6.92,9.95-11.24,14.21-1.37,1.35-3.11,2.35-4.45,3.78-5.24,4.25-10.66,8.25-16.61,11.49-8.28,4.52-16.94,7.98-26.35,9.32-1.13,.28-2.29,.39-3.45,.42-3.24,.04-6.47,.02-9.7,.03-17.58-.66-32.49-7.96-46.1-18.5-3.41-2.98-7.05-5.73-10.08-9.13-.86-.88-1.73-1.77-2.61-2.62-2-3.15-6.78-4.31-6.54-9.08,13.92-4.41,28.2-7.21,42.7-8.37,5.23-.42,6.43-2.28,5.85-6.79-.27-2.09,.49-4.34-.98-6.25-1.08-4.43-.48-8.94-.52-13.41-.02-2.94-.95-5.06-3.4-6.83-8.95-6.46-13.91-15.31-14.91-26.29-.25-2.76-1.37-4.67-3.59-6.23-2.76-1.93-4.59-4.5-4.66-8.04,.76-4.65,1-9.57,6.23-11.88,2.38-1.6,4.92-2.99,5.36-6.31,.3-2.26,1.91-3.32,4.11-3.61,13.54-1.75,23.88-9.41,33.6-18.22,.8-.72,1.53-1.53,2.42-2.15,2.42-1.72,4.17-1.58,4,1.87-.16,3.3-.79,6.78,3.23,8.19,4.05,1.42,7.34-.44,10.26-3.15,1.44-1.34,2.31-3.25,4.2-4.13,.86-.22,1.66-.12,2.39,.39,1.52,2.13,1.72,4.69,2.25,7.13,.81,3.77,3.29,6.26,5.55,9.25,3.95,5.23,8.72,9.71,12.51,14.95,3.15,4.36,1.26,11.44-3.67,15.46-2.91,2.37-4.24,5.1-4.66,8.68-1.17,9.98-5.66,18.14-14.03,23.84-3.17,2.16-4.53,4.73-4.44,8.54,.1,4.29,.49,8.63-.38,12.9Z"/><path class="gn" d="M272.21,238.05c5.89-2.9,12.09-4.97,18.35-6.88,4.4,1.2,5.65,5.87,9.02,8.2,.88,.86,1.75,1.73,2.61,2.61,3.14,3.27,6.82,5.93,10.21,8.93,11.39,8.66,23.64,15.38,38.03,17.62,8.03,1.25,15.99,1.13,23.96-.31,8.25-1.38,15.82-4.56,22.98-8.78,6.52-2.46,11.6-7.12,17.05-11.21,6.63-5.3,11.87-12.04,18.16-17.7,5.96,3.01,12.71,4.04,18.48,7.5,.95,1.43,1.24,3.04,.93,4.66-2.29,11.94-1.61,24.05-2.14,36.08-.09,2.47-1.66,4.27-2.82,6.25-1.66,3.46-3.39,6.88-5.16,10.29-.94,1.2-.78,2.85-1.64,4.09-.44,.39-.78,.31-1.02-.23-2.49-1.04-4.02,1.06-5.78,1.98-22.64,11.79-46.84,17.63-72.21,17.51-28.81-.13-55.81-7.68-80.49-22.88-1.21-.74-2.33-1.73-3.9-1.67-2.3-1.89-1.84-4.56-1.86-7.01-.09-10.8-.04-21.61-.04-32.42,0-3.1-.16-6.13-2.07-8.76-.64-1.1-1.04-2.31-1.45-3.51-.39-1.57-.33-3.07,.77-4.38Z"/><path class="fd" d="M273.44,244.52c2.93,1.86,3.35,4.67,3.34,7.89-.06,13.91,.04,27.82,.09,41.73-.05,45.17-.2,90.34,0,135.51,.02,5.31-1.35,6.34-6.46,6.32-54.53-.21-109.06-.13-163.59-.13q-7.6,0-7.6-7.59c0-1.08,0-2.16,0-3.24,1.86-1.06,3.88-.53,5.82-.53,45.92-.03,91.83-.02,137.75-.04,1.97,0,3.96,.24,5.91-.26,1.04-.25,2.07-.78,3.14-.69,7.69,.59,8.32,0,8.91-9.14,1.71-26.53,4.14-53,5.84-79.53,.74-11.46,1.54-22.94,2.78-34.37,.17-1.59,.47-3.21-.47-5.74-2.1,11.2-3.1,21.68-4.56,32.08-4.22,30.09-8.23,60.21-12.35,90.31-.31,2.3-.64,4.66-2.41,6.45-1.6,1.12-3.44,.87-5.22,.87-53.39,0-106.77,0-160.16-.01-1.41,0-2.89,.37-4.19-.54l.08-9.53c1.3-1.52,3.08-1.65,4.88-1.64,6.22,.03,12.45-.27,18.66,.18,3.77,1.13,7.6,1.16,11.46,.56,.58-.09,1.16-.09,1.74-.03,3.67,.55,7.34,.75,10.97-.32,2.37-.45,4.74-.44,7.12,0,3.55,1.06,7.09,.9,10.61-.15,6.46-.42,12.92-.49,19.37,.02,5.33,1.23,10.66,1.19,15.99,0,7.57-.47,15.13-.48,22.7-.02,4.59,1.2,9.2,1.21,13.8,.1,5.29-.68,10.61-.21,15.91-.37,1.9-.06,3.95,.42,5.43-1.35,3.09-8.71,4.1-17.87,5.76-26.86,6.68-36.11,13.78-72.15,20.25-108.3,.6-3.37,1.68-6.62,2.54-9.92-5.23-4.35-2.34-10.25-2.93-15.48-.16-1.4,.2-2.85,.88-4.13,.97-1.84,2.43-3.03,4.54-3.34,1.42-.15,2.64,.3,3.7,1.25Z"/><path class="r" d="M267.42,265.71c1.31,1.5,.4,3.12,.12,4.62-8.94,47.53-17.93,95.05-26.9,142.57-1.56,1.34-3.44,.68-5.15,.68-14.66,0-29.31,.74-43.95,.04-5.88-1.64-12.12,.4-18.03-1.62-.76-.26-1.33,1.96-2.76,2.04-3.27,.54-6.45-.79-9.7-.42-9.08-2.55-18.17-.29-27.28,0-16.14,1.25-32.27-.25-48.4-.02-1.76,.02-3.6,.42-5.3-.45-4.62-.01-9.25-.13-13.86,0-2.38,.07-3.04-.62-2.65-3.04,.53-3.3,1.68-6.55,1.21-9.97,1.31-2.8,3.74-3.26,6.49-3.24,20.62,.11,41.25,.18,61.87,.26,25.68,.09,51.36,.19,77.05,.26,3.19,0,6.39-.32,9.58-.25,2.77,.06,2.47-2.14,2.98-3.67,5.37-16.26,10.68-32.54,16.01-48.82,8.12-24.8,16.34-49.57,24.22-74.46,.77-2.43,2.93-2.35,3.81-4.01l.15-.5h.52Z"/><path class="cx" d="M267.42,265.71c-.18,.22-.4,.38-.67,.49-2.33-.1-4.67-.28-7-.28-57.4-.05-114.8-.08-172.19-.12-.04-4.27-.11-8.53-.12-12.8,0-7.91,2.51-10.45,10.41-10.59,1.07-.02,2.13-.07,3.2-.1,.74,1.26,1.28,1.13,2.6-.65,1.38-.68,2.83-.68,4.31-.43,1.19,.14,2.2,.82,3.34,1.09,1.94-.02,3.89-.04,5.83-.06,1.75,.87,.09,2.34,.66,3.52,.08-1.66,.14-3.26,1.68-4.24,1.35-.57,2.81-.67,4.23-.88,1.09-.12,2.05,.68,3.16,.48,1.6,1.91,3.81,1.1,5.79,1.29,.86,.45,1.09,1.27,1.26,2.13,.1-.74,0-1.5,.24-2.22,.23-.69,.66-1.21,1.31-1.55,1.48-.23,2.9,.13,4.33,.39,1,.77,2.1,.57,3.2,.32,1.82,1.33,3.91,.84,5.93,.86,1.95,1.48,.8,3.56,1.24,4.99,.82-1.89-1.53-5.22,2.04-6.69,1.99,.02,3.94,.16,5.61,1.41,2.39,.09,4.79,.18,7.18,.27,.21,.09,.41,.18,.62,.26,.18,.39,.12,.83,.22,1.24,.06-.28,.17-.57,.34-.92,.33-.65,.83-1.06,1.44-1.37,1.41-.56,2.84-.56,4.3-.29,1.16,.15,2.13,.89,3.28,1.1,1.96-.02,3.93-.04,5.89-.06q.89,1.72,2.57-.65c1.38-.68,2.83-.69,4.3-.44,1.19,.14,2.19,.82,3.33,1.11,1.86,.03,3.72,.06,5.58,.09,.88,.96,.84,2.23,1.14,3.39,.03,.72,.4,.2,.38,.15-.87-1.76-.76-3.34,1.11-4.45,1.35-.53,2.8-.65,4.22-.85,1.08-.09,2.04,.64,3.14,.5,1.61,1.87,3.79,1.1,5.77,1.26,2.23,3.76,1.86-1.58,3.21-.93,1.2-.48,2.44-.54,3.7-.34,1.11,.48,2.29,.45,3.47,.36,1.81,1.33,3.89,.82,5.89,.89,1.5,.85,1.07,2.39,1.4,4.15-.11-1.7-.22-2.94,.08-4.16,.31-.68,.68-1.31,1.42-1.61,1.43-.14,2.8,.24,4.19,.43,1.13,.07,1.94,1.02,3.07,1.11,1.99,.01,3.98,.02,5.97,.03,1.04,.47,.79,1.35,.67,2.18,.37-.66,.02-1.48,.47-2.12,.31-.43,.71-.74,1.17-.99,1.46-.53,2.95-.47,4.45-.21,1.21,.15,2.22,.89,3.4,1.15,2.16,.08,4.32,.16,6.48,.23,2.7,1.11,6.41-2.84,8.44,1.66-3.3,.84-4.57,3.11-4.54,6.36,.03,3.94,.07,7.89-.04,11.82-.05,1.61,.17,2.82,1.91,3.27Z"/><path class="fd" d="M386.97,109.33c-1.78,3.45-4.33,6.23-7.84,7.85-3.01,1.39-6.29,1.85-9.17-.4-2.76-2.16-2.96-5.15-2.11-8.31,.27-1,.86-1.94,.18-3.42-6.6,5.96-12.77,12.2-20.49,16.49-5.38,2.99-11,5.33-17.15,5.85-2.63,.22-3.93,.95-4.07,3.68-.22,4.09-2.8,5.45-6.56,5.22-4.63-21.43,10.61-40.12,32.56-45.26,27.14-6.36,47.32,7.73,51.57,35.99,.68,4.49,2.53,7.68,5.56,10.61,4.7,4.54,9.98,8.2,15.96,10.86,1.15,.51,2.28,1.08,3.35,1.73,5.06,3.09,11.98,4.82,11.44,12.62-.46,6.64-9.46,15.73-16.43,16.86-2.9,.47-3.68,1.65-4.22,4.3-1.95,9.61-9.28,15.18-19.04,14.36-2.47-.21-3.61,.85-4.98,2.29-3.75,3.95-8.02,7.17-13.08,9.29-1.56-5.83-.29-11.78-.69-17.66-.15-2.24,1.78-2.97,3.25-3.91,9.13-5.82,14.02-14.18,15.07-24.89,.35-3.62,1.5-6.27,4.97-8.65,7.38-5.06,5.72-16.89-2.02-18.66-.82-.19-1.97-.71-2.22-1.36-3.29-8.81-13.26-14.49-11.94-25.44-.63-.99-1.27-.87-1.93-.03Z"/><path class="fd" d="M313.53,148.16c2.02,3.34,3.66,6.98,7.77,8.44,1.98,.7,1.59,2.6,1.7,4.14,.86,11.99,5.78,21.62,16.22,28.06,1.06,.65,2.33,1.19,2.24,2.72-.35,5.81,1.07,11.71-.85,17.44-3.42-2.18-7.39-2.55-11.21-3.47-6.1-1.46-11.13-4.43-12.2-11.26-.39-2.49-1.68-2.63-3.61-2.82-4.66-.46-9.21-1.41-13.36-3.76-9.88-5.6-11.16-15.23-2.89-22.96,5.64-5.27,11.45-10.37,16.18-16.52Z"/><path class="ef" d="M434.72,496.39c5.68-2.5,11.71-2.52,17.75-2.43,2.25-2.2,.01-5.18,1.32-7.54,.35-.4,.71-.8,1.06-1.2,1.43,15.9-3.04,30.51-10.21,44.37-5.21,10.07-11.91,19.12-20.97,26.2-.73-.14-1.2-.6-1.59-1.19-6.64-2.62-13.5-2.47-20.44-1.81-2.29,.22-4.62,.12-6.95,.15-2.66,.03-5.32-.05-7.97,.12-3.13-.18-6.38,.58-9.29-1.2-.23-3.44,2.5-2.51,4.31-2.93,2.51-.07,5.07-.27,7.52,.11,8.93,1.4,15.13-3.16,20.62-9.18,10.17-11.15,17.89-23.76,22.28-38.3,.56-1.84,.7-3.95,2.57-5.17Z"/><path class="fb" d="M321.92,569.01c4.2-4.75,2.36-9.06-.18-14.02-4.6-8.99-9.1-18.02-11.96-27.88-1.63-5.63-5.73-10.58-8.93-15.7-2.73-4.38-1.58-9.15,3.01-11.29,2.34-1.09,6.6,2.02,6.58,5.08-.01,1.43-.55,2.92,.33,4.16,6.98,9.76,7.52,21.92,12.2,32.55,3.19,7.25,8.28,12.67,14.8,16.85,3.92,2.51,8.15,4.52,12.08,7.01,5.57,3.51,5.81,4.11,7,11.43-1.61,.11-3.19,.21-4.77,.32-10.7-.53-20.74-3.39-30.14-8.5Z"/><path class="as" d="M448.73,280c-.77-14.07-.1-28.06,2.35-41.95,8.74,2.75,16.25,7.94,24.27,12.12,.17,2.75-2.82,2.92-3.84,4.71-3.46,3.51-6.94,7-10.45,10.46-1.71,1.71-3.04,3.74-4.56,5.6-2.35,2.49-3.76,5.67-5.98,8.26-.48,.52-.89,1.21-1.79,.8Z"/><path class="dm" d="M79.98,423.86c54.05,.01,108.09,.03,162.14,0,2.47,0,5.08,.62,7.31-1.1,.72,.6,.83,1.31,.33,2.1-50.19,.05-100.38,.09-150.57,.14-6.37-.98-12.93,1.18-19.22-1.15Z"/><path class="ah" d="M159.8,412.93h12.01c5.73-.73,11.47-.74,17.2,.02,17.21-.02,34.42-.03,51.63-.05-2.35,2.49-5.34,1.02-8.01,1.17-5.16,.3-10.35,.2-15.52,.27-4.28,.57-8.57,.56-12.85,0-7.97,0-15.94,0-23.9,0-5.01,.58-10.01,.57-15.02,0-6.89,0-13.77,0-20.66,0-3.2,.56-6.41,.56-9.61,0-2.56,0-5.13,0-7.69,0-3.56,.55-7.13,.56-10.69,0h-1.2c-3.56,.57-7.13,.56-10.69,0-8.24,0-16.49,0-24.73-.01,0-.4,0-.8,0-1.2,18.69-.06,37.39-.12,56.08-.19,7.89-.73,15.78-.84,23.67-.02Z"/><path class="bs" d="M373.03,576.4c3.77,.59,6.82-2.58,10.58-2.05,2.86-2.03,5.97-3.24,9.55-2.94,.85,.36,1.44,.96,1.67,1.87-10.09,4.68-20.84,6.01-31.79,6.35-.91,.03-1.79-.08-2.25-1.06,1.87-2.21,4.56-.58,6.72-1.44,1.79-.66,3.79,.3,5.53-.73Z"/><path class="g`" d="M439.23,299.19l.45,.1c.76,.12,.85,.79,1.08,1.33-2.44,7.98-4.87,15.97-7.31,23.95-.63-.15-.69-.78-1.01-1.19-.08-8.72,4.25-16.21,6.79-24.19Z"/><path class="ei" d="M432.6,230.55c-4.73,7.17-11.01,12.83-17.57,18.23-1.15,.36-1.43-.13-1.15-1.17,5.56-5.6,11.93-10.44,16.3-17.17,.8,.04,1.61,.07,2.41,.11Z"/><path class="dk" d="M371.06,51.53v19.97c-2.49-4.96-2.93-15.13,0-19.97Z"/><path class="dx" d="M433.26,331.97c-.02,6.87-.04,13.75-.06,20.62-.98,1.43,.42,3.42-1.13,4.71-1.4-2.96-.81-6.07-.71-9.14,.69-3.57,.63-7.14,.03-10.71-.21-3.06-.62-6.14,.7-9.09,1.36,.89,.21,2.58,1.17,3.6Z"/><path class="gg" d="M439.8,387.12c1.66-.77,2.01,.38,2.59,1.58,2.36,4.91,4.83,9.77,7.25,14.64-.12,.68-.52,1.1-1.19,1.26-3.72-5.41-6.87-11.11-8.65-17.48Z"/><path class="fb" d="M298.19,419.46c2.78,3.24,2.89,6.6,.32,10.34-2.35-2.33-2.77-5.34-3.54-8.19,.64-1.37,1.71-2.09,3.23-2.15Z"/><path class="bu" d="M460.29,418.54c4.41,4.66,9.72,8.47,13.13,14.07-6.23-2.75-10.11-8-14.03-13.21-.33-.94,0-1.19,.89-.86Z"/><path class="bx" d="M152.1,241.54c-2.31,2.2,.14,5.13-1.1,7.63-2.71-1.76-1.88-4.44-2.07-6.8,1.25-2.23,2.61-4.47,5.56-4.31,1.74,.09,3.7,.51,3.22,3.14-1.8,1.19-3.79-.71-5.6,.35Z"/><path class="en" d="M135.87,241.27c-1.92,2.09-.08,4.71-1.07,7.36-3.13-1.39-1.42-4.26-2.14-6.2,4.24-5.43,6.41-5.62,10.34-.93-.36,1.6-1.13,1.85-2.31,.69-1.44-1.18-3.13-1.04-4.82-.92Z"/><path class="ci" d="M417.18,561.24c-3.6,3.08-7.54,5.62-11.93,7.45-.76-.3-1.38-.71-1.34-1.66,3.48-3.49,7.31-6.4,12.26-7.48,.79,.29,1.42,.68,1.01,1.69Z"/><path class="gy" d="M499.41,448.51c4.48,1.47,8.93,3,12.86,5.73l.06,.69c-4.89-.24-9-2.52-13.05-4.96-.41-.53-.37-1.01,.13-1.45Z"/><path class="fh" d="M539.93,459.45c2.68,0,5.35,0,8.03-.03,1.54-.02,2.4,.51,1.99,2.21-5.01,.17-9.97-.37-14.92-1.11,1.1-2.78,3.19-1.05,4.89-1.07Z"/><path class="de" d="M296.42,103.25c4.18,.08,7.16,2.61,10.16,5.15-4-.38-7.29-2.28-10.16-5.15Z"/><path class="ce" d="M299.41,240.08c-3.76-2.16-5.62-6.21-8.85-8.91,.47-1.34,1.38-1.37,2.48-.82,1.82,3.47,5.66,5.29,7.25,8.93,.11,.72,.04,1.22-.88,.79Z"/><path class="gc" d="M526.7,228.39c-4.41,1.15-8.83,2.3-13.24,3.45-.48-.47-.51-.97-.1-1.51,3.42-1.72,7.05-2.71,10.86-3.06,.69,.68,1.98,.03,2.48,1.12Z"/><path class="df" d="M247.35,242.28c-2.73,1.9,.76,4.36-.47,6.88-2.63-2.06-1.44-4.66-1.87-6.82,1.8-2.79,3.38-6.1,7.59-3.25-.08,.8-.51,1.36-1.2,1.73-1.35,.48-2.91,.38-4.05,1.45Z"/><path class="dh" d="M502.62,235.93l-9.86,5.04c-.55-.22-1.22-.29-1.31-1.07,3.31-2.55,7.05-4.25,10.99-5.56,.53,.48,.59,1.01,.18,1.59Z"/><path class="fp" d="M526.7,228.39c-.83-.37-1.65-.74-2.48-1.12,4.23-1.28,8.57-1.92,12.97-2.12,.33,.22,.51,.53,.56,.93-.06,.39-.26,.69-.6,.9-3.48,.47-6.97,.94-10.45,1.41Z"/><path class="ck" d="M403.89,567.53c.46,.39,.91,.77,1.37,1.16-3.22,2.11-6.64,3.77-10.43,4.59-.48-.39-.96-.78-1.44-1.17,2.73-3.3,6.15-5.02,10.51-4.58Z"/><path class="at" d="M272.21,238.05c.03,1.37,.05,2.74,.08,4.11-2.89,1.23-5.78,.93-8.67-.02,2.56-2,5.48-3.25,8.59-4.09Z"/><path class="ha" d="M317.57,81.48c-2.33-3.21-4.66-6.42-6.99-9.63,.46-.32,.92-.64,1.38-.96,3.02,2.13,4.32,5.59,5.87,8.85,.38,.65,.29,1.23-.26,1.74Z"/><path class="cp" d="M239.04,242.32c-.8,1.61-1.56,.32-2.33-.03-1.4-1.12-2.96-1.26-4.62-.76l-.93,.75c-1.03,.12-1.7-.06-1.12-1.31,3.78-4.38,6.46-3.98,9.01,1.35Z"/><path class="fd" d="M434.46,364.91c1.51,2.78,1.78,5.9,2.38,8.93,.17,1.92-.74,2.1-2.21,1.38,1.06-3.45-2.99-6.82-.17-10.3Z"/><path class="fb" d="M344.73,394.86c-2.79,6.03-2.98,6.09-6.51,1.91,2.17-.64,4.34-1.28,6.51-1.91Z"/><path class="fj" d="M512.33,454.93c-.11-.22-.13-.45-.06-.69,3.14-.26,6.04,.51,8.79,2,.02,.88-.48,1.45-1.11,1.96-2.46-1.27-5.53-1.12-7.61-3.27Z"/><path class="gw" d="M215.76,242.24c-1.79,1.9,.42,4.44-1.01,6.5-3.2-1.32-1.4-4.25-2.12-6.31,.28-1.27,1.26-1.92,2.26-2.55,.72,.22,1.26,.66,1.56,1.36,.07,.54-.16,.87-.69,1.01Z"/><path class="cu" d="M199.72,242.25c-1.98,2.15,.06,4.58-.34,7.38-2.8-2.11-2.5-4.71-2.51-7.2,.81-.63,.63-2.1,1.95-2.31,.95-.42,1.29,.19,1.55,.92,0,.52-.21,.92-.65,1.2Z"/><path class="g`" d="M167.67,242.27l-1.07,1.3c-.76-.06-.82-.76-1.14-1.23h-.47c1.84-2.94,3.61-6.04,7.86-3.35,.44,.83-.07,1.31-.66,1.75-1.43,.73-3.32,.11-4.53,1.53Z"/><path class="fq" d="M417.18,561.24c-.4-.39-.81-.78-1.21-1.17,1.28-3.16,2.95-5.79,6.99-5.33,.23,.35,.47,.7,.7,1.05-1.57,2.52-4.02,3.99-6.48,5.45Z"/><path class="cg" d="M432.07,357.3c.49-1.54-.29-3.39,1.13-4.71,.13,3.98,2,7.86,.74,11.92-2.7-1.87-1.44-4.76-1.87-7.21Z"/><path class="eo" d="M119.76,242.26c-2.17,2.11,.04,4.58-.47,7.23-2.74-2.09-2.47-4.66-2.15-7.23,.55-.72,1.1-1.43,1.65-2.15,.96-.46,1.3,.17,1.58,.9,.01,.52-.19,.94-.61,1.25Z"/><path class="dt" d="M338.58,66.35c3.24,3.96,3.29,4.1,3.09,8.08q-2.57-2.6-3.09-8.08Z"/><path class="cb" d="M230.03,240.96c.37,.44,.75,.87,1.12,1.31,0,2.28,0,4.56,0,7.17-2.84-1.8-2.02-4.62-2.27-7.05,.38-.48,.76-.95,1.15-1.43Z"/><path class="ae" d="M263.62,242.14c2.89,0,5.78,.01,8.67,.02,.95,.51,1.13,1.39,1.14,2.36-1.11-.09-2.23-.18-3.35-.26-2.5-2.17-5.9,.25-8.44-1.67,.66-.15,1.32-.3,1.98-.45Z"/><path class="di" d="M483.17,246.11c-1.04,2.59-3.36,3.64-5.64,4.75-.97,.23-1.29-.1-.92-1.04,1.84-1.85,3.34-4.3,6.56-3.71Z"/><path class="gu" d="M199.82,241.05l-1-.93c3.27-4.2,5.62-1.32,8.04,1.04-.61,1.64-1.55,.92-2.46,.34-1.47-.73-3.11,.34-4.57-.44Z"/><path class="ek" d="M103.69,242.33c-2.03,1.84,.09,4.04-.65,6.79-2.55-2.1-1.79-4.62-1.98-6.8,.53-.72,1.06-1.45,1.59-2.17,.95-.49,1.28,.13,1.55,.86,.01,.51-.16,.95-.51,1.32Z"/><path class="dd" d="M394.35,74.75c-.16-2.82-.43-5.73,2.8-8.21-.03,3.48-.43,6.11-2.8,8.21Z"/><path class="cy" d="M119.83,241.11l-1.05-1c3.27-4.15,5.64-1.28,8.08,1.03-.62,1.67-1.55,.86-2.44,.3-1.49-.64-3.1,.34-4.59-.33Z"/><path class="gk" d="M483.14,438.94c2.2,1.44,4.4,2.89,6.61,4.33-.13,.69-.79,.81-1.23,1.16-2.48-1.01-4.64-2.5-6.63-4.26,.15-.68,.57-1.09,1.26-1.23Z"/><path class="el" d="M183.67,242.36c-2.11,1.82,.31,4.22-.69,6.74-2.59-2.1-1.71-4.6-1.91-6.78,.53-.72,1.05-1.44,1.58-2.16,.96-.47,1.28,.16,1.54,.89,0,.51-.17,.95-.53,1.31Z"/><path class="ew" d="M215.8,241.16l-.92-1.29c3-.94,6.15-2.6,8.11,1.64-.37,1.6-1.13,1.84-2.31,.68-1.45-1.21-3.19-.99-4.88-1.02Z"/><path class="ds" d="M539.93,459.45c-1.64,.33-3.52-.47-4.89,1.07-1.58-.07-3.43,.64-4.27-1.51l-.05,.13c3.13-1.61,6.17-.69,9.21,.3Z"/><path class="cq" d="M438.71,379.58c.64,2.5,3.37,4.69,1.16,7.63-1.45-1.77-2.11-3.85-2.35-6.09-.44-1.17,.02-1.63,1.2-1.54Z"/><path class="ex" d="M488.52,444.43c.41-.39,.82-.77,1.23-1.16,2.1,1.15,4.2,2.31,6.29,3.46,.1,1.01-.12,1.63-1.31,1.08-2.36-.6-4.43-1.73-6.22-3.38Z"/><path class="er" d="M537.19,225.95c.02-.26,.02-.53,0-.79,4.33-.22,8.65-1.27,13.01-.2-1.29,2.41-3.48,.93-5.26,1.22-2.6,.48-5.2,.92-7.75-.23Z"/><path class="gx" d="M473.32,432.51c3.13,.03,4.68,2.57,6.76,4.27-.17,.67-.61,1.03-1.28,1.13-2.08-1.54-4.89-2.35-5.48-5.4Z"/><path class="fb" d="M287.34,431.21c.74,3.69-.99,5.75-4.42,6.69,.98-2.55,2.39-4.83,4.42-6.69Z"/><path class="gs" d="M502.62,235.93c-.06-.53-.12-1.06-.18-1.59,1.47-1.19,3.22-1.7,5.03-2.05,1.21-.41,1.72,.04,1.58,1.29-2.14,.78-4.28,1.57-6.42,2.35Z"/><path class="fo" d="M460.29,418.54l-.89,.86c-1.89-1.38-3.4-3.08-4.41-5.21-.38-1.15,.11-1.41,1.15-1.13,1.67,1.61,3.29,3.26,4.16,5.48Z"/><path class="h`" d="M489.85,242.43c-1.75,1.63-3.42,3.42-6.15,3.12,1.04-2.08,2.16-4.06,4.81-4.38,.72,.13,1.18,.54,1.34,1.26Z"/><path class="gj" d="M476.61,249.82c.31,.35,.61,.7,.92,1.04-1.4,1.87-3.24,3.23-5.2,4.44-.6-.14-.93-.51-1.03-1.11,1.35-1.34,2.7-2.68,4.05-4.03,.42-.12,.84-.23,1.26-.35Z"/><path class="ef" d="M519.95,458.2c.02-.85,.33-1.54,1.11-1.96,2.11,.44,4.21,.88,6.32,1.32,0,2.03-1.23,1.4-2.31,1.05l-5.11-.4Z"/><path class="fl" d="M438.71,379.58c-.4,.51-.8,1.03-1.2,1.54-.96-1.97-1.93-3.94-2.89-5.9,1.06,.06,1.74-.49,2.21-1.38,.62,1.91,1.25,3.83,1.87,5.74Z"/><path class="eh" d="M431.4,337.46c1.27,3.57,1.36,7.14-.03,10.71-.55-3.57-.61-7.14,.03-10.71Z"/><path class="dl" d="M456.13,413.06l-1.15,1.13c-1.56-1.76-3.67-3.21-3.28-6.03,2.53,.68,3.4,2.85,4.42,4.9Z"/><path class="do" d="M509.04,233.58c-.53-.43-1.05-.86-1.58-1.29,1.78-1.22,3.71-1.96,5.9-1.95l.1,1.51c-1.47,.58-2.95,1.16-4.42,1.74Z"/><path class="fg" d="M183.72,241.35c-.35-.4-.71-.8-1.06-1.2,1.76-1.68,3.48-4.09,5.51-.26-.12,.21-.24,.41-.35,.62-1.27,.75-2.65,.92-4.09,.84Z"/><path class="gm" d="M251.75,240.16c.28-.35,.57-.71,.85-1.06,2.04,.15,2.29,1.71,2.57,3.25-.82,1.16-1.64,.8-2.44-.02-.45-.67-1.64-1.01-.97-2.18Z"/><path class="fm" d="M103.72,241.35l-1.08-1.21c1.77-1.7,3.51-3.99,5.56-.3-.19,.46-.49,.82-.94,1.05-1.17,.25-2.32,.62-3.55,.46Z"/><path class="ga" d="M478.8,437.91c.43-.38,.85-.75,1.28-1.13,1.02,.72,2.04,1.44,3.07,2.16-.42,.41-.84,.82-1.26,1.23-1.03-.76-2.06-1.51-3.09-2.27Z"/><path class="y" d="M152.1,241.54c1.7-2.77,3.72-.5,5.6-.35,.03,.3,.07,.6,.11,.9-1.95,.28-3.93,.94-5.71-.55Z"/><path class="gl" d="M525.06,458.61c.77-.35,1.54-.7,2.31-1.05,1.43-.14,2.76-.05,3.34,1.6l.05-.13c-1.96,.74-3.89,.93-5.7-.42Z"/><path class="gx" d="M448.45,404.6c.4-.42,.79-.84,1.19-1.26,1.1,1.48,2.73,2.73,2.14,4.95-2.08-.35-2.74-2-3.33-3.69Z"/><path class="eu" d="M191.29,242.34c-.86,.87-1.71,1.29-2.53-.05-.45-.67-1.63-1.09-.77-2.22l.17-.18c2.7-1.29,2.62,.95,3.12,2.45Z"/><path class="gv" d="M171.58,240.21c.43-.41,.85-.81,1.28-1.22,1.64,.53,2.15,1.84,2.33,3.38-.84,1.27-1.65,.75-2.45-.04-.48-.65-1.52-1.01-1.15-2.12Z"/><path class="du" d="M111.31,242.32c-.86,.98-1.7,1.16-2.53-.03-.45-.67-1.62-1.08-.78-2.2l.21-.23c2.76-1.34,2.54,1.05,3.1,2.47Z"/><path class="cr" d="M433.26,331.97c-1.23-.93-.8-2.39-1.17-3.6,.12-1.67,.23-3.33,.35-5,.34,.4,.67,.8,1.01,1.19l-.19,7.4Z"/><path class="ea" d="M317.57,81.48c.09-.58,.18-1.16,.26-1.74,.47,.26,1.12,.4,1.37,.79,.7,1.1,2.8,2.51,1.32,3.49-2.22,1.46-1.86-1.73-2.95-2.54Z"/><path class="fo" d="M494.74,447.81c.44-.36,.87-.72,1.31-1.08,1.12,.59,2.25,1.19,3.37,1.78-.04,.48-.09,.97-.13,1.45-1.76-.21-3.32-.83-4.55-2.16Z"/><path class="fe" d="M489.85,242.43c-.45-.42-.9-.84-1.34-1.26,.44-1.67,2.04-.66,2.94-1.27,.44,.36,.87,.72,1.31,1.07-.97,.49-1.94,.97-2.91,1.46Z"/><path class="bi" d="M592.34,287.67c3.51,1.81,6.14,4.61,8.65,7.57,4.02,3.37-1.07,4.82-1.52,7.25-.33,.39-.76,.61-1.25,.7-3.06,.02-2.09,2.37-2.12,3.93-.1,5.04-1.62,9.52-4.78,13.44-1.05,1.18-2.28,2.16-3.54,2.98-.33,.56-.74-.14-.11,.22,.06,.03,.4-.33,.74-.54,4.89-4.51,11.19-5.65,17.2-7.48,1.73-.08,3.44-.1,4.4,1.75,.33,2.68-.3,5.38,.09,8.06,.2,1.98,.84,3.84,1.7,5.62,2.74,2.67,7.07,2.35,9.71,5.18-2.28,1.55-2.12,3.81-2.1,6.23,.25,23.31-9.16,42.04-27.44,56.24-13.57,10.54-29.16,15.26-46.32,14.25-23.89-1.4-42.21-12.6-55.4-32.35-1.56-2.33-3.69-4.51-3.91-7.58,1.33-1.21,2.69-.45,4.04-.08,8.35,2.31,15.9,.59,21.75-5.68,6.04-6.48,13.06-10.18,21.78-11.7,8.31-1.45,15.11-9.37,15.33-16.43-.13-1.29,.1-2.51,.69-3.66,.19-.43,.4-.86,.6-1.28,.81-1.98,.64-3.97,.07-5.97-.31-.88-.71-1.72-1.1-2.57-.22-.44-.4-.89-.56-1.36-.73-2.18-1.31-4.37-1.05-6.7,.31-2.59,1.66-4.67,3.37-6.52,2.51-2.72,3.37-5.77,2.13-9.32-.29-1.51-.37-3.06-1.03-4.48-7.51-5.56-13.22-13.96-23.65-14.88-1.26-.11-2.49-.28-3.42-1.29h-8.93c20.29-10.33,39.64-11.46,59.48-3.29,1.13,6.2,.58,12.4-.04,18.6-.15,.47-.4,.88-.73,1.24-.86,.7-2.19,.69-2.77,1.81-.25,1.44,.5,2.52,1.25,3.6,1.14,1.49,2.84,2.27,4.24,3.42,1.6,1.42,3.6,2.41,4.71,4.36,.7,1.15,1.24,2.39,1.87,3.58l.35-.33c-.65-.31,.73-.64,.02-.54,1.55-4.14,1.51-8.53,2.22-12.79,.57-1.94,2.37-3.01,3.33-4.69,1.03-1.81,1.67-3.52-.41-5.05-.25-.47-.37-.97-.36-1.5,.45-1.36,1.03-2.52,2.81-1.97Z"/><path class="ad" d="M525.3,281.22c7-.69,13.01,.8,17.39,6.95,1.68,2.36,4.79,3.02,7.35,4.27,2.09,1.03,3.67,2.22,3.31,4.84,1.08,1.48,.45,2.93-.05,4.39-.86,1.78-2.12,3.32-3.14,5.01-.91,1.38-1.83,2.75-2.07,4.45-1.08,2.56-.5,5.15-.13,7.73-.05,2.5,.7,4.74,2.22,6.73l-.07-.13c0,2.21,1.04,4.31,.77,6.56-.59,2.72-1.54,5.32-2.92,7.74-1.58,3.13-4.73,4.83-6.8,7.51-.46,.56-1.01,1.02-1.66,1.35-1.49,.48-3.16,.43-4.47,1.48-.36,.28-.75,.49-1.17,.68-1.55,.18-3.12,.29-4.53,1.08-1.81,.81-3.75,.87-5.67,1.05-4.53,1.33-6.93,4.98-9.35,8.6-.4,.65-.92,1.18-1.57,1.58-1.57,.77-3.04,1.71-4.48,2.72-2.43,1.74-5.03,3.08-8.01,3.57-7.03,1.8-13.34,.94-18.26-4.98l.1,.1c-1.72-1.92-2.91-4.15-3.86-6.53-1.11-2.07-1.87-4.22-1.59-6.62-.43-3.46,.39-6.66,2.07-9.66-1.58-2.4-3.22-4.77-4.25-7.48-4.6-6.04-4.26-10.88,.98-16.68,3.23-3.58,7.6-6.21,9.47-10.91,.86-2.15,1.38-4.38,1.5-6.78,.75-15.14,11.79-19.51,24.18-18.23,4.97,.52,9.84,1.57,14.7-.36Z"/><path class="fa" d="M598.66,302.59c-1.51-3.17,4.56-3.95,2.32-7.35,.67-2.41,1.22-4.87,2.04-7.23,.55-1.58,1.95-3.42,3.54-2.12,2.24,1.84,3.25,1.84,4.85-.62,1.2-1.84,2.86-4.32,5.5-3.42,2.65,.9,1.74,3.85,2.06,6.56,4.04-4.07,7.87-.33,11.39,.36,3.65,.72,1.34,4.25-.22,6.48-.76,1.92-2.5,2.64-4.24,2.87-6.71,.89-11.63,5-16.49,8.6,1.79-.24,3.41-.3,2.51,2.6-.43,.7-.85,1.39-1.28,2.09-1.05,2.42-3.63,2.82-5.48,4.19-4.94,1.76-9.54,4.63-15.03,4.55,3.42-4.85,5.48-10.07,4.52-16.15-.19-1.21-.52-2.72,1.04-3.25,1.54-.53,2.01,1.19,2.97,1.88,.66,.66,.52,1.67,1.37,2.95-.78-1.32-.71-2.31-1.37-2.98Z"/><path class="fa" d="M590.11,289.89c-.02,.34,.03,.67,.14,1,1.36,2.09-.33,3.66-.91,5.43-.46,1.42-2.35,2.41-1.32,4.29,.1,4.75,.16,9.49-2.82,13.6-2.13-.14-2-2.28-3.03-3.4-1.08-1.83-3-2.75-4.52-4.1-1.25-1.02-2.71-1.72-4-2.68-1.13-1.78-2.01-3.69-2.76-5.66,1.02-1.63,2.61-.99,4.04-1.02,.96,1.27,3.45-.34,3.81,2.04-.24-2.63-2.85-.78-3.82-2.03,.09-6.49-.77-13.02,.92-19.44-.18-3.71,1.41-7.27,.53-11.13-.47-2.05-.41-5.2,2.13-6.06,3.37-1.15,3.68,2.47,5.05,4.32,.45,.56,.22-.32,.39,.33,1.78,6.91,6.9,13.23,4.25,20.88-.89,2.56,2.24,1.96,1.91,3.62Z"/><path class="av" d="M539.37,347.62l.04-.41,.41-.05c2.87-1.89,5.58-3.97,7.53-6.87,.89-.67,1.06-2.47,2.8-1.78,1.29,1.85,1.08,3.64-.05,5.5-4.1,6.81-9.21,12.23-17.63,13.42-6.33,.9-12.06,3.01-16.43,8.09-8.1,9.42-17.92,12.5-29.72,7.6-1.37-2.25-4.17-3.6-4.21-6.69,4.9,.58,8.87,4.83,14.3,3.47,1.36-.34,2.86-.16,4.15-.89,3.05-.32,5.51-1.91,7.89-3.66,1.4-.77,2.65-1.73,3.68-2.98,.42-.42,.85-.83,1.27-1.25,3.28-3.17,6.48-6.41,9.68-9.66,2.26,.11,4.51,.16,6.55-1.06,1.47,.19,2.98,.65,4.31-.46-.23-.25-.22-.5,.03-.73,1.89-.2,3.92,.07,5.38-1.59Z"/><path class="bn" d="M611.92,309.32c-.07-2.55-2.76-1.55-3.84-2.7,5.84-6.89,13.94-9.14,22.06-11.37,1.39,1.91,6.2,.31,5.08,4.67-.86,3.34-3.65,3.92-6.75,4.03-6,.21-11.47,2.24-16.55,5.37Z"/><path class="bp" d="M590.11,289.89c-2.1-1.07-4.6-1.45-2.61-5.15,1.16-2.14,2.02-5.53-2-7.21-1.61-.67-.82-2.97-.78-4.51,.08-2.74-.52-5.34-1.16-7.96,1.58-.93,1.87-4.03,4.49-3.07,2.53,.93,3.08,3.39,3.12,5.78,.05,2.86-.17,5.73-.33,8.6-.05,.87-.55,2.42-.35,2.51,4.9,2.08,1.67,5.8,1.86,8.8-1.07,.41-1.78,1.18-2.23,2.22Z"/><path class="fc" d="M608.72,326.09c.06-2.82-.66-5.7,.7-8.41,.62-.82,1.3-1.45,2.43-.95,1.43,.92,1.45,3,4.31,3.02,3.54,.02,7.58,8.14,6.47,11.28-5.54,.9-10.74,.84-13.91-4.93Z"/><path class="cq" d="M501.48,369.8c-7.17,3-13.43,.76-19.36-3.36-.04-.68-.09-1.37-.13-2.05,4.01,1.26,7.16,4.67,11.75,4.53,2.29-.07,4.54-.13,6.69-.99,.78,.39,1.67,.71,1.05,1.88Z"/><path class="ak" d="M621.5,336.34c-3.85-.84-7.69-1.71-10.79-4.39,4.15-2.79,7.95-1.13,11.72,.91,.15,1.28,.38,2.59-.93,3.48Z"/><path class="ca" d="M622.42,332.85c-3.88-.61-7.69-2.23-11.72-.91-1.26-1.75-1.63-3.8-1.99-5.85,4.03,3.35,9.22,3.45,13.91,4.93-.07,.61-.14,1.22-.21,1.83Z"/><path class="ft" d="M471.3,254.19c.34,.37,.68,.74,1.03,1.11-3.6,3.6-7.21,7.21-10.81,10.81-.45-.22-.76-.57-.91-1.06,2.77-4.4,6.52-7.83,10.69-10.86Z"/><path class="bk" d="M611.85,316.73c-.81,.32-1.62,.64-2.43,.95-1.23-1.3-2.88-.59-4.32-.9-.58-.94-.46-1.83,.22-2.67,1.39-1.66,3.64-1.63,5.33-2.7,1.85,1.44,2.92,3.06,1.21,5.31Z"/><path class="ao" d="M474.45,334.18c2.8,1.71,4.45,4.07,4.26,7.49-3.7-1.2-5.99-3.2-4.26-7.49Z"/><path class="fs" d="M449.75,279.07c1.75-3.18,3.65-6.25,6.27-8.81,.66,.14,1.05,.55,1.18,1.22-2.12,2.98-4.24,5.95-6.35,8.93-.74-.13-.82-.81-1.09-1.33Z"/><path class="bw" d="M441.07,295.27c1.54-3.38,2.43-7.12,5.36-9.74,.38-.36,.75-.35,1.11,.02-1.28,3.95-3.28,7.55-5.32,11.13-.77-.16-.85-.87-1.15-1.41Z"/><path class="dq" d="M476.64,351.33c1.69,1.88,1.11,4.51,2.16,6.6,.68,1.06,.79,1.89-.81,2.05-.66-2.85-4.26-5.24-1.35-8.65Z"/><path class="co" d="M457.19,271.47l-1.18-1.22c1.42-1.83,2.34-4.1,4.59-5.2,.3,.35,.61,.7,.91,1.06l-4.32,5.36Z"/><path class="db" d="M477.99,359.98c.27-.68,.54-1.37,.81-2.05,1.25,2.1,3.23,3.85,3.29,6.55-2.73-.26-3.25-2.53-4.1-4.5Z"/><path class="cj" d="M447.54,285.55c-.37,0-.74-.02-1.11-.02-.08-2.19,1.87-3.54,2.3-5.53,.34-.31,.68-.62,1.02-.93,.36,.44,.73,.89,1.09,1.33-.78,1.92-1.53,3.86-3.29,5.15Z"/><path class="bv" d="M441.07,295.27c.38,.47,.77,.94,1.15,1.41-.49,1.31-.97,2.62-1.46,3.93-.36-.44-.72-.89-1.08-1.33,.46-1.34,.92-2.68,1.39-4.01Z"/><path class="di" d="M537.19,225.95c2.58,.08,5.17,.15,7.75,.23-2.55,.74-5.15,.95-7.79,.81,0-.35,.02-.69,.04-1.04Z"/><path class="ax" d="M104.01,365.56c1.47,.25,4.01-.83,3.68,2.22-.34,3.05-1.99,4.86-5.39,4.22-1.55-.29-4.1,.75-3.74-2.27,.36-2.99,1.86-5.03,5.45-4.16Z"/><path class="be" d="M203.86,371.81c-.73-.38-3.22,1.38-3.08-1.41,.16-3.18,1.67-5.52,5.43-4.87,1.44,.25,4.1-1.23,3.86,1.92-.26,3.32-2.09,5.23-6.2,4.36Z"/><path class="ax" d="M163.31,297.22c-.53-.25-2.98,1.38-2.52-1.76,.5-3.43,2.32-5.07,5.82-4.48,1.33,.22,3.69-.88,3.49,1.79-.28,3.64-2.38,5.41-6.79,4.45Z"/><path class="bf" d="M212,347.22c.85,.46,3.36-1.32,3.19,1.51-.19,3.22-1.73,5.43-5.5,4.86-1.6-.25-3.95,.54-3.64-2.45,.35-3.41,2.45-4.5,5.96-3.91Z"/><path class="bd" d="M192.66,347.66c-.12-.05,2.63-1.74,2.26,1.53-.31,2.72-1.54,4.8-4.88,4.41-1.84-.21-4.42,.55-4.12-2.65,.29-3.04,2.11-4.47,6.74-3.3Z"/><path class="bb" d="M121.58,371.69c-.21-.06-2.84,1.14-2.5-1.94,.3-2.68,1.48-4.89,4.88-4.24,1.57,.3,4.27-.95,4.21,1.81-.06,2.92-1.71,5.16-6.59,4.37Z"/><path class="ay" d="M165.35,365.59c1.27,.41,4.01-1.26,3.63,2-.31,2.72-1.54,4.81-4.88,4.4-1.82-.22-4.43,.63-4.1-2.63,.3-3.03,2.08-4.5,5.35-3.78Z"/><path class="ax" d="M224.67,297.28c-.63-.2-3.01,1.04-2.6-1.89,.43-3.08,1.97-4.88,5.42-4.46,1.78,.22,3.91-.16,3.63,2.62-.36,3.5-2.68,4.33-6.45,3.73Z"/><path class="ax" d="M186.62,365.66c.68,.21,3.11-1.03,2.93,1.59-.2,2.88-1.47,5.24-5.12,4.74-1.66-.22-4.01,.54-3.92-2.31,.11-3.44,2.22-4.65,6.11-4.03Z"/><path class="aw" d="M196.68,328.84c.86,.52,3.66-1.57,3.33,1.8-.3,3.02-1.73,5.06-5.22,4.55-1.59-.23-4.03,.65-3.88-2.22,.17-3.24,2.05-4.8,5.78-4.13Z"/><path class="ax" d="M128.35,353.12c-1.94,.14-4.42,1.25-4.04-2.22,.33-3.03,2.28-4.28,5.21-3.77,1.43,.25,4.15-1.19,3.8,1.9-.3,2.66-1.14,5.57-4.97,4.08Z"/><path class="ba" d="M214.64,335.19c-1.41-.14-3.41,.24-3.24-2.21,.23-3.25,2.13-4.84,5.38-4.22,1.35,.26,3.9-1.5,3.78,1.83-.14,3.77-2.75,4.48-5.92,4.59Z"/><path class="ax" d="M150.29,347.1c1.18,.52,3.93-1.2,3.56,2.07-.31,2.71-1.53,5.03-4.84,4.31-1.56-.34-4.41,.86-4.21-2.56,.16-2.65,1.8-3.82,5.49-3.82Z"/><path class="bh" d="M78.18,371.61c-.24-5.38,2.53-6.67,7.07-6.13,1.95,.23,2.39,.9,1.93,2.73-1.43,5.73-5.63,3.17-9,3.39Z"/><path class="bc" d="M145,365.5c1.2,.46,3.86-1.1,3.44,2.19-.4,3.15-2.13,4.78-5.46,4.31-1.47-.21-3.43,.5-3.46-2.11-.03-2.85,1.81-4.41,5.48-4.38Z"/><path class="ax" d="M204.69,297.27c-.69-.4-3.25,1.41-2.84-1.66,.38-2.89,1.53-5.14,5.09-4.66,1.6,.22,4.2-.59,3.98,2.01-.25,3.12-2.14,5.24-6.23,4.3Z"/><path class="ax" d="M184.59,297.43c-1-.56-3.54,1.24-3.28-1.67,.25-2.84,1.34-5.15,4.99-4.85,2.08,.17,4.01,.08,3.82,3.03-.23,3.63-2.78,3.57-5.53,3.48Z"/><path class="ax" d="M143.01,297.07c-.42-.3-3.24,1.75-2.65-1.33,.56-2.98,2.23-5.37,5.93-4.75,1.32,.22,3.7-.89,3.28,2-.48,3.31-2.14,5.34-6.55,4.08Z"/><path class="ax" d="M123.79,297.27c-1.34-.16-4,.99-3.65-2.01,.36-3.06,2.34-4.76,5.63-4.27,1.33,.2,3.7-.84,3.24,2.02-.44,2.74-.89,5.76-5.22,4.27Z"/><path class="b`" d="M134.22,334.85c-2.85,.41-4.79,.57-4.52-2.18,.25-2.6,1.62-4.39,4.53-3.91,1.6,.27,4.54-1.41,4.47,1.72-.07,2.93-1.04,6.16-4.48,4.37Z"/><path class="bl" d="M156.1,328.72c1.16,.38,3.61-.9,3.15,2.03-.42,2.62-1.41,5.23-4.81,4.2-1.44-.44-4.48,1.41-4.26-2.3,.17-2.88,1.86-4.06,5.92-3.92Z"/><path class="ax" d="M169.4,353.44c-1.22-1-4.47,1.22-4.05-2.47,.35-3.05,2.24-4.35,5.2-3.83,1.43,.25,4.1-1.26,3.84,1.91-.23,2.77-1.83,4.58-5,4.39Z"/><path class="ay" d="M107.35,353.43c-.93-.77-3.63,.7-3.47-1.77,.18-2.81,1.43-5.31,5.14-4.55,1.54,.32,4.17-.96,4.08,1.97-.11,3.26-2.48,4.43-5.74,4.35Z"/><path class="b`" d="M176.23,328.8c1.23,.3,3.72-.96,3.59,1.51-.17,3.22-2.41,4.89-5.72,4.86-1.61-.01-3.52,.19-3.35-2.24,.23-3.27,1.99-4.85,5.48-4.12Z"/><path class="aw" d="M115.48,329.05c.42,.18,3-1.57,2.76,1.83-.29,4.17-3.25,3.78-6.11,3.98-1.57,.11-3.18,.51-2.86-1.72,.41-2.86,1.58-5.27,6.2-4.08Z"/><path class="bg" d="M86.74,352.8c-.84-.41-3.51,1.74-3.28-1.2,.25-3.12,1.86-5.43,5.61-4.62,1.32,.29,3.83-1,3.56,1.69-.3,3.03-1.42,5.91-5.89,4.12Z"/><path class="bn" d="M139.24,316.04c-1.23-.53-4.35,1.47-4.07-2.08,.26-3.26,2.62-4.02,5.44-3.59,1.33,.2,3.81-.96,3.52,1.75-.26,2.43-.68,5.54-4.89,3.92Z"/><path class="bm" d="M182.43,310.45c.67,.29,2.77-1.15,2.52,1.63-.38,4.31-3.44,4.37-6.57,4.2-1.18-.06-3.13,.75-2.68-1.97,.64-3.86,3.16-4.36,6.73-3.86Z"/><path class="bn" d="M201.91,310.33c1.08,.6,3.58-1.26,3.52,1.54-.08,3.57-2.36,5.03-5.76,4.39-1.23-.23-3.56,1.32-3.49-1.73,.07-2.86,1.8-4.17,5.73-4.2Z"/><path class="bm" d="M118.89,316.05c-1.89,.29-4.12,.59-4.17-1.92-.06-3.23,2.3-4.21,5.2-3.76,1.35,.21,3.83-1.06,3.69,1.6-.13,2.61-1.19,5.09-4.72,4.08Z"/><path class="bl" d="M222.8,310.43c.86,.47,3.24-1.33,3.19,1.55-.05,3.22-2.45,4.34-5.03,4.17-1.28-.08-4.1,.91-4.04-1.88,.07-3.47,2.5-4.34,5.88-3.84Z"/><path class="bm" d="M164.42,310.48c.17,4.5-2.04,6.14-5.97,5.81-1.76-.15-3.36-.84-2.63-3.03,1.62-4.86,5.49-2.38,8.6-2.78Z"/><path class="am" d="M94.5,328.87c.7,.42,3.51-1.74,3.36,1.49-.13,2.78-1.67,4.8-4.92,4.06-1.4-.32-4.13,1.49-3.93-1.75,.16-2.74,1.47-4.86,5.49-3.8Z"/><path class="am" d="M100.36,310.5c.45,.21,3.16-1.58,2.8,1.73-.33,3.01-2.08,4.46-5.14,3.79-1.39-.3-4.06,1.25-3.69-2.02,.33-2.94,1.99-4.5,6.02-3.5Z"/><path class="an" d="M106.52,292.02c-.12-.04,2.24-1.29,2.02,1.38-.24,3.03-1.83,4.99-5.26,4.24-1.38-.3-3.97,1.21-3.63-2.04,.35-3.23,2.19-4.66,6.86-3.57Z"/><path class="aa" d="M434.72,496.39c-4.66,20.98-15.57,38.06-32.09,51.68-2.03,1.67-4.19,2.28-6.85,2.15-4.3-.22-8.63,0-12.95,.05-2.1-.74-4.22-.64-6.3,.02-1.93,.61-4.01,.89-5.83,.33-9.44-2.94-19.17-1.53-28.76-2.12-1.02-.16-1.93-.53-2.63-1.33-12.17-4.42-17.87-16.05-15.2-29.19,3.17-15.62,6.52-31.18,11.03-46.47,.33-1.99,1.81-2.84,3.45-3.55,3.56-1.47,7.3-1.19,11.02-1.08,4.58,.54,8.34,2.73,11.68,5.78,1.77,1.68,2.95,3.8,4.3,5.8,1.11,1.32,1.92,2.77,2.1,4.51,.44,7.38,.37,14.68-3.3,21.42-.64,1.16-1.2,2.37-1.72,3.59-.15,.29-.32,.58-.5,.87-.18,.29-.37,.57-.58,.83,.33-.11,.4-.47,.64-.7,.72-.97,.95-2.14,1.53-3.15,.59-1.08,1.13-2.2,2.18-2.95,2.89-1.46,5.53-3.69,9.11-3.15,1.21-.12,2.48-.04,3.39-1.08,.91-1.07,1.94-.97,3.03-.3,8.42-1.98,16.88-1.07,25.16,.39,8.96,1.58,17.5,1.07,25.94-2.17,.64-.24,1.42-.11,2.13-.15Z"/><path class="aj" d="M364.2,479.01c-1.13-1.73-2.26-3.46-3.39-5.19-.42-.88,.11-1.44,.68-1.98,3.07-3.24,3.45-7.27,3.47-11.44,.01-2.31-.21-4.64,.56-6.89,.8-1.8,2.44-2.62,4.06-3.46,1.91-1.16,4.28-1.77,5.02-4.31,.2-.44,.49-.81,.85-1.11,1.89-1.6,5.06-2.01,4.99-5.39-.35-1.62-2.08-2.32-2.56-3.85,.08-2.63,4.21-4.94,.59-7.84-3.07-2.51-6.25-4.89-9.28-7.42-3.28-2.74-6.08-2.26-9.03,.53-6.48,6.13-10.18,13.94-13.18,22.07-2.48,6.73-5.77,13.22-6.75,20.47-.19,1.43-.94,2.72-2.06,3.71-2.96,.86,2.05,1.53,.06,2.37-1.03,.74-2.06,1.49-3.08,2.23-2.29-1.58-.46-3.13,.02-4.71,.93-3.06,2.43-6.05,1.83-9.37-1.28-7.1-5.66-9.11-16.28-6.82,7.39-7.87,7.34-15.08-.47-21.43,.4-.68,.54-1.2,.77-1.24,13.31-2.81,15.14-5.08,14.35-18.29-.08-1.31-.53-2.64,.86-3.26,.63-.28,1.77,.09,2.46,.52,2.71,1.68,4.8,5.55,8.79,2.6,2.98-2.21,3.43-5.66,3.94-9.02,.05-.32,.35-.59,.61-.99,2.79,.28,3.19,3.13,4.7,4.69,5.15,5.3,8.96,5.56,14.38,.44,.76-.71,1.42-1.92,2.6-1.55,1.15,.36,1.14,1.63,1.31,2.72,1.05,6.61,7.03,10.42,13.71,8.76,1.43-.36,2.96-.82,4.03,.36,1.24,1.36-.15,2.67-.62,3.95-2.83,7.73,1.19,14.04,9.49,14.79,1.59,.14,3.4-.24,3.62,2.15-.78,2.46-3.09,3.42-4.89,4.83-2.42,1.89-4.72,3.87-6.6,6.33-2.89,3.78-3.66,7.52-1.03,11.95,1.85,3.12,.62,4.66-2.98,4.57-.9-.02-1.78-.25-2.67-.4-10.77-1.8-15.13,.46-19.69,10.23-1.48,1.67,.44,5.25-3.18,5.73Z"/><path class="gp" d="M339.32,547.16l2.17,.18c5.24,1.88,10.7,.33,16.02,1,2.95,.66,5.97,.68,8.96,.99,3.55,.86,7.34,.4,10.76,1.99,3.08,.1,6.15,.19,9.23,.29,3.14,.58,6.28,.71,9.42-.03,8.75-.21,17.48-1.17,26.22,.94,2.63,.64,.73,1.46,.87,2.21-2.82,1.13-4.75,3.44-6.99,5.33-4.03,2.49-8.05,4.98-12.08,7.46-3.5,1.53-7,3.05-10.51,4.58-3.35,.36-6.28,2.53-9.77,2.24,1.16-3,0-4.94-3.08-4.4-5.67,.99-11.19-2.4-16.86-.19-1.23,.48-3.49,.45-3.93-.94-1.7-5.37-5.55-7.35-10.68-8.48-1.74-.38-5.23-1.13-4.13-5.04,.22-.77-1.85-1.36-3.11-1.64-6.36-1.44-6.57-2.01-2.5-6.49Z"/><path class="gp" d="M366.3,472.59c4.19-10.15,9.51-12.77,21.8-10.9,1.42,.21,3.21,2.01,4.36-.03,.92-1.62-1.3-2.26-1.89-3.48-1.61-3.31-1.54-6.48,.39-9.66,3.47-5.72,8.61-9.52,14.27-12.75,2.03,3.46,3.52,5.97,1.81,11.11-3.16,9.49-9.07,18.88-6.16,29.8,.25,.93,.07,2.57-.54,3.04-3.95,3.04-7.5,5.97-3.86,11.59,.49,.76-.48,2.13-1.65,2.41-1.26,.3-1.8-.7-2.4-1.67-3.95-6.4-5.22-6.7-11.14-2.53-1.25,.88-2.34,1.63-3.9,.96-1.74-.75-3.6-1.17-4.91,.56-1.45,1.9-.51,3.66,.79,5.36,.75,.98,1.2,2.2,1.79,3.31-2.96,1.35-5.92,2.7-8.88,4.05-1.7-3.88,1.45-7.21,1.24-10.91,.02-2.85,.03-5.71-.01-8.57-.03-.86-.25-1.68-.47-2.51-.14-3.07-1.68-6.04-.64-9.18Z"/><path class="fb" d="M322.3,502.42c-4.2-5.17-4.44-11.58-7.5-16.86-3.72-6.4-6.32-13.47-9.13-20.36-1.43-3.5-.17-7.05,1.59-10.07,.97-1.67,3.6-1.57,4.78-.22,1.51,1.72,4.96,3.9,3.46,5.9-4.24,5.64-.09,8.18,3.24,10.96,5.85,4.87,8.81,13.2,6.21,20.42-1.16,3.23,.42,6.97-2.65,10.24Z"/><path class="fb" d="M299.32,486.34c0,7.96-1.43,9.47-6.48,7.9-1.77-.55-2.09-1.7-2.59-3-3.37-8.77-6.97-17.42-5.12-27.28,.52-2.78,1.43-2.67,3.39-2.09,4.95,1.45,7.41,6.25,8.08,9.88,.91,4.98,3.94,9.75,2.72,14.6Z"/><path class="fb" d="M307.76,552.11c-10.62-1.44-14.69-9.25-17.72-16.84-2.32-5.83-5.21-11.25-8.05-16.75-2.11-4.09,.79-8.34-.65-12.63,3.93,1.56,6.47,4.26,7.13,8.49,.22,1.41-.05,2.93,1.12,4.03,3.41,3.23,4.44,7.46,6.19,11.65,2.61,6.25,3.32,14.03,9.71,18.5,.93,.65,1.33,2.04,2.27,3.56Z"/><path class="gp" d="M411.03,454.2c1.35,4.29,2.21,7.27,3.6,10.06,1.03,2.08-1.9,3.43-3.83,4.4-1.77,.89-2.61-.22-3.39-1.58-1.1-1.92-.99-3.31,1.32-4.24,3.7-1.48,1.11-4.67,2.3-8.65Z"/><path class="gp" d="M412.8,474.43c1.41,.29,4.61-2.42,4.7,.76,.09,3.14-4.03,2.76-6.44,3.4-1.7,.45-2.52-1.11-2.43-2.69,.17-3.06,2.15-1.99,4.18-1.47Z"/><path class="ej" d="M317.25,464.85c2.32-3.9,5.39-4.49,9.22-5.47-2.45,3.48-5.18,4.68-9.22,5.47Z"/><path class="by" d="M311.46,441.19c2.54-.8,4.94-2.47,9.13-1.61-3.69,2.39-6.17,3.41-9.13,1.61Z"/><path class="gp" d="M381.48,498.32c-1.01,.1-2.02,.2-3.03,.3-1.85-1.15-.93-3.02,.03-3.33,2.28-.74,2.62,1.36,3,3.02Z"/><path class="gb" d="M453.78,486.43c-.06,2.58,1.45,5.43-1.32,7.54,.44-2.51,.88-5.03,1.32-7.54Z"/><path class="fb" d="M324.47,416.22c-.47,.24-.88,.61-1.3,.63-.93,.04-1.08-.71-.88-1.37,.1-.34,.66-.55,1.01-.81,.27,.36,.55,.73,1.17,1.55Z"/><path class="fb" d="M373.03,576.4c-1.72,1.14-3.64,.79-5.53,.73,1.69-1.4,3.67-.61,5.53-.73Z"/><path class="ey" d="M374.97,269.16c-24.35,4.71-45.12-3.06-63.75-18.28-.2-.96,.05-1.45,1.12-1.08,13.59,10,28.18,17.54,45.42,18.61,3.58,.53,7.16,.72,10.72-.12,1.01-.06,2.02-.11,3.03-.17,1.32-.21,2.95-1.47,3.45,1.03Z"/><path class="c`" d="M374.97,269.16c-.9-1.19-2.25-.87-3.45-1.03,9.16-2.01,17.93-5.11,26.19-9.6,.62,.38,.65,.81,.1,1.28-6.81,5.08-14.63,7.68-22.84,9.35Z"/><path class="ec" d="M380.03,190.57c-4.44,5.18-14.36,7.35-20.79,4.71,7.07-.93,14.22-1.47,20.79-4.71Z"/><path class="cv" d="M397.81,259.81l-.1-1.28c5.39-3.64,10.78-7.28,16.17-10.92,.38,.39,.76,.78,1.15,1.17-5.3,4.37-10.11,9.49-17.22,11.03Z"/><path class="dv" d="M361.65,155.06q-.35,6.79,4.49,6.48c-1.07,2.64-2.96,2.9-5.1,2.35-1.59-.41-3.15-1.16-3.42-3.01-.45-3.05,1.85-4.21,4.03-5.82Z"/><path class="fi" d="M348.55,162.77c3.66,1.86,6.34,5.23,10.46,6.3-5.22,.93-8.47-1.63-10.46-6.3Z"/><path class="cl" d="M312.35,249.8c-.37,.36-.75,.72-1.12,1.08-3.59-2.47-7.03-5.1-9.66-8.65,.17-.4,.46-.67,.88-.79,3.78,2.22,6.66,5.5,9.9,8.36Z"/><path class="dj" d="M403.11,142.59c.95,.26,2.07,.9,1.54,1.26-2.41,1.6-.37,5.31-2.92,6.32-1.68,.67-1.82-1.31-1.67-2.5,.27-2.16,.96-4.16,3.05-5.07Z"/><path class="cd" d="M322.33,150.55c-2.57-1.77-.46-5.1-3.06-6.26-.1-.05-.02-1.03,.24-1.27,.6-.54,1.4-.37,1.89,.2,1.73,2.03,2.45,4.27,.92,7.33Z"/><path class="da" d="M341.62,134.4c1.31-3.81,3.94-4.38,6.77-4.38,.16,.45,.33,.89,.49,1.34l-7.26,3.04Z"/><path class="gq" d="M386.4,135.66l-6.84-3.08,.57-1.37c2.53,.58,5.28,.61,6.28,4.45Z"/><path class="dw" d="M379.49,145.56c1.09,.52,1.53,1.44,1.37,2.59-.13,.9-.55,1.91-1.58,1.81-1.45-.15-1.27-1.47-1.23-2.5,.04-.91,.26-1.77,1.44-1.9Z"/><path class="fr" d="M344.63,149.97c-1.33-.02-1.81-.74-1.95-1.67-.17-1.14,.06-2.32,1.31-2.59,1.02-.22,1.53,.69,1.71,1.62,.24,1.2-.29,2.05-1.08,2.64Z"/><path class="c`" d="M368.49,268.29c-3.56,1.67-7.13,1.51-10.72,.12,3.57-.04,7.15-.08,10.72-.12Z"/><path class="fd" d="M302.45,241.44c-.29,.26-.59,.52-.88,.79-1.05-.39-1.78-1.09-2.15-2.15,.29-.26,.59-.53,.88-.79,1.21,.22,1.85,1.02,2.16,2.16Z"/><path class="cw" d="M386.97,109.33c.07-1.03,.16-2.51,1.29-2.42,1.38,.1,.62,1.55,.63,2.45-.64,0-1.28-.02-1.93-.03Z"/><path class="bp" d="M249.76,424.87l-.33-2.1c5.81-42.21,11.61-84.41,17.41-126.62,.1-.71,.14-1.43,.2-2.15,.12-1.58,.6-2.85,2.51-2.82,2.34,.04,1.82,1.77,1.74,3.12-.34,5.38-.71,10.77-1.12,16.15-2.74,36.05-5.62,72.1-8.12,108.17-.35,5.09-1.75,7.18-6.9,6.31-1.75-.3-3.59-.05-5.39-.05Z"/><path class="es" d="M165.33,414.34c5.01,0,10.01,0,15.02,0-5,1.45-10.01,1.43-15.02,0Z"/><path class="es" d="M204.25,414.34c4.28,0,8.57,0,12.85,0-4.28,1.46-8.57,1.45-12.85,0Z"/><path class="es" d="M104.79,414.34c3.56,0,7.13,0,10.69,0-3.56,1.47-7.13,1.46-10.69,0Z"/><path class="es" d="M116.67,414.34c3.56,0,7.13,0,10.69,0-3.57,1.45-7.13,1.46-10.69,0Z"/><path class="es" d="M135.06,414.34c3.2,0,6.41,0,9.61,0-3.2,1.41-6.41,1.41-9.61,0Z"/><path class="v" d="M159.8,412.93c-7.89,0-15.78,.02-23.67,.02,3.11-2.93,7.09-.98,10.56-1.46,4.17-.58,9.09-1.85,13.11,1.44Z"/><path class="w" d="M189.01,412.94c-5.73,0-11.47-.02-17.2-.02,.25-.47,.57-1.38,.75-1.35,5.46,.82,11.17-1.36,16.45,1.37Z"/><path class="t" d="M135.87,241.27c2.03-1.89,3.68-1.84,4.82,.92-1.71,.21-3.48,.77-4.82-.92Z"/><path class="o" d="M171.58,240.21c.38,.71,.77,1.42,1.15,2.12-1.69-.02-3.37-.04-5.06-.06,.66-1.91,2.13-2.27,3.91-2.06Z"/><path class="ac" d="M107.99,240.08c.26,.73,.52,1.47,.78,2.2-1.7,.01-3.39,.03-5.09,.04-.03-.33-.02-.65,.03-.97,1.25-1,2.69-1.37,4.27-1.27Z"/><path class="ac" d="M188,240.07c.26,.74,.51,1.48,.77,2.22-1.7,.02-3.39,.05-5.09,.07-.03-.34-.02-.67,.05-1,1.25-1,2.7-1.35,4.28-1.28Z"/><path class="p" d="M215.8,241.16c2.04-1.63,3.78-1.82,4.88,1.02-1.64,.02-3.28,.03-4.93,.05,.06-.36,.08-.71,.05-1.07Z"/><path class="o" d="M251.75,240.16c.32,.73,.65,1.45,.97,2.18-1.79-.02-3.58-.04-5.38-.05,.98-1.71,2.45-2.42,4.4-2.12Z"/><path class="u" d="M232.08,241.52c1.97-2.36,3.4-1.43,4.62,.76-1.6,.13-3.26,.56-4.62-.76Z"/><path class="m" d="M119.83,241.11c1.58-.64,3.21-1.97,4.58,.33-1.35,1.42-3.03,.95-4.66,.81,.03-.38,.05-.76,.08-1.15Z"/><path class="q" d="M199.82,241.05c1.59-.53,3.26-1.93,4.57,.44-1.38,1.37-3.05,.89-4.67,.75,.03-.4,.06-.79,.1-1.19Z"/><path class="dr" d="M165.46,242.34c.38,.41,.76,.82,1.13,1.23,.16,1.31,.32,2.62,.48,3.93-2.34-1.34-1.98-3.25-1.61-5.16Z"/><path class="cc" d="M357.72,549.36c-4.03-.07-8.06-.08-12.08-.26-1.53-.07-3.72,1.03-4.16-1.76,9.42-.41,18.75-1.1,28.13,1.6,4.08,1.18,8.85,.2,13.22,1.32-1.82,.62-3.98-.56-5.61,1.06-3.72,1.05-7.13-1.46-10.8-.97-2.78-1.41-5.91,.3-8.7-1Z"/><path class="cm" d="M395.87,551.59c-3.13,1.18-6.27,1.3-9.42,.03,3.14-.01,6.28-.02,9.42-.03Z"/><path class="al" d="M532.76,383.63c.6-7.07,4.97-11.59,10.82-14.46,12.25-6.02,23.4-13.23,32.16-23.99,3.83-4.71,9.84-4.66,15.52-4.4,3.36-.03,5.53,1.94,7.44,4.38,4.01,7.36,1.78,13.98-2.43,20.37-5.95,5.65-10.87,12.29-17.53,17.3-6.36,4.78-13.56,7.95-20.33,11.94-7.81,3.19-15.39,3.26-22.61-1.65-2.03-2.83-5.18-5.31-3.04-9.48Z"/><path class="bo" d="M595.4,365.36c1.08-2.42,2.18-4.82,3.25-7.25,1.95-4.41,.86-8.68-.59-12.94,1.39-2.24,3.33-3.57,6.04-3.62,1.4,2.95,4.3,6.09-1.29,7.98-1.28,.43-1.77,1.57-1.27,3.09,2.8,8.51-1.64,15.11-6.46,21.06-8.69,10.74-19.44,19.17-32.43,24.12-6.81,2.59-14.1,4.57-21.08-.19-1.1-.75-2.03-.38-2.79,.6-1.02,1.31-1.53,3.7-3.99,2.11-1.95-1.25-5.04-1.7-4.14-5.24,1.61-1.32,3.93-1.1,5.48-2.54,7.41,3.55,14.97,3.78,22.65,.94,13.5-5.59,25.48-13.21,33.91-25.53,.72-1.05,1.94-1.6,2.72-2.6Z"/><path class="gh" d="M604.09,341.56c-1.64,1.83-3.58,3.16-6.04,3.62-2.26-1.47-4.53-2.94-6.79-4.41,.02-2.24-1.3-5.62,1.35-6.22,2.55-.57,6.33-1.65,8.25,2.27,.83,1.7,2.14,3.17,3.22,4.74Z"/><path class="fu" d="M536.12,392.55c-.75,3.18-2.37,4.45-5.48,2.54-4.92-1.67-4.65-6.19-4.22-9.71,.42-3.44,4.1-1.35,6.34-1.74-.51,3.59,2.79,5.74,3.36,8.92Z"/><path class="go" d="M569.07,318.97c-2.08-2.06,1.82-1.92,1.31-3.73-.71-2.57,1.28-4.99,3.13-5.21,2.32-.28,3.09,2.67,3.47,4.74,.32,1.73,1.63,2.23,2.66,3.11,1.7,1.47,2.41,3.06,1,5.1-2.08-.88-4.07-2.07-6.47-1.83-1.97-.1-3.5-1.25-5.11-2.19Z"/><path class="ai" d="M554.46,301.73c2.06,3.66,1.1,6.89-1.63,9.67-1.91,1.96-3.45,4.04-3.92,6.78-.6,.18-1.05,0-1.36-.54-.7-1.82-.83-3.65-.15-5.5,.43-1.74,1.07-3.39,2.13-4.86,1.02-1.65,2.24-3.17,3.17-4.88,.43-.62,.91-1.15,1.76-.68Z"/><path class="ch" d="M605.31,314.12c-.07,.89-.15,1.78-.22,2.67-5.38,3.08-12.07,3.32-16.78,7.83-1.39,.49-1.69-.19-1.49-1.39,1.1-1.02,2.21-2.04,3.31-3.06,5.06-2.01,10.12-4.02,15.18-6.04Z"/><path class="bj" d="M588.03,300.6c-1.66-.61-2.17-1.31-.99-3.09,1.34-2.03,2.17-4.4,3.22-6.63,2.54-.02,3.67,.81,2.49,3.54-1.08,2.48-2.5,4.61-4.71,6.18Z"/><path class="bt" d="M574.96,320.24c2.44-.21,4.47,.42,5.69,2.74-3.3,.66-6.2-1.06-9.3-1.59,.88-1.39,2.59-.21,3.61-1.15Z"/><path class="fn" d="M582.74,310.1c.82,1.37,1.65,2.74,2.47,4.11,.03,1.15,2.14,2.25,.76,3.17-1.77,1.17-2.23-.86-2.79-2.04-.6-1.27-1.07-2.6-1.6-3.9,.31-.51,.43-1.19,1.16-1.34Z"/><path class="eb" d="M550.15,338.51c-.68,.73-1.37,1.46-2.05,2.19-1.09,.25-1.65-.03-1.26-1.26,1.62-2.35,2.28-5.08,3.14-7.74,1.36,.84,1.17,2.16,1.07,3.46-.3,1.12-.61,2.23-.91,3.35Z"/><path class="gf" d="M548.13,317.76c.27,.12,.53,.27,.79,.43,.42,2.46,.84,4.93,1.25,7.39-3.4-1.06-2.61-4.15-3.18-6.59,.37-.42,.45-1.1,1.14-1.23Z"/><path class="ep" d="M551.06,335.16c-1.18-.9-.76-2.29-1.07-3.46-.62-2.1-1.4-4.2,.11-6.26,.44,.75,.87,1.49,1.31,2.24,.54,2.53,.54,5.07,0,7.6l-.34-.13Z"/><path class="cs" d="M582.74,310.1c-.39,.45-.77,.89-1.16,1.34-1.52-1.41-3.05-2.82-4.57-4.22,.11-.68,.72-.75,1.19-1.01,1.96,.78,3.47,2.09,4.54,3.9Z"/><path class="cn" d="M570.9,298.37c2.16,1.18,2.46,3.43,3.12,5.47-.38,.49-.78,.53-1.2,.06-1.77-1.45-2.97-3.1-1.92-5.53Z"/><path class="br" d="M572.82,303.9l1.2-.06c1.76,.14,2.89,1.39,4.18,2.36-.39,.34-.79,.67-1.18,1.01-1.55-.91-3.4-1.45-4.2-3.31Z"/><path class="em" d="M574.96,320.24c-.94,1.22-2.38,.85-3.61,1.15-1.72,.09-1.72-1.43-2.27-2.42,1.96,.42,3.92,.85,5.89,1.27Z"/><path class="av" d="M551.4,335.29c0-2.53,0-5.07,0-7.6,1.47,2.54,1.5,5.07,0,7.6Z"/><path class="eg" d="M554.46,301.73c-.36,.36-.72,.72-1.08,1.08-.99,.23-1.54,.03-1.11-1.13,.36-1.47,.71-2.94,1.07-4.4,2.87,.85,.77,2.97,1.13,4.46Z"/><path class="gt" d="M586.82,323.21c.5,.46,.99,.93,1.49,1.39-1.15,1.51-2.99,2.06-3.84,.44-.86-1.65,1.44-1.3,2.35-1.83Z"/><path class="s" d="M512.45,332.13c-3.6,1.24-7.11,.4-10.38-.93-6.39-2.6-8.66-9.42-5.51-15.58,5.22-10.2,22.71-16.18,30.76-3.12,.15,3.44-1.13,6.45-3.91,8.25-4.59,2.97-7.81,7.11-10.97,11.37Z"/><path class="bq" d="M512.45,332.13c.94-3.65,2.4-7.09,5.79-9.02,4.35-2.48,7.34-5.96,9.09-10.6,2.99,7.64-.12,14.15-8.68,18-1.95,.88-3.95,1.79-6.2,1.62Z"/><path class="hb" d="M523.1,351.47c-1.69,4.76-4.93,7.96-9.68,9.66,2.09-4.36,5.55-7.34,9.68-9.66Z"/><path class="e`" d="M546.84,339.45c.42,.42,.84,.84,1.26,1.26-2.19,2.89-4.1,6.13-8.29,6.45,1.58-3.27,5.18-4.69,7.03-7.71Z"/><path class="fp" d="M501.48,369.8c-.35-.63-.7-1.25-1.05-1.88,2.86-.33,5.04-2.2,7.57-3.28,.55,.23,1.22,.29,1.38,1.04-2.22,2.16-4.93,3.4-7.9,4.12Z"/><path class="dp" d="M548.13,317.76c-.38,.41-.76,.82-1.14,1.23-1.22-2.86-1.17-5.72,0-8.57,1.05-.17,1.62,.09,1.17,1.29-.01,2.02-.02,4.04-.04,6.06Z"/><path class="l" d="M523.97,292.73c-.11,.85-.71,1.26-1.45,1.2-1.04-.08-1.55-.77-1.26-1.83,.22-.81,.85-1.06,1.63-.91,.84,.16,1.08,.77,1.08,1.54Z"/><path class="gd" d="M548.17,311.7c-.39-.43-.78-.86-1.17-1.29-.07-1.82,1.01-3.08,2.08-4.36,1.02-.13,1.58,.15,1.19,1.3-.7,1.45-1.39,2.89-2.09,4.34Z"/><path class="dn" d="M550.26,307.36c-.4-.43-.79-.87-1.19-1.3,1.07-1.46,2.13-2.92,3.2-4.38,.37,.38,.74,.76,1.11,1.13-.51,1.88-1.79,3.23-3.12,4.55Z"/><path class="d`" d="M509.38,365.67l-1.38-1.04c1.24-1.01,2.1-2.72,4.14-2.26,.23,2.06-1.28,2.67-2.77,3.3Z"/><path class="dt" d="M539.37,347.62c-1.25,2.37-2.84,3.59-5.38,1.59,1.65-1.02,3.12-2.64,5.38-1.59Z"/><path class="a`" d="M534.82,327.06c-.06,.75-.31,1.41-1.17,1.48-.73,.06-1.57-.11-1.41-1.03,.1-.57,.67-1.26,1.21-1.49,.72-.31,1.31,.16,1.37,1.04Z"/><path class="x" d="M488.04,328.57c-.75-.07-1.4-.32-1.46-1.18-.05-.72,.12-1.57,1.04-1.4,.56,.1,1.25,.68,1.47,1.22,.3,.72-.16,1.31-1.05,1.36Z"/><path class="j" d="M518.22,343.23c.3,.32,.93,.72,1.13,1.28,.26,.73-.18,1.35-1.05,1.34-.75,0-1.38-.31-1.45-1.15-.05-.72,.09-1.4,1.37-1.47Z"/><path class="dc" d="M533.96,349.95c-1.23,2.15-2.65,2.42-4.31,.46,1.33-1.2,2.79-1.09,4.31-.46Z"/><path class="i" d="M598.66,302.59c1.67,1.71,2.98,3.49,.52,7.24-.23-3.26-.38-5.23-.52-7.21v-.04Z"/><path class="g" d="M604.11,299.97c3.37-2.12,4.14,0,6.3,2.47-2.69-1.06-4.12-1.62-6.3-2.47Z"/><path class="ag" d="M612.72,291.94c2.47,1.77,2.86,3.18,3.12,5.53-2.28-1.41-2.33-3.06-3.12-5.53Z"/><path class="af" d="M574.93,297.36c3.28-1.25,4.67,.97,6.83,4.56-3.02-2.03-4.92-3.3-6.82-4.58v.02Z"/><path class="f" d="M583.82,279.48c-.88,1.72-1.15,3.9-4.32,5.24,1.47-2.6,2.1-4.52,4.32-5.24Z"/><path class="fy" d="M583.13,292.35c-.59,.78-1.44,.79-2.27,.64-.6-.11-.76-.62-.25-.96,.54-.36,1.2-.63,1.84-.69,.53-.05,.91,.37,.67,1.02Z"/><path class="ct" d="M367.43,481.98l.81,1.46c-.43,3.2-.52,6.4,.05,9.59-.7,3.58-1.41,7.16-2.11,10.74-.64,.8-1.29,1.6-1.93,2.4-.67-.08-.75-.69-1-1.14,2.78-7.33,3.62-14.93,3.16-22.71,.21-.49,.56-.58,1.01-.33Z"/><path class="aq" d="M338.22,469.26c.25-.94-2.43-.73-.86-2.19,4.76-3.21,9.71-3.57,14.87-1.05,.76,2.11-1.48,1.31-2.06,2.12-4.01,.14-8.07-.32-11.95,1.12Z"/><path class="ap" d="M350.17,468.14c.53-.87,1.41-1.01,2.31-1.1,4.77-.81,7.36,.7,9.45,5.52-.37,.42-.75,.84-1.12,1.26-3.18-2.58-6.53-4.84-10.64-5.67Z"/><path class="au" d="M367.43,481.98c-.32,.17-.66,.28-1.01,.33,.15-1.7-1.54-2.16-2.21-3.31,2.3-1.61-.13-4.78,2.1-6.41,.38,3.13,1.59,6.16,1.13,9.39Z"/><path class="h" d="M387.66,526.69c-2.52,1.08-3.74,2.5-5.62,1.5-.19-.1-.33-.79-.21-.92,1.31-1.3,2.78-2.01,5.83-.58Z"/><path class="ee" d="M362.94,509.24c-.7,1.8-1.5,3.51-3.72,4.52-.65-2.81,1.39-4.12,2.64-5.76,.73,.09,.83,.73,1.08,1.24Z"/><path class="dy" d="M362.94,509.24c-.36-.41-.72-.82-1.08-1.24,.46-.99,.92-1.98,1.38-2.98,.33,.38,.67,.76,1,1.14-.44,1.03-.87,2.05-1.31,3.08Z"/><path class="dg" d="M379.07,523.27c-.17,.99-.76,2.58-1.53,2.03-1.94-1.4,.04-2.86,.58-4.28,.94,.49,.44,1.58,.95,2.25Z"/><path class="cf" d="M384.34,515.83c1.09,1.34,1.22,2.7,.72,4.14-.04,.12-.79,.2-.92,.05-1.12-1.33-1.1-2.68,.2-4.19Z"/><path class="gr" d="M379.07,523.27c-.32-.75-.63-1.5-.95-2.25,.08-.94-.62-2.51,.61-2.61,1.37-.11,.76,1.5,.79,2.35,.03,.83-.29,1.68-.45,2.52Z"/><path class="aa" d="M361.93,472.56c-2.73-2.56-5.34-5.32-9.45-5.52-5.05-2.36-10.08-.69-15.12,.04,3.12-11.01,6.72-21.85,11.47-32.29,2.86-6.27,6.49-11.98,11.85-16.43,2.59-2.15,5.13-2.96,8.1-.24,3.42,3.12,7.64,5.32,10.6,9.01,2.86,3.27-1.34,5.58-1.15,8.49,1.66,.36,2.96,1.09,3.13,3-.41,3.92-4.27,4.63-6.42,6.93l.07-.08c-1.47,1.86-2.74,3.92-5.14,4.77-1.34,.81-3.19,.98-3.65,2.9-.02,6.31,.56,12.68-2.11,18.72-.61,1.38-1.08,1.65-2.19,.7Z"/><path class="ge" d="M378.24,435.62c-1.9,.18-3.1-.34-1.11-1.99,2.19-1.81,2.3-4.07,2.27-6.51,5.28,3.6,.24,5.8-1.15,8.49Z"/><path class="ev" d="M374.95,445.55c.66-3.68,5.12-3.84,6.42-6.93,1.62,5.79-3.4,5.43-6.42,6.93Z"/><path class="et" d="M369.45,449.74c1.96-1.29,2.94-3.86,5.58-4.27,.88,3.71-2.1,4.22-4.38,5.31-.47-.26-1.1-.34-1.19-1.03Z"/><path class="eq" d="M369.45,449.74c.4,.34,.79,.69,1.19,1.03-1.47,.79-2.93,1.58-4.4,2.37-1.26-3.34,2.03-2.37,3.21-3.4Z"/><path class="fb" d="M357.72,549.36c2.94,0,5.91-.34,8.7,1-2.89-.4-6,1.05-8.7-1Z"/><path class="ed" d="M382.12,474.54c-2.42-.76-3.1-2.69-4.59-4.66q3.37,1.01,4.59,4.66Z"/><path class="ff" d="M368.29,493.03c-1.35-3.19-1.28-6.39-.05-9.59,.56,3.19,.52,6.39,.05,9.59Z"/><path class="fk" d="M400.61,455c-1.88,.7-2.82-.02-3.44-1.21-.1-.19,.51-1.07,.82-1.09,1.39-.06,2.34,.6,2.62,2.3Z"/><path class="f`" d="M595.4,365.36c-7.96,13.46-19.98,21.99-34.05,28.01-.74,.32-1.71,.09-2.58,.12,2.75-3.61,7.37-3.98,10.95-6.22,8.39-5.26,15.94-11.3,21.9-19.24,.97-1.29,1.94-2.6,3.78-2.66Z"/><path class="fx" d="M551.64,385.53c-2.1-3.46-3.64-5.98-5.18-8.51,3.39,1.4,5.88,3.35,5.18,8.51Z"/><path class="fw" d="M575.77,355.55c3.67-1.19,5.17,.86,6.4,4.34-3.08-.63-4.09-3.46-6.4-4.34Z"/><path class="gi" d="M569.64,361.85c3.17,.42,3.75,2.55,4.89,4.31q-2.21-.35-4.89-4.31Z"/><path class="fv" d="M557.56,372.56c2.35,.54,3.34,2.14,3.96,4.6-2.9-.6-2.95-3.01-3.96-4.6Z"/><path class="ab" d="M514.44,308.85c1.14-.24,2.31,.13,2.67,1.18,.55,1.6-.75,2.21-2.03,2.5-4.53,1.02-8.37,3.12-11.23,6.89-.62,.82-1.54,1.77-2.69,.74-1.15-1.02-.82-2.23-.11-3.41,3.04-5.03,7.72-7.26,13.38-7.9Z"/><path class="e" d="M504.1,325.22c-.41,1.21-.82,2.46-2.44,2.22-1.39-.2-2.2-1.15-2.16-2.53,.05-1.36,.8-2.48,2.29-2.21,1.21,.22,2.11,1.16,2.3,2.52Z"/></g></g></g></g></svg>