<?xml version="1.0" encoding="UTF-8"?><svg xmlns="http://www.w3.org/2000/svg" viewBox="0 0 650 650"><defs><style>.f{fill:#f4ce94;}.g{fill:#f4cf93;}.h{fill:#f4d096;}.i{fill:#f3cf95;}.j{fill:#010101;}.k{fill:#696666;}.l{fill:#6a6766;}.m{fill:#ebebeb;}.n{fill:#ebebea;}.o{fill:#f1cb8d;}.p{fill:#f1cb8a;}.q{fill:#f1cb8c;}.r{fill:#f1cb8b;}.s{fill:#f1ce94;}.t{fill:#eaeae7;}.u{fill:#e9e2e0;}.v{fill:#e7e0dd;}.w{fill:#e57e78;}.x{fill:#e57d78;}.y{fill:#e8e2df;}.a`{fill:#efc888;}.aa{fill:#ece8e6;}.ab{fill:#e47c78;}.ac{fill:#e3b765;}.ad{fill:#e3b764;}.ae{fill:#f0c989;}.af{fill:#e5dedc;}.ag{fill:#e5dfdc;}.ah{fill:#925d33;}.ai{fill:#7d7c7b;}.aj{fill:#7d7a79;}.ak{fill:#816662;}.al{fill:#656262;}.am{fill:#686565;}.an{fill:#686564;}.ao{fill:#848180;}.ap{fill:#876662;}.aq{fill:#b98538;}.ar{fill:#8b8887;}.as{fill:#8e3b44;}.at{fill:#b9b7b6;}.au{fill:#8d5931;}.av{fill:#c2bdbd;}.aw{fill:#666362;}.ax{fill:#666464;}.ay{fill:#737170;}.b`{fill:#73716f;}.ba{fill:#322e2d;}.bb{fill:#322d2c;}.bc{fill:#8e5931;}.bd{fill:#33302e;}.be{fill:#8e3e46;}.bf{fill:#ab6c35;}.bg{fill:#a57438;}.bh{fill:#abaaaa;}.bi{fill:#ccc9c9;}.bj{fill:#c4c1c0;}.bk{fill:#c4c0bf;}.bl{fill:#d5a14c;}.bm{fill:#c5c3c2;}.bn{fill:#423a31;}.bo{fill:#3f392f;}.bp{fill:#807d7c;}.bq{fill:#6e6b69;}.br{fill:#9b9999;}.bs{fill:#5b5958;}.bt{fill:#474342;}.bu{fill:#5c5a59;}.bv{fill:#3a362e;}.bw{fill:#838180;}.bx{fill:#827f7e;}.by{fill:#828081;}.c`{fill:#726f6f;}.ca{fill:#62605f;}.cb{fill:#767372;}.cc{fill:#777574;}.cd{fill:#7a5d58;}.ce{fill:#817f7e;}.cf{fill:#78534a;}.cg{fill:#312e2c;}</style></defs><g id="a"/><g id="b"><g id="c"><g id="d"><g id="e"><g><path class="t" d="M325.76,.09c106.72,0,213.44,.02,320.17-.09,3.41,0,4.08,.62,4.08,3.76-.11,196.39-.11,392.79,0,589.18,0,3.14-.66,3.76-4.08,3.76-174.41,121.8-430.96-3.29-644.41-3.19-3.41,0,0,2.58,0-.57,.11-196.39,.11-392.79,0-589.18,0-3.14,.66-3.76,4.08-3.76C112.31,.11,219.04,.09,325.76,.09Z"/><path class="bm" d="M450.76,317.09c13.87-.02,27.74-.05,41.63-.05,25.29,0,50.6,0,75.89,0,26.38,.02,44.76,16.93,44.77,41.15,0,23.69-.42,47.39,.13,71.07,.5,21.66-15.85,40.56-39.65,42.02-2.22,.14-3.32,.89-2.97,3.17,1.5,9.77,2.87,19.57,4.35,29.34,.59,3.8-.48,6.68-4.71,7.93-4.01,1.18-6.98-.34-8.39-3.72-3.32-7.97-6.33-16.05-9.44-24.09-5.72-14.78-3.81-12.42-18.86-12.59-6.47-.07-12.94-.06-19.4,0-4.55,.05-7.33,2.52-6.93,6.51,.83,8.32,1.82,16.63,2.97,24.93,.56,4.01,.16,7.34-4.55,8.95-4.72,1.61-8.98,.31-11.16-4.15-4.2-8.61-7.83-17.47-12.05-26.09-1.58-3.24-2-7.2-5.75-9.34-3.25-.77-6.5-.55-9.78-.05-30.2,4.56-53.47-14.22-54.23-39.81-.74-24.9-.47-49.83-.05-74.73,.26-15.57,7.39-27.91,22.15-36.26,5.03-2.85,10.52-3.36,16.03-4.18h0Z"/><path class="ad" d="M81.31,257.17c5.6,.47,7.56-2.79,9.59-6.97,8.83-18.19,21.29-33.79,40.43-43.9,17.78-9.38,36.37-12.56,56.04-4.88,11.63,4.53,19.22,12.6,24.3,22.96,2.54,2.77,3.69,6.07,4.35,9.58,1.81,9.65,2.52,19.37,2.19,29.16-.27,8.25,.07,16.46,1.82,24.58,.28,3.54-1.33,6.75-2.2,10.08-.95,3.62-1.12,7.13,1.18,10.39,1.2,1.52,2.63,1.57,4.22,.53,2.22-1.18,2.25-4.76,5.8-4.48,1.74,1.71,2.16,3.91,2.74,6.07,.39,3.9,3.43,5.78,6.76,7.29,5.07,2.31,9.98,4.83,14.47,8.01,4.96,4.43,9.98,8.81,13.41,14.43,2.72,4.36,5.11,8.85,6.41,13.77,.91,2.98,2.19,5.89,1.97,9.09-.06,2.12-.53,3.93-3.27,4.43-1.6,.29-2.41,1.53-3.18,2.73-2.97,4.57-7.5,5.57-12.88,4.88-6.21-.79-12.35-1.93-18.73-.78-6.26,1.12-12.47,2.45-17.56,5.99-13.49,9.38-26.68,4.23-36.27-4.07-7.33-6.34-11.74-14.31-15.08-22.86-2.7-6.91-5.49-13.74-10.16-19.82-6.08-7.9-14.63-11.67-24.69-13.12-4.75-.68-9.52-1.3-14.2-2.32-6.45-1.41-11.18-4.54-12.48-10.97-.58-2.84-2.04-5.12-4.84-6.61-15.19-8.09-17.94-20.96-16.01-35.59,.25-1.91,1.45-3.79,.2-5.72-1.38-.77-3.38-.3-4.33-1.88l.02-.02Z"/><path class="u" d="M450.76,317.09c-8.18,1.98-15.99,4.65-22.41,10.03-9.79,8.18-14.28,18.59-14.38,30.5-.21,24.92-.41,49.84,.04,74.75,.41,22.31,20.46,39.28,42.53,39,6.68-.08,13.5-1.27,20.11,.76-6.56,.05-11.08,2.87-13.57,8.44-3.91,8.72-7.8,17.46-11.74,26.18-1.81,4.01-5.87,6.46-9.75,5.56-4.19-.98-7.4-2.29-6.81-8.43,.77-8.17,1.56-16.34,1.95-24.53,.31-6.32-1.85-8.07-8.83-8.08-7.96-.02-15.93,.27-23.88-.09-5.76-.26-8.48,2.25-10.05,6.87-3.17,9.29-6.46,18.55-9.76,27.8-1.7,4.76-4.98,6.95-8.79,6.01-4.29-1.06-5.99-4.5-5.2-9.51,1.41-9,2.37-18.07,3.94-27.03,.64-3.65-.84-4.26-4.14-4.07-15.38,.89-34.83-11.59-38.81-27.52-3.48-3.97-4.11-9.01-5.26-13.64-3.75-15.22-5.17-30.67-3.5-46.28,.56-5.15,.57-10.33,1.29-15.48,1.05-7.46,3.75-14.52,5.5-21.8,.46-1.88,1.89-3.18,2.97-4.68,4.89-13.23,21.79-24.68,37.07-24.74,27.16-.11,54.31,0,81.47,0h0Z"/><path class="bm" d="M388.08,256.54c-.43,.24-.84,.47-1.27,.7-2.13-4.17-.83-8.61-1.22-12.93,.03-18.3,0-36.6,0-54.89v-2.54c.05-2.97,.04-5.94,0-8.91-.02-.53,0-1.07,0-1.6,.05-3.18,.03-6.37,0-9.55,0-.8,0-1.6,0-2.4,.03-3.49,.02-6.97,0-10.46,0-.81,0-1.63,0-2.45,.02-2.44-.06-4.87,.06-7.31,.08-1.61-.24-3.45,1.88-4.33,2.5,1.61,1.82,4.11,1.82,6.29,0,3.06,1.23,4.47,4.69,4.41,6.13-.11,12.27,.03,18.39-.06,1.95-.03,4.29,.14,5.15-1.95,.93-2.27-1.25-3.17-2.85-4.22-2.03-1.35-3.85-2.77-1.14-5.05,1.88-.8,3.89-.63,5.86-.63,19.15-.02,38.29-.03,57.43,0,2.28,0,4.67-.3,6.63,1.21,5.09,15.94,4.08,32.31,4.08,48.6,0,21.09-.1,42.2,.09,63.29,.03,3.82-1.16,4.94-5.29,4.88-15.43-.21-30.86-.07-46.28-.09-12.72,0-25.43-.05-38.16-.09-1.46-1.29-1.25-3.06-1.58-4.66-.37-1.82-1.01-3.53-2.52-4.82-.95-.82-2.02-1.8-3.45-1.19-1.21,.52-.98,1.79-1.09,2.82-.3,2.66,.69,5.49-1.28,7.92h0Z"/><path class="bf" d="M81.31,257.17c1.95,.14,3.9,.26,5.85,.4,.04,4.85-1.63,9.5-2.66,14.15-2.32,10.49-1.49,21.01-1.74,31.53-.29,2.65,.56,5.42-.96,7.93-2.63-.68-2.74-.67-2.85-3.76-.18-5.5,0-11-.09-16.51-.02-1.32,.57-3.1-1.01-3.76-1.52-.63-2.7,.86-3.8,1.7-7.69,5.88-9.8,14.14-10.11,22.62-.52,13.92-1.73,11.32,11.93,11.61,1.66,.04,3.31-.17,4.98-.14,1.47,1.94,4.87,.36,6.06,2.83,.66,2.09-.5,3.86-1.17,5.71-3.79,10.35-5.57,21.01-4.79,31.87,.74,10.34,2.97,20.48,6.49,30.36,1.14,3.22,1.69,6.31-2.3,8.34-1.73,.68-3.56,.54-5.37,.63-9.42,.47-15.99,6.53-16.1,14.83-.12,9.02,6.09,15.26,15.95,15.9,8.75,.57,17.52-.37,26.28,.15,2.29-.26,4.58-.54,6.8,.3,1.3,.69,1.65,1.93,1.37,3.07-.55,2.27,.87,3.59,2.32,4.99,.07,1.32-.97,2.25-1.41,3.4-.5,4.68-.63,9.38-1.29,14.05-.68,4.84-1.34,5.67-6.78,5.75-5.29,.08-10.57,.02-15.86,.03-8.06-.88-16.1-1.81-22.68-6.86-15.57-8.41-26.28-20.25-30.43-36.7-1.05-4.18-1.56-8.41-1.56-12.71,.02-36.35-.09-72.71,.05-109.06,.09-23.67,19.34-41.8,44.88-42.68v.02Z"/><path class="j" d="M332.22,341.83c-11.59,33.87-11.95,67.83-1,101.88-3.59-1.61-6.79,.46-9.99,1.17-11.06,2.45-21.99,5.36-33,7.99-1.31,.31-1.77,1.28-2.71,1.85-2.16-1.89-4.59-2.76-7.64-2.14-1.34,.27-3.03,.59-3.72-1.24,.2-.58-.27,.05,.07-.46,7.6-11.46,6.87-24.17,6.77-36.85-.16-20.59-.04-41.19-.05-61.78,0-16.58-6.55-23.44-24.49-25.7-.99-.13-1.95-.31-2.8-.84-2.06-3.18,.27-6.21,.6-9.26,.56-5.09,.06-10.36,2.34-15.24,1.69-1.86,2.53-.16,3.57,.71,1.43,1.43,2.83,1.38,4.21-.05,.51-.6,.98-1.21,1.37-1.89,.6-1.11,.47-2.25,.13-3.4-1.26-5.06-3.08-9.94-5.85-14.48-3.15-5.16-7.66-7.34-13.97-6.54-3.42,.44-6.87,.64-10.28,1.26-6.17,1.11-11.22,3.39-13.78,9.11-.53,1.17-1.13,2.63-3.05,2.55-2.68-8.91-2.69-18.05-2.49-27.18,.27-12.52-.48-24.91-4.8-36.92,8.18,5.83,13.99,13.77,21.37,20.34,5.09,4.53,9.37,9.82,14.19,14.62,14.17,14.08,28.47,28.05,42.64,42.12,11.13,11.05,22.14,22.2,33.19,33.32,2,2.02,3.88,4.14,5.79,6.23,.93,1.01,1.93,1.69,3.39,.83h0Z"/><path class="bm" d="M286.38,161.89c.84-20.46,9.02-38.29,23.18-53.79,15.94-17.45,36.31-28.09,60.73-31.98,5.2-.83,10.43-1.67,15.77-1.31,1.07,1.09,1.31,2.43,1.3,3.81-.06,12.3,.34,24.6-.21,36.89-.13,.52-.37,1-.68,1.44-.23,.2-.49,.52-.77,.54-9.56,.57-16.31,5.27-21.6,12.26-.98,1.3-2.6,1.91-4.29,2.1-4.78,.52-7.72,3.33-9.92,6.89-1.61,2.62-3.48,4.75-6.7,5.77-1.77,.56-3.41,1.57-2.88,3.69,.53,2.04,2.44,2.34,4.31,2.38,6.62,.15,13.26,0,19.88,.08,2.13,.02,4.33-.28,6.31,.8,1.3,1.64-.25,2.83-.82,4.14-2.03,4.62-4.73,8.97-6.28,13.53,.28,.57,.54,.77,.89,.79,6.82,.57,7.24,1.24,4.32,6.85-.43,.82-.84,1.65-1.33,2.45-1.19,1.93-1.36,3.3,1.64,3.9,2.38,.47,3.36,1.85,1.53,3.95-.58,.13-1.13,.15-1.71,.07-24.82-.07-49.62,0-74.42-.03-1.81,0-3.64,.05-5.45-.15-2.06-.23-3.36-1.04-3.28-3.21,.29-7.28-.54-14.59,.46-21.86h.02Z"/><path class="bm" d="M387.06,74.74c40.49,1.65,70.72,18.55,90.04,51.54,2.42,4.12,4.32,8.51,6.46,12.77-1.74,.75-3.58,.37-5.37,.38-21.65,.09-43.29-.12-64.94,.12-8.11,1.31-16.24,.95-24.36,.23-.52-.2-.91-.55-1.18-.99,1.05-2.13,3.21-1.88,5.14-1.91,4.96-.07,9.92-.14,15.43,.07-1.76-1.87-1.6-4.11-2.4-6.1-1.24-3.1-3.32-5.65-7.23-5.05-4.15,.64-7.01-.36-8.97-3.98-.39,4.11-.18,8.05-.4,11.96-.09,1.62,.53,3.82-2.38,4.19-2.31-7.02-1.6-14.08-.45-21.15,.16-12.55,0-25.08,.09-37.62,0-1.49-.48-3.07,.52-4.47h0Z"/><path class="u" d="M385.88,256.5c-31.53,0-63.06-.11-94.6,.09-4.92,.03-6.03-1.38-5.97-5.68,.28-18.35,.15-36.71,.18-55.05,12.1-3.69,25.66,5.69,25.99,18.26,.09,3.26-.04,5.1,4.63,4.95,4.01-.13,6.14,3.13,7.45,6.5,1.17,3.01,5.51,5.5,8.57,5.08,1.58-.22,1.6-1.4,1.81-2.39,.6-2.75,1.83-5.26,3.54-7.53,3.45-4.6,8.14-7.32,14.37-6.54,6.08,.76,9.68,4.6,11.48,9.65,1.5,4.19,2.21,8.61,1.35,13.17,1.99,.36,3.99,.52,5.44,1.97,.98,.99,2.19,1.04,3.64,.8,7.74-1.27,9.73-.19,12.74,6.65-.33,3.36,.69,6.77-.61,10.06h0Z"/><path class="bm" d="M385.86,245.51c-1.12-.16-1.62-.79-1.96-1.78-.74-2.12-2.97-3.79-4.78-3.46-4.92,.89-8.99,.56-13.64-1.75-2.31-1.14-2.03-1.47-1.93-3.16,.28-4.71,.1-9.53-2.53-13.67-2.26-3.56-5.32-6.61-10.57-6.57-5.54,.05-9.34,2.58-12.29,6.6-2.46,3.36-2.97,7.35-4.17,11.48-2.8-1.61-5.33-3.17-8.52-2.06-2.1,.73-1.92-.7-2.26-1.93-.56-2.05-1-4.27-2.18-6.02-2.66-3.92-6.54-4.26-11.23-1.91,.73-4.98,1.02-9.55-1.2-13.97-3.84-7.66-11.54-11.88-20.72-11.14-.77,.06-1.58-.2-2.36-.31,.06-2.51,.12-5.03,.18-7.54,1.86-1.37,4.1-1.02,6.21-1.03,23.48-.03,46.97-.04,70.45,0,2.42,0,5.03-.48,7.01,1.42,1.18,2.35-.03,4.36-1.13,6.34-.06,.21-.34,.43-.35,.62-.03,.61,.72,.44,.13,.16s.57-.8,.18-.36c2.63-3.1,4.8-6.59,9.1-8.02,3.11,.15,6.5-1.2,9.14,1.46,.16,18.33,.04,36.65,.07,54.97,.05,.62-.16,1.16-.62,1.61h0Z"/><path class="u" d="M168.9,472.15c-6.91-2.13-9.49-1.03-12.28,5.11-4.39,9.67-8.8,19.34-13.23,29-2.77,6.03-8.59,7.95-13.82,4.65-1.92-1.21-3.21-3.03-3.07-4.95,.59-8.15,1.27-16.3,2.43-24.4,.91-6.37-2-10.22-8.65-10.29-2.1-2.15-1.8-4.41-.36-6.72,7.57-2.06,15.26-.8,22.92-.78,1.44,.38,2.89,.65,4.39,.65,16.92-.05,33.83,.17,50.74-.14,.63-.06,1.24,.04,1.81,.28,1.15,1.38,.75,2.64-.35,3.84-3.19,3.07-7.19,4.19-11.7,4.14-6.28-.06-12.56,.23-18.83-.42h0Z"/><path class="u" d="M68.36,458.31c7.13,2.66,14.33,5.12,22.07,5.78,5.73,.63,11.49,.16,17.23,.26,6.01,.1,7.14,1.83,4.34,6.92-5.63,0-11.26,.05-16.9-.06-4.62-.09-7.46,1.85-8.84,5.88-3.21,9.28-6.52,18.52-9.74,27.8-.56,1.61-1.1,3.19-2.32,4.5-1.99,2.14-4.4,3.24-7.46,2.19-2.9-.99-4.53-2.83-4.44-5.88,.3-9.42,2.54-18.63,3.53-27.98,.68-6.48,1.66-12.93,2.51-19.4h0Z"/><path class="bm" d="M260.34,461.76c2.19,5.17,1.94,10.73,2.88,16.09,1.48,8.53,2.27,17.15,3.31,25.75,.5,4.05-.49,7.53-5.53,8.22-4.89,.68-7.02-2.43-8.44-6.14-3.62-9.47-7.41-18.88-10.86-28.4-1.81-4.99-5.48-6.9-10.85-6.91-5.12-.02-10.24-.13-15.36-.2,2.07-3.12,5.41-4.99,8.4-7.24,5.42-.87,10.9-.29,16.34-.43,5.6-.14,11.25,.41,16.76-1.12,1.12-.31,2.3-.25,3.35,.36h0Z"/><path class="bf" d="M260.34,461.76c-12.27,4.09-25.01,1.84-37.54,2.35-3.84-1.83-7.78-2.86-12.23-2.66-6.07,.28-6.49-.38-5.71-6.4,1.15-3.11,3.67-2.86,6.47-2.39,7.04,1.19,14.12,1.71,21.02-.65,10.66-3.63,16.99-11.25,21.58-20.35,1.18-2.34,2.08-4.81,3.03-7.24,.5-1.28,.52-3.28,3.05-2.75,3.56,3.72,4.21,8.55,5.62,13.04,2.26,7.24,2.12,14.82,3.05,22.24,.18,1.46,.28,3.13-1.65,3.95-.82-.39,.31-3.02-2.15-1.57-1.48,.87-3.03,1.62-4.55,2.43h0Z"/><path class="bm" d="M168.9,472.15c5.51-2.07,11.26-.78,16.88-.84,4.92-.05,9.38-.64,13.19-3.69,1.27,1.72,1.39,3.93,2.85,5.57-2.9,1.77-3.07,4.16-2.65,7.17,1.13,7.97,1.77,15.99,2.68,23.98,.51,4.44-1.75,6.94-6.31,7.81-4.37,.83-7.73-1.09-9.62-5.28-4.54-10.11-9.1-20.23-13.71-30.31-.75-1.65-1.33-3.49-3.3-4.41h0Z"/><path class="j" d="M201.81,473.19c-4.73-.21-2.61-3.39-2.85-5.57,.72-.95,.95-1.97,.57-3.09-.23-.47-.33-.96-.3-1.48,.27-4,.11-8,.11-12,.47-5.03-.59-9.88-1.94-14.71-1.78-6.22-4.22-12.16-8.05-17.63-1.97-2.82-4.06-5.05-7.75-5.9-2.18-.5-4.87-1.3-4.25-4.15,.59-2.76,3.2-2.71,5.59-2.46,2.57,.26,4.86-.89,7.32-1.07,4.17-.29,5.84,1.55,4.18,5.13-.96,2.06,.23,3.22,1.13,4.56,4.62,6.8,7.8,14.12,9.68,21.94,1.75,5.94,3.09,11.89,.65,17.95-1.27,4.69,.5,6.24,5.8,5.59,4.11-.5,8.73-.71,11.11,3.8-.75,3.75-4.44,4.49-7.32,6.06-4.56,1-9.12,2.02-13.68,3.02h0Z"/><path class="j" d="M267.06,460.9c.17-13.49-1.64-26.66-7.62-39.14-2.82-1.72-2.81-5.05-4.9-7.18-1.21-1.64-2.07-3.47-3.19-5.16-2.57-3.91-4.72-8.23-11.22-6.97-1.79,.35-3.73-.62-3.95-2.67-.19-1.73,1.13-2.99,2.77-3.39,3.24-.8,6.08-2.3,9-3.71,1.65-.79,3.56-.73,5.34-.25,2.96,.81,4.08,3.36,1.8,5.14-2.27,1.78-1.51,2.9-.3,4.52,1.78,2.38,3.57,4.77,5.08,7.32,6.13,10.57,10.43,21.7,12.1,33.65,.42,2.97,.32,6.15,2.56,8.7,1.95-.2,3.95-.26,5.86-.62,3.32-.63,5.12,.36,5.12,3.6-2.64,4.82-11.2,8.99-16.64,8.07-1.09-.18-1.61-.93-1.81-1.89h0Z"/><path class="b`" d="M369.16,190.44c-.36-3.38-3.21-1.97-4.98-1.98-26.17-.12-52.34-.12-78.51-.15-.05-.48-.1-.97-.15-1.46,.42-.22,.75-.55,1.32-.55,27.73,.05,55.48-.25,83.21,.16,.27,.04,.54,.05,.8,.07,.94,1.85,.7,3.28-1.7,3.9h0Z"/><path class="bd" d="M547.42,236.43c-.06,3.88-3.37,6.64-7.81,6.51-3.67-.11-6.74-3.02-6.83-6.44-.1-3.8,3.36-6.92,7.58-6.82,4.05,.09,7.12,3.03,7.07,6.76Z"/><path class="i" d="M112.02,471.27c.3-6.5,.3-6.37-6.48-6.53-5.03-.13-10.12,.78-15.09-.65,6.12-.04,12.24-.17,18.34-.08,2.56,.04,3.28-.79,3.52-3.14,.58-5.72,.07-11.57,1.96-17.16,2.89-.82,2.92,1.32,3.11,2.81,.48,3.49,.24,7-.29,10.5-.73,4.85-.69,9.74-.15,14.62,.19,1.66,.79,3.23,2.64,5.17-2.91-5.06-2.54-9.42,.51-11.95,.07,2.14,.13,4.29,.2,6.43-.02,.15-.02,.3-.06,.45-.7,2.75,1.52,7.64-2.45,7.74-3.53,.08-5.32-4.48-5.76-8.19h0Z"/><path class="v" d="M388.08,256.54c-.02-3.33,0-6.65-.07-9.98-.07-2.94,1.48-3.37,4.07-2.4,3.77,1.42,5.34,4.3,5.84,7.77,.21,1.49,.07,3.02,.08,4.53-3.3,.03-6.6,.05-9.91,.07h0Z"/><path class="bi" d="M370.05,186.48c-15.9,.08-31.82,.18-47.72,.26-12.27,.05-24.53,.09-36.81,.14-.02-7.03-.06-14.06-.05-21.09,0-1.34-.36-2.78,.9-3.89,0,6.56,.16,13.13-.02,19.69-.08,3.04,.72,4.32,4.38,4.3,25.99-.23,51.99-.27,77.99-.4,.83,0,1.17,.34,1.32,.99h0Z"/><path class="j" d="M412.92,139.11c23.55-.48,47.1-.37,70.65-.05,.18,.27,.18,.54,0,.8l-70.7,.14-.31-.47,.38-.42h0Z"/><path class="am" d="M387.06,74.74v42.26c-.29,.37-.58,.36-.86,0l-.13-42.21,.99-.07v.02Z"/><path class="cb" d="M385.86,245.51c.1-.33,.21-.66,.31-.99,.26-.4,.52-.37,.76,0-.04,4.23-.08,8.47-.12,12.7-.31-.25-.62-.48-.93-.73l-.02-10.99h0Z"/><path class="br" d="M160.77,184.78c.12,1.52,.69,3.14-1.22,4.93-.96-3.29-.78-5.95,.26-8.59,1.29,1,.1,2.56,.95,3.67h0Z"/><path class="l" d="M136.42,182.53c2.31,1.47,1.12,3.72,1.88,5.54-1.89-1.56-1.28-3.69-1.88-5.54Z"/><path class="ce" d="M527.37,261.04c.23,1.82-.87,3.04-2.25,4.98-.56-2.57,.77-3.75,1.66-5.05l.59,.08h0Z"/><path class="ai" d="M507.89,299.62c.52,1.82-.55,3.08-1.95,4.83-.44-2.43,.59-3.7,2.05-4.81h-.09v-.02Z"/><path class="ao" d="M442.22,282.57c1.69,1.51,2.39,2.39,1.61,3.81-1.4-.82-1.69-1.9-1.61-3.81Z"/><path class="ar" d="M453.18,304.85c-2-.7-1.74-2.05-2.49-3.5,2.51,.64,2.51,1.87,2.49,3.5Z"/><path class="bp" d="M507.89,299.62h.09c-.15-1.47,.03-2.8,1.9-3.7,.2,1.84-.59,2.91-2,3.7h0Z"/><path class="ca" d="M515.47,284.02c.33,1.37,0,2.82-.96,2.73-1.6-.15,.22-1.09,.04-1.73-.06-.2,.48-.54,.91-.99h0Z"/><path class="by" d="M520.1,275.35c-.05,1.95-.62,2.86-1.89,3.98-.55-1.81,.09-2.72,1.89-3.98Z"/><path class="bw" d="M440.62,279.28c-1.63-.78-2.17-1.83-2.03-3.78,1.56,1.1,2.33,2.06,2.03,3.78Z"/><path class="ax" d="M267.21,271.03c-2.07,0-2.5-1.17-3.42-2.38,1.95,.14,2.52,1.17,3.42,2.38Z"/><path class="bx" d="M521.54,271.68c.46-1.93,.56-3.07,2.14-3.8,.55,1.57-.14,2.46-2.14,3.8Z"/><path class="bs" d="M434.45,266.7c.54,1.01,1.69,1.81,1.56,3.52-1.65-1.06-1.77-2.36-1.99-3.62l.44,.1h0Z"/><path class="bq" d="M160.77,184.78c-1.23-1.02-.35-2.51-.95-3.67,.08-.43,0-1.02,.29-1.25,.31-.26,.86-.05,.84,.52-.05,1.46-.12,2.93-.18,4.39h0Z"/><path class="bs" d="M446.84,290.98c.22,.51,.25,1.01-.4,.95-.28-.03-.59-.6-.7-.98-.1-.35,0-1.08,.11-1.09,1.01-.15,.71,.76,.98,1.12h0Z"/><path class="by" d="M438.7,274.49c-2.3-.99-2.43-1.96-2.56-3.15,1.86,.08,1.73,1.32,2.56,3.15Z"/><path class="bw" d="M434.45,266.7l-.25,.07-.18-.17c-1.46-.5-1.52-1.51-1.54-3.01,1.7,.9,2.12,1.87,1.97,3.11h0Z"/><path class="bs" d="M527.37,261.04l-.28-.16-.32,.07c.55-.79,.33-2.05,1.82-2.43,.11,1.12-.05,2.02-1.23,2.51h0Z"/><path class="af" d="M461.34,426.2c-2.32,0-4.65,.06-6.97-.03-1.23-.05-2.36-.58-2.2-1.95,.13-1.05,1.13-1.52,2.17-1.53,4.98-.04,9.96-.05,14.93,.03,1,.02,1.95,.57,1.96,1.69,0,1.12-.93,1.68-1.93,1.72-2.65,.11-5.3,.04-7.96,.04v.05Z"/><path class="ag" d="M461.1,418.84c-2.32,0-4.65,.07-6.96-.04-1.02-.05-1.95-.59-1.97-1.7-.02-1.12,.93-1.71,1.93-1.72,4.98-.09,9.96-.09,14.93-.04,1.22,.02,2.36,.58,2.2,1.94-.12,1.05-1.12,1.51-2.16,1.52-2.66,.06-5.3,.02-7.96,.02v0Z"/><path class="y" d="M461.32,432.7c-2.32,0-4.64,.02-6.96,0-.97-.02-2.19,0-2.09-1.3,.06-.79,.93-1.34,1.78-1.35,5.3-.05,10.61-.05,15.9-.02,.91,0,1.58,.57,1.44,1.49-.16,1.11-1.18,1.53-2.16,1.51-2.64-.05-5.27-.29-7.9-.46v.13h0Z"/><path class="bl" d="M81.33,303.27c-.85-15.54,.11-30.88,5.82-45.7,1.76,.89,.63,2.04,.4,3.17-1.99,9.42-2.46,18.72,2.54,27.63,2.43,4.33,5.99,7.58,10.48,10.08,2.52,1.4,5.94,2.41,6.25,5.45,1.12,10.96,9.69,12.85,19.15,14.12,8.13,1.1,16.36,1.96,23.52,6.33,10,6.1,14.64,15.52,18.36,25.36,2.8,7.41,6.46,14.3,11.12,20.84,9.34,13.11,26,16.44,40.1,8.18,10.81-6.33,22.77-7.54,35.18-5.31,7.61,1.36,9.41,.72,13.69-5.54,.72-1.06,1.67-2.3,3.05-2.03,3.35,.66,2.26-1.63,2.61-3,2,.27,2.13,1.82,2.18,3.11,.32,8.87-.12,17.65-4.35,25.88-5.27-.03-10.6,2.03-15.79,.29-7.87-2.64-14.99-.93-21.9,2.53-5.38,2.7-10.28,6.13-15.59,8.96-2.74,1.46-5.57,2.74-8.64,3.42-5.15,1.15-10.01,.73-13.55-3.37-4.14-4.81-9.34-6.31-15.82-5.41-5.74,.8-10.19-1.3-12.29-6.42-2.01-4.94-5.35-9.02-8.82-13.08-1.06-8.37-.86-16.8-.36-25.14,.87-14.5-8.85-27.5-29.26-27.85-7.45-.13-14.9,0-22.36-.05-2.3-.02-4.67,.23-6.74-1.04-2.62-3.76-6.14-7.03-7.3-11.62-.43-1.68-2.12-2.62-3.75-3.42-2.95-1.78-6.4-3.05-7.9-6.36h-.03Z"/><path class="bf" d="M270.4,392.2c2.92-8.11,4.4-16.43,4.06-24.99-.06-1.48,.38-3.07-.87-4.36,.32-3.19-1.4-6.03-1.88-9.09,2.66-3.52,1.73-6.72-1.08-9.72-1.5-1.59-3.57-2.56-5.19-4.03-3.8-4.96-8.44-9.25-12.89-13.69-.34-.99,.12-1.24,1.1-1,3.14,.11,6.29-.05,9.41,.58,11.24,2.27,19.2,10.47,19.28,21.06,.21,28.59,.16,57.17,0,85.76-.04,7.07-3.4,13.28-7.76,19.01-3.26,.82-2.91-1.28-3.09-3.13-1.37-13.76-5.65-26.71-12.73-38.89,4.88-5.28,7.35-11.92,11.68-17.52h0Z"/><path class="ab" d="M266.56,300.7l-1.1,1.66c-1.69,1.13-3.43,1.96-5.55,.98-.74-.87-1.49-1.72-2.23-2.59-1.43-1.1-.62-2.55-.69-3.86-.28-5.41-3.61-9.01-8.22-11.82-1.4-.85-3.35-1.78-3.04,1.21,.28,2.62-3.03,1.96-3.74,3.51,.42,2.03,4.75,1.72,3.17,4.41-.99,1.7-4.11,.63-5.62,2.25,1.5,2.38,6.26-.39,6.35,3.73-3.19,2.4-7.02,2.22-10.8,2.24-1.83-.49-3.47-.24-4.82,1.1-.51,.42-1.07,.73-1.76,.78-1.44,1.8-2.87,3.59-4.3,5.38-1.99,.94-3.98,.2-5.96,0-3.62-4.52-2.7-9.34-1.2-14.23,.7-2.31,1.27-4.65,1.89-6.99,5.27-13.84,18.29-13.71,30.72-14.17,5.16-.19,8.93,2.61,11.42,6.92,2.82,4.9,4.63,10.1,6.23,15.39-.4,1.34-.45,2.73-.75,4.08h.02Z"/><path class="h" d="M170.4,206.94c20.02,.68,31.52,10.4,35.37,28.71,.41,1.93,.75,3.88,.95,5.84,.31,3.05-1.4,5.15-4.5,5.64-3.11,.49-4.27-1.82-4.81-4.2-.47-2.07-.54-4.22-1.04-6.28-3.96-16.34-14.18-22.74-33.12-20.32-4,.51-6.59-.48-6.8-3.83-.19-3.03,2.35-4.71,5.98-4.74,2.78-.02,5.54-.56,7.96-.83h0Z"/><path class="bb" d="M245.87,299.64c-1.52-1.38-3.42-.83-5.2-.84-1.53,0-3.31,.15-3.57-1.61-.3-2,1.65-2.45,3.27-2.73,1.6-.27,3.24-.29,4.98-.43-.77-2.92-6.5-.78-5.48-4.78,.6-2.38,3.47-1.07,5.23-1.82-.55-1.41-2.86-2.59-.81-4.32,1.61-1.35,3.16-.22,4.57,.42,6.98,3.15,10.32,9.74,8.83,17.22-2.07,5.26-1.09,10.84-2.04,16.2-.5,2.82-1.33,5.59-2.01,8.39-.37,.34-.73,.67-1.09,1-5.37-3.27-10.82-6.41-16.69-8.92-3-1.28-5.1-3.39-5.06-6.73,5.78-.04,9.52,3.77,13.8,6.42,4.29,2.66,4.98,2.56,5.55-2.08,.38-3.04,.03-6.09,.17-9.14,.15-3.15-2.69-4.33-4.45-6.23v-.02Z"/><path class="n" d="M245.87,299.64c3.88,.13,5.64,2.12,5.68,5.56,.04,4.26,.13,8.5-.61,12.76-.6,3.45-1.58,4.2-4.74,1.74-4.67-3.62-9.65-6.91-15.4-9.02-.75-2.12-1.52-4.23-2.27-6.35,.32-.37,.63-.74,.94-1.11,1.14-1.27,2.79-1.41,4.38-1.67,4.09-.2,8.14-.62,12.03-1.91h0Z"/><path class="h" d="M210.55,321.59c3.59-.43,6.15,1.01,6.66,4.12,.57,3.39-2.42,4.39-5.37,4.57-7.92,.47-14.61,3.25-20.32,8.33-2.06,1.83-4.8,1.76-6.62-.26-2.07-2.29-1.62-4.84,.77-6.92,6.99-6.09,15.38-9.21,24.88-9.84Z"/><path class="w" d="M197.8,293.82c-3.37-.48-6.52-1.74-6.49-5.12,.03-3.39,3.03-4.75,6.55-4.72,3.51,.03,6.5,1.39,6.45,4.82-.06,3.36-3.23,4.58-6.49,5.02h0Z"/><path class="x" d="M131.14,283.92c3.61,.21,6.65,1.57,6.47,4.99-.17,3.29-3.35,4.95-6.72,4.78-2.97-.16-5.9-1.22-5.91-4.88,0-3.94,2.88-4.65,6.17-4.9h0Z"/><path class="g" d="M198.76,258.25c-.32-2.66,1.61-4.17,4.3-4.28,2.67-.1,4.63,1.2,4.75,4.15,.12,2.91-1.63,4.44-4.33,4.54-2.66,.1-4.76-1.2-4.72-4.42Z"/><path class="g" d="M228.73,325.28c2.89-.29,4.51,1.49,4.64,3.94,.15,2.91-2.1,4.23-5.13,4.34-2.95,.11-4.28-1.81-4.32-4.01-.05-2.44,1.36-4.35,4.81-4.29h0Z"/><path class="ah" d="M265.42,340.02c6.5,1.89,9.94,6.07,8.95,11.18-.23,1.2,.09,3.41-2.69,2.57-1.31-4.88-4.29-9.11-6.27-13.75Z"/><path class="bn" d="M168.06,291.55c-2.59-.71-6.65,1.18-6.71-2.32-.06-3.36,3.93-2.31,6.3-2.27,2.49,.04,6.71-1.26,6.6,2.44-.1,3.45-4.3,1.18-6.2,2.15h0Z"/><path class="bv" d="M189.68,275.05c2.11,.19,3.57,1.2,3.6,3.1,.02,1.82-1.15,3.15-3.34,3.22-2.22,.07-3.4-1.16-3.5-3.03-.11-1.95,1.25-2.99,3.25-3.29h0Z"/><path class="bo" d="M144.68,278.42c-.37,1.79-1.46,2.97-3.61,2.96-2.22-.02-3.27-1.24-3.26-3.19,0-2.03,1.41-3.14,3.44-3.07,2.02,.06,3.23,1.3,3.44,3.31h0Z"/><path class="ae" d="M209.53,364.11c.08,.68-.18,1.19-.92,1.35-1.01,.22-1.59-.28-1.65-1.14-.04-.63,.42-1.15,1.18-1.18,.69-.02,1.26,.24,1.39,.96h0Z"/><path class="q" d="M257.26,342.32c-.31,.19-.83,.78-1.29,.75-.91-.07-1.36-.78-1.1-1.64,.19-.61,.7-1.05,1.46-.81,.65,.21,1.04,.69,.92,1.7h0Z"/><path class="ae" d="M163.74,318.77c-.35,.61-.85,.93-1.56,.51-.57-.33-1.11-.78-.78-1.48,.3-.64,.95-.82,1.63-.53,.65,.28,.94,.8,.72,1.49h0Z"/><path class="a`" d="M261.19,352.34c-.06,.97-.56,1.32-1.28,1.3-.73-.02-1.21-.48-1.24-1.15-.02-.67,.41-1.26,1.16-1.09,.55,.12,.98,.67,1.36,.94h0Z"/><path class="ae" d="M229,364.23c.35-.26,.78-.8,1.33-.91,.72-.15,1.18,.42,1.16,1.09-.02,.67-.52,1.11-1.24,1.14-.71,.03-1.21-.34-1.25-1.31h0Z"/><path class="p" d="M160.62,326.33c-.08,.68-.5,1.21-1.18,1.2-.69,0-1.2-.57-1.12-1.21,.04-.32,.54-.76,.9-.84,.66-.15,1.29,.07,1.4,.85Z"/><path class="r" d="M170.54,323.55c-.09,.66-.52,1.27-1.16,1.17-.46-.07-.87-.73-1.12-1.21-.06-.12,.53-.72,.88-.79,.65-.14,1.3,.05,1.4,.84h0Z"/><path class="o" d="M135.34,240.6c.21-.64,.65-1.08,1.39-.93,.7,.15,1.15,.68,.86,1.34-.14,.32-.69,.65-1.09,.68-.72,.05-1.18-.36-1.16-1.09h0Z"/><path class="o" d="M172.54,316.09c0,.68-.32,1.22-1.04,1.29-.72,.07-1.25-.44-1.26-1.07,0-.31,.45-.79,.8-.92,.65-.23,1.28-.05,1.5,.7h0Z"/><path class="o" d="M204.44,370.22c-.12,.78-.76,.97-1.42,.82-.37-.08-.85-.53-.88-.85-.07-.65,.45-1.2,1.14-1.19,.68,0,1.11,.53,1.16,1.21Z"/><path class="g" d="M213.67,372.79c-.45,1.13-.83,1.65-1.57,1.5-.35-.07-.83-.62-.8-.91,.08-.62,.63-1.04,1.37-.96,.44,.05,.84,.31,1,.37h0Z"/><path class="cf" d="M218.25,309.69h5.96c-1.99,1.49-3.98,1.57-5.96,0Z"/><path class="o" d="M151.79,250.86c-.48,.38-.77,.8-1.12,.84-.39,.05-1.08-.17-1.19-.43-.28-.69,.27-1.1,.97-1.09,.38,0,.74,.36,1.34,.68Z"/><path class="r" d="M155.01,242.04c-.33,.46-.5,1.02-.81,1.09-.81,.19-1.14-.41-1.06-1.02,.04-.31,.51-.78,.82-.8,.29-.03,.64,.43,1.05,.73h0Z"/><path class="f" d="M218.95,368.48c-.28,.17-.61,.51-1,.58-.55,.11-.95-.29-.78-.76,.11-.3,.6-.59,.99-.68,.49-.11,.9,.12,.79,.85h0Z"/><path class="f" d="M186.4,355.21c.14,.7-.2,1.04-.71,.98-.39-.05-.88-.34-1.07-.65-.34-.57,.24-.79,.7-.76,.4,.03,.77,.3,1.08,.43h0Z"/><path class="cg" d="M369.16,190.44c1.38-.99,1.07-2.62,1.7-3.9,.29-1.17,1.01-2.53-1.28-2.58-1.65-.04-3.29,0-5.39,0,.98-4.73,4.56-8.17,6.03-12.81h-8.97c3.6-6.69,5.24-13.59,10.11-19.11,4.46-2.76,9.29-1.39,14.03-1.07,.55,.26,1.03,.58,1.46,.99l.09,1.69c-.64,.57-.92,1.29-1.04,2.09-.86,2.71-2.63,5.05-3.78,7.67,1.21,.56,2.57,.02,3.73,.55,.41,.2,.77,.46,1.09,.77v1.78c-.64,.54-.93,1.25-1.07,2.03-.46,1.32-1.28,2.48-2.11,3.6-1.92,2.58-.58,3.47,2.13,3.75,.4,.2,.75,.46,1.08,.75,.11,.29,.1,.58-.04,.87-.62,.56-.94,1.3-1.37,1.97-2.21,2.55-4.7,4.89-6.61,7.66-.73,.93-2.04,.78-2.96,1.33-2.63,2.79-5.26,5.57-7.88,8.37-.97,.21-1.45-.04-1.11-1.03,.72-1.79,1.44-3.59,2.16-5.37h.02Z"/><path class="j" d="M412.85,140.01c-.18,2.36,1.51,3.07,3.57,3.61,2.62,.68,3.79,2.42,3.35,4.85-.46,2.53-2.4,3.43-5.03,3.42-7.76-.02-15.53-.06-23.28,.04-2.54,.03-3.61-.78-3.49-3.18,.16-2.88,.08-5.78,.11-8.67,.25-.17,.49-.35,.73-.53,8.05,.05,16.1-.42,24.14,.24l-.11,.22h0Z"/><path class="ba" d="M421.85,242.72c-.98,.05-1.97,.09-2.95,.15-4.1,.21-6.61-1.69-7.58-5.2-.88-3.23,.73-5.78,3.73-7.24,3.24-1.58,6.52-1.06,8.89,1.66,2.49,2.86,2.43,5.86-.22,8.7-.32,.35-.71,.63-1.08,.94-.11,.43-.37,.77-.78,.99h0Z"/><path class="an" d="M386.93,244.54c-.26,0-.51,0-.76,0,.03-18.66,.06-37.33,.1-55.98l.6,.05c.6,18.65,.5,37.3,.06,55.95h0Z"/><path class="cc" d="M386.84,151.98l-.41,.02-.39-.1c-1.31-1.33-1.59-2.97-1.6-4.66-.09-8.65-.09-17.31,0-25.96,.02-1.53,.25-3.04,1.34-4.3l.42,.05c.29-.02,.58-.02,.86,0,.41,7.07-.99,14.2,.77,21.22l.02,.02c-.02,.28,.02,.57,.13,.83,.37,.17,.49,.35,.36,.51-.12,.16-.25,.25-.38,.25l.13,.25c-2.36,3.8-.28,7.97-1.24,11.9l-.02-.02Z"/><path class="ay" d="M386.87,188.59c-.21,.02-.41,0-.6-.05-3.42-.02-6.84-.04-10.27-.05,.68-.59,1.38-1.19,2.06-1.77,2.37-1.36,4.89-1.52,7.53-.85,.52,.24,1,.54,1.45,.88l-.17,1.85h0Z"/><path class="ax" d="M385.22,154.88c.09-.99,.88-1.12,1.71-1.21,.43,3.7,.44,7.38,0,11.08l-1-.07c-2.74-3.11-.31-6.54-.71-9.79Z"/><path class="al" d="M386.98,176.66l-1.22-.24c-2.34-2.79-.17-5.82-.55-8.71,.16-.93,.93-1.08,1.75-1.19,0,3.38,0,6.75,.02,10.13h0Z"/><path class="k" d="M387.04,186.74c-.36,0-.71,0-1.07-.02-2.31-2.55-.79-5.46-.92-8.21,.27-.93,1.1-.95,1.9-.99,.03,3.07,.06,6.14,.09,9.22h0Z"/><path class="aj" d="M424.06,246.35c1,.82,1.65,1.8,1.62,3.2-2.13-.29-1.94-2.07-2.65-3.22,.35-.38,.69-.39,1.02,.02h0Z"/><path class="aw" d="M424.06,246.35c-.34,0-.68-.02-1.02-.02-.61-1.14-1.61-2.18-1.18-3.61,.26-.33,.53-.66,.78-.99,.48,1.54,.94,3.08,1.42,4.63h0Z"/><path class="as" d="M105.32,434.48c-8.89,.12-17.8,.67-26.69,.08-10.21-.68-16.59-7.76-16.32-18.11,.22-8.07,7.99-14.8,17.35-14.99,1.49-.03,2.97,0,4.47-.02,.73,2.02-1.32,2.9-2.11,4.27-1.4,2.41-3,4.72-2.06,7.61,2.19,.39,2.02-4.32,4.83-1.85,1.41,1.25,.12,3.62,1.6,5.01,.45,.08,.73-.02,.95-.27,1.37-1.63-.15-5.39,2.46-5.23,2.46,.15,1.84,4.16,3.72,5.9-.33,7.26,3.43,12.25,10.16,15.62,.84,.42,1.78,.83,1.65,1.97h0Z"/><path class="j" d="M92.93,417.28c-2.87-.99-2.45-3.62-3.54-5.64-.07,.99-.15,2-.19,2.99-.07,1.81,.35,4.18-2.53,4.09-2.81-.09-2.26-2.52-2.4-4.28-.07-.99-.12-1.96-.17-2.99-.48,.13-.66,.12-.77,.21-1.49,1.29-.53,5.36-3.93,4.04-2.55-.99-1.31-4.14-.74-6.21,.86-3.14,3.08-5.68,5.47-8.04,3.19-1.35,3.49-3.32,2.38-6.33-4.54-12.34-7.3-25.05-7.11-38.13,.16-10.92,2.84-21.43,6.97-31.64-.31-1.61,.53-2.97,1.38-4.22,1.64-2.38,1.72-4.69,.49-7.25-.82-1.72-1.82-3.76,1.09-4.9,3.07-.12,4.28,1.87,5.11,4.05,1.15,3.03,1.32,6.51,5.33,7.97,.45,.16,.33,1.64,.48,2.52-.55,1.09-1.49,1.61-2.78,1.61-1.37,.26-3.28-2.06-4.11,.77-10.4,20.38-9.35,41.15-2.72,62.17,1.44,4.54,3.77,8.79,4.9,13.42,.24,2.53-.04,5.06,.11,7.6,.19,1.51,.63,2.98,.77,4.51,.06,1.34-.04,2.65-1.06,3.72-.81,.42-1.63,.53-2.43-.03v-.02Z"/><path class="au" d="M81.34,323.45c-5.57,2.08-11.36,.53-17.04,.85-1.44,.08-1.9-.99-1.92-2.18-.2-10.53-.25-20.98,6.54-30.3,2.13-2.93,5.21-4.62,8.03-6.64,2.41-1.72,3.38-.67,3.35,1.94-.08,7.32-.02,14.63,0,21.94,0,.93,.09,1.83,.94,2.48,2.36,3.95,2.27,7.92,.1,11.9h0Z"/><path class="ac" d="M120.09,464.84c-2.2,3.81,.02,8.06-1.46,12.36-2.6-2.18-3.47-4.53-3.6-7.6-.29-7.34,1.29-14.56,1.11-21.86-.04-1.51,.91-3.55-1.87-4.03,.6-.55,1.21-1.09,1.81-1.64-1.2-1.34-1.68-2.86-1.49-4.6,.51-4.63-.29-9.28,.3-13.9,.96-.88,2.08-.9,3.28-.51,3.83,2.41,3.13,6.27,3.71,9.74-.37,7.78-.18,15.57-.17,23.36,0,5.85,.44,6.27,6.75,6.29,21.21,.05,42.42,0,63.63,.05,2.6,0,5.35-.46,7.59,1.38,.12,.26,.07,.49-.13,.69-.26,.15-.53,.26-.82,.33-10.18,.85-20.4,.34-30.59,.32-8.37-.02-16.76,.68-25.11-.42-7.64,.02-15.29,.05-22.93,.06h0Z"/><path class="aq" d="M81.34,323.45c-.03-3.97-.07-7.93-.1-11.9l.09-8.29c2.67,1.91,5.33,3.8,7.99,5.71-.63,1.06-1.59,2.14-.61,3.36,4.09,5.11,.62,9.01-2.34,13.01-1.79-.36-3.79-.27-5.03-1.89Z"/><path class="bk" d="M92.93,417.28l2.02-.36c3.01,.06,2.22,2.42,2.67,3.91,1.64,5.57,5.66,8.89,11.53,9.32,1.55-.08,2.94,.3,4.18,1.15,1.23,1.2,1.68,2.36-.24,3.38-2.59-.06-5.19-.13-7.77-.19-5.97-2.39-10.71-5.87-12.48-11.96-.51-1.75-1.17-3.51,.1-5.24v-.02Z"/><path class="s" d="M113.09,434.68c.57-.95,.72-1.92,.09-2.9-1.58-2.76-1.93-5.56-.23-8.39,.79-.37,1.53-.36,2.17,.26,1.98,3.92,.76,8.07,.99,12.12,.11,2.09,0,4.2-.03,6.3-5.92-.77-2.3-4.82-2.98-7.38h0Z"/><path class="ak" d="M259.92,303.33c1.85-.33,3.7-.65,5.55-.98-1.37,2.65-3.31,2.54-5.55,.98Z"/><path class="cd" d="M266.56,300.7c-.67-1.51-.36-2.86,.75-4.08,.35,1.45,.7,2.91-.75,4.08Z"/><path class="j" d="M385.78,116.97l.27,34.93c-4.9,.57-9.8,.31-14.7,.15-8.93-.05-17.88-.19-26.81-.09-3.27,.04-5.62-.77-6.16-3.92-.55-3.21,1.99-4.26,4.71-4.81,2.51-.5,3.88-1.83,4.98-3.93,2.46-4.68,5.68-8.65,12.19-8.6,2.15,.02,2.95-1.61,4.04-2.98,5.29-6.73,11.75-11.52,21.49-10.73h0Z"/><path class="m" d="M387.83,138.23v-19.34c1.63-.38,2.29,.34,2.52,.93,1.58,4.04,3.9,5.69,9.09,4.69,5-.97,7.2,3.05,8.11,6.93,.62,2.68,.09,5.7,5.68,5.05-.41,.58-.81,1.18-1.22,1.76h-24.16l-.02-.02h0Z"/><path class="c`" d="M387.96,139.83c.02-.26,.03-.5,.02-.76,8.31,0,16.63,.03,24.94,.04,0,.23,.02,.46,.04,.68l-25,.05Z"/><path class="bu" d="M367,195.83l1.11,1.03c-.49,.79-.85,2.32-2.07,1.49-.82-.57,.17-1.8,.96-2.52h0Z"/><path class="aa" d="M143.02,464.78c18.56,.04,37.13,.06,55.7,.1-.84,.98-2.03,.85-3.17,.85h-48.91c-1.29,0-2.68,.24-3.62-.94h0Z"/><path class="au" d="M255.58,414.31c2.06,2.14,2.82,4.86,3.87,7.45-3.11,7.79-6.12,15.52-12.19,22.05-9.43,10.15-21.23,12.4-34.77,10.4-2.15-.32-4.65-2.34-6.58,.51,.16-6.25-.55-12.42-1.91-18.53,3.58-2.22,7.88-1.44,11.8-2.27,13.76-2.92,25.76-8.63,36.11-17.41,1.09-.92,2.05-2.03,3.67-2.21h0Z"/><path class="bf" d="M199.67,463.85c-24.97,0-49.95-.05-74.91,.1-3.67,.02-4.88-.85-4.75-4.33,.3-7.76,.12-15.54,.12-23.31,0-1.52-.09-3.06,.77-4.45-.27-1.48,.94-2.2,1.9-2.97,5.28-4.21,7.54-9.41,4.93-15.49-2.71-6.3-8.39-9.56-15.55-10.58-2.61-.37-5.28-.04-7.92-.05-3.33-.33-6.95,1.05-9.93-1.39-3.99-8.55-6.9-17.4-8.54-26.57-3.12-17.53-2.27-34.63,7.22-50.67,1.4,.03,2.71,.8,4.15,.36,1.02-.33,2.04-.66,3.06-.98,1.47,1.5,3.4,.85,5.15,.91,10.55,.39,21.11-.61,31.66,.79,12.03,1.6,22.72,12.26,22.88,23.56,.15,10.21,.07,20.42,.1,30.63,1.46,2.2,1.45,4.64,1.45,7.11,0,11.47,.1,22.94-.06,34.41-.05,3.73,.91,6.59,4.82,8.14,1,1.37,1.88,2.82,3.54,3.7,9.11,4.89,17.35,11.12,27.08,15.06,1.76,.71,3,1.78,4.01,3.19-.23,4.29,.93,8.69-1.17,12.83h0Z"/><path class="aq" d="M166.97,430.75c-7.41-1.48-7.24-6.49-7.11-11.99,.3-13.11,.13-26.23,.16-39.35,3.51,1.99,5.71,4.78,7.14,8.42,3.4,8.67,5.24,9.65,15.35,9.07,4.63-.26,8.62,.33,12.11,3.8,7.17,7.11,12.48,7.59,21.72,2.53,5.39-2.96,10.58-6.24,15.99-9.16,7.54-4.06,15.43-6.3,24.06-2.83,2.06,.83,4.14,.94,6.2,.02,2.86-1.28,5.43-.89,7.81,.96-2.71,6.51-5.09,13.21-11.68,17.52-2.7-3.81-5.39-7.63-8.07-11.4,.73-1.71,2.08-.21,3.03-.68,.94-.47,1.66-.97,1.73-2.01,.07-1.06-.6-1.74-1.55-2.13-1.93-.78-4.05-.78-5.74,.22-2.8,1.65-5.42,3.42-8.92,3.66-1.18,.08-2.1,1.02-2.06,2.24,.04,1.3,1.21,2.13,2.34,1.83,10-2.59,11.03,5.55,14.78,10.4,.57,.73,.89,1.62,1.33,2.45-9.84,10.62-22.67,16.62-37.02,20.15-4.74,1.17-9.56,2.24-14.57,1.73-2.66-8.39-6.02-16.5-11.68-23.61-.92-1.16-1.57-2.12,.53-2.67,1.27-.34,2.16-.97,1.78-2.28-.42-1.46-1.81-1.85-3.15-1.6-3.82,.73-7.48,2.27-11.55,1.09-.92-.26-1.76,.69-1.86,1.74-.11,1.07,.58,1.89,1.55,2.1,14.05,3.06,14.53,15.05,19,24.41-.65,1.75-2.27,2.26-3.94,2.04-8.89-1.19-17.85-2.16-26.21-5.52-.6-.24-1.08-.68-1.49-1.16h0Z"/><path class="bc" d="M166.97,430.75c8.23,2.1,16.54,3.85,24.96,5.19,2.33,.37,4.55,.7,6.67-.57,1.49,5.13,2.65,10.29,2.25,15.64-11.21-4.58-21.14-11.18-31.42-17.21-1.2-.7-3.4-.86-2.45-3.07h0Z"/><path class="ap" d="M233.84,301.54c-1.46,.56-2.93,1.11-4.38,1.67,.69-2.27,2.37-2.34,4.38-1.67Z"/><path class="bj" d="M385.03,178.52c2.05,2.57,.54,5.48,.92,8.21-2.64,0-5.27,0-7.9,0,2.33-2.74,4.65-5.47,6.98-8.2Z"/><path class="av" d="M385.22,154.88c1.71,3.18,.46,6.53,.71,9.79-1.77,.17-3.55,.47-5.54-.34,1.63-3.18,3.22-6.32,4.83-9.45Z"/><path class="at" d="M385.21,167.71c1.66,2.83,.73,5.79,.55,8.71-1.62-.06-3.82,.77-4.7-.43-1.18-1.61,1.13-2.86,1.8-4.3,.64-1.38,1.56-2.66,2.35-3.99Z"/><path class="bm" d="M105.69,401.52c6.49-.61,12.38,.37,17.62,4.46,9.26,7.23,9.36,16.98-.07,24.16-.76,.58-1.56,1.14-2.33,1.71-1.63-2.6-.1-6.24-3.22-8.35-.98-1.14-.5-2.94-2.06-3.92-1.99,.68-.94,2.99-2.43,3.9,0,2.76,0,5.54-.02,8.3-1.36-.3-2.71-.6-4.07-.91-6.89-.73-12.24-8.26-10.76-15.12,.95-4.4,3.14-7.14,7.81-9.91-2.94,1.31-5.23,3.29-7.12,5.75-.85,1.1-1.46,3.03-3.73,1.81-.28-1.23-.57-2.45-.84-3.69,1.22-5.66,6.12-7.04,11.21-8.18h0Z"/><path class="bh" d="M95.32,413.39c1.45,.02,1.91-1,2.45-1.95,2.38-4.24,6.26-6.41,12.6-7.3-6.98,3.93-11.96,8.22-10.94,15.16,.76,5.22,3.49,9.82,9.68,11.56-5.35,1.13-11.83-4.01-12.87-10.25-.22-1.3,.3-2.81-1.29-3.7,.13-1.18,.25-2.35,.38-3.53h0Z"/><path class="be" d="M105.69,401.52c-4.45,1.91-8.55,4.22-11.21,8.19-.04-2.78-.09-5.57-.13-8.35,3.78,.05,7.57,.1,11.34,.16h0Z"/><path class="bg" d="M97.17,324.5c-1.53,1.24-2.91,1.14-4.14-.36,1.66-2.5,2.75,.38,4.14,.36Z"/><path class="bt" d="M113.2,423.48c.27-2.14-1.71-5.76,1.93-5.89,4.18-.16,2.36,3.63,2.56,5.91-.86,.05-1.72,.1-2.58,.16-.64-.05-1.28-.11-1.92-.17h0Z"/><path class="bc" d="M149,349.53c.05,5.06-4.49,9.41-9.89,9.46-5.12,.05-9.99-4.26-10.03-8.87-.04-5.45,4.29-9.52,10.24-9.63,5.16-.1,9.63,4.08,9.67,9.03h0Z"/></g></g></g></g></g></svg>