<?xml version="1.0" encoding="UTF-8"?><svg xmlns="http://www.w3.org/2000/svg" viewBox="0 0 414 797"><defs><style>.d{fill:#eaebe6;}.e{fill:#fafbfb;}.f{fill:#edc85d;}.g{fill:#82bea8;}</style></defs><g id="a"/><g id="b"><g id="c"><g><path class="d" d="M74.45,18.34c.46-.3,.88-.51,1.28-.68l10.94-5.79c-.17,0-.35,0-.32,0-.03,0,.14,0,.32,0,3.27-3.8,6.15-7.97,9.33-11.87H0V79c.81-1.36,1.68-2.69,2.6-3.98C13.11,46.56,51.26,37.78,74.45,18.34Z"/><path class="f" d="M86.8,0c-1.98,14.86-18.53,21.49-29.8,29C37.51,40.52,14.9,51.25,2.34,69.54c-.52,1.44-.98,2.91-1.34,4.46,.36-1.55,.82-3.03,1.34-4.46-.82,1.2-1.6,2.43-2.34,3.69v1.83c14.92,.93,29.66,.51,44.26-.95-14.37,.46-28.77,.9-43.26,.9,14.49,0,28.9-.44,43.26-.9,43.74-4.4,86.24-18.19,128.74-33.1,51-18,104-13,159-21,26.81-3.7,52.77-8.27,76.29-20H86.8Z"/><path class="e" d="M369,93c-74,2-147-11-222-20-34.51-4.23-68.52-3-102.74-1.9-14.6,1.47-29.34,1.89-44.26,.95V797H414V81.48c-5,1.08-10,2.02-15,4.52-9,5-20,7-30,7Z"/><path class="g" d="M408.29,0c-23.52,11.73-49.48,16.3-76.29,20-55,8-108,3-159,21-42.5,14.91-96.26,26.6-140,31,34.21-1.1,79.49-.23,114,4,75,9,148.28,26.7,222,20q11-1,30-7c5-2.5,10-3.44,15-4.52V0h-5.71Z"/></g></g></g></svg>