<?xml version="1.0" encoding="UTF-8"?><svg xmlns="http://www.w3.org/2000/svg" viewBox="0 0 768 800"><defs><style>.d{fill:#eaebe6;}.e{fill:#e47c78;}.f{fill:#edc85d;}.g{fill:#686664;}.h{fill:#322d2b;}.i{fill:#322d2c;}.j{fill:#302d2b;}.k{fill:#332d2c;}.l{fill:#494746;}.m{fill:#555352;}.n{fill:#484645;}.o{fill:#302c2b;}.p{fill:#4c4948;}.q{fill:#82bea8;}.r{fill:#4b4847;}.s{fill:#4b4948;}.t{fill:#504d4c;}.u{fill:#504e4c;}.v{fill:#4e4b4a;}</style></defs><g id="a"/><g id="b"><g id="c"><g><g><path class="f" d="M628.87,526c48.56-2.62,92.88-18.18,139.13-29.41V140.01c-12.46,3.1-17.37,10.59-22.26,14.99-122.43,96-341.33,104-532.41,86C126.34,233.46,58.86,206.29,0,172.98v391.32c50.17-15.05,110.59-20.63,166.96-27.3,157.68-17,307.94-2,461.91-11Z"/><path class="q" d="M628.87,526c-153.97,9-304.23-6-461.91,11-56.36,6.67-116.79,12.25-166.96,27.3v235.7H768V496.59c-46.25,11.23-90.57,26.79-139.13,29.41Z"/><path class="d" d="M0,0V172.98c58.86,33.3,126.34,60.48,213.33,68.02,191.07,18,409.97,10,532.41-86,22.26-15,0,0,22.26-14.99V0H0Z"/></g><g><path class="f" d="M229.39,83.68c11.23-24.52,41.13-30.78,60.19-12.34,6.63,6.41,14.05,6.8,19.51,3.23,1.26-.82,2.4-1.89,3.52-2.93,20.51-19.17,49.74-12.56,61.02,13.81,.22,1.85-.68,3.15-1.79,4.44-2.87,3.35-6.54,5.66-9.78,8.52-6.07,5.36-11.08,11.69-15.72,18.39-4.69,6.77-9.48,13.5-16.01,18.44-11.26,8.5-23.79,11.12-37.39,8.71-11.99-2.13-21.62-8.38-29.67-17.87-5.03-5.94-9.4-12.35-13.05-19.25-3.14-5.94-7.11-9.88-13.98-9.19-.85-.35-1.62-.9-2.56-1.01-3.57-1.5-5.69-5.83-4.89-9.97,.19-.99,.73-1.91,.6-2.97Z"/><path class="q" d="M236.15,97.14c6.26-.86,10.5,1.8,13.61,7.66,4.35,8.19,9.36,16,15.61,22.74,7.5,8.08,16.34,13.59,27.11,15.57,14.4,2.65,27.47-.26,39.05-9.72,5.47-4.47,9.69-10.27,13.68-16.19,6.39-9.47,13.75-17.87,22.8-24.59,2.45-1.82,4.67-3.98,5.62-7.18,1.55,3.31,1.87,7,2.85,10.48-1.39,2.39-3.85,2.67-6.07,3.33-1.24,.37-1.77-.9-2.4-2.05-1.8,2.68-1.71,5.12-.59,8.12,.92-1.54-.01-3.52,1.49-4.04,2.44-.83,4.78-2.22,7.48-1.97,.36,11.51-3.48,21.31-11.03,29.49-6.03,6.53-12.2,12.92-18.29,19.38-.62,.65-1.18,1.36-1.76,2.04-2.08,1.38-4.45,.83-6.66,.88-1.85,.05-.25-1.99-.89-2.89-2,2.13-2.55,4.03-1.9,6.82,1.8-1.94,3.65-3.69,6.34-1.94-6.43,6.99-12.39,14.56-20.92,18.94-17.21,8.83-36.11,5.96-50.23-7.7-3.69-3.57-7.09-7.48-10.62-11.24,2.46-1.12,3.65-.84,6.51,1.66,.66-2.65-.09-4.68-2.13-7.06,.66,3.69-.98,3.86-3.17,3.34-1.41-.34-3.02,.42-4.29-.81-6.62-7.06-13.18-14.18-19.87-21.16-8-8.35-11.99-18.37-11.8-30.25,2.74,.17,5.15,1.57,7.73,2.31,1.75,.51,1.02,2.5,1.47,4.43,1.32-1.8,1.1-3.4,1.13-4.95,.02-1.16-.7-2.36,.16-3.48Z"/><path class="o" d="M376.39,99.32c-1.65,.59-3.27,1.28-4.95,1.75-1.83,.52-3.71,.77-2.6,3.65,.3,.78-.33,1.47-1.1,1.57-.64,.08-1.1-.38-1.31-1.1-.81-2.77-.76-5.46,.48-8.08,.3-.63,.71-1.1,1.42-.99,.64,.11,.77,.68,.77,1.27,0,1.97,1.16,1.49,2.14,1.06,1.77-.78,3.5-1.67,5.25-2.51,7.57-5.23,10.89-12.84,11.06-22.17,.02-1.19-.25-2.4-.5-3.57-.41-1.94-1.28-2.88-3.49-2.67-3.98,.38-4.98-1.39-3.88-5.38,.49-1.77-.69-3.81,.49-5.65,.27-.42,.31-1.05,.78-1.37,1.7-1.15,5.85-1.09,7.01,.11,2.3,2.36,2.97,6.11,1.16,8.61-1.12,1.54-.83,2.49-.21,4.13,2.52,6.61,.94,12.97-1.69,19.12-2.29,5.36-6.2,9.16-10.82,12.24Z"/><path class="j" d="M236.15,97.14c.38,2.45,.99,4.89,.23,7.38-.28,.9-.5,1.99-1.64,1.71-1.03-.25-1.2-1.16-.84-2.22,.54-1.59-.04-2.31-1.64-2.6-2.33-.42-4.53-1.35-6.6-2.59-7.95-5.25-12.17-12.88-13.04-22.68-.28-3.12,.03-6.15,1.42-8.94,.56-1.13,.61-1.8-.18-2.9-1.99-2.77-1.66-6.4,.65-8.88,1.23-1.32,2.63-2.33,4.3-.61,.27,.27,.52,.52,.9,.35,.86-.37,1.86-.67,2.36,.32,.6,1.18,1.39,2.69,1.14,3.81-.36,1.6-.19,2.85,.23,4.36,.6,2.18-.91,3.77-3.28,3.93-4.05,.27-5.01,1.06-5.03,5.55-.04,9.29,3.07,17.05,10.57,22.43,1.38-.02,2.56,.7,3.68,1.36,1.88,1.09,3.39,.96,4.7-.88,1-.31,1.5,.47,2.07,1.09Z"/><path class="o" d="M257.33,150.24c2.27,.12,4.56-.25,6.75,.51,.13-.23,.28-.38,.28-.51-.06-1.08-1.62-2.38-.06-3.15,1.58-.78,1.99,1.11,2.55,2.13,.95,1.71,1.26,3.65,1.11,5.65-.05,.6-.25,1.12-.79,1.34-.45,.19-.97-.02-1.11-.48-.94-3.19-3.43-2.55-5.65-2.62-6.75-.48-11.72,3.06-15.94,8.08-2.81,3.33-5.01,7.1-6.27,11.41-1.71,4.26-2.36,8.71-1.9,13.3,.28,2.74-.17,5.04-2.78,6.26-2.68,1.26-7.28,.72-8.79-1.01-1.49-1.72-.68-3.14,.48-4.65,.95-1.23,2.98-1.33,3.1-3.38-.09-.5,.23-.63,.59-.72,.82,.03,1.64,.09,2.41-.28,1.52-.42,1.97-1.58,2.08-3.1,.17-2.49,.89-4.86,1.55-7.23,.27-.98,.7-1.88,1.57-2.44,2.22-5.01,5.12-9.49,9.09-13.16,3.39-3.14,7.34-4.99,11.72-5.94Z"/><path class="q" d="M234.09,96.05c-.52,3.08-2.09,3-4.29,1.76-1.35-.76-2.85-1.24-4.09-2.24,1.18-3.98,1.69-8.19,3.69-11.89,.75,1.63-.26,3.21-.12,4.86,.32,3.8,1.86,6.42,4.81,7.51Z"/><path class="t" d="M212.34,129.57c-1.99-3.11-3.01-6.5-2.47-10.35,.81,3.3,1.52,6.63,3.12,9.62,.15,.61-.11,.81-.65,.73Z"/><path class="s" d="M296.74,52.34c-1.16-3.71-1.73-7.49-1.89-11.59,1.44,1.01,1.44,2.43,1.29,3.6-.19,1.46,.64,2.64,.57,4.02-.07,1.3-.5,2.63,.04,3.97Z"/><path class="l" d="M312.15,51.8c.16-2.79,1.11-5.35,2.1-8.06,.72,1.52-.08,4.82-2.1,8.06Z"/><path class="u" d="M217.71,116.57c1.04,2.47,2.07,4.93,3.11,7.4-.19,.25-.24,.63-.61,.72-1.5-2.26-2.24-4.87-3.06-7.44,.19-.22,.23-.57,.55-.68Z"/><path class="m" d="M281.61,52.75c-1.12-1.61-1.73-3.35-1.46-5.33,1.17,1.57,1.74,3.32,1.46,5.33Z"/><path class="p" d="M217.71,116.57l-.55,.68c-.2-2.04-1.07-4-.52-6.14,1.04,1.66,1.22,3.52,1.07,5.46Z"/><path class="v" d="M221.96,126.05c.98,1.6,2.42,2.96,2.55,5.03-1.34-1.24-2.41-2.65-3.17-4.31,.06-.38,.26-.62,.62-.72Z"/><path class="r" d="M221.96,126.05l-.62,.72-1.12-2.08,.61-.72,1.14,2.08Z"/><path class="n" d="M330.76,47.85c.1,.36,.24,.59,.18,.69-.47,.81-.76,1.77-1.62,2.25-.08,.05-.43-.2-.42-.23,.33-1.08,.68-2.17,1.86-2.7Z"/><path class="g" d="M212.34,129.57l.65-.73c.49,.49,1.15,1.17,.45,1.71-.64,.49-.9-.41-1.1-.98Z"/><path class="e" d="M276.67,122.86c-4.25,.01-7.09-2.41-7.14-6.08-.04-3.17,3.41-6.26,6.94-6.22,3.57,.05,6.8,3.05,6.82,6.35,.02,3.41-2.79,5.94-6.62,5.95Z"/><path class="e" d="M326.21,122.86c-3.91-.05-6.87-2.66-6.91-6.08-.04-3.16,3.44-6.26,6.95-6.21,3.78,.06,6.9,3.07,6.81,6.59-.08,3.34-2.98,5.76-6.85,5.71Z"/><path class="h" d="M306.18,114.95c-2.67-2.42-5.84-1.16-9.17-.23-1.74,.48-3.59-.64-4.95-2.11-.57-.62-.96-1.37-.34-2.23,.59-.82,1.4-.94,2.07-.33,2.42,2.16,4.58,1.81,6.72-.47,1.11-1.18,2.15-.66,3.21,.33,2.51,2.34,3.35,2.32,5.82,.03,.76-.71,1.5-1.5,2.46-.48,.88,.94,.37,1.89-.28,2.72-1.3,1.66-2.97,2.56-5.55,2.77Z"/><path class="i" d="M285.68,100.45c1.97,.02,3.73,1.89,3.73,3.93,0,2.07-1.77,3.89-3.75,3.89-1.96,0-3.74-1.87-3.73-3.92,0-2.04,1.82-3.92,3.76-3.9Z"/><path class="k" d="M320.75,104.46c-.06,2.04-1.86,3.84-3.83,3.82-2.03-.03-3.6-1.79-3.56-3.99,.04-2.18,1.72-3.9,3.73-3.82,1.95,.07,3.72,2.01,3.66,4Z"/><path class="o" d="M345.42,150.74c-2.26,.12-4.55-.25-6.72,.51-.13-.23-.28-.38-.28-.51,.06-1.08,1.61-2.38,.06-3.15-1.57-.78-1.98,1.11-2.54,2.13-.95,1.71-1.26,3.65-1.11,5.65,.04,.6,.25,1.12,.79,1.34,.45,.19,.97-.02,1.11-.48,.94-3.19,3.42-2.55,5.62-2.62,6.72-.48,11.67,3.06,15.87,8.08,2.79,3.33,4.99,7.1,6.25,11.41,1.7,4.26,2.35,8.71,1.89,13.3-.28,2.74,.17,5.04,2.77,6.26,2.67,1.26,7.25,.72,8.75-1.01,1.48-1.72,.68-3.14-.48-4.65-.94-1.23-2.97-1.33-3.09-3.38,.09-.5-.23-.63-.59-.72-.81,.03-1.63,.09-2.4-.28-1.51-.42-1.96-1.58-2.07-3.1-.17-2.49-.88-4.86-1.54-7.23-.27-.98-.7-1.88-1.57-2.44-2.21-5.01-5.1-9.49-9.05-13.16-3.37-3.14-7.31-4.99-11.67-5.94Z"/></g></g></g></g></svg>