<?xml version="1.0" encoding="UTF-8"?><svg xmlns="http://www.w3.org/2000/svg" viewBox="0 0 768 175"><defs><style>.d{fill:#eaebe6;}.e{fill:#edc85d;}.f{fill:#82bea8;}</style></defs><g id="a"/><g id="b"><g id="c"><path class="d" d="M138.11,33.36c.86-.55,1.64-.93,2.38-1.24l20.29-10.54c-.32,0-.64,0-.59,0-.06,0,.27,0,.59,0,6.06-6.92,11.42-14.5,17.31-21.59H0V143.7c1.51-2.48,3.12-4.89,4.82-7.24C24.32,84.69,95.1,68.72,138.11,33.36Z"/><path class="e" d="M161.02,0c-3.67,27.02-34.38,39.09-55.29,52.75C69.59,73.7,27.63,93.23,4.33,126.49c-.96,2.61-1.81,5.3-2.48,8.12,.67-2.82,1.52-5.5,2.48-8.12-1.53,2.18-2.98,4.41-4.33,6.71v3.32c27.69,1.7,55.03,.93,82.11-1.73-26.65,.84-53.38,1.63-80.26,1.63,26.88,0,53.6-.8,80.26-1.63,81.14-8,159.98-33.09,238.81-60.21,94.61-32.74,192.93-23.65,294.96-38.2,49.74-6.73,97.89-15.04,141.53-36.38H161.02Z"/><path class="f" d="M757.41,0c-43.64,21.34-91.78,29.65-141.53,36.38-102.03,14.55-200.35,5.46-294.96,38.2-78.84,27.12-157.67,52.22-238.81,60.21,63.47-2,126.57-4.23,190.58,3.45,139.13,16.37,274.55,40.02,411.83,36.38,18.55,0,54.78-2.53,71.48-11.63,9.28-4.55,8-4,12-9.33V0h-10.59Z"/></g></g></svg>