<?xml version="1.0" encoding="UTF-8"?><svg xmlns="http://www.w3.org/2000/svg" viewBox="0 0 414 800"><defs><style>.d{fill:#eaebe6;}.e{fill:#edc85d;}.f{fill:#82bea8;}</style></defs><g id="a"/><g id="b"><g id="c"><path class="d" d="M65,66C106.7,60.88,185.85,32.01,211,0H0V61.3c35.19,8.98,29.19,9.08,65,4.7Z"/><path class="f" d="M133,0c-25.15,32.01-43.02,57.25-85,59-48,2,0,0-48,2.3v125.57c14.78-11.03,29.99-21.75,46-32.87,91-64,199-31,302-47,25.68-3.98,47.04-15.03,66-29.57V0H133Z"/><path class="e" d="M54,124c-17.39,8.79-39.22,25.97-54,37V800H414V0c-18.96,14.54-75,50-179,51s-92,28-181,73Z"/></g></g></svg>